<?xml version="1.0" encoding="UTF-8"?>
<svg id="Layer" xmlns="http://www.w3.org/2000/svg" viewBox="0 0 420 502.21">
  <defs>
    <style>
      .cls-1, .cls-2, .cls-3, .cls-4 {
        stroke-width: 0px;
      }

      .cls-2 {
        fill: #ffb612;
      }

      .cls-3 {
        fill: #97233f;
      }

      .cls-4 {
        fill: #fffffe;
      }
    </style>
  </defs>
  <path class="cls-4" d="m419.3,320.33c-31.26-6.58-93.27-.17-128.64,74.68,0,0-60.48-72.23-144.52-84.92,3.3-40.19-49.93-50.87-60.11-120.01,0,0-41.35-33.87-62.02-87.2l11.01,3.54s-16.08-17.81-28.44-48.51l11.64,3.84S6.44,45.79,0,0c142.65,98.15,217.79,63.9,304.56,113.01,58.89,33.37,72.91,72.11,77.84,110.78,0,0,43.59,39.51,36.9,96.53"/>
  <path class="cls-1" d="m413.35,311.97c.93-48.54-37.17-83.02-37.17-83.02-4.11-30.69-15.26-75.07-74.65-107.84C211.35,71.39,161.46,112,19.3,24.88c2.96,16.29,12.33,38.83,24.26,52.83l-14.7-4.82c10.69,22.53,27.8,42.97,36.76,49.6l-16.48-5.18c17.45,42.85,51.55,68.23,51.55,68.23,7.77,65.6,55.87,76.78,59.75,117.13,62.66,9.72,128.89,76.85,128.89,76.85,34.68-59.64,83.03-71.2,124.01-67.55"/>
  <path class="cls-4" d="m333.1,227.54c-13.63,21.94-36.66,15.83-44.88-11.53l16.61,1.01c-14.56-8.72-27.79-21.54-38.02-34.18-3.01,60.45,53.85,87.58,72.65,45.13-2.13-.02-4.25-.16-6.37-.42"/>
  <path class="cls-3" d="m293.99,129.33c-65.33-35.82-145.17-12.56-247.19-75.8,10.11,30.22,73.25,65.61,73.25,65.61l-55.88-18.18c14.23,24.71,72.48,55.67,72.48,55.67l-52.11-16.85c21.58,35.87,70.55,60.07,70.55,60.07l-30.09-2.18c3.89,33.72,50.46,62.76,52.94,88.79,21.06,8.05,48.21,22.1,69.37,40.3,40.45-19.89,29.29-87.2-47.83-182.68,106.08,6.41,103.15,85.1,164.03,73.78-4.46-21.14-7.34-54.41-69.52-88.53"/>
  <path class="cls-2" d="m405.73,299.45c-14.85-14.79-46.05-29.89-83.99-34.44,16.16-4.49,34.56-14.41,42.1-29.84,16.08,10.18,38.48,39.3,41.89,64.27h0Zm-81.2,20.63c6.25-21.3-5.12-40.63-5.12-40.63,33.25-3.26,69.94,12.18,84.79,24.75-23.22-4.69-55,2.02-79.67,15.88h0Z"/>
  <path class="cls-4" d="m333.1,227.54c-13.63,21.94-36.66,15.83-44.88-11.53l16.61,1.01c-14.56-8.72-27.79-21.54-38.02-34.18-3.01,60.45,53.85,87.58,72.65,45.13-2.13-.02-4.25-.16-6.37-.42"/>
</svg>