<?xml version="1.0" encoding="UTF-8"?>
<svg id="Layer" xmlns="http://www.w3.org/2000/svg" viewBox="0 0 399.81 494.51">
  <defs>
    <style>
      .cls-1 {
        fill: #a71930;
      }

      .cls-1, .cls-2, .cls-3, .cls-4 {
        stroke-width: 0px;
      }

      .cls-3 {
        fill: #fffffe;
      }

      .cls-4 {
        fill: #a5acaf;
      }
    </style>
  </defs>
  <path class="cls-4" d="m375,81.43C321.15,47.42,197.8,21.4,105.79,0L0,113.77l90.81-1.94c-45.21,73.09-36,244.95,78.34,267.8-5.89-11.29-16.11-32.03-2.86-57.71,9.44-18.26,61.89-118.66,61.89-118.66h12.56c17.01,0,22.6,6.4,15.06,15.41,45.33-.58,73.16-17.73,85.65-36.05-9.51-17.41-39.76-37.9-52.02-46.2h63.42c18.19,0,22.29,7.62,18.01,15.92,29.68-5.84,44.85-45.2,4.14-70.91"/>
  <path class="cls-3" d="m367.76,84.9C294.41,43.74,112.79,16.3,112.79,16.3L34.99,99.68h80.66c-59.56,78.73-46.36,237.67,41.22,270.71-6.21-14.78-9.36-31.93,1.84-53.76,12.63-24.61,32.74-65.98,61.55-121.22h23.51c19.51,0,25.75,8.25,23.1,14.62,16.05,0,45.38-1.57,66.67-27.42-17.73-24.79-76.37-53.69-76.37-53.69h100.59c14.78,0,22.17,5.26,20.13,14.17,25.7-12.55,19.02-41.85-10.14-58.21"/>
  <path class="cls-2" d="m248.7,131.64s64.83,31.74,77.43,50.98c-6.64,8.84-16.79,15.03-30.39,18.13,8.69-6.67,10.33-13.09,4.99-13.09h-19.22c-3.28,3.23-5.03,9.07-.63,14.95-7.43-1.63-14.58-7.74-15.14-14.95h-40.69c5.43-10.88,21.11-41.96,25.49-50.52l-1.85-5.5h0Zm116-41.21c28.39,15.58,26.51,37.05,18.12,44.14.15-7.66-7.38-13.37-20.96-13.37h-132.63l14.26,7.64s-85.36,170.05-91.91,183.47c-7.56,15.51-9.64,32.92-3.12,47.42-16.89-10.71-30.15-27.95-39.48-48.96l-7.58-.52,80.51-118.2c-.17-.76-.32-1.53-.45-2.29l-81.29,95.88c-4.16-15.46-6.56-32.13-7.08-49.23l-9.21-2.31,99.86-78.84c.25-.84.51-1.67.78-2.5l-90.55,54.99c1.37-15.17,4.22-30.33,8.62-44.96l-9.37-5.31,106.58-35.54c.48-.73.96-1.45,1.45-2.16l-89.46,18.29c4.83-10.77,10.59-21.05,17.35-30.58l-8.29-7.82h106.99c.3-.6.59-1.19.89-1.76l-159.29-12.19,45.29-48.79-7.08-9.02s195.37,28.64,257.05,62.5h0Z"/>
  <path class="cls-3" d="m371.72,102.66l1.7,7.54c-11.61,2.18-32.15,3.92-37.95,4.39-.28.58-.58,1.16-.88,1.75h30.57c12.13,0,17.24,5.76,18.32,9.06,1.59-4.53.12-16.67-11.76-22.74Zm-34-14.9c6.78,2.26,22.04,10.78,27.81,17.44h-10.96c-4.32-7.11-16.85-17.44-16.85-17.44h0Z"/>
  <path class="cls-1" d="m108.4,181.95l65.15-35.6c.35-.88.72-1.77,1.1-2.65l-62.7,22.54c-1.39,5.17-2.57,10.42-3.55,15.71h0Zm29.13-70.6c-2.87,3.94-5.54,8.04-8.02,12.27l63.73-11.39c.56-.73,1.12-1.47,1.69-2.18l-57.4,1.31h0Zm40.43,117.26c-.42-.76-.84-1.53-1.24-2.29l-52.91,79.82c2.78,5.26,5.85,10.18,9.18,14.7l44.96-92.22Zm-70.67,25.33l58.81-65.64c-.05-.94-.08-1.87-.1-2.81l-60.62,51.56c.41,5.71,1.05,11.36,1.9,16.89h0Zm183.15-75.15l-46.17-6.9-4.68,9.07h49.77l1.09-2.18h0Zm31.89-82.6l-211.4-29.27,12.93-14.01c71.21,11.01,156.37,28.42,199.61,41.02-.37.74-.75,1.5-1.14,2.27h0Z"/>
</svg>