<?xml version="1.0" encoding="UTF-8"?>
<svg id="Layer" xmlns="http://www.w3.org/2000/svg" viewBox="0 0 420 405.97">
  <defs>
    <style>
      .cls-1 {
        fill: #c60c30;
      }

      .cls-1, .cls-2, .cls-3, .cls-4, .cls-5 {
        stroke-width: 0px;
      }

      .cls-3 {
        fill: #241773;
      }

      .cls-4 {
        fill: #9e7c0c;
      }

      .cls-5 {
        fill: #fffffe;
      }
    </style>
  </defs>
  <path class="cls-5" d="m419.49,124.62c-1.7-10.34-8.52-25.53-31.4-39.2-1.55-.92-3.17-1.82-4.84-2.71,4.28-1.44,8.7-2.92,8.7-2.92l-25.36-9.88c-2.17-.85-4.45-1.61-6.75-2.35l3.44-3.49-19.44-2.72c-8.4-1.18-15.03-1.45-20.11-1.37-.05-.82-.11-1.57-.2-2.25,0,0-3.25-24.33-3.25-24.33,0,0-7.52,10.26-8.27,11.28-1.6-2.66-3.41-5.16-5.49-7.52,0,0-20.97-23.69-20.97-23.69,0,0,.84,6.97,1.51,12.53-6.8-4.74-14.28-8.97-22.55-12.51C230.77-.96,188.1-3.96,147.44,5.25c-34.01,7.71-83.12,27.79-123.9,79.73L0,114.95l35.43-14.1c.28-.11,27.63-10.77,49.69-13.87,8.23-1.16,14.52-1.25,9.41,10-4.03,8.88-13.18,21.85-13.28,21.98l-17.74,25.78,29.6-10.26c14.24-4.95,27.01-7.38,33.47-7.61,2.31.04,2.73,1.56,2,3.22-.21.57-.33.87-1.93,3.33l-18.56,26.46,30.44-10.89c22.09-7.92,51.13-13.13,61.52-9.16.85.32,3.59,1.78.87,5.76l-11.96,19s17.65-2.68,20.16-3.06c1.39,17.35,10.1,26.81,11.17,27.9l12.82,13.14,4.5-17.79c3.23-12.8,9.32-19.78,14.76-23.58,0,0,1.04,7.31,1.04,7.31l11.89-4.28c9.99-3.61,17.9-7.94,23.6-12.89,7.53-.6,25.94-1.69,43.62.06,30.47,3.01,50.91-1.04,56.45-2.35,7.41-1.75,13.66,1.41,13.72,1.45l9.06,4.92,4.89-9.16c.58-1.1,3.34-6.82,3.34-15.3,0-2.1-.17-4.22-.52-6.31"/>
  <path class="cls-4" d="m415.24,126.38c-1.51-9.16-7.71-22.7-28.76-35.28-5.63-3.35-11.74-6.21-17.93-8.65l7.45-2.5-10.24-3.99c-5.07-1.98-10.4-3.61-15.89-4.93,1.06-1.07,2.2-2.23,2.2-2.23l-7.84-1.1c-12.08-1.69-20.42-1.49-25.33-1.04.05-1.06.08-2.17.08-3.3,0-1.58-.06-3.13-.23-4.39l-1.32-9.82s-4.77,6.51-5.46,7.45c-1.58-4.38-4.16-9.8-8.89-15.15l-8.48-9.58.96,7.99c-7.62-7.07-18.16-14.5-32.62-20.7-32.79-14.05-74.36-16.95-114.04-7.96-33.25,7.53-81.28,27.19-121.2,78.03l-10.06,12.82,15.15-6.03c.28-.11,28.46-11.26,51.36-14.32,8.98-1.19,15.18-.13,17.45,3,2.12,2.93,1.44,8.73-1.85,15.53-4.5,9.33-13.71,22.72-13.8,22.87l-7.59,11.02,12.65-4.38c16.67-5.79,37.69-10.07,42.57-6.89,1.13.74,1.73,1.6,1.97,2.82.78,4.05-2.71,10.18-3.99,12.02l-7.94,11.3,13.02-4.65c20.8-7.45,58.1-16,69.62-7.17,5.33,4.09.35,12.16.13,12.5l-5.12,8.14,9.5-1.45,4.65-.72c-.03.74-.08,1.5-.08,2.21,0,18.37,9.3,28.14,9.75,28.6l5.49,5.62,1.93-7.62c5.4-21.38,18.18-28.78,25.3-31.29.2,1.42,1.19,8.34,1.19,8.34l5.08-1.83c12.46-4.49,19.44-9.43,23.28-13.13,5.73-.5,26.74-2.09,46.91-.1,29.7,2.94,49.45-.96,54.79-2.23,9.85-2.33,17.85,1.93,17.94,1.97l3.91,2.13,2.1-3.93c.13-.25,2.66-5.16,2.66-12.6,0-1.67-.13-3.47-.44-5.38"/>
  <path class="cls-2" d="m383.87,95.54c-8.79-6.21-20.62-10.72-32.1-13.95,4.78-1.54,9.57-1.44,9.57-1.44-7.36-2.81-15.04-4.57-22.19-5.67l2.67-2.4c-13.09-2.23-22.22-2.06-27.64-1.49.68-2.68,1.24-6.77.54-12.23,0,0-1.59,4.71-5.44,7.63-.51-6.11-2.46-14.95-9.1-20.95l1.23,10.79c-5.85-8.8-16.98-20.06-38.03-29.89C206.16-.79,105.33,9.34,49.99,80.74c0,0,21.52-10.74,51.34-11.46,15.62-.37,19.42,8.37,13.73,23.1-5.72,14.8-15.76,27.79-15.76,27.79,0,0,67.48-23.88,46.17,9.3,0,0,50.94-15.24,66.22,2.64,7.1,8.29-1.17,19.89-1.17,19.89l14.45-3.12c-4.69,18.33,3.52,30.04,3.52,30.04,5.96-23.97,26.76-30.35,34.12-31.56l1.59,6.49c12.34-4.46,18.14-9.2,21.45-13.1,26.12-4.1,43.86-.6,64,.5,29.33,1.6,44.5-3.5,49.34-3.47,3.56.03,7.77,3.13,7.77,3.13,0,0,12.19-20.56-22.9-45.37"/>
  <path class="cls-5" d="m359.79,134.53c-20.31.1-38.41-5.07-62.94-2.04l-8.22-6.59c-2.22,5.69-5.26,9.56-5.26,9.56,2.71-4.84-.06-10.6-1.21-13.41-10.11-5.37-26.65-15.64-12.6-18.99-8.75-1.3-35.41-3.93-68.81,5.59,0,0,30.88-20.6,90.26-10.92-16.04-9.57-51.2-9.17-51.2-9.17,32.04-8,70.7,4.65,85.06,9.34l-13.38-9.66,16.9,1.46-9.08-7.31s35.95,2.55,59.35,18.13c27.35,16,24,32.81,24,32.81-6.42-13.42-53.89-22.59-108.74-29.07-14.65-1.72-20.83-.76-20.22,2.65.59,3.21,9.04,9.56,17.51,12.89-6.06-5.81-.79-7.29-.79-7.29,9.63-.79,71.77,5.03,103.51,18.61-8.6,2.01-19.53,3.32-34.14,3.4h0Zm-181.7-32.74c-.31.2-.63.41-.94.61-.34.24-.69.48-1.03.71l-.5.34c-1.49.08-2.96.13-4.39.13l-13.16.76c-7.81.4-21,1.98-25.39,2.54l-1.48.18c10.22-35.74,19.45-48.27,25.63-54.39,3.67-4.48,10.17-7.51,15.38-9.28-34.99,1.67-69.01,8.86-69.01,8.86,22-17.06,73.02-28.97,102.42-25.98,29.4,3,27.4,14.91,24.38,21.71-2.45,5.49-14.46,12.94-25.76,15.34,11.69,1.52,18.32,10.54,14.13,19.54-.36.77-.78,1.52-1.22,2.24-12.48,2.96-23.56,7.66-32.65,12.78-.32.19-.63.37-.95.55-.42.25-.85.49-1.27.74l-.97.57c-.39.24-.78.48-1.17.72-.32.2-1.7,1.08-2.06,1.32h0Z"/>
  <path class="cls-3" d="m247.49,28.22c63.54,18.94,53.92,55.35,53.92,55.35,0,0-5.13.32-11.18-10.98-5.71-10.67-14.15-12.03-14.15-12.03,0,0,6.23-.57,14.99,3.24,0,0-12.3-18.43-47.42-17.01,0,0,17.71,2.18,25.22,12.07,0,0-23.86-3.75-45.32,7.34,0,0,19.14-3.16,33.82,6.72,0,0-22.01-1.65-34.09,10.88,10.75-1.98,22.41-2.63,34.62-1.18,7.99,1.21,14.79,2.83,19.79,4.22-12.44-1.37-25.63-1.33-37.87,1.72,0,0,35.16-.39,51.2,9.17-59.38-9.68-90.26,10.92-90.26,10.92,33.4-9.53,60.06-6.9,68.81-5.59-14.05,3.35,2.49,13.62,12.6,18.99,1.15,2.82,3.92,8.57,1.21,13.41-6.64,9.1-14.06,10.95-14.06,10.95,4.39-11.1-.97-19.02-.97-19.02,0,0-3.72,11.43-19.83,18.16-17.67,7.39-20.41,18.16-20.41,18.16,0,0-.64-9.85,8.69-20.21,3-3.34,5.2-6.12,6.6-8.55l-19.75,5.41c13.25-38.47-63.23-23-63.23-23,2.81-3.98,8.24-9.12,15.71-14.25.34-.23.69-.47,1.03-.71.31-.21.63-.42.94-.61.36-.24.73-.48,1.1-.71l.97-.61c.38-.24.77-.48,1.17-.72l.97-.57c.42-.25.85-.5,1.27-.74.32-.18.63-.36.95-.55,9.09-5.13,20.17-9.82,32.65-12.78.44-.72.86-1.47,1.22-2.24,4.19-9-2.43-18.02-14.13-19.54,11.3-2.4,23.31-9.85,25.76-15.34,3.02-6.8,5.03-18.71-24.38-21.71-29.41-3-80.42,8.92-102.42,25.98,0,0,34.02-7.19,69.01-8.86-5.21,1.77-11.7,4.8-15.38,9.28-6.18,6.13-15.41,18.65-25.63,54.39l1.48-.18-13.09,2.05s20.01-31.97,6.8-45.56c-11.36-11.69-49.21.21-49.21.21C114.8,27.59,182.55,8.87,247.49,28.22h0Zm-66.64,64.09c-1.99.5-3.91.68-5.53.68h-7.52s3.02-9.4,7.87-19.66h2.95c7,0,10.89,3.93,6.53,13.32-1.12,2.39-2.61,4.24-4.29,5.66h0Zm13.05-32.45c-2.12.63-4.48.99-6.99.99h-5.27c3.26-7.51,5.87-12.09,7.68-14.82,6.87.06,9.66,3.48,6.02,11.28-.45.99-.94,1.83-1.44,2.55h0Z"/>
  <path class="cls-2" d="m195.34,57.31c-.45.99-.94,1.83-1.44,2.55,4.21-1.25,7.47-3.58,9.07-6.35,3.52-6.14.82-10.55-4.86-11.15l-5.9.02s-1.02.84-2.89,3.66c6.87.06,9.66,3.48,6.02,11.28m-10.19,29.34c-1.12,2.39-2.61,4.24-4.29,5.66,4.45-1.1,9.27-3.76,11.92-9.46,4.37-9.39.48-13.32-6.52-13.32h-8.7c-.65,1.27-1.28,2.54-1.87,3.8h2.95c7,0,10.89,3.93,6.53,13.32"/>
  <path class="cls-4" d="m227.32,38.56c-2.75-4.51-9.46-7.18-21.38-7.78,0,0-12.06-1.64-27.33.41-6.04.81-35.41,3.79-60.41,15.99,21.87-5.32,47.71-7.27,64.07-7.86,6.88-.24,14.44-.03,14.44-.03,4.89,0,9.43,1.45,11.17,4.3,1.8,2.95,2.3,6.49-1.09,10.81-1.87,2.38-4.06,4.89-10.42,7.48l7.33-1.56c10.96-2.34,20.91-8.49,23.19-13.26,1.67-3.48,1.76-6.27.42-8.48"/>
  <path class="cls-4" d="m174.28,66.48h12.07c6.23,0,9.1,2.55,10.41,4.7,2.06,3.37,1.69,7.9-.86,13.59-4.92,10.96-16.82,11.95-20.4,11.95l-13.7.52c5.94-18.82,12.47-30.75,12.47-30.75h0Zm6.28,33.72c8.72-5.37,19.62-10.49,32.08-13.95.79-1.05,1.46-2.15,2-3.32,1.25-2.68,1.4-6.02.5-8.65-1.34-4-4.02-6.67-12.46-8.64-11.11-2.59-27.33-1.45-27.33-1.45,3.73-9.06,6.52-14.35,9.31-18.94-2.4-.16-14.5,1.13-23.79,9.98-8.09,7.14-16.83,25.7-23.78,47.8,11.96-1.25,22.8-1.82,22.8-1.82l11.37-.49c2.99,0,6.13-.16,9.31-.52h0Z"/>
  <path class="cls-1" d="m281.82,70c1.82,4.31-.69,9.09-5.61,10.69-4.92,1.6-10.38-.61-12.2-4.91-1.82-4.31.69-9.1,5.61-10.69,4.91-1.6,10.38.6,12.2,4.92Zm-.45,2.63c-.99-2.58-4.01-3.88-6.75-2.89-2.73.98-4.16,3.86-3.17,6.44.99,2.59,4.01,3.88,6.75,2.9,2.74-.98,4.16-3.87,3.17-6.45h0Z"/>
  <path class="cls-5" d="m269.18,76.33c-1.37-3.24.61-6.87,4.41-8.11,1.47-.48,2.99-.53,4.38-.22-1.9-1.2-4.47-1.57-6.88-.79-3.81,1.23-5.79,4.86-4.41,8.12.84,2,2.76,3.38,5,3.86-1.1-.69-1.99-1.67-2.5-2.86"/>
</svg>