<?xml version="1.0" encoding="UTF-8"?>
<svg id="Layer" xmlns="http://www.w3.org/2000/svg" viewBox="0 0 400 502.98">
  <defs>
    <style>
      .cls-1 {
        fill: #fff;
      }

      .cls-1, .cls-2, .cls-3 {
        stroke-width: 0px;
      }

      .cls-2 {
        fill: #e64100;
      }

      .cls-3 {
        fill: #0b162a;
      }
    </style>
  </defs>
  <path class="cls-1" d="m390.35,90.22s-.05.06-.07.08c-.08.1-.15.2-.24.29.1-.12.21-.24.3-.38h0Z"/>
  <path class="cls-1" d="m399.28,59.54c0-.85-.12-1.7-.42-2.53-8.77-24.53-32.56-21.46-46.78-19.62-3.36.43-8.27,1.06-10.31.78-4.7-5.23-9.78-10.01-15.17-14.24.22-2.19-.55-4.46-2.27-6.05-1.53-1.42-3.58-2.09-5.62-1.89-.95.06-3.74.14-6.38.14-.54-1.2-1.34-2.23-2.4-3.01-2.24-1.7-4.84-1.94-6.6-1.97-.82-1.24-2.03-2.26-3.51-2.85-12.99-5.23-26.99-7.86-41.62-7.78-18.85.1-39.02,4.67-59.95,13.59-10.82-1.6-19.98-4.39-28.84-7.12C157.89,3.47,147.02.12,134.27,0c-10.21-.1-20.58,1.94-31.71,6.24-1.83.71-3.27,2.08-4.09,3.78-2.41-.51-4.45-.99-5.24-1.22,0,0,.02,0,.02,0-1.98-.66-4.16-.46-5.98.63-1.25.74-2.21,1.84-2.82,3.11-1.05.14-1.97.39-2.8.84-1.7.91-2.96,2.42-3.56,4.24-.03.09-.06.18-.08.26-.14.5-.23,1.03-.26,1.54,0,.05,0,.1,0,.15v.06-.06c-3.21.76-5.69,2.21-7.69,3.55-.47-.13-.93-.26-1.42-.38-.33-.08-.62-.14-.87-.18l-.26-.05c-.58-.12-1.08-.22-1.63-.32-.34-.06-.67-.1-.96-.14l-.26-.04c-.56-.08-1.06-.15-1.6-.21-.38-.04-.75-.07-1.07-.1l-.24-.02c-.49-.04-1.02-.09-1.61-.11-.42-.02-.83-.03-1.2-.04h-.16c-.46-.02-1.02-.02-1.62-.02-.52,0-1,.02-1.42.03-.59.02-1.13.05-1.62.08-.46.03-.94.06-1.46.11-.53.05-1.08.1-1.63.18-.5.06-1.01.13-1.49.2-.47.07-1,.16-1.63.27-.6.11-1.06.2-1.5.29-.6.13-1.15.26-1.66.38-.46.11-.97.23-1.5.38-.59.16-1.13.33-1.65.48-.02,0-.22.07-.22.07-.39.12-.84.26-1.31.42-.54.18-1.05.38-1.5.54l-.15.06-.27.1c-.37.14-.78.29-1.22.47-.52.21-1.01.43-1.43.62l-.24.11-.33.14c-.34.14-.71.31-1.12.51-.51.25-.99.5-1.42.73l-.31.17-.34.18c-.3.15-.64.33-1.02.54-.18.1-.34.2-.52.3-.17,0-.34-.06-.51-.06-1.3,0-2.58.35-3.7,1.02-.85.5-1.69,1.04-2.65,1.7-.28.19-.59.4-.92.64-.65.47-1.25.93-1.82,1.38-.12.1-.26.23-.39.34-.82.3-1.62.63-2.41,1.03-.39.2-.63.33-.82.43-.11.06-.21.11-.33.18-.18.1-.37.22-.52.3-.02,0-.14.08-.15.09l-.03.02s-.2.12-.23.14c-.23.14-.42.26-.56.36-.05.03-.1.07-.1.07-.08.06-.2.13-.33.22-.22.15-.41.29-.58.4-.08.06-.34.25-.34.25-.21.15-.36.27-.5.38-.19.14-.31.24-.44.34-.18.15-.37.3-.51.42-.14.12-.26.22-.38.32-.16.14-.3.26-.42.38-.1.1-.45.41-.45.41-.17.16-.33.3-.46.44-.1.1-.24.23-.39.38l-.42.42c-.07.07-.4.42-.4.42-.02.02-.42.46-.42.46,0,0-.38.42-.38.42-.14.15-.26.3-.41.47-.09.1-.22.26-.36.43-.02.03-.3.38-.3.38-.23.3-.36.46-.47.61-.1.13-.22.3-.33.45-.14.18-.26.35-.38.51l-.33.47c-.12.18-.24.35-.36.54-.12.18-.22.34-.33.5,0-.02-.33.53-.33.53-.02.02-.29.47-.29.47-.14.22-.25.42-.35.62-.08.14-.18.3-.27.49-.1.18-.2.37-.32.61l-.24.47c-.12.23-.22.45-.31.65-.08.18-.15.33-.23.5-.1.23-.2.46-.29.66-.03.08-.2.47-.2.47-.11.27-.2.5-.28.71,0-.02-.18.47-.18.47-.1.29-.19.54-.27.76-.06.19-.11.32-.16.46-.1.28-.18.55-.25.78-.05.15-.09.29-.13.44-.09.3-.16.58-.22.83-.05.18-.08.29-.11.42-.08.32-.14.62-.2.88-.03.14-.06.26-.08.39-.07.36-.13.69-.18.96-.02.1-.04.21-.06.34-.06.42-.12.82-.15,1.11,0,0-.02.09-.02.21-.22,1.84-.26,3.69-.15,5.5,0,.08.02.24.02.32.02.31.06.7.1,1.09,0,.06.03.26.04.32v.02c.04.3.08.66.14,1.05.02.14.04.26.06.35.06.36.12.69.19,1.06.03.16.06.29.08.38.08.37.15.68.24,1.03.04.16.07.29.1.38.1.36.18.68.29,1.02.05.16.09.29.12.39.13.4.22.7.34,1,.07.19.13.35.18.48.12.31.23.62.37.94.06.14.12.29.18.41.16.37.29.66.43.98.08.18.16.34.22.46.14.3.3.6.46.91.08.15.17.31.24.44.23.42.38.67.52.91.13.22.24.4.34.56.17.27.34.54.5.78.12.18.24.35.36.54.19.28.38.54.56.8.13.18.26.36.39.53.19.26.39.52.59.77.14.17.28.35.42.53.21.25.42.5.63.75l.46.52c.21.23.42.46.67.73.19.21.35.38.5.53.24.25.48.48.7.7.02.02.54.51.54.51.23.22.47.44.77.7.06.05.56.5.56.5.28.25.56.48.8.68-.02-.02.58.48.58.48.29.23.55.43.86.67.21.16.41.31.62.47.3.23.6.44.88.64.11.08.66.46.66.46.34.23.65.44.94.64l.15.1.52.34c.32.2.62.38.9.56.1.06.28.17.28.17l.51.31c.36.22.7.41,1.03.6.03.02.2.11.2.11.16.1.35.2.56.32.31.17.62.34.91.49l.2.1.22.12.51.27c.41.21.8.4,1.18.58.04.02.24.12.24.12.15.08.33.16.52.26.43.21.87.41,1.29.6.08.03.26.12.26.12.06.03.14.06.22.1-.11,7-1.93,10.29-4.66,15.18-2.39,4.29-5.38,9.62-7.54,18.25-.47,1.88-.17,3.87.84,5.52,1.01,1.66,2.64,2.83,4.53,3.28.25.06.37.12.41.14,1.53,1.71.41,11.21-.2,16.31-1.37,11.55-3.04,25.76,4.35,35.82l.57,6.72c-.08.17-.14.3-.14.3,0,0-.09.18-.09.18-.18.35-.32.66-.46.96-.06.12-.08.18-.08.18-.18.39-.31.69-.43.98.02-.04-.1.22-.1.22-.13.3-.26.61-.38.9,0,.02-.07.19-.08.22l-.02.06c-.14.34-.25.63-.34.9,0,.02-.06.17-.06.18l-.02.05c-.13.38-.23.66-.31.93,0,.03-.06.19-.07.22l-.02.05c-.09.28-.18.59-.27.92-.03.11-.06.22-.08.3-.1.36-.16.64-.22.9-.03.14-.06.25-.07.33-.08.38-.13.66-.18.94,0,.05-.04.25-.05.3v.03c-.04.26-.09.57-.13.91-.02.15-.03.3-.03.38-.02.29-.05.59-.06.94,0,.06,0,.29,0,.35v.03c0,.23-.02.55,0,.91,0,.07,0,.3.02.38v.03c.02.27.03.6.06.95.02.15.03.3.05.38.03.27.07.58.14.94.02.14.06.29.07.38.06.28.11.58.19.91.06.22.1.35.12.44.07.26.15.54.25.86.07.22.12.35.15.44.09.24.19.54.32.86.08.2.15.35.2.46.1.21.22.49.37.8.09.18.16.31.21.41.13.25.27.52.44.82.09.15.17.27.22.35.05.08.07.11.07.11.11.18.26.42.43.68.11.17.2.3.26.38.05.07.09.13.09.13.12.18.26.38.45.63.13.17.22.3.3.38.06.08.14.18.14.18.12.15.27.34.45.56.11.14.23.27.32.37.08.09.16.18.16.18.12.14.27.31.45.51.14.15.27.29.38.41.07.08.17.18.17.18.12.13.26.28.43.45.17.18.33.33.46.45l.16.16c.12.12.26.26.43.42.22.2.39.35.54.5.08.07.21.18.21.18.1.1.22.21.37.34.24.21.44.38.62.53l.12.1c.18.15.31.26.46.38.25.2.49.39.71.57l.14.11.13.1.26.21c.38.29.75.58,1.19.9l.17.13c.08.06.18.12.26.18,3.14,19.2,9.06,34.04,17.65,44.11,1.38,1.62,3.39,2.54,5.51,2.54.68,0,1.36-.1,2.02-.29,3.01-.88,5.7-1.35,8.01-1.42,3.39-.1,5.67.64,6.77,2.22,1.2,1.71,1.13,4.39.61,5.67-1.13,2.82-.39,6.03,1.86,8.06,24.41,22.12,38.59,25.36,47.98,27.51,7.18,1.64,9.88,2.26,15.03,11.03,5.33,9.76,8.66,18.38,11.61,25.98,7.43,19.19,13.3,34.35,42.87,37.06,5.42.5,11.56.6,18.78.32.98-.02,2.1-.09,3.21-.18.93-.08,1.79-.21,2.54-.32.14-.02.35-.04.61-.08,1.82-.3,3.66-.74,5.46-1.3.35-.07.68-.15.98-.24.06-.02.11-.02.16-.04,0,0,.02,0,.03,0h.02-.02c.64-.18,1.18-.38,1.68-.62.34-.16.62-.3.85-.42l.26-.13c-.15.08-.26.12-.41.19.73-.31,1.46-.64,2.14-.99-.18.1-.38.18-.57.26.27-.11.55-.26.82-.4,1.92-.98,3.77-2.14,5.49-3.46.14-.1.28-.22.43-.34,1.58-1.24,3.09-2.66,4.48-4.19.19-.22.43-.47.68-.76.4-.46.75-.9,1.1-1.32.27-.34.51-.67.73-.96,0,0,.1-.14.11-.15.46-.63.88-1.22,1.26-1.81.42-.62.74-1.14,1.05-1.63.26-.43.49-.82.68-1.17.3-.54.62-1.12.94-1.73l.13-.24c.12-.22.25-.46.38-.75.44-.9.87-1.83,1.27-2.78.1-.23.18-.42.24-.58l.09-.22c.31-.77.62-1.58.93-2.39,0-.02.06-.17.06-.17l.26-.74c.2-.58.39-1.14.56-1.67.35-.51.64-1.06.85-1.67l.82-2.39c3.11-9.34,3.99-15.25,4.36-20.5,9.33-4.71,17.18-15.76,25.41-27.37,6.1-8.62,13.7-19.35,18.78-21.16.24-.08.46-.18.7-.29,3.85-1.85,8.67-2.88,13.78-3.98,4.73-1.02,10.09-2.18,15.46-4.15-.26.1-.54.18-.81.25,1.11-.27,2.13-.7,3.08-1.2.05.02.1.05.15.07.33.14.67.26,1.02.34.05.02.1.02.16.03.29.06.58.12.89.14.11.02.22.02.34.02.14,0,.26.02.4.02.08,0,.15-.02.22-.02.3,0,.59-.04.9-.09.14-.02.28-.03.42-.06.38-.08.74-.19,1.1-.34.05-.02.1-.02.14-.05.38-.16.74-.34,1.1-.57.03-.02.06-.05.1-.07,0,0,.02,0,.03-.02,0,0-.02,0-.03.02.02-.02.05-.03.07-.05,4.7-3.04,7.31-7.11,8.83-10.86.48-.24.94-.51,1.36-.85.54-.38,1.06-.79,1.58-1.29.06-.06.2-.19.37-.37.62-.66,1.16-1.36,1.62-2.1.06-.1.18-.32.25-.42,0,0-.02.05-.06.1.22-.38.41-.75.59-1.13,1.16-.59,2.1-1.43,2.84-2.49.74-1.09,1.5-2.29,2.28-3.58.07-.07.12-.12.2-.2,2.3-2.28,6.56-6.53,7.78-14.68.05-.31.1-.66.15-1.07.1-.82.21-1.74.3-2.77,1.58-4.07,3.38-7.37,5.14-10.55,1.97-3.57,3.82-6.94,5.18-10.99.22-.66.39-1.22.55-1.8.03-.12.06-.24.08-.32.16-.59.28-1.09.38-1.56.04-.18.07-.34.1-.47.13-.61.21-1.06.28-1.49.04-.23.06-.44.1-.62.09-.58.14-1.02.18-1.45.02-.23.05-.46.06-.66.06-.62.08-1.06.1-1.47.02-.3.02-.6.03-.87.02-.47.02-.93.02-1.36,0-.32,0-.64,0-.96,0-.46-.03-.92-.06-1.38-.02-.35-.04-.7-.06-1.03-.03-.39-.07-.86-.12-1.38-.03-.32-.07-.7-.12-1.09-.06-.52-.14-1.05-.19-1.44-.05-.36-.1-.74-.18-1.16-.08-.51-.18-1.02-.26-1.5-.09-.46-.15-.82-.23-1.21-.11-.54-.23-1.1-.34-1.58l-.04-.2-.24-1.05c-.14-.58-.28-1.13-.42-1.66,0-.02-.09-.33-.09-.33l-.26-.99c-.15-.57-.32-1.13-.47-1.66-.04-.14-.14-.5-.14-.5l-.29-.98s-.05-.15-.12-.37c1.53-1.34,2.44-3.27,2.47-5.33.61-36.22-2.78-59.95-11.18-76.51.25-.1.5-.2.74-.3l.32-.14.34-.14c.25-.1.53-.21.83-.34.86-.37,1.64-.74,2.39-1.1.04-.02.13-.06.21-.1.18-.08.42-.18.66-.31.91-.45,1.74-.9,2.43-1.29l.09-.05c.14-.07.32-.17.53-.28.96-.54,1.8-1.08,2.42-1.48-.06.04-.02.02-.02.02.1-.06.28-.17.47-.3.73-.48,1.51-1.03,2.34-1.66-.03.02.1-.06.26-.19.76-.58,1.5-1.2,2.28-1.89-.08.07-.11.1-.19.17.1-.08.22-.18.38-.32.7-.62,1.42-1.34,2.1-2.07-.07.08-.12.13-.19.2.08-.07.18-.18.26-.26.66-.72,1.3-1.47,1.89-2.25.04-.05.08-.09.11-.14,3.21-4.21,5.05-8.97,5.5-14.15.56-.81,1.07-1.62,1.52-2.46.03-.06.06-.12.1-.18,2.47-4.66,3.06-9.5,1.77-13.82l-.06.02Zm-173.42,334.92s-.05,0-.07.02c.1-.03.22-.06.31-.09-.08.02-.16.05-.24.07Zm111.88-111.23c-.13,0-.25-.02-.37-.02.19,0,.39,0,.58,0-.07,0-.14.02-.22.02Zm51.04-210.29c.32,12.47-9.64,21.62-29.88,27.46,9.73,13.54,15.52,35.38,14.77,80.36l-5.5-2.06c15.22,39.91.75,39.64-6.52,63.18,0,.02,0,.05,0,.07-.49,3.29-1.55,5.19-2.73,6.54-1.81,3.79-3.72,7.1-5.71,9.99-.98,1.42-.47-5.81-1.48-4.58-.95,1.16-.23,8.44-4.16,10.65-1.17,1.19-.18-5.74-1.39-4.75-.95.78-.23,10.98-8.44,16.2,3.46-7.06,1.98-7.54.69-6.82-1.19.66-4.29,6.59-8.42,7.59-10.62,3.92-21.3,4.3-29.86,8.4-15.38,5.5-31.61,46.71-48.74,50.25-.29,7.2-.59,12.98-5.02,25.59-.15.14-.31.28-.46.42-5.34,18.14-16.14,27.4-32.45,27.76-55.31,2.12-44.6-19.3-66.68-59.7-14.62-24.95-21.61-1.49-64.45-40.33,2.78-6.91,0-23.12-24.13-16.11-8.18-9.61-13.68-24.14-16.48-43.58-15.17-10.16-14.81-16.45-8.47-28.21l-1.42-10.82c-13.87-15.63,6.79-52.35-9.69-56.23,4.78-19.11,13.65-19.34,12.28-40.08-44.38-16.91-24.87-51.68-9.16-54.15h0c1.13-.62,2.39-1.19,3.8-1.74,13.88-10.48,31.16-11.33,42.12-7.14,3.62-2.36,6.23-4.97,11.54-4.82,1.13-.66,5.7-.08,6.8-.7,1.28-.72-5.7-5.16-4.46-5.82,1.15-.62,13.98,2.46,15.1,1.9.94-.48-9.21-6-9.21-6,0,.18,18.26,4.31,19.96,3.57,1.71-.75-7.39-5.61-5.76-6.24,39.44-15.22,57.07,4.01,95.06,8.72l.37-.73c40.88-17.55,72.7-15.56,96.52-5.96,1.66.66-7,.94-3.39,2.9,1.89,1.82,9.96-.47,11.86.98,1.06.55-2.44,3.5-.34,4.02,1.35.76,14.24.34,14.17.27-.53,1.22-7.64,3.05-6.29,3.98,1.39.96,6.47.46,7.78,1.46,6.54,4.99,12.06,10.39,16.62,15.62,8.84,5.93,44.39-13.14,54.52,15.19h-.02c2.64,4.14.45,9.12-3.24,13.49h0Z"/>
  <path class="cls-1" d="m397.48,73.44c.03-.06.06-.12.1-.18-.02.04-.04.07-.06.1-.02.02-.02.05-.03.07h0Z"/>
  <path class="cls-1" d="m380.26,218.56c-.02.07-.04.12-.06.18.02-.06.04-.13.06-.18h0Z"/>
  <path class="cls-1" d="m77.73,19.44c0-.09,0-.18.02-.26,0,.08-.02.16-.02.25,0,.06,0,.11,0,.17,0-.05.02-.1.02-.15Z"/>
  <path class="cls-1" d="m397.47,73.45s-.04.06-.06.1c-.04.07-.07.14-.11.21.06-.1.12-.2.18-.3h0Z"/>
  <path class="cls-1" d="m231.64,392.07s-.08.03-.11.06c-.08.04-.15.09-.22.13.11-.06.23-.12.34-.18h0Z"/>
  <path class="cls-2" d="m318.46,53.52c-4.1-7.94-10.03-11.03-17.78-9.26,0-25.75-62.49-28.77-77.25-18.64,11.57,3.05,23.25,4.11,35.05,3.18-12.39,8.48-30.3,11.79-45.28,6.18-8.42,12.99,4.02,29.47,27.14,15.18,5.29-1.66,34.15-13.12,53.66,12.3-41.63-10.65-53.86,24.92-67.46,11.74-3.63-5.08,1.66-24.46-27.68,5.5,4.2-25.75,2.42-40.07-1.3-52.79l.25-.49c-22.19-6.9-43.82-10.26-64.89-10.07l10.13,9.26c-9.47.86-16.54,1.65-26.46,1.93-2.79.14-10.27-.24-11.61,0-1.66.29,3.56,2.33,1.95,2.66-1.33.28-12.44-2.81-18.18-.86,6.02,1.28,9.74,2.84,8.82,3.1-5.58,1.54-8.13,2.88-12.8,5.45l2.05,12.71c-13.74-8.03-33.03-12.13-57.86-12.28.04-.03.08-.06.11-.08-1.4.54-2.67,1.12-3.8,1.74-20.97,29.94-1.12,37.33,11.99,42.38-10.31-10.54-10.54-21.31,2.68-27.55,11.7-3.17,21.58,2.04,29.62,15.62-22.75,19.77-22.84,44.83-19.5,85.43l-18.21,34.58s0,0-.02-.02l1.42,10.82c.78,5.34,4.32,7.17,10.62,5.5-2.71,5.74-.94,13.73,0,18.34,1.44-3.29,3.62-7.1,8.55-9.87,1.88,23.09,8.3,45.38,25.15,42.11,2.99,3.79,7.45,8.5,12.66,13.34,1.53,1.42,4.18,11.97,5.82,13.4,1.51,1.32,2-6.47,3.58-5.18,1.75,1.44,2.81,14.26,4.6,15.62.26.5,2.02-11.2,5.97-7.54,17.22,12.11,33.54,18.12,31.24-.26-93.14-39.28-69.35-128.66-69.35-128.66l-8.76,8.47c-1.48-14.34-1.89-27.26-1.36-38.68.11-2.44,4.04-9.18,4.24-11.49,2.81-5.56,4.35-10.53-4.94-1.86-.3-9.91,9.45-14.02,10.22-17.04.52-2.02-4.6-1.55-3.99-3.39,10.5-5.9,7.87-7.63,8.95-9.92,1.11-2.35-3.66-2.06-2.37-3.96,4.98-7.3,11.26-11.26,18.5-11.55-8.1,11.75-17.51,34.83-14.26,56.07,32.26-7.91,11.99-38.82,36.59-55.07,11.46-5.73,18.3-6.96,42.19,5.25-6.7,1.05-17.27,2.59-17.22,10.62,4.35,11.04,31.14-3.04,39.21,27.1-8.76-4.73-12.54-6.1-19.09-2.52,16.17,5.34,26.13,10.15,18.92,28.35-7.22-13.74-13.7-16.27-21.43-10.75-1.1-4-2.69-6.9-4.58-9.14-1.09,15.38-10.22,20.92-25.02,10.88,1.3,2.42,3.36,5.08,6.13,8.14-5.06-1.74-8.48-3.94-10.25-6.61-1.72,3.15-.26,6.31,4.38,9.5-7.95,14.82,3.72,15.85,11.96,10.01,10.3-13.05,16.83-16.82,23.53-15.87-7.73,17.25-29.36,32.36-16.66,35.11-7.43,8.69-7.5,12.51-.2,11.46-4.62,7.2-4.95,11.9.2,10.52-4.46,26.44,1.14,34.87,10.3,40.87-7.9,11.67-4.48,27.33,6.4,45.89v.04c.11-.55.25-1.09.39-1.6-1.24-23.32.45-24.66,5.94-38.69,4.02,2.36,5.94,12.23,11.21,14.25,2.1-7.23,4.15-11.72,6.17-13.45l6.17,5.5,5.05-2.14,3.48,1.57,3.36-2.24,5.94,2.02,5.72-4.26c1.48-.95,2.71,3.23,3.7,12.55l7.51-9.65c3.5,5.98,4.44,19.97,2.81,41.94,7.68-9.58,12.8-18.74,14.47-27.92,2.44-8.38.61-15.78-5.5-22.2l11.78,6.34v-.1c6.63,1.65,11.34-.58,12.88-7.06,18.97,27.25-11.04,58.87-18.08,79.31l3.98,7.09c19.66-20.53,30.9-36.75,33.68-48.66l7.09,7.01c2.71-3.36,4.55-9.12,5.5-17.28,32.81,13.58,35.87-20.86,55.74-22.69l6.3,10.19c-.03.06-.06.13-.1.2,1.18-1.34,2.24-3.26,2.73-6.54,0-.02,0-.05,0-.07v.02l-2.41-8.93c5.03-24.12,4.69-41.98-1.03-53.58,10.46-22.23,9.54-47.99-2.75-77.27-23.77-6.2-32.35-19.25-25.75-39.15,12.36,13.39,53.58,3.78,59.06,9.96v.02c3.69-4.37,5.88-9.36,3.24-13.49-17.76,2.13-27.04-17.34-73.56-5.93h.03ZM44.19,206.45c.65-11.84-.56-29.7,3.06-35.18,8.76,14.31,9.59,20.3-3.06,35.18Zm120.35-125.27c14.72-13.46,21.36-29.95,19.92-49.46,6.24,7.58,7.39,19.6,3.43,36.06-4.46,43.62,7.9,17.51,11.68,25.41,2.01,3.31-.18,11.57-3.09,21.64l-13.05-5.15c-1.97-11.2-8.26-20.7-18.89-28.5h0Zm67.5,151.92s-46.3-3.28-68.43,0l5.93-4.51-9.59-2.7c-15.44-27.48,1.38-60.02,10.06-69.2-1.18,6.28-3.74,11.95,5.73,13.09,10.23-3.32,15.26.96,15.09,12.86-5.34-2.14-8.31-.46-8.89,5.03l-11.46-6.66c-4.02,5.57-2.26,10.13,5.26,13.69,4.11,1.87,13.09-4.1,17.65.93l-3.4,8.06c5.96.46,21.28-6.42,18.48,7.96l7.83-16.25c12.32-4.55,17.9-11.65,16.72-21.28,12.15,14.26-3.26,22.68-5.96,30.5l7.13-3.73c7.25,7.27,4.33,16.28-8.76,27.01l6.62,5.21h0Zm-23.89-59.1c4.64-8,8.7-9.26,13.41-3.06,2.84,5.02,2.76,9.74-.23,14.15-2.92,3.02-16.34-.14-13.18-11.1Zm110.82,25.64c10.98-1.58,18.57-11.01,22.78-28.27l12.7,19.02c-6.04,3.46-9.47,13.34-10.31,29.64-1.9,6.65-12.59,12.86-18.94,16.27-1.85.99,9.39-9.75,1.8-15.91-4.68,4.72-15.51,23.15-15.87,22.79-3.71,1.45,2.44-10.71-1.48-9.03-2.27.97-11.82,15.13-14.07,16.27-2.17,1.1,1.75-8.9-.36-7.6-3.79,2.37-8.67,13.42-12.02,16.78,1.15-14.43-1.82-25.3-8.9-32.59-5.99-2.27-9.81-1.73-20.08.56,1.83-12.25,1.33-24.44-1.52-36.57,18.21,38.24,59.87-24.66,54.95-36.57-11.12,14.63-26.98,12.42-47.55-6.63,37.54-5.37,39.42-10.32,23.23-25.28.24,3.32-6.34,8.11-19.18,14.64,6.69-6.21,10.01-11.36,9.96-15.46-1.09-9.22-13.94-16.92-24.87-6.76,1.57-1.37,3.74-2.13,6.33-1.82l2.4,5.15,6.53-3.43c9.95,5.84,2.4,23.01-12.71,15.11-6.22-4.38-6.39-10.89-3.16-14.41-2.7,2.69-5.26,6.48-7.48,11.66-2.91-5.05-14.35-1.87-13.97,27.7-7.56-21.63-12.58-44.75-26.55-30.44l15.8-41.52c4.46,7.35,5.08,10.58,21.29-1.06,8.58,14.95,24.46,2.29,28.85,21.63-16.49-2.4-24.73,3.09-25.75,15.11,6.81-11.54,14.78-13.51,25.28-11.36,3.82-7.15,10.02-9.14,21.87,6.44,14.33,4.62,15.37-14.15-3.78-23.25.02-.1.05-.18.06-.28-8.49-4.27-14.22-4.38-20.54-3.57,6.41-12.71,16.23-14.14,29.46-4.37,5.73-1.41,11.1-.99,5.8-7.04,61.01,17.51,32.23,102.87,20.03,124.45h0Z"/>
  <path class="cls-2" d="m182.91,351.63l.4.27c15.94,10.82,30.9,2.66,36.78-.22,19.13,4.35,22.02-22.66,17.14-46.44-4.25,14.34-9.66,31.15-15.42,33.78,4.6-28.5,4.06-55.11-1.86-73.6-9.42-6.62-15.14,7.86-24.78,4.82-4.02.67-8.82-12.16-15.02-9.08-12.34,22.53-5.55,51.48,5.94,77.82,6.11,1.16,10.82.52,14.12-1.91l5.94,3.48,5.72-1.34,8.53.67-10.54,5.94-6.62-3.03c-5.53,4.74-6.67,4.54-13.58,0l-6.62,4.6-1.34-5.72c-11.66-5.05-8.75-11.22-14.25-25.34-.09-.45-.17-.88-.26-1.32-5.54,23.67-1.01,40.79,15.7,36.61h0Z"/>
  <path class="cls-2" d="m146.51,113.35c-.85-.5-1.71-.96-2.58-1.41-1.45-.19-2.85-.31-4.19-.31l2.34,6.47,4.44-4.74h0Z"/>
  <path class="cls-2" d="m128.93,183c-21.18-6.65-33.64-19.72-37.35-39.21-5.02,9.97-6.49,18.42-5.33,25.77.18,1.14-1.09,9.85-.78,10.94.42,1.5,2.46-4.64,3.11-3.23.47,1.04-3.11,10.66,1.02,14.17.84,1.43,2.37-8.3,3.42-6.96,1.07,1.36,3.57,10.65,4.84,11.93,1.23,1.25,1.23-5.5,2.63-4.33,1.14.97,1.49,17.33,8.1,21.68,1.04.78-1.44-15.5,3.11-14.05,12.45,11.43,4.13,43.24,25.62,47.43-7.86-25.05-12.16-52.93-8.38-64.13h-.02Z"/>
  <path class="cls-2" d="m231.78,370.59c-20.52,9.16-46.82,7.71-53.6-1.53.26,8.94,6.78,17.46,32.42,15.02,15.81-1.78,22.86-6.28,21.18-13.49Z"/>
  <path class="cls-3" d="m234.17,200.88l-7.13,3.73c2.71-7.82,18.12-16.25,5.96-30.5,1.18,9.63-4.4,16.73-16.72,21.28l-7.83,16.25c2.8-14.39-12.52-7.5-18.48-7.96l3.4-8.06c-4.56-5.02-13.54.94-17.65-.93-7.52-3.56-9.28-8.12-5.26-13.69l11.46,6.66c.59-5.49,3.55-7.16,8.89-5.03.18-11.89-4.85-16.18-15.09-12.86-9.47-1.14-6.91-6.81-5.73-13.09-8.68,9.18-25.51,41.72-10.06,69.2l9.59,2.7-5.93,4.51c22.13-3.28,68.43,0,68.43,0l-6.62-5.21c13.09-10.73,16-19.74,8.76-27.01h0Z"/>
  <path class="cls-3" d="m196.47,114.83c2.91-10.06,5.1-18.32,3.09-21.64-3.78-7.9-16.14,18.2-11.68-25.41,3.95-16.46,2.8-28.48-3.43-36.06,1.45,19.51-5.19,35.99-19.92,49.46,10.62,7.8,16.91,17.3,18.89,28.51l13.05,5.15h0Z"/>
  <path class="cls-3" d="m298.93,75.19c5.3,6.05-.07,5.62-5.8,7.04-13.22-9.78-23.05-8.34-29.46,4.37,6.32-.82,12.05-.7,20.54,3.57-.02.1-.05.18-.06.28,19.14,9.1,18.1,27.86,3.78,23.25-11.86-15.58-18.05-13.59-21.87-6.44-10.5-2.16-18.47-.18-25.28,11.36,1.02-12.02,9.27-17.51,25.75-15.11-4.39-19.35-20.26-6.69-28.85-21.63-16.21,11.64-16.82,8.42-21.29,1.06l-15.8,41.52c13.97-14.31,19,8.81,26.55,30.44-.38-29.57,11.06-32.75,13.97-27.7,2.22-5.18,4.78-8.98,7.48-11.66-3.23,3.52-3.05,10.04,3.16,14.41,15.1,7.9,22.66-9.27,12.71-15.11l-6.53,3.43-2.4-5.15c-2.59-.3-4.76.46-6.33,1.82,10.94-10.16,23.79-2.46,24.87,6.76.05,4.1-3.27,9.25-9.96,15.46,12.85-6.53,19.42-11.32,19.18-14.64,16.18,14.97,14.3,19.91-23.23,25.28,20.58,19.06,36.43,21.26,47.55,6.63,4.92,11.9-36.74,74.8-54.95,36.57,2.85,12.13,3.35,24.32,1.52,36.57,10.27-2.29,14.09-2.83,20.08-.56,7.09,7.3,10.06,18.16,8.9,32.59,3.35-3.35,8.23-14.41,12.02-16.78,2.1-1.31-1.81,8.69.36,7.6,2.26-1.14,11.8-15.3,14.07-16.27,3.92-1.67-2.23,10.48,1.48,9.03.36.36,11.19-18.07,15.87-22.78,7.59,6.16-3.64,16.9-1.8,15.91,6.34-3.42,17.03-9.62,18.94-16.27.83-16.3,4.27-26.18,10.31-29.64l-12.7-19.02c-4.21,17.26-11.8,26.69-22.78,28.27,12.19-21.58,40.97-106.95-20.03-124.45h0Z"/>
  <path class="cls-3" d="m221.32,185.09c3-4.42,3.07-9.14.23-14.15-4.7-6.21-8.77-4.95-13.41,3.06-3.17,10.97,10.26,14.12,13.18,11.1Z"/>
  <path class="cls-3" d="m329.71,62.97c-6.59,19.9,1.99,32.95,25.75,39.15,12.29,29.28,13.21,55.04,2.75,77.27,5.71,11.6,6.07,29.46,1.03,53.58l2.41,8.93v-.02c7.27-23.54,21.73-23.26,6.52-63.18l5.5,2.06c.75-44.98-5.04-66.82-14.77-80.36,20.24-5.83,30.2-14.98,29.88-27.46v-.02c-5.5-6.18-46.7,3.43-59.07-9.96h0Z"/>
  <path class="cls-3" d="m86.82,50.61l-2.05-12.71c4.67-2.58,7.22-3.91,12.8-5.45.93-.26-2.79-1.82-8.82-3.1,5.74-1.95,16.86,1.14,18.18.86,1.61-.34-3.61-2.38-1.95-2.66,1.34-.24,8.82.14,11.61,0,9.93-.28,16.98-1.06,26.46-1.93l-10.13-9.26c21.07-.19,42.71,3.17,64.89,10.07l-.25.49c3.72,12.72,5.5,27.04,1.3,52.79,29.34-29.95,24.05-10.58,27.68-5.5,13.59,13.18,25.82-22.39,67.46-11.74-19.5-25.42-48.37-13.95-53.66-12.3-23.13,14.3-35.57-2.18-27.14-15.18,14.98,5.61,32.9,2.3,45.28-6.18-11.8.92-23.48-.14-35.05-3.18,14.76-10.13,77.25-7.11,77.25,18.64,7.74-1.77,13.67,1.32,17.78,9.26,46.51-11.42,55.8,8.06,73.56,5.93h.02c-10.13-28.34-45.68-9.26-54.52-15.19-4.56-5.22-10.09-10.62-16.62-15.62-1.3-1-6.39-.5-7.78-1.46-1.35-.94,5.76-2.76,6.29-3.98.08.07-12.82.5-14.17-.27-2.11-.52,1.4-3.47.34-4.02-1.9-1.46-9.97.84-11.86-.98-3.61-1.96,5.05-2.23,3.39-2.9-23.82-9.6-55.64-11.59-96.52,5.96l-.37.73c-37.98-4.71-55.62-23.94-95.06-8.72-1.63.63,7.47,5.49,5.76,6.24-1.7.74-19.96-3.39-19.96-3.57,0,0,10.15,5.52,9.21,6-1.11.57-13.95-2.51-15.1-1.9-1.23.66,5.74,5.1,4.46,5.82-1.1.62-5.67.03-6.8.7-5.3-.14-7.91,2.46-11.54,4.82-10.96-4.19-28.24-3.34-42.12,7.14-.04.03-.08.06-.11.08,24.82.15,44.11,4.25,57.86,12.28h0Z"/>
  <path class="cls-3" d="m50.08,155.88c-3.34-40.62-3.26-65.67,19.5-85.43-8.05-13.58-17.93-18.79-29.62-15.62-13.22,6.25-12.99,17.02-2.68,27.55-13.11-5.05-32.96-12.44-11.99-42.38h0c-15.71,2.46-35.22,37.23,9.17,54.14,1.37,20.74-7.5,20.97-12.28,40.08,16.48,3.87-4.18,40.59,9.69,56.22,0,0,0,0,.02.02l18.21-34.58Z"/>
  <path class="cls-3" d="m352.72,238.1c-19.87,1.83-22.94,36.27-55.74,22.69-.94,8.16-2.78,13.92-5.5,17.28l-7.09-7.01c-2.78,11.9-14.02,28.12-33.68,48.66l-3.98-7.09c7.04-20.44,37.05-52.07,18.08-79.31-1.54,6.48-6.25,8.71-12.88,7.06v.1l-11.78-6.34c6.1,6.42,7.94,13.82,5.5,22.2-1.67,9.18-6.79,18.34-14.47,27.92,1.63-21.98.7-35.96-2.81-41.94l-7.51,9.65c-.99-9.32-2.22-13.5-3.7-12.55l-5.72,4.26-5.94-2.02-3.36,2.24-3.48-1.57-5.05,2.14-6.17-5.5c-2.01,1.74-4.06,6.22-6.17,13.45-5.27-2.02-7.18-11.88-11.21-14.25-5.5,14.02-7.18,15.36-5.94,38.69-.15.51-.28,1.05-.39,1.6v-.04c-10.88-18.57-14.3-34.22-6.4-45.89-9.15-6-14.77-14.42-10.3-40.87-5.15,1.38-4.82-3.33-.2-10.52-7.3,1.05-7.23-2.77.2-11.46-12.7-2.74,8.93-17.86,16.66-35.1-6.7-.95-13.22,2.82-23.53,15.87-8.24,5.84-19.92,4.81-11.96-10.01-4.63-3.18-6.1-6.35-4.38-9.5,1.77,2.66,5.18,4.87,10.25,6.61-2.77-3.06-4.82-5.71-6.13-8.14,14.8,10.05,23.93,4.5,25.03-10.88,1.89,2.24,3.47,5.14,4.58,9.14,7.73-5.53,14.22-2.98,21.43,10.75,7.21-18.2-2.75-23.01-18.92-28.35,6.55-3.59,10.33-2.22,19.09,2.52-8.07-30.14-34.86-16.06-39.21-27.1-.05-8.02,10.53-9.57,17.22-10.62-23.9-12.21-30.74-10.98-42.19-5.25-24.6,16.26-4.34,47.16-36.59,55.07-3.26-21.23,6.15-44.31,14.26-56.06-7.23.3-13.52,4.25-18.5,11.55-1.3,1.9,3.49,1.61,2.37,3.96-1.08,2.29,1.54,4.02-8.95,9.92-.61,1.83,4.5,1.37,3.99,3.39-.77,3.02-10.53,7.13-10.22,17.04,9.3-8.67,7.75-3.7,4.94,1.86-.2,2.3-4.13,9.04-4.24,11.49-.53,11.41-.12,24.34,1.36,38.68l8.76-8.47s-23.79,89.38,69.34,128.66c2.3,18.39-14.02,12.37-31.24.26-3.95-3.66-5.72,8.05-5.97,7.55-1.78-1.37-2.85-14.18-4.6-15.62-1.58-1.3-2.06,6.5-3.58,5.18-1.63-1.42-4.29-11.98-5.82-13.4-5.2-4.85-9.66-9.55-12.66-13.34-16.86,3.26-23.27-19.02-25.15-42.11-4.94,2.78-7.11,6.58-8.55,9.87-.94-4.61-2.71-12.59,0-18.34-6.3,1.68-9.83-.16-10.62-5.5-6.34,11.76-6.69,18.05,8.47,28.21,2.8,19.45,8.3,33.98,16.48,43.58,24.13-7.01,26.91,9.2,24.13,16.11,42.84,38.83,49.83,15.37,64.45,40.33,22.08,40.4,11.37,61.82,66.68,59.7,16.3-.35,27.11-9.62,32.45-27.76.16-.14.31-.28.46-.42,4.42-12.62,4.73-18.4,5.02-25.59,17.13-3.54,33.36-44.75,48.74-50.25,8.55-4.1,19.23-4.48,29.86-8.4,4.13-1,7.22-6.93,8.42-7.59,1.29-.72,2.77-.23-.69,6.82,8.21-5.21,7.5-15.41,8.44-16.2,1.2-.99.21,5.94,1.39,4.75,3.93-2.21,3.2-9.49,4.16-10.65,1.01-1.22.5,6,1.48,4.58,1.99-2.9,3.9-6.2,5.71-9.99.03-.06.06-.13.1-.2l-6.3-10.19h-.02Zm-208.79-126.16c.87.45,1.74.91,2.58,1.41l-4.44,4.74-2.34-6.47c1.34,0,2.74.12,4.19.31h0Zm-32.23,87.76c-4.55-1.44-2.06,14.82-3.11,14.05-6.61-4.34-6.95-20.71-8.1-21.68-1.4-1.18-1.4,5.58-2.63,4.33-1.26-1.28-3.77-10.57-4.84-11.93-1.06-1.34-2.58,8.39-3.42,6.96-4.12-3.5-.54-13.14-1.02-14.17-.64-1.42-2.69,4.74-3.11,3.23-.3-1.09.97-9.8.78-10.94-1.16-7.34.31-15.8,5.33-25.77,3.71,19.49,16.16,32.55,37.34,39.21-3.78,11.2.52,39.08,8.38,64.13-21.49-4.18-13.17-36-25.62-47.43h.02Zm55.51,115.32c.09.44.17.87.26,1.32,5.5,14.12,2.58,20.29,14.25,25.34l1.34,5.72,6.62-4.6c6.9,4.54,8.05,4.74,13.58,0l6.62,3.03,10.54-5.94-8.53-.67-5.72,1.34-5.95-3.48c-3.3,2.43-8.01,3.07-14.12,1.91-11.5-26.34-18.28-55.3-5.94-77.82,6.2-3.09,10.99,9.74,15.02,9.08,9.65,3.03,15.37-11.44,24.78-4.82,5.91,18.5,6.46,45.11,1.86,73.6,5.77-2.62,11.18-19.44,15.42-33.78,4.87,23.77,1.98,50.78-17.14,46.44-5.88,2.87-20.83,11.05-36.78.22l-.4-.27c-16.7,4.18-21.22-12.94-15.7-36.61h0Zm10.97,54.03c6.78,9.25,33.08,10.7,53.6,1.53,1.68,7.21-5.37,11.7-21.18,13.49-25.64,2.45-32.17-6.07-32.43-15.02Z"/>
  <path class="cls-3" d="m44.19,206.45c12.66-14.88,11.82-20.86,3.06-35.18-3.62,5.48-2.42,23.34-3.06,35.18Z"/>
</svg>