<?xml version="1.0" encoding="UTF-8"?>
<svg id="Layer" xmlns="http://www.w3.org/2000/svg" viewBox="0 0 420 503.17">
  <defs>
    <style>
      .cls-1 {
        fill: #024;
      }

      .cls-1, .cls-2 {
        stroke-width: 0px;
      }

      .cls-2 {
        fill: #fffffe;
      }
    </style>
  </defs>
  <path class="cls-2" d="m420,151.72h-159.27L210,0l-50.74,151.72H0l130.49,93.42-50.09,151.81,129.6-92.58,129.61,92.4-50.11-151.62,130.49-93.42"/>
  <path class="cls-1" d="m210,18.06l-46.66,139.33H17.62l119.54,85.58-45.98,139.32,118.84-84.87,118.8,84.87-45.99-139.32,119.55-85.58h-145.72L210,18.06"/>
  <path class="cls-2" d="m210,56.46l-37.52,112.85H54.44l96.83,69.32-37.24,112.85,96.25-68.74,95.67,68.74-37.24-112.84,96.84-69.32h-118.04l-37.52-112.85"/>
  <path class="cls-1" d="m210,89.64l-29.49,89.15h-93.23l76.49,54.76-29.43,89.15,76.05-54.31,75.27,54.31-29.43-89.15,76.49-54.77h-93.23l-29.49-89.15"/>
</svg>