<?xml version="1.0" encoding="UTF-8"?>
<svg id="Layer" xmlns="http://www.w3.org/2000/svg" viewBox="0 0 420 427.72">
  <defs>
    <style>
      .cls-1 {
        fill: #024;
      }

      .cls-1, .cls-2, .cls-3 {
        stroke-width: 0px;
      }

      .cls-2 {
        fill: #fb4f14;
      }

      .cls-3 {
        fill: #fffffe;
      }
    </style>
  </defs>
  <path class="cls-1" d="m212.76,243.48c.01.16-.18,1.23-.6,1.7-.43.47-1.05.65-1.66.78-.99.22-1.97,0-2.75-.59-.65-.49-1.05-1.17-1.1-1.84v-.04s0,0,0,0l-7.35-23.92c-4.12-12.27-10.35-25.43-22.43-37.07-14.59-14.06-36.1-23.79-65.76-29.72-25.85-5.17-42.87-9.62-55.17-14.42-11.81-4.6-18.78-9.4-25.61-15.17C12.92,108.46.79,89.69,0,66.04c0,0,17.31,24.44,36.34,12.77,8.99-5.52,15.46-4.73,15.46-4.73-5.85-6.45-10.17-14.88-11.32-24.04-.92-7.33-.32-15.46,1.79-24.18C45.84,11.04,56.27.17,56.37,0c0,0-4.1,35.62,12.94,48.26,10.51,5.91,21.3,3.53,21.3,3.53,0,0-14.16-6.55-16.14-27.57-.87-9.24.5-16.51.86-18.36,0,0,18.69,26.36,37.41,15.53,4.19-2.42,26.28-13.83,35.81-16.36,13.99-3.71,27.83-3.97,41.14-.77,11.05,2.65,21.84,7.7,32.07,15.01,18.23,13.03,30.04,29.95,34.27,36.62,0,0,36.7-1.61,56.78,24.03l.03.04,46.45,20.49-5.27,3.37-.23.15.24.15c15.03,9.55,41.33,26.47,48.49,32.57l.02.02h.02s13.31,6.34,13.31,6.34l-2.43,6.44h0c-.16.44-3.77,10.75,3.04,15.86l3.42,2.57.07.06-.03.08-10.46,27.69-2.65-3.56c-14.59-20.1-28.38-23.81-35.32-23.95-7.84-.17-8.4,4.01-7.42,5.81,3.15,5.82,20.73,8.84,27.25,9.5,0,0,4.31.56,4.43.58l-16.93,15.16-30.7-1.93h-.13s.01-.13.01-.13l.52-6.02v-.04c-.16-1.14-2.23-11.43-27.34-21.75l-.07-.02-.07.03c-4.27,1.97-13.03,5.37-23.76,5.94-12.94.7-24.95-2.79-35.7-10.37l-.07-.04-.09.02c-4.31,1.47-12.81,4.79-21.31,10.62-15.77,10.84-24.38,25-25.58,42.12,0,0-1.38,14.1-1.81,25.81"/>
  <path class="cls-2" d="m112.65,53.3c34.19-10.49,57.33-8.86,65.23,4.58-29.03,3.32-58.06,11.55-86.28,24.48-14.14-.96-27.13-6.73-34.75-15.44-9.61-10.98-12.79-27.35-6.16-48,.47,17.81,5.66,28.27,14.26,34.15,10.09,6.91,25.69,6.98,47.7.23h0Zm106.27-27.95c11.72,8.76,22.71,20.82,31.82,34.92-17.77-3.28-36-4.58-54.18-3.85-5.38-10.74-14.47-18.62-24.37-21.08-10.98-2.72-25.05-.62-41.83,6.25-15.07,6.17-27.09,6.85-35.72,2.03-4.83-2.7-8.59-7.1-11.2-13.09-2.09-4.8-2.95-9.49-3.38-12.08l.21.21c4.58,4.75,16.75,17.35,35.56,7.61,7.16-3.71,26.27-13.08,34.72-15.35,13.05-3.51,25.99-3.59,38.43-.37,10.3,2.67,20.38,7.65,29.95,14.8h0ZM11.36,83.38s10.33,9.83,27.71.94c19.54-10,22.87,1.04,39.2,6.19-58.97,33.85-66.91-7.13-66.91-7.13h0Z"/>
  <path class="cls-3" d="m404.66,154.24c.04-4.54,1.26-8.24,1.51-8.95l-7.92-3.7h-.03s-.02-.03-.02-.03c-4.89-5.29-57.85-38.56-58.38-38.9l-.2-.13.2-.13,3.91-2.61-35.89-15.19-.04-.02-.03-.04c-14.57-21.77-43.28-22.64-48.79-22.6,10.94,3.38,14.28,6.7,15.12,8.92.56,1.48,0,2.4-.02,2.44l-.06.1-.1-.03C150.09,39.67,48.79,117.26,44.54,120.58c4.86,4.9,15.79,11.51,55.07,20.22,8.77-6.84,50.55-36.53,113.62-34.78l-10.23-15.45s39.06,10.14,61.36,22.52c-1.72,16.5,8.5,32.39,25,37.26,11.82,3.49,24.02.48,32.75-6.95l28.02,17.87-26.88-10.42c-11.43,8.26-26.52,11.14-40.97,6.45-17.87-5.8-29.73-21.56-31.41-39.14-60.52-15.18-105.14,23.05-114.05,31.47,7.21,2.28,13.86,4.87,19.89,7.76,7.35,3.52,13.97,7.56,19.77,12.07,4.48-5.46,22.35-24.23,56.62-24.51,0,0-33.65,8.7-44.37,36.08,9.53,11.03,14.44,22.68,18.21,33.81.86-10.58,4.24-20.28,10.1-28.86,4.79-7,11.23-13.28,19.13-18.63,13.45-9.12,26.66-12.48,26.8-12.51l.07-.02.06.05c27.27,21.96,57.28,4.67,57.58,4.49l.06-.03.07.02c8.39,3.2,15.48,6.8,21.06,10.68,4.47,3.1,7.99,6.41,10.47,9.81,3.84,5.28,3.95,9.08,3.93,9.87l20.33,1.33,5.96-5.09c-18.48-2.39-24.08-8.13-25.22-13.05-1.99-11.86,10.13-13.32,15.65-12.6,12.87,1.68,28.52,13.2,34.41,21.21l4.36-11.7c-5.94-4.51-7.14-10.95-7.1-15.57"/>
  <path class="cls-1" d="m332.97,106.62c-.35,2.37-2.48,4.1-4.91,3.91-2.54-.19-4.44-2.4-4.24-4.94.1-1.19.64-2.24,1.45-3-13.59-6.67-20.71-7.68-20.71-7.68,16.46,10.92,23.49,20.03,23.49,20.03l4.45-3.03,41.63,23.22c-16.56-13.5-30.34-22.5-41.16-28.5"/>
  <path class="cls-2" d="m323.81,105.59c-.19,2.54,1.71,4.75,4.24,4.94,2.43.19,4.56-1.54,4.91-3.91-.65-.36-1.3-.72-1.94-1.06l-4.54,3.33,1.26-5.06c-.85-.44-1.68-.86-2.49-1.25-.81.76-1.35,1.81-1.45,3"/>
  <path class="cls-1" d="m326.49,108.9l4.54-3.33c-1.13-.61-2.22-1.19-3.28-1.73l-1.26,5.06m72.32,37.36c-9.8,3.92,2.83,15.15,2.83,15.15-27.47-21.66-2.83-15.15-2.83-15.15m-119.49-70.75c17.76.36.13-7.17.13-7.17,0,0,12.79,1.96,20.22,13.81-7.02-2.7-14.7-5.25-20.36-6.64"/>
</svg>