<?xml version="1.0" encoding="UTF-8"?>
<svg id="Layer" xmlns="http://www.w3.org/2000/svg" viewBox="0 0 420 464.78">
  <defs>
    <style>
      .cls-1 {
        fill: #b0b7bc;
      }

      .cls-1, .cls-2, .cls-3 {
        stroke-width: 0px;
      }

      .cls-2 {
        fill: #0076b6;
      }

      .cls-3 {
        fill: #fffffe;
      }
    </style>
  </defs>
  <path class="cls-1" d="m372.56,101.45s5.25-4.51,10.75-4.41c5.51.09,9.31,1.93,11.38,4.14,0,0,4.38-.6,9.14.71,4.75,1.31,11.46,5.24,14.08,9.8,2.61,4.57,2.91,9.83.2,14.81,0,0,.9,3.38-1.32,7.58-2.24,4.21-5.89,6.39-5.89,6.39,0,0-2.5,6.22-9.02,9.1-6.53,2.89-15.11-.37-15.11-.37,0,0-4.86.95-8.52.95-3.69,0-8.84-1.59-10.43-2.34,0,0-4.38,6.42-5.59,7.95,0,0,5.98,5.2,12.51,7.25,6.52,2.05,11.65,2.99,14.65,5.12,2.96,2.16,4.11,4.25,4.11,4.25,0,0,4.56-.71,8.94.32,4.39,1.03,9.5,4.48,12.87,9.06,3.36,4.57,5.41,10.44,4.01,16.03-1.4,5.61-4.59,7.64-4.59,7.64,0,0-1.56,5.15-4.73,8.31-3.16,3.19-7.68,3.4-7.68,3.4,0,0-2.48,3.33-8.91,4.35-6.43,1.03-11.04-2.53-11.04-2.53,0,0-5.08.58-12-1.57-6.9-2.14-11.62-9.21-11.62-9.21,0,0-4.49-2.16-12.8-2.54-8.3-.38-26.84-4.11-35.1-8.91,0,0-4.85,2.35-19.57,3.11,0,0-2.18-6.65-6.45-9.98,0,0-12.65,7.02-16.64,8.87-4.02,1.87-11.44,5.11-17.9,5.5,0,0-1.69,10.55-4.78,16.25-3.07,5.7-8.98,9.93-13.99,11.59,0,0,7.29,2.59,11.12,8.28,3.81,5.7,5.12,11.95,2.51,16.98-2.62,5.04-5.56,6.41-5.56,6.41,0,0-1.5,5.09-7.38,7.73-5.89,2.64-13.3,1.24-13.3,1.24,0,0-4.1,2.16-9.72,2.12-5.63-.05-12.67-4.84-12.67-4.84,0,0-18.44,1.69-23.93,1.23-5.48-.44-11.98-2.72-15.08-10.82,0,0-3.37,2.81-8.4,5.24-5.03,2.43-14.57,7.1-21.42,11.98l.23,3.64s10.02,3.77,10.66,14.03c.66,10.27-4.95,14.07-6.54,15.16,0,0-2.13,4.63-6.7,6.96-4.57,2.32-9.61,1.25-9.61,1.25,0,0-11.26,5-19.84-3.21-8.59-8.2-6.16-17.07-6.06-19.22.08-2.14.71-20.95.62-21.82,0,0-4.26-5.7-3.33-12.14.93-6.43,5.87-10.45,8.2-12.41,2.34-1.96,5.14-5.22,6.52-10.16,1.4-4.94,1.49-15.03,1.96-18.76.47-3.73.67-9.99.67-9.99,0,0-16.88-4.66-25.65-14.45-8.77-9.8-11.2-16.89-13.45-26.58-2.22-9.7-3.8-19.51-12.71-25.01,0,0-5.83,1.67-12.54-1.03-6.71-2.7-10.82-8.11-15.1-13.43-4.29-5.32-19.57-7.74-25-8.02,0,0,11.47-12.7,26.95-18.11,15.47-5.4,22.84-3.27,27.97-.37,5.13,2.89,9.16,7.76,11.06,14.38,0,0,10.09,4.37,17,12.49,6.9,8.11,10.16,15.3,12.41,24.16,2.24,8.87,5.05,19.62,22.84,23.52,0,0,10.54-10.55,14.54-13.17,4.02-2.6,9.05-4.08,10.5-4.51,1.44-.43,8.22-2.63,8.22-2.63,0,0,10.65-8.69,12.38-10.42,0,0,3.97-7.06,6.49-11.16,2.52-4.1,6.46-8.17,6.46-8.17,0,0-5.17-9.61-4.88-20.13,0,0,2.54,1.16,4.82,1.49,0,0-.16-7.79,4.89-14.98,5.03-7.2,10.11-11.7,10.11-11.7,0,0-.38-9.46,5.35-18.43,0,0-4.37-7-4.74-11.48,0,0,7.27-.65,12.77-2.24,5.51-1.59,8.2-2.7,11-6.07,2.79-3.35,9.5-11.56,17.99-15.58,8.5-4.01,17.91-5.47,24.66-4.93,0,0-4.14-3.56-8.73-5.05,0,0,7.82-5.76,23.21-7.41,0,0,.11-7.8,1.78-11.91,0,0,20.44,13.99,30.68,18.01,10.26,4.02,17.71,5.32,23.03,7.94,5.3,2.6,9.06,7.41,9.93,10.38,0,0,5.73,2.2,10.11,5.29,4.38,3.08,6.92,10.5,6.92,10.5,0,0,8.28,3.31,16.87,8.53,8.57,5.22,19.1,16.24,19.1,16.24,0,0-6.63,2.92-12.27,11.07,0,0-2.59,9.04-6.86,13.5"/>
  <path class="cls-3" d="m360.57,105.22s3.86-.08,7.24.87c3.4.95,5.54,2.06,5.54,2.06,0,0,2.5-1.59,3.77-2.69,1.26-1.12,5.05-3.08,8.43-2.53,3.4.55,5.79,2.97,6.42,4,0,0,2.89.18,5.57.03,2.68-.17,7.65.78,11.59,3.94,3.96,3.16,7.57,7.82,2.76,14.04,0,0,1.03,3.95-.39,6.79-1.42,2.85-5.09,4.4-5.09,4.4,0,0-2.26,6.73-7.53,8.47-5.28,1.74-11.91-1.51-11.91-1.51,0,0-6.22,1.51-10.72,1.2-4.49-.32-9.41-4.12-9.41-4.12,0,0-1.08.64-2.1,2.13-1.04,1.51-8.77,12.36-10.58,14.27,0,0,7.57,7.36,15.06,10.43,7.5,3.07,11.28,3.56,13.26,4.1,1.96.56,6.3,3,7.88,7.75,0,0,4.82-1.2,7.96-.95,3.16.23,6.23.86,11.75,6.54,5.52,5.68,4.26,10.82,3.39,13.18-.87,2.35-4.15,4.4-4.15,4.4,0,0-.27,4.76-3.12,7.29-2.84,2.52-6.69,2.08-6.69,2.08,0,0-1.51,2.88-5.44,4.07-3.95,1.19-8.21-.88-10.19-2.45,0,0-8.12.71-13.39-1.89-5.27-2.6-7.76-7.71-7.76-7.71,0,0-8.95-3.66-18.26-3.74-9.3-.08-27.32-5.11-33.22-9.42,0,0-8.96,4.08-16.18,4.19,0,0-2.23-6.76-10.04-11.46,0,0-16.73,9.28-22.73,12.04-5.99,2.76-16.54,3.76-18.08,3.93,0,0,.65,2.53-.12,6.64-.82,4.1-3.32,12.16-5.45,14.84-2.14,2.68-8.05,5.99-11.52,7.26-3.47,1.26-7.8,2.37-11.45,4.18-3.62,1.82-8.03,5.51-9.97,7.26,0,0,5.58,1.41,7.27,1.34,1.68-.06,4.68-1.74,6.9-2.59,2.21-.88,8.43-2.06,13.4,1.65,4.97,3.71,7.57,8.51,7.4,12.16-.14,3.62-2.49,6.26-5.97,8.06,0,0-1.04,5.12-5.37,6.7-4.36,1.57-11.57.15-11.57.15,0,0-3.42,2.22-7.53,2.45-4.1.24-9.61-3.31-10.48-3.78-.88-.48-1.74-.95-3.24-.95s-17.73,1.34-22.78,1.34-8.51-2.46-10.64-6.4c-2.13-3.95.86-10.26,2.76-12.77,1.88-2.54,4.89-6.01,5.27-6.73.4-.71.49-1.88-.54-2.6-1.03-.71-4.32-2.33-4.32-2.33,0,0-4.99,9.99-6.88,13.38-1.9,3.39-4.34,7.18-9.07,10.1-4.74,2.92-14.76,7.35-20.03,10.58-5.29,3.23-8.42,6.21-8.42,6.21,0,0,.05,9.51.34,10.68,0,0,4.76.94,6.67,2.59,1.9,1.67,3.78,4.35,3.7,8.05-.07,3.71-.56,8.07-5.18,9.79,0,0-1.29,4.8-4.91,6.22-3.63,1.42-7.34.16-7.34.16,0,0-4.96,2.52-10.16,1.42-5.2-1.1-9.54-6.46-9.62-11.92-.08-5.45.86-25.17.86-26.44s0-2.6-.94-4.33c-.95-1.74-3.17-6.07-2.6-8.84.55-2.76,3.38-6,5.99-8.21,2.6-2.2,5.77-4.41,7.34-8.83,1.57-4.4,2.91-10.48,3.08-15.15.16-4.65.72-19.8,1.74-23.9,0,0-19.57-4.35-28.4-14.44-8.83-10.1-10.33-18.16-12.85-28.96-2.52-10.82-5.75-19.08-16.03-24.46,0,0-5.51,2.68-12.59-.39-7.1-3.08-10.97-11.13-14.75-13.98-3.79-2.83-14.09-4.46-16.15-4.4,0,0,12.28-8.52,20.72-11.05,8.43-2.52,17.59-3.31,23.34,1.27,5.75,4.56,6.62,12.46,6.62,12.46,0,0,11.84,4.89,18.7,13.33,6.86,8.45,8.89,16.33,10.24,21.62,1.35,5.29,5.51,15.86,12.18,20.52,6.68,4.67,14.5,6.63,18.58,6.9,0,0,11.51-12.04,15.46-14.64,3.93-2.6,8.35-3.64,10.23-4.18,1.9-.54,8.46-2.72,8.46-2.72,0,0,11.6-10,13.83-11.72,0,0,6.73-11.67,8.62-14.44,1.9-2.76,6.98-9.25,6.98-9.25,0,0-4.65-5.31-4.59-12.19,0,0,2.74.55,4.48.38,0,0-2.28-3.86-1.17-9.31,1.11-5.44,7-14.29,14.9-21.08,0,0-.31-5.75,1.34-11.18,1.66-5.46,5.03-9.81,5.03-9.81,0,0-3.6-4.46-4.17-7.95,0,0,6.8-.64,11.53-2.21,4.73-1.59,8.51-4.94,8.51-4.94,0,0,9.06-12.51,20.09-16.45,11.06-3.95,22.32-2.73,22.32-2.73,0,0,5.58-3.64,7.89-4.44,0,0-4.38-4.94-8.02-6.46,0,0,8.51-2.57,16.36-1.97,0,0,.14-5.46,1.04-8.63,0,0,13.67,9.87,19.9,12.62,6.23,2.76,18.12,6.71,22.16,7.98,4.02,1.26,10.84,3.88,12.28,11.17,0,0,6.63,2.79,9.24,4.22,2.6,1.43,5.29,4.82,5.83,6.24.54,1.41,1.09,3.16,1.77,4.26.68,1.1,1.85,1.88,2.96,2.27,1.11.41,12.06,5.3,17.12,9.08,5.03,3.8,11.91,10.34,11.91,10.34,0,0-6.84,5.46-8.52,7.98,0,0-2.05,6.87-5.36,11.75-3.32,4.89-8.28,6.8-8.28,6.8v1.65"/>
  <path class="cls-2" d="m345.89,156.8s-17.94,18.09-34.13,26.82c0,0-7.55,3.57-13.41,4.41,0,0-4.61-8.8-13.82-11.53,0,0-19.52-7.48-47.74-1.6,0,0,26.85-1.96,40.3,5.8-6.13,3.39-14.51,7.89-18.95,9.63-7.54,2.94-17.37,2.73-21.16,3.36,0,0,1.89,6.7,1.68,8.8-.2,2.09-2.3,12.58-5.85,15.51-3.57,2.92-12.78,5.86-17.6,7.55-4.82,1.66-15.5,8.37-18.86,17.59,0,0,12.57,2.74,15.92,3.14,3.35.42,6.49-1.46,8.81-2.5,2.3-1.06,5.23-1.69,8.37.2,3.14,1.9,4.61,4.62,5.24,6.71.63,2.09-1.67,3.97-5.45,4.61,0,0,.42,4.4-1.88,5.44-2.31,1.05-7.96.43-11.12-.63,0,0-2.08,2.95-6.48,2.95s-7.34-4.62-11.94-4.83c-4.61-.21-19.06,1.68-24.3,1.26-5.24-.42-5.65-3.56-4.61-6.51,1.05-2.92,7.54-9.42,8.59-12.37.91-2.55,1.71-7.02-8.75-11.18.45-.56,7.99-9.87,19.83-17.01,11.6-6.98,23.11-13.5,36.59-17.8-5.44.53-13.77,2.55-24.65,7.15-16.35,6.93-25.76,15.87-25.76,15.87,0,0,1.21-4.72,15.34-17.29l-.15.1c-19.32,8.81-27.39,28.69-27.54,29-2.44,4.97-9.18,18.51-11.74,21.24-3.13,3.35-11.93,6.5-18.42,10.26-6.51,3.78-14.88,8.6-15.93,11.74-1.05,3.15.23,17.39.63,18.24,0,0,7.34.62,8.8,2.51,1.46,1.88,1.27,5.65.41,6.71-.83,1.06-3.97,1.06-3.97,1.06,0,0,.21,4.17-1.89,5.43-2.09,1.27-6.7-.62-6.7-.62,0,0-1.26,1.89-4.4,2.29-3.14.43-5.45-.82-6.91-3.14-1.47-2.31-.83-5.45-.83-7.97s1.04-20.12.62-24.31c-.41-4.18-3.98-7.12-3.35-9.85.63-2.72,8.37-7.13,10.88-11.74,2.52-4.61,4.83-10.69,5.44-21.37.63-10.69.63-20.55,2.31-26,.21-.69.42-1.33.61-1.97-6.81-1.28-21.37-5.29-28.19-11.26-7.67-6.69-11.09-13.38-12.73-22.03-1.63-8.66-5.13-18.42-8.64-24.65-3.66-6.45-14.85-12.24-14.85-12.24,0,0-4.99,4.02-11.56.38-7.34-4.06-8.09-6.56-10.66-9.96-2.29-2.99-6.76-3.89-7.98-4.09,15.38-6,22.99,2.27,22.99,2.27,0,0-.39-4.16-6.31-5.69-1.78-.47-3.99-1.01-6.42-1.23,1.16-.45,2.22-.8,3-1,2.59-.65,8.69-1.29,13.34,1.85,4.32,2.92,5.87,11.76,5.87,11.76,2.12,1.3,14.68,7.56,18.76,12.78,4.09,5.23,7.02,10.56,8.81,17.58,1.8,7.02,4.24,17.31,14.68,25.96,8.01,6.62,19.84,8.17,24.93,8.53.21-.28.4-.55.62-.83,3.56-4.61,14.25-14.67,17.38-16.13,3.14-1.47,15.72-4.63,17.19-6.08,1.47-1.46,13.83-11.33,14.87-12.79,1.05-1.46,6.71-11.53,10.05-16.56,3.35-5.03,11.74-14.24,11.74-14.24,0,0-7.11-.22-8.99-3.37,0,0,7.76-3.42,8.45-7.82.4-2.6-1.39-4.47-6.65-2.31,0,0,.68-4.96,5.08-11.25,4.41-6.29,12.74-13.27,16.13-15.72,4.2-3.03,5.66-6.91,4.61-9.01-1.05-2.11-5.66-2.32-8.81,1.26,0,0,2.95-8.81,8.39-12.57,0,0-3.99-.85-5.44-4,0,0,6.07.21,10.26-2.1,4.19-2.29,15.09-9.2,19.27-9.42,0,0-3.35-1.69-8.58.21,0,0,8.02-9.65,20.31-11.53,12.31-1.89,23.24,1.46,28.27-.84,0,0-2.3-2.93-7.75-2.93,0,0,6.71-3.99,10.9-3.99,0,0-3.56-4.19-8.6-6.08,0,0,10.89.42,14.88,2.31,0,0-2.74-3.14-2.3-6.71,0,0,8.38,7.54,20.73,11.74,12.36,4.19,19.91,5.66,22,9.01,2.1,3.36.84,5.24.84,5.24,0,0,9,3.79,12.15,5.44,3.14,1.69,4.39,5.46,4.81,6.73.42,1.24,2.52,4.81,4.19,5.45,1.68.63,10.9,4.61,15.91,7.75,5.03,3.15,9.85,7.55,9.85,7.55,0,0-4.81,2.72-5.85,5.03-1.06,2.3-3.16,13.41-12.16,16.34,0,0,2.72-4.61.65-9.22,0,0-10.7-.63-18.25,3.99,0,0-1.36,9.01,3.46,11.54,4.82,2.51,10.36-5.05,11-6.73,0,0-.16,4.25,0,7.11l1.29.21c.3,3.02-.24,7.36-.24,7.36,0,0,3.56-2.73,9.43-1.68,5.86,1.04,7.32,2.93,9.22,2.93s5.64-2.51,6.89-3.77c1.27-1.25,3.37-2.1,5.25-1.47,1.88.63,2.93,3.57,2.93,3.57,0,0,7.13.63,9.43.2,2.3-.42,6.9,2.1,8.16,3.14,1.25,1.05,2.73,2.73,2.29,4-.41,1.24-3.35,3.14-3.35,3.14,0,0,1.68,3.35,1.47,5.44-.21,2.1-4.61,2.93-4.61,2.93,0,0-1.46,5.66-4.19,7.12-2.71,1.47-10.48-1.67-10.48-1.67,0,0-4.61,1.67-9.84,1.47-5.24-.21-8.18-4.2-8.18-4.2,0,0-3.97-.63-7.13,2.1-3.12,2.73-9.62,14.67-16.11,20.54h0Zm-43.88-35.25c7.43,8.01,2.1,15.31,2.1,15.31,7.74-1.61,29.63-9.61,41.57-19.26,0,0-8.64-4.61-14.87-4.96-5.56-.32-8.98,5.77-9.36,11.78-4.48,2.74-10.88,4.01-10.88,4.01l.02-.11c.16-.97.94-8.16-7.81-12.65-9.14-4.69-26.95-7.71-46.19,2.71,19.24-7.23,39.43-3.25,45.42,3.18h0Zm-76.47-2.37c12.42-2.94,20.24-10.02,26.85-13.25,7.58-3.71,17.68-7.12,30.95-5.15,0,0-18.89-7.94-36.76,1.56-17.87,9.49-26.41,14.58-44.44,15.22,0,0,10.3,4.72,23.4,1.62h0Zm45.11-38.1c-18.63-3.4-31,8.57-31,8.57,0,0,14.02-5.61,28.97-4.04,14.93,1.57,28.94,12.86,28.94,12.86,0,0-8.28-13.99-26.91-17.39Zm63-19.82c-1.85,0-8.46,1.52-8.46,1.52,0,0,6.43,1.36,8.14,2.55,1.69,1.18,7.09,5.25,7.09,5.25,0,0-1.34-1.69-1.02-2.54.35-.84,2.71-4.08,2.71-4.08-2.71-.17-6.6-2.7-8.46-2.7h0Zm74.65,132c.64,2.72-2.29,4.4-4.81,4.4,0,0,.63,5.87-1.47,7.33-2.09,1.46-6.07-.64-6.07-.64,0,0-.21,4.2-3.35,5.24-3.14,1.05-6.91-2.72-6.91-2.72,0,0-7.34,1.27-12.35-1.05-5.03-2.3-6.08-6.91-6.08-6.91,0,0-8.18-3.77-16.13-4.6-6.82-.73-21.54-1.48-34-7.42,5.16-3.06,12.78-7.84,18.75-12.76,5.74-4.74,10.92-9.81,14.27-13.29,3.77,3.42,9.35,8.07,13.97,10.2,7.74,3.56,13.41,5.03,15.91,5.44,2.51.41,4.4,3.15,5.02,4.61.64,1.47,3.16,3.77,6.09,3.57,2.94-.21,6.71-1.89,10.05,0,3.34,1.88,6.49,5.86,7.11,8.59h0Z"/>
</svg>