<?xml version="1.0" encoding="UTF-8"?>
<svg id="Layer" xmlns="http://www.w3.org/2000/svg" viewBox="0 0 420 442.52">
  <defs>
    <style>
      .cls-1 {
        fill: #203731;
      }

      .cls-1, .cls-2, .cls-3 {
        stroke-width: 0px;
      }

      .cls-2 {
        fill: #ffb612;
      }

      .cls-3 {
        fill: #fffffe;
      }
    </style>
  </defs>
  <path class="cls-2" d="m208.89,0C95.66.01,0,63.45,0,138.53s89.81,137.1,208.89,137.1c69.5,0,135.39-24.42,176.27-65.31,22.5-22.51,34.87-48.01,34.85-71.79-.03-37.02-21.82-71.8-61.34-97.92C319.02,14.42,265.84,0,208.89,0"/>
  <path class="cls-1" d="m62.81,230.34C26.48,206.12,6.47,173.51,6.47,138.53,6.47,68.19,101.06,6.48,208.89,6.47c112.78,0,204.58,59.24,204.65,132.07.02,22.06-11.68,45.93-32.96,67.22-39.68,39.71-103.87,63.42-171.69,63.42-56.66,0-108.55-13.79-146.08-38.83"/>
  <path class="cls-3" d="m299.5,102.25c-16.26-24.21-51.87-41-93.79-41-57.54,0-104.2,31.64-104.2,70.67s32.94,73.29,104.2,73.25c42.8-.02,77.21-18.5,93.28-42.77l-121.56.21-.37-31.57,211.02-.07c.28,2.53.58,5,.58,7.56,0,60.76-80.49,110.02-179.77,110.02S29.13,199.3,29.13,138.53,114.39,26.66,208.89,26.29c78.65-.3,145.51,32.19,169.89,75.92l-79.28.05"/>
</svg>