<?xml version="1.0" encoding="UTF-8"?>
<svg id="Layer" xmlns="http://www.w3.org/2000/svg" viewBox="0 0 420 496.32">
  <defs>
    <style>
      .cls-1 {
        fill: #021018;
      }

      .cls-1, .cls-2, .cls-3 {
        stroke-width: 0px;
      }

      .cls-2 {
        fill: #fff;
      }

      .cls-3 {
        fill: #eb0028;
      }
    </style>
  </defs>
  <path class="cls-2" d="m309.88,65.29c89.87,68.39,21.48,78.63-48.71,88.62,0,0-29.62-8.16-80.93-33.67-116.4-57.81-79.76-85.05,11.73-101.53C45.55-45.06-76.47,65.99,58.14,173.97l-36.94,26.41c30.35,18.6,93.21,57.62,84.08,117.37l-31.2,22.3,95.3,43.18,75.2-34.07c.55-33.1,59.69-50.28,85.14-117.6,140.09-32.14,104.41-155.36-19.82-166.27h0Z"/>
  <path class="cls-1" d="m245.85,160.22C70,92.3,58.35,36.58,168.12,17.33,30.84-19.97-49.23,79.52,86.6,174.39l-36.45,26.05c38.7,25.86,79.72,64.15,65.8,124.41l-18.36,13.11,70.53,31.97c65.64-71.89,99.98-141.74,77.73-209.71h0Zm-44.33,109.37l-27.01-30.73-31.02,4.62,14.34-23.62-27.01-30.75,35.88,16.14,14.3-23.62,7.83,33.58,35.88,16.12-31.03,4.65,7.85,33.6h0Z"/>
  <path class="cls-3" d="m335.11,76c60.35,47.25,18.45,77.44-55.13,85.64,18.62,78.46-38.46,150.33-98.88,205.98l55.41-25.1c4.1-31.9,60.31-48.48,86.95-119.25,125.12-27.91,104.7-117.71,11.66-147.28h0Z"/>
</svg>