<?xml version="1.0" encoding="UTF-8"?>
<svg id="Layer" xmlns="http://www.w3.org/2000/svg" viewBox="0 0 420 525.82">
  <defs>
    <style>
      .cls-1 {
        fill: #002c5f;
      }

      .cls-1, .cls-2 {
        stroke-width: 0px;
      }

      .cls-2 {
        fill: #fffffe;
      }
    </style>
  </defs>
  <path class="cls-2" d="m210,442.23c-42.59.19-75.25-11.97-90.88-20.22-30.62-16.07-55.85-37.36-77.58-66.89C10.32,312.78,4.28,278.68,1.79,260.11c-1.46-9.67-3.2-32.9.06-53.75,3.69-30.08,10.53-45.06,15.42-59.72,3.8-10.42,16.07-35.51,23.35-47.01,6.18-9.02,17.48-25.63,22.09-31.5,1.26-1.84-.38-.97-1.07-.95-1.69.41-2.56.52-3.86.41-.98,0-2.93-.33-4.02-.65-6.08-1.3-14.77-8.03-13.68-19.77-.22-2.6,2.6-24.97,4.78-31.92C47.68,5.49,53.53.93,63.96.06c5.21,0,27.14-.44,37.1,1.12,19.95,1.98,34.55,7.79,43.24,25.38,6.95,15.42,4.57,39.52-4.99,57.98-3.26,6.3-9.77,18.03-15.42,25.63-5.21,7.6-7.38,11.52-11.95,19.98-4.56,8.9-19.76,42.13-24.97,63.84-9.91,40.53-4.35,63.85,14.76,95.56,14.12,21.06,30.62,36.27,43.44,43.22,21.07,13.24,49.83,16.94,64.82,16.94s43.75-3.7,64.83-16.94c12.81-6.95,29.31-22.15,43.42-43.22,19.11-31.71,24.68-55.03,14.77-95.56-5.21-21.71-20.42-54.94-24.97-63.84-4.56-8.46-6.73-12.38-11.95-19.98-5.64-7.6-12.16-19.33-15.42-25.63-9.55-18.46-11.93-42.56-4.99-57.98,8.68-17.59,23.3-23.4,43.24-25.38,9.96-1.55,31.9-1.12,37.1-1.12,10.43.87,16.29,5.44,19.11,15.2,2.17,6.95,5,29.32,4.78,31.92,1.09,11.73-7.6,18.47-13.68,19.77-1.08.33-3.04.65-4.02.65-1.3.1-2.17,0-3.86-.41-.69-.02-2.33-.89-1.07.95,4.61,5.87,15.9,22.48,22.09,31.5,7.27,11.5,19.54,36.59,23.34,47.01,4.89,14.66,11.72,29.64,15.42,59.72,3.26,20.85,1.52,44.08.07,53.75-2.49,18.57-8.52,52.66-39.76,95.01-21.72,29.54-46.95,50.82-77.57,66.89-15.63,8.25-48.29,20.02-90.88,20.22"/>
  <path class="cls-1" d="m209.76,400.37c2.82,0,5.11-2.29,5.11-5.1s-2.29-5.12-5.11-5.12-5.11,2.29-5.11,5.12,2.29,5.1,5.11,5.1Zm-136.03-64.71c2.83,0,5.11-2.29,5.11-5.11s-2.29-5.12-5.11-5.12-5.11,2.29-5.11,5.12,2.29,5.11,5.11,5.11Zm-30.4-118.13c2.82,0,5.11-2.29,5.11-5.11s-2.29-5.12-5.11-5.12-5.11,2.29-5.11,5.12,2.29,5.11,5.11,5.11Zm59.93-138.99c2.83,0,5.11-2.29,5.11-5.11s-2.29-5.11-5.11-5.11-5.12,2.29-5.12,5.11,2.29,5.11,5.12,5.11Zm248.15,252.01c0-2.83-2.29-5.12-5.11-5.12s-5.12,2.29-5.12,5.12,2.3,5.11,5.12,5.11,5.11-2.29,5.11-5.11Zm30.4-118.13c0-2.83-2.29-5.12-5.12-5.12s-5.11,2.29-5.11,5.12,2.29,5.11,5.11,5.11,5.12-2.29,5.12-5.11Zm-59.93-138.99c0-2.83-2.29-5.11-5.12-5.11s-5.11,2.29-5.11,5.11,2.29,5.11,5.11,5.11,5.12-2.29,5.12-5.11ZM114.77,407.67c-27.79-16.5-52.99-37.34-77.31-77.47-10.86-19.81-36.05-61.94-23.63-135.34,14.33-67.11,43.18-100.99,59.68-124.22,7.81-11.29-.22-17.81-6.52-15.42-5.28,2-8.9,2.13-8.9,2.13-9.34-1.26-8.03-7.34-6.3-23.2l2.17-13.03c1.95-11.51,7.16-11.29,20.84-11.03,21.72.43,25.62.61,37.35,2.78,15.64,3.48,36.05,19.11,19.98,62.11-9.99,23.02-20.42,30.83-31.71,54.73-12.16,26.5-41.69,86-21.71,136.82,27.36,68.19,80.35,92.51,130.73,93.38,50.38-.66,108.58-30.41,131.85-93.38,19.98-50.82-9.55-110.32-21.72-136.82-11.29-23.89-21.71-31.71-31.7-54.73-16.07-42.99,4.35-58.63,19.98-62.11,11.72-2.17,15.64-2.35,37.35-2.78,13.68-.26,18.9-.48,20.85,11.03l2.17,13.03c1.73,15.86,3.04,21.93-6.3,23.2,0,0-3.62-.13-8.91-2.13-6.3-2.39-14.34,4.13-6.52,15.42,16.51,23.24,45.35,57.12,59.68,124.22,12.42,73.4-12.77,115.53-23.63,135.34-24.32,40.13-49.51,60.97-77.31,77.47-38.05,26.5-109.27,24.97-95.59,24.11,14.34,1.09-52.34,2.82-94.9-24.11h0Z"/>
</svg>