<?xml version="1.0" encoding="UTF-8"?>
<svg id="Layer" xmlns="http://www.w3.org/2000/svg" viewBox="0 0 420 462.24">
  <defs>
    <style>
      .cls-1, .cls-2, .cls-3, .cls-4, .cls-5, .cls-6 {
        stroke-width: 0px;
      }

      .cls-2 {
        fill: #9f792c;
      }

      .cls-3 {
        fill: #006778;
      }

      .cls-4 {
        fill: #0a0b09;
      }

      .cls-5 {
        fill: #d7a22a;
      }

      .cls-6 {
        fill: #fffffe;
      }
    </style>
  </defs>
  <path class="cls-1" d="m136.41,156.51c1,.78,4.81,3.13,5.59,3.91,0,0,2.56-1.68,4.58-2.12,0,0-4.36,3.13-5.36,4.82,0,0,1.9-1,3.24-1,0,0,3.46,2.12,5.68,2.12s6.48-.68,6.48-.68c0,0,2.46-1.67,5.15-1.9,0,0-2.81,1.9-3.47,2.8,0,0,1.12-.12,1.79.34.66.44,2.9.89,4.92.1,2-.78,4.01-1.56,3.9-4.03-.12-2.46-1.56-5.37-1.56-5.37,0,0,2.63-2.21,4.09-2.89-.35.05-3.2.48-4.99,1.21,0,0-2.22-4.48-4.58-5.93-2.35-1.45-4.69-1.68-7.26-.56-2.57,1.12-6.38,2.21-6.38,2.21,0,0-3.52,1.69-3.98,2.37.07-.16.71-1.49,1.65-2.23,0,0-3.23.01-5.59.12-2.34.1-4.9.34-5.24,2.57-.33,2.24.34,3.36,1.34,4.14h0Zm33.38,27.4c-2.45-2.54-4.83-3.38-6.27-1.97,0,0-.72-2.71-2.38-3.44-1.67-.74-2.8-.59-2.8-.59,0,0-6.48,1.3-9.15,2.94.52-.34,4.81-3.12,6.34-4.1l-3.6.83s-3.79.01-7.3-.27c-3.51-.27-11.61-1.11-13.12-.82,0,0,1.01-.7,1.62-1.06-.16,0-2.82.02-4.58,1.45,0,0-5.39.56-6.43,4.2-1.05,3.65,1.63,6.24,2.41,6.81,0,0,1.08-1.7,3.27-2.78,0,0-1.25,2.02-1.2,3.7,0,0,4.6,2.44,13.78,3.71,9.19,1.27,8.53.59,11.75,2.6,0,0,3.41-2.42,5.3-2.99,0,0-2.66,3.78-2.9,5.19,0,0,4.26,3.64,7.78,3.91,3.53.28,6.55-1.09,6.17-4.73l1.27-1.56-2.25.16.65-1.22s-.1-1.86-1.13-3.29c.17.09,1.93,1.05,3.6.59l-.49.92s1.92-.22,3.34-2.66l-1.17-.31s-.09-2.68-2.55-5.23h0Zm147.49,79.93c-2.53,4.77-5.63,9.24-9.24,13.26-6.16,6.85-13.75,12.27-22.05,16.18-8.63,4.06-18.48,7.01-28.07,7.39,1.71-1.83,3.42-3.65,5.11-5.47-9.45,1.65-19.24,1.91-28.7.05,1.15-.85,2.72-2.15,2.89-3.66-.65-.06-1.35-.37-1.96-.58-1.62-.57-3.19-1.26-4.73-2.02-5.67-2.78-10.9-6.46-15.68-10.59-8.36-7.23-15.41-15.94-21.33-25.27-3.58-5.64-6.47-11.69-10.43-17.07-3.4-4.61-7.35-8.8-11.7-12.51-6.79-5.83-14.55-10.47-22.72-14.06-13.19-5.79-26.27-12.04-38.65-19.43-3.48-2.08-6.9-4.27-10.24-6.58-7.09-4.95-14.01-10.49-19.9-16.84l-.4-.43c.16-.14,1.41-1.21,2.05-1.74,1.11-.89,2.26-1.71,3.44-2.51,1.11-.76,3.67-2.12,3.67-2.12l.03-.02v.03c-.03.36-.05.75-.01,1.19,0,0,1.28-1.4,2.47-2.05,0,0-1.93,3.02-2.16,5.29,0,0-.43,3.77,3.12,5.71,3.54,1.94,8.83,3.45,10.33,4.63,0,0,2.69-1.94,4.19-2.58,0,0-3.55,3.44-4.52,6.67,0,0,2.16-2.04,3.34-2.47,0,0,3.33,2.47,5.37,2.25,2.04-.21,4.95-.1,6.13-2.8,1.19-2.68.97-3.12,1.51-3.98,0,0-1.95,1.19-3.34,2.47,0,0,.65-2.68,3.34-4.74,2.68-2.04,3.98-2.37,3.98-2.37,0,0,6.35-8.41-1.07-12.51,0,0,3.65-1.83,5.7-3.12,0,0-5.93,1.5-7.86,2.15,0,0-4.4-.86-6.77-.86s-6.45-.31-8.28-.86c-1.83-.54-3.66-1.18-3.66-1.18,0,0,1.07-.64,1.93-.86,0,0-4.17-.31-6.64,3.61h-.03c.01-.33.15-1.84,1.29-3.28,0,0-2.19,1-3.42,2.39h-.03c-.82-.31-1.64-.57-2.47-.83-1.32-.4-2.66-.75-4-1.06-.89-.21-1.78-.42-2.69-.59,6.99-4.63,14.73-8.09,22.68-10.78,2.66-.9,8.29-2.51,8.29-2.51,1.13,1.07,2.27,1.89,2.27,1.89,0,0,3.79-.91,5.6-1.62,0,0-3.8,2.67-6.76,3.96,0,0,4.51-.15,6.06-.43l-.7,1.56s1.97,1.54,6.61.84c4.64-.7,7.6-1.69,7.6-4.1s-.57-3.52.14-5.92c0,0-1.69.28-2.96,0,0,0,2.68-1.55,3.66-3.23,0,0-.25-1.52-.98-3.02h-.01c3.72-.41,7.46-.73,11.17-.96-.47-.55-.97-1.06-1.5-1.55-3.74-3.45-8.97-5.67-13.66-7.18,9.34-1.25,18.79-1.62,28.19-1.95,5.38-.2,10.76-.33,16.13-.38-1.13-.94-2.69-1.49-4.04-2.03,3.16-.36,6.45-.06,9.61.18-2.69-1.35-5.74-2.12-8.62-2.98-2.03-.59-4.07-1.17-6.1-1.7h.25s.23.03.23.03h.05c7.41.99,15.27,2.24,23.88,3.78,55.19,9.86,91.61,24.78,107.48,32.26,4.19,1.9,7.05,3.35,8.5,4.11,1.32.38,3.14.59,4.07-.75.17-.25.3-.5.4-.75v-.02c.17.02.3.03.4.02,3.46-.21,6.84-.55,10.19-1.47.94-.26,1.88-.55,2.81-.86,1.9-.65,3.74-1.42,5.56-2.26-.09,0-3.08-3.87-3.42-4.26-2.68-3.01-5.68-5.75-8.99-8.09.44-.13.92-.27,1.4-.38.48-.12.98-.19,1.46-.18-2.66-2.64-5.94-4.74-9.06-6.7-1.15-.75-2.34-1.45-3.52-2.14l-1.01-.61-.72-.43c-1.35-.78-2.71-1.55-4.09-2.29,8.43,2.87,16.8,6.16,25,9.7.63.27,1.25.54,1.86.81,6.85,2.98,13.79,6.17,19.97,10.37,1.36.92,2.66,1.94,3.83,3.06l.13.12c2.42,1.83,4.1,4.59,5.17,7.4.51,1.37.9,2.8,1.08,4.25.07.49.26,5.33-.07,5.32-.44-.02-.89-.03-1.33-.05-3.52-.05-7.04.33-10.48,1-6.16,1.22-11.91,3.56-17.77,5.74-4.24,1.59-8.28,3.69-12.59,5.13-6.1,2.05-12.55,3.05-19,2.56-6.66-.5-13.18-2.4-18.79-6.07-4.25-2.78-7.91-6.37-11.01-10.36-2.21-2.86-4.16-5.92-5.8-9.14,8.47,3.06,15.13,5.81,19.93,7.95,4.24,1.81,7.13,3.19,8.6,3.91,1.32.36,3.16.53,4.05-.83,1.86-2.82-1.55-5.08-1.55-5.08,0,0-41.93-20.5-118.78-28.96-9.03-.99-17.39-1.69-25.1-2.17,7.58.82,15.77,1.88,24.62,3.26,13.5,2.1,25.9,4.54,37.15,7.11-1.23.16-2.45.4-3.65.71-2.32.62-4.53,1.56-6.59,2.81-3.83,2.33-6.93,5.72-9.28,9.51-4.75,7.65-7,17.12-7.33,26.06-.4,11.13,2.41,22.17,6.02,32.6,4.29,12.37,9.82,24.28,16.69,35.43,3.41,5.54,7.14,10.9,11.35,15.85,4.46,5.23,9.56,10.31,15.72,13.49,6.55,3.37,13.8,3.35,20.9,2.28,5-.76,9.84-2.75,14.6-4.39,11.17-3.83,22.87-7.95,34.87-6.65,3.96.43,8.18,1.25,11.74,3.12.55.26.48.28.17.86h0Zm87.37-151.61s-6.83-15.01-26.26-27.79c4.87-6.25,6.76-13.77,4.51-19.71-2.33-6.17-18.69-17.44-24.85-20.64-6.16-3.19-14.67-7.88-14.67-7.88,0,0-21.85-13.28-39.03-20.78-20.7-9.03-57.99-21.06-98.54-12.49,0,0-24.34-7.99-68.34,5.62-15.39,4.24-41.52,11.19-56.17,13.64-21.71,3.63-43.74,4-60.81,5.81-8.99.96-14.98-1.04-17.9,4.04-12.85,22.3,25.47,60.03,39.35,66-4.11,23.19,1.11,50.62,25.41,78.03,26.42,29.82,62.98,35.48,84.41,51.34,24.06,17.79,29.04,40.27,49.14,61.29,18.49,19.35,54.62,35.84,87,20.05,35.11-17.14,41.48-45.75,42.75-51.12.42-2.74-1.17-5.52-4.69-7.22-.59-.28-1.77-.86-3.32-1.68,1.4-5.6,4.96-22.45,1.44-37.14,0,0-9.92,14.55-17.43,22.6-2.1-1.97-11.73-11.74-10.14-23.31,4.4-1.75,9.52-4.14,13.42-7.08,2.25-1.7,4.24-3.4,6.05-5.05,19.76-5.67,24.2-13.85,24.2-13.85.73,2.01,3.23,4.57,3.23,4.57,2.91-1.65,6.79-4.57,6.79-4.57.37,2.38.33,6.59.33,6.59,1.47-.55,2.9-.68,2.9-.68-1.47,7.32-10.02,19.72-10.02,19.72,29.97-8.6,42.59-30.77,42.59-30.77v-.12c1.12-.23,1.91-.54,1.91-.54,0,0,20.12-5.73,29.36-25.48,9.24-19.75-7.47-38.9-12.62-41.4h0Zm-258.75,37.46s-3.23.01-5.59.12c-2.34.1-4.9.34-5.24,2.57-.33,2.24.34,3.36,1.34,4.14s4.81,3.13,5.59,3.91c0,0,2.56-1.68,4.58-2.12,0,0-4.36,3.13-5.36,4.82,0,0,1.9-1,3.24-1,0,0,3.46,2.12,5.68,2.12s6.48-.68,6.48-.68c0,0,2.46-1.67,5.15-1.9,0,0-2.81,1.9-3.47,2.8,0,0,1.12-.12,1.79.34.66.44,2.9.89,4.92.1,2-.78,4.01-1.56,3.9-4.03-.12-2.46-1.56-5.37-1.56-5.37,0,0,2.63-2.21,4.09-2.89-.35.05-3.2.48-4.99,1.21,0,0-2.22-4.48-4.58-5.93-2.35-1.45-4.69-1.68-7.26-.56-2.57,1.12-6.38,2.21-6.38,2.21,0,0-3.52,1.69-3.98,2.37.07-.16.71-1.49,1.65-2.23h0Zm23.88,34.22c-2.45-2.54-4.83-3.38-6.27-1.97,0,0-.72-2.71-2.38-3.44-1.67-.74-2.8-.59-2.8-.59,0,0-6.48,1.3-9.15,2.94.52-.34,4.81-3.12,6.34-4.1l-3.6.83s-3.79.01-7.3-.27c-3.51-.27-11.61-1.11-13.12-.82,0,0,1.01-.7,1.62-1.06-.16,0-2.82.02-4.58,1.45,0,0-5.39.56-6.43,4.2-1.05,3.65,1.63,6.24,2.41,6.81,0,0,1.08-1.7,3.27-2.78,0,0-1.25,2.02-1.2,3.7,0,0,4.6,2.44,13.78,3.71,9.19,1.27,8.53.59,11.75,2.6,0,0,3.41-2.42,5.3-2.99,0,0-2.66,3.78-2.9,5.19,0,0,4.26,3.64,7.78,3.91,3.53.28,6.55-1.09,6.17-4.73l1.27-1.56-2.25.16.65-1.22s-.1-1.86-1.13-3.29c.17.09,1.93,1.05,3.6.59l-.49.92s1.92-.22,3.34-2.66l-1.17-.31s-.09-2.68-2.55-5.23h0Zm216.89-79.44s-5.93,7.33-8.87,5.08c-2.95-2.25,1.54-5.26.59-11.13-.93-5.86-20.12-25.6-44.35-40.16,0,0,11.21,4.64,22.04,10.4l.26.13c2.39,1.21,4.92,2.66,7.28,4.13,3.25,1.98,6.17,3.99,8.35,5.92,0,0,4.4-5.38,1.77-11.66-.14-.35-.33-.71-.52-1.07l-.08-.14c-.41-.71-.9-1.43-1.46-2.17-.49-.33-1.19-.74-1.97-1.04-1.53-.58-2.97-.83-3.98-1.33,0,0-2.33-2.37-3.11-3.5,0,0-.25,1.04.4,2.26,0,0-1.79-1.58-3.44-1.93-1.64-.34-3.62-1-4.14-1.39-.5-.38-1.51-1.27-1.51-1.27,0,0,.05.81.29,1.4,0,0-1.69-.13-1.98-1.9s1.1-2.5,1.1-2.5c0,0-.13-.5,0-1.13,0,0,1.51,1.68,2.24,2.11,0,0,.33-1.07-.29-2.92l-.56-.31c-.56-.3-1.11-.58-1.62-.82-.43-.2-25.4-14.38-37.23-20.33-.87-.08-2.07-.27-3.34-.7,0,0-1.98-.92-2.31-1.87,0,0-.14.49.15,1.03.5.91,1.56,1.88,1.88,3.14,0,0-1.97-1.17-3.59-2.01-1.42-.74-4.4-1.59-6.09-2.85-.35-.26-.62-.53-.8-.78l-.19-.23c-.17-.26-.28-.51-.35-.74l-.07-.29-.02-.13-.02-.31v-.22s.1.07.1.07l.08.07.12.09c.71.61,1.47,1.28,2.35,1.53l.22.06-.08-.1-.09-.1-.22-.26c-.45-.5-1.08-1.31-1.61-2.33-9.67-4.8-21.23-9.9-36.86-12.98-22.49-4.45-37.59-.7-37.59-.7,0,0,4.44.27,13.69,3.51.58-.19,1.36-.5,2.05-.99,1.33-.96,2.19-1.14,2.76-1.14s3.03,2.94,3.03,2.94c0,0-.27-2.28-.75-4.19,0,0,2.42-.21,3.34,0,1.35.31,2.47.77,2.95.77s.68-.57.68-.57c0,0,.85.56.85,1.24,0,0,1.91,1.33,1.91,2.58s-.29,2.86,0,3.63c0,0-.48.28-1.25-.96,0,0-1.23,1.05-2.47,1.05-.58,0-1.11.14-1.51.3,4.26,1.91,9.09,4.26,14.51,7.16,0,0,.62.43,1.07.77,0,0,.44-1.81.73-2.09,0,0,.56.5.68.79,0,0,.1-.79-.06-1.69,0,0,1.51-1.24,2.69-1.35,1.19-.12,1.64-.12,2.03-.34,0,0,.27-.94-.13-1.96,0,0,1.98,1.15,2.38,2.64,0,0,.17-.9.12-1.81,0,0,2.07-.34,3.6.06,1.51.38,2.54.91,2.88,1.47.34.56,1.28,2.45.76,2.86-.54.41-1.49.57-1.78,1.03-.28.44-.38.84-.78,1.12-.38.28-.91.35-.91.35,0,0-.1,1.56.29,2.36,0,0-.8-.1-1.2-1.06,0,0,.19.89-.38,1.52-.56.62-.94,1-1.5,1.17,0,0-1.39-1.32-1.5-1.83,0,0,.15,3.12-.38,2.53,0,0-2.92-2.59-3.51-2.91,0,0-1.26.19-1.76.13-.51-.05-2.25-.72-2.59-1.3,0,0-.06.68.9,1.35,0,0-.86-.14-1.19-.29,0,0-.5.57-1.4.81,0,0,.9,1.02,1.29,1.4,0,0-1.77-.31-2.57-1.17,0,0-1.02.05-2.16-.29-1.12-.34-1.81-.22-2.82-.06-1.01.16-1.18.06-1.91-.12-.73-.16-2.75-1.3-2.75-1.3,0,0,.34.9.68,1.19,0,0-.17.74-1.81.28-1.63-.46-1.69-.96-2.53-1.47-.85-.5-1.41-1.24-1.23-1.86.16-.62.68-1.07.68-1.07,0,0,.5.46,1.4.85,0,0-1.51-1.91-1.69-2.59,0,0,.79.16,1.19.22,0,0,.28-1.07,2.64-1.58.79-.18,1.46-.28,1.99-.36-6.51-2.04-15.61-4.59-26.12-6.7-.17.2-.31.4-.44.61-.15.25-.28.5-.41.77-.38.79-.68,1.6-1.29,2.12,0,0-4.88-1.53-6.45-2.31,0,0,2.47,2.03,4.2,2.95,0,0-1.48,2.46-6.65,1.89,0,0-2.39,1.04-4.26.84-1.86-.2-4.71-1.43-5.29-2.39-.58-.98-.51-2.99,1.49-4.15,0,0,2.74,1.67,4.09,2.44,0,0-2.41-3.01-2.22-3.98,0,0,.86-.71,1.89-1.33-1.2-.16-2.41-.31-3.63-.44-11.06-1.25-20.83-1.43-29.69-.93.7,1.02.56,1.96,1.12,2.98.68,1.24-.31,1.8-.31,1.8-.75-.61-3.82-1.91-3.82-1.91,1.17,1.11,2.17,2.65,2.17,2.65-.75.43-2.7.82-4.81.92-2.11.09-5.1,1.84-5.1,1.84-1.26-.37-2.33-1.66-3.39-2.64l-.52-.46-.14-.12-.08-.07-.1-.07s.09.22.13.34v.03s.02.03.02.03l.21.54c.15.35.31.71.5,1.05.54,1.03,1.18,2,1.82,2.95l.03.06c.27.43.51.83.72,1.15.09.13.17.25.25.37l.05.08.08.13.09.14.05.08.06.09c-.27-.34-1.11-.5-1.51-.64l-.07-.02c-.7-.28-1.35-.64-1.99-1.05l-.03-.02c-.29-.21-1.14-.98-1.49-.85l-.21.07-.14.03-.27.08-.34.08-.35.08-.5.09c-.3.05-.59.08-.9.1h-.05c-.37.01-.79.02-1.21.01-2.17-.13-4.81-1.97-6.65-3.84-.66-.65-.87-1.38-.89-2.04-1.92.46-3.81.93-5.65,1.43-2.75.64-17.71,3.99-32.99,7.43.09,1.06-.35,2.21-.35,2.8,0,1.06.85,1.87.85,1.87-1.75.14-4.83-1.03-4.83-1.03.87,1.25,3.39,2.68,3.39,2.68,0,0-.36,1.39-1.51,1.87s-2.03.29-3.46.19c-1.44-.09-2.69.58-4.52.68s-4.07-1.04-4.07-1.04c2.02.19,3.52-1.18,3.52-1.18-2.59-.29-3.39-1.25-3.68-1.82-.21-.42-.85-.99-1.44-1.41-11.22,2.51-19.9,4.46-19.9,4.46-7.12.96-12.86,1.68-12.86,1.68-2.11.15-4.23.28-6.34.4-11.61.62-23.24.35-34.83,1.06-1.72.1-3.42.15-5.15.15h-.07c.94.21,1.89.47,2.82.72,1.27.34,2.53.7,3.79,1.09,4.24,1.27,8.45,2.71,12.59,4.32,2.05.79,4.09,1.63,6.1,2.51,2.14.94,4.26,1.94,6.35,2.99.57-.87,3.14-.87,3.14-.87l-.33-.68s.72.46,1.62.4l.17-.02.65-.25c.29-.19.54-.44,1.11-.63.95-.34,2.28-.2,2.28-.2.36-.65,1.96-1.28,1.96-1.28-.31-.29-.7-.61-.7-.61.64-.1,2.11.2,2.73.27.42-.03.76-.07.89-.14l.06-.03c.17-.14.29-.43.13-.69-.3-.28-.98-.49-1.44-.7-.54-.25-.59-.59-.61-.7l-.02-.05c-.56.12-1.84-.43-1.84-.43,0,0,1.07-.06,1.35-.25.13-.07.38-.2.71-.31.4-.19.9-.35,1.36-.41.85-.1,1.86.68,1.86.68,0,0,.9.16,1.79-.18.92-.31,2.8-.28,2.7-.26-.58.1-1.17.5-1.72.5.45,0,1.07.31,1.43.57,1.67,1.13-.44,2.6-1.53,3.13-1.65-.19-2.68.47-2.68.47,0,0,2.13,0,2.03.62-.12.62-1.07,1.02-2.09,1.24-1.01.22-1.81,1.24-1.81,1.24.45.06.85.5.85.5,0,0-1.07.12-1.23.23-.17.1-.73,1.35-1.19,1.91-.44.56-2.02.96-2.02.96.72.4,3.03.68,3.03.68-1.27.46-2.76.54-3.27.56.36.22,3.88,2.46,4.01,2.54h.02c.19.14,3.05,1.94,4.04,2.52,4.17,2.46,8.47,4.7,13.01,6.39,1.37.46,2.74.98,4.12,1.41,1.54.48,3.1.89,4.66,1.25,1.43.33,2.89.58,4.33.81,2.59.38,5.22.54,7.83.47,2.63-.06,5.25-.42,7.85-.9,3.01-.56,5.99-1.21,8.92-2.07.49-.13.97-.28,1.44-.42,4.05-1.25,7.98-3.05,11.77-4.98.99-.49,1.98-.99,2.95-1.52l.07-.05.07-.02c-.06.07-7.04,5.87-10.46,7.97-.75.46-1.5.91-2.27,1.35-1.25.71-2.53,1.39-3.81,2.04-1.1.57-2.19,1.1-3.3,1.59-.58.26-1.17.5-1.76.74l-.09.05c-7.27,2.89-14.68,3.89-22.51,4.45-6.73.48-16.54.75-26.57-.5-16.5-2.07-25.21-7.62-25.21-7.62,15.06,2.65,23.03,2.18,26.65,1.58-5.5-3.5-10.23-7.91-16.38-11.77-14.7-9.19-28.6-14.96-43.63-13.57,0,0,4.93,1.21,8.4,5.87-1.08,4.57,4.83,14.73,13.76,22.5,1.55,1.35,3.23,2.81,5.06,4.27-1.61-.03-6.72-.15-6.72-.15,4.73,3.07,17.26,7.2,17.26,7.2-2.75.92-7.48,1.68-7.48,1.68.3.35,9.35,5.05,26.22,5.75,9.25.37,18.45-1.25,26.98-4.87l.2-.09.27-.15.07-.02s-.23.26-.68.65c-5.13,4.7-11.67,7.55-18.34,9.38-3.59.98-7.26,1.69-10.95,2.15-.57.07-1.13.13-1.71.19-.23.08-.4.19-.45.31-1.82,5.68-1.88,11.82-1.56,17.72.17,3.17.56,6.34,1.13,9.47v.05c.42-.41.91-.85,1.47-1.31,0,0,1.69-1.4,4.64-1.83l-.13-.12-.13-.12c-.63-.54-1.6-.81-2.45-.93-.23-.06-.45-.08-.65-.1l.56-.09c1.84-.38,4.02-.72,5.8-.34l.13.02c1.08.25,2.04.97,2.62,1.9l.15.29c.07.13.13.26.17.38l.03.09c.05.13.09.27.12.4l.08.38v.08s.03.4.03.4c0,.48-.09.96-.3,1.41-.7,1.55-1.97,4.52-1.97,5.64,0,.51-2.64,2.36-3.36,3.08l-.12.13h.22s.17-.03.17-.03c.78-.07,1.55-.21,2.33-.29.43-.03.83-.07,1.14-.07h.03s1.82,3.38,3.23,4.52c1.41,1.12,2.67,3.51,3.1,5.34h.05c.17.02.37-.04.58-.12l.07-.02.25-.1.52-.25c.27-.1.52-.22.79-.34l.76-.38.07-.03s-2.66,3.92-5.76,5.76c.2.03,2.67.4,3.89-.13h.03s.21,4.67-4.34,9.71c-.31.35,3.39,4.75,5.66,7.33l.26.3.2.23.48.53.3.35c.16-.14,1.41-1.21,2.05-1.74,1.11-.89,2.26-1.71,3.44-2.51,1.11-.76,3.67-2.12,3.67-2.12l.03-.02v.03c-.03.36-.05.75-.01,1.19,0,0,1.28-1.4,2.47-2.05,0,0-1.93,3.02-2.16,5.29,0,0-.43,3.77,3.12,5.71,3.54,1.94,8.83,3.45,10.33,4.63,0,0,2.69-1.94,4.19-2.58,0,0-3.55,3.44-4.52,6.67,0,0,2.16-2.04,3.34-2.47,0,0,3.33,2.47,5.37,2.25,2.04-.21,4.95-.1,6.13-2.8,1.19-2.68.97-3.12,1.51-3.98,0,0-1.95,1.19-3.34,2.47,0,0,.65-2.68,3.34-4.74,2.68-2.04,3.98-2.37,3.98-2.37,0,0,6.35-8.41-1.07-12.51,0,0,3.65-1.83,5.7-3.12,0,0-5.93,1.5-7.86,2.15,0,0-4.4-.86-6.77-.86s-6.45-.31-8.28-.86c-1.83-.54-3.66-1.18-3.66-1.18,0,0,1.07-.64,1.93-.86,0,0-4.17-.31-6.64,3.61h-.03c.01-.33.15-1.84,1.29-3.28,0,0-2.19,1-3.42,2.39h-.03c-.82-.31-1.64-.57-2.47-.83-1.32-.4-2.66-.75-4-1.06-.89-.21-1.78-.42-2.69-.59,6.99-4.63,14.73-8.09,22.68-10.78,2.66-.9,8.29-2.51,8.29-2.51,1.13,1.07,2.27,1.89,2.27,1.89,0,0,3.79-.91,5.6-1.62,0,0-3.8,2.67-6.76,3.96,0,0,4.51-.15,6.06-.43l-.7,1.56s1.97,1.54,6.61.84c4.64-.7,7.6-1.69,7.6-4.1s-.57-3.52.14-5.92c0,0-1.69.28-2.96,0,0,0,2.68-1.55,3.66-3.23,0,0-.25-1.52-.98-3.02h-.01c3.72-.41,7.46-.73,11.17-.96-.47-.55-.97-1.06-1.5-1.55-3.74-3.45-8.97-5.67-13.66-7.18,9.34-1.25,18.79-1.62,28.19-1.95,5.38-.2,10.76-.33,16.13-.38-1.13-.94-2.69-1.49-4.04-2.03,3.16-.36,6.45-.06,9.61.18-2.69-1.35-5.74-2.12-8.62-2.98-2.03-.59-4.07-1.17-6.1-1.7h.25s.23.03.23.03h.05c7.41.99,15.27,2.24,23.88,3.78,55.19,9.86,91.61,24.78,107.48,32.26,4.19,1.9,7.05,3.35,8.5,4.11,1.32.38,3.14.59,4.07-.75.17-.25.3-.5.4-.75v-.02c.17.02.3.03.4.02,3.46-.21,6.84-.55,10.19-1.47.94-.26,1.88-.55,2.81-.86,1.9-.65,3.74-1.42,5.56-2.26-.09,0-3.08-3.87-3.42-4.26-2.68-3.01-5.68-5.75-8.99-8.09.44-.13.92-.27,1.4-.38.48-.12.98-.19,1.46-.18-2.66-2.64-5.94-4.74-9.06-6.7-1.15-.75-2.34-1.45-3.52-2.14l-1.01-.61-.72-.43c-1.35-.78-2.71-1.55-4.09-2.29l-.05-.02h.06s.17-.01.17-.01c4.96,0,9.98-.21,14.97-.08.56.01,5.49.23,5.76.26,1.44.09,2.88.2,4.31.33,3.11.28,6.22.63,9.31,1.07l2.31.34c3.93.59,7.84,1.37,11.72,2.23l.12.03c2.13.71,4.49,1.03,6.66,1.59,1.22.33,2.45.64,3.67.98,2.69.74,5.36,1.52,8,2.38,1.69.55,3.38,1.11,5.06,1.71.44.15,2.54,1.22,2.84,1,.84-.59,5.55-3.87,9.23-4.59,4.05-.78,7.85-2.31,7.85-6.88-.4-4.77-4.16-9.72-8.26-13.02h0Zm-41.85,19.67c-4.72-.43-8.45,1.69-8.45,1.69,0,0,13.85,0,18.91,4.39,5.07,4.4,3.72,7.78,3.72,7.78,0,0,5.06,8.12,6.42,11.49,0,0,9.45-8.79,10.12-14.88,0,0-18.35-9.35-30.72-10.48h0Zm-57.53,107.92l.71,7.84,5.44,3.55c1.56-6.34-6.15-11.39-6.15-11.39h0Zm-26.38-56.04c-5.17-16.28-24.37-19.43-24.37-19.43,0,0,15.73,6.43,16.15,51.94.14,15.31,4.81,21.79,4.81,21.79-7.93-4.24-10.02-19.86-10.73-31.96-.36-6.15-2.85-36.11-25.73-43.51-13.9-4.5-20.57-.68-20.57-.68,0,0,10.72,2.57,16.76,13.61,9.13,16.6,2.63,45.96,9.45,61.64,8.42,19.39,23.83,24.62,23.83,24.62,20.21-10.87,24.55-27.78,24.55-27.78-17.3-8.98-8.98-33.94-14.14-50.23Zm58.96,48.41s-12.26,19.66-17.78,23.72c0,0-1.33-3.21-2.95-4.81,0,0-6.72,4.55-8.06,7.05.14-.26-1.21-2.12-1.35-2.37-.76-1.25-1.53-2.47-2.46-3.59-2.68,1.59-5.79,3.9-7.2,6.73,1.13-2.28,1.98-4.61,2.61-7.07.37-1.52.63-3.07.79-4.62.55-5.34-.14-10.78-1.86-15.86,0,0-6.36,15.61-13.69,23.26-7.34,7.63-11.35,9.58-11.81,10.66-.47,1.06-.56,4.94,8.05,3.84,8.6-1.12,14.67-7.54,14.67-7.54,0,0,11.78-2.19,22.12-.78,0,0,2.88,3.13,6.97,2.84,4.09-.28,12.59-16.32,11.95-31.46h0Zm-18.69-43.77c1.35,13.85-10.93,26.36-10.93,26.36,19.91-5.6,30.36-21.63,33.57-27.4.34-.85.59-1.55.75-2.01-7.42,1.77-15.62,3.13-23.39,3.05h0Zm72.97-12.36c-2.88-.66-6.42,1.22-8.4,2.5-.37-.78-1.08-1.47-2.42-1.94-4.04-1.37-9.03,2.49-9.03,2.49.42-2.94-3.6-2.1-3.76-2.08-1.19.09-6.17,1.68-9.13,3.34-4.37,1.53-10.14,3.38-16.51,4.92,1.2,6.81.83,11.6.83,11.6,6.77-3.51,12.37-10.74,15.78-15.94.73,3.5,3.68,8.24,3.68,8.24,4.74-2.95,8.96-7.22,8.96-7.22,1.46,2.64,1.21,8.18,1.21,8.18,3.33-1.09,6.32-3.24,8.24-4.87-2.13,11.31-8.96,22.27-8.96,22.27,7.99-3.01,23.25-19.28,24.24-23.71.97-4.42-.49-6.83-4.73-7.78h0Zm28.77-21.14l-.31.05c-1.2.19-3.54-.18-3.23-1.88.19-1.05,1.63-1.94,2.54-2.31,2.59-1.05,5.11-2.04,7.43-3.61.84-.56,1.63-1.17,2.35-1.88.2-.19,1.26-1.04,1.22-1.35-.32-2.61-1-4.9-1.84-6.85-.28.65-.73,1.53-1.37,2.5-1.42,2.43-3.18,3.55-3.82,3.9-.93.53-2.75,1.07-3.58-.54-.84-1.6,1.47-2.98,1.47-2.98,3.41-2.46,4.79-4.96,5.35-6.59-1.83-2.84-3.59-4.33-3.59-4.33,0,0-4.89,12.24-17.72,18.47-9.2,4.48-17.65,9.68-23.05,15.88-.76.89-1.47,1.8-2.12,2.73h.1c13,1.46,19.39,6.97,21.48,9.64.15.19.27.35.37.5h.05c.8-.15,13.85-2.51,21.92-11.42-.29.01-.58.01-.87,0-1.99-.08-9.61.13-7.69-3.71.64-1.28,2.92-.93,4.07-.86,1.96.12,3.9.33,5.86.22,2.7-.15,3.2-2.6,3.88-4.84.64-2.17,1.02-4.21,1.2-6.14-2.98,3.8-8.34,5.09-10.1,5.4h0Z"/>
  <path class="cls-6" d="m154.62,147.34c2.56-1.12,4.9-.89,7.26.56,2.35,1.45,4.58,5.93,4.58,5.93,1.78-.74,4.64-1.17,4.99-1.21-1.46.69-4.09,2.89-4.09,2.89,0,0,1.44,2.91,1.56,5.37.1,2.46-1.9,3.24-3.9,4.03-2.02.78-4.25.34-4.92-.1-.68-.46-1.79-.34-1.79-.34.66-.9,3.47-2.8,3.47-2.8-2.69.23-5.15,1.9-5.15,1.9,0,0-4.24.68-6.48.68s-5.68-2.12-5.68-2.12c-1.34,0-3.24,1-3.24,1,1-1.69,5.36-4.82,5.36-4.82-2.02.44-4.58,2.12-4.58,2.12-.78-.78-4.59-3.13-5.59-3.91-1-.78-1.67-1.9-1.34-4.14.34-2.23,2.9-2.46,5.24-2.57,2.37-.1,5.59-.12,5.59-.12-.94.74-1.58,2.07-1.65,2.23.47-.68,3.98-2.37,3.98-2.37,0,0,3.81-1.09,6.38-2.21h0Zm18.88,42.11c-1.42,2.44-3.34,2.66-3.34,2.66l.49-.92c-1.67.46-3.42-.5-3.6-.59,1.02,1.43,1.13,3.29,1.13,3.29l-.65,1.22,2.25-.16-1.27,1.56c.37,3.64-2.64,5.01-6.17,4.73-3.52-.27-7.78-3.91-7.78-3.91.25-1.41,2.9-5.19,2.9-5.19-1.89.57-5.3,2.99-5.3,2.99-3.23-2.01-2.56-1.33-11.75-2.6-9.18-1.27-13.78-3.71-13.78-3.71-.05-1.68,1.2-3.7,1.2-3.7-2.19,1.07-3.27,2.78-3.27,2.78-.78-.57-3.46-3.16-2.41-6.81,1.04-3.64,6.43-4.2,6.43-4.2,1.76-1.42,4.41-1.45,4.58-1.45-.61.36-1.62,1.06-1.62,1.06,1.5-.29,9.61.55,13.12.82,3.52.28,7.3.27,7.3.27l3.6-.83c-1.53.98-5.81,3.76-6.34,4.1,2.67-1.65,9.15-2.94,9.15-2.94,0,0,1.13-.14,2.8.59,1.65.74,2.38,3.44,2.38,3.44,1.43-1.41,3.82-.57,6.27,1.97,2.46,2.54,2.55,5.23,2.55,5.23l1.17.31h0Zm186.5-36.6c.07.49.26,5.33-.07,5.32-.44-.02-.89-.03-1.33-.05-3.52-.05-7.04.33-10.48,1-6.16,1.22-11.91,3.56-17.77,5.74-4.24,1.59-8.28,3.69-12.59,5.13-6.1,2.05-12.55,3.05-19,2.56-6.66-.5-13.18-2.4-18.79-6.07-4.25-2.78-7.91-6.37-11.01-10.36-2.21-2.86-4.16-5.92-5.8-9.14,8.47,3.06,15.13,5.81,19.93,7.95,4.24,1.81,7.13,3.19,8.6,3.91,1.32.36,3.16.53,4.05-.83,1.86-2.82-1.55-5.08-1.55-5.08,0,0-41.93-20.5-118.78-28.96-9.03-.99-17.39-1.69-25.1-2.17,7.58.82,15.77,1.88,24.62,3.26,13.5,2.1,25.9,4.54,37.15,7.11-1.23.16-2.45.4-3.65.71-2.32.62-4.53,1.56-6.59,2.81-3.83,2.33-6.93,5.72-9.28,9.51-4.75,7.65-7,17.12-7.33,26.06-.4,11.13,2.41,22.17,6.02,32.6,4.29,12.37,9.82,24.28,16.69,35.43,3.41,5.54,7.14,10.9,11.35,15.85,4.46,5.23,9.56,10.31,15.72,13.49,6.55,3.37,13.8,3.35,20.9,2.28,5-.76,9.84-2.75,14.6-4.39,11.17-3.83,22.87-7.95,34.87-6.65,3.96.43,8.18,1.25,11.74,3.12.55.26.48.28.17.86-2.53,4.77-5.63,9.24-9.24,13.26-6.16,6.85-13.75,12.27-22.05,16.18-8.63,4.06-18.48,7.01-28.07,7.39,1.71-1.83,3.42-3.65,5.11-5.47-9.45,1.65-19.24,1.91-28.7.05,1.15-.85,2.72-2.15,2.89-3.66-.65-.06-1.35-.37-1.96-.58-1.62-.57-3.19-1.26-4.73-2.02-5.67-2.78-10.9-6.46-15.68-10.59-8.36-7.23-15.41-15.94-21.33-25.27-3.58-5.64-6.47-11.69-10.43-17.07-3.4-4.61-7.35-8.8-11.7-12.51-6.79-5.83-14.55-10.47-22.72-14.06-13.19-5.79-26.27-12.04-38.65-19.43-3.48-2.08-6.9-4.27-10.24-6.58-7.09-4.95-14.01-10.49-19.9-16.84l-.4-.43c.16-.14,1.41-1.21,2.05-1.74,1.11-.89,2.26-1.71,3.44-2.51,1.11-.76,3.67-2.12,3.67-2.12l.03-.02v.03c-.03.36-.05.75-.01,1.19,0,0,1.28-1.4,2.47-2.05,0,0-1.93,3.02-2.16,5.29,0,0-.43,3.77,3.12,5.71,3.54,1.94,8.83,3.45,10.33,4.63,0,0,2.69-1.94,4.19-2.58,0,0-3.55,3.44-4.52,6.67,0,0,2.16-2.04,3.34-2.47,0,0,3.33,2.47,5.37,2.25,2.04-.21,4.95-.1,6.13-2.8,1.19-2.68.97-3.12,1.51-3.98,0,0-1.95,1.19-3.34,2.47,0,0,.65-2.68,3.34-4.74,2.68-2.04,3.98-2.37,3.98-2.37,0,0,6.35-8.41-1.07-12.51,0,0,3.65-1.83,5.7-3.12,0,0-5.93,1.5-7.86,2.15,0,0-4.4-.86-6.77-.86s-6.45-.31-8.28-.86c-1.83-.54-3.66-1.18-3.66-1.18,0,0,1.07-.64,1.93-.86,0,0-4.17-.31-6.64,3.61h-.03c.01-.33.15-1.84,1.29-3.28,0,0-2.19,1-3.42,2.39h-.03c-.82-.31-1.64-.57-2.47-.83-1.32-.4-2.66-.75-4-1.06-.89-.21-1.78-.42-2.69-.59,6.99-4.63,14.73-8.09,22.68-10.78,2.66-.9,8.29-2.51,8.29-2.51,1.13,1.07,2.27,1.89,2.27,1.89,0,0,3.79-.91,5.6-1.62,0,0-3.8,2.67-6.76,3.96,0,0,4.51-.15,6.06-.43l-.7,1.56s1.97,1.54,6.61.84c4.64-.7,7.6-1.69,7.6-4.1s-.57-3.52.14-5.92c0,0-1.69.28-2.96,0,0,0,2.68-1.55,3.66-3.23,0,0-.25-1.52-.98-3.02h-.01c3.72-.41,7.46-.73,11.17-.96-.47-.55-.97-1.06-1.5-1.55-3.74-3.45-8.97-5.67-13.66-7.18,9.34-1.25,18.79-1.62,28.19-1.95,5.38-.2,10.76-.33,16.13-.38-1.13-.94-2.69-1.49-4.04-2.03,3.16-.36,6.45-.06,9.61.18-2.69-1.35-5.74-2.12-8.62-2.98-2.03-.59-4.07-1.17-6.1-1.7h.25s.23.03.23.03h.05c7.41.99,15.27,2.24,23.88,3.78,55.19,9.86,91.61,24.78,107.48,32.26,4.19,1.9,7.05,3.35,8.5,4.11,1.32.38,3.14.59,4.07-.75.17-.25.3-.5.4-.75v-.02c.17.02.3.03.4.02,3.46-.21,6.84-.55,10.19-1.47.94-.26,1.88-.55,2.81-.86,1.9-.65,3.74-1.42,5.56-2.26-.09,0-3.08-3.87-3.42-4.26-2.68-3.01-5.68-5.75-8.99-8.09.44-.13.92-.27,1.4-.38.48-.12.98-.19,1.46-.18-2.66-2.64-5.94-4.74-9.06-6.7-1.15-.75-2.34-1.45-3.52-2.14l-1.01-.61-.72-.43c-1.35-.78-2.71-1.55-4.09-2.29,8.43,2.87,16.8,6.16,25,9.7.63.27,1.25.54,1.86.81,6.85,2.98,13.79,6.17,19.97,10.37,1.36.92,2.66,1.94,3.83,3.06l.13.12c2.42,1.83,4.1,4.59,5.17,7.4.51,1.37.9,2.8,1.08,4.25h0ZM65.84,40.87c.16.26.05.55-.13.69l-.06.03c-.13.07-.46.1-.89.14-.62-.07-2.09-.37-2.73-.27,0,0,.38.31.7.61,0,0-1.6.63-1.96,1.28,0,0-1.33-.14-2.28.2-.56.19-.81.44-1.1.63l-.65.25-.17.02c-.9.06-1.62-.4-1.62-.4l.33.68s-2.58,0-3.15.88c-2.09-1.05-4.21-2.04-6.35-2.99-2.02-.88-4.06-1.71-6.11-2.51-4.14-1.6-8.35-3.04-12.59-4.31-1.26-.39-2.52-.75-3.79-1.09-.93-.26-1.88-.51-2.82-.72h.07c1.72,0,3.43-.05,5.15-.15,11.6-.71,23.22-.44,34.83-1.06,2.11-.12,4.23-.25,6.34-.4-.35.43-.82,1.14-.21,1.36,0,0,1.18.38,2.64.49,1.39.09,2.94,0,2.94,0,0,0-5.68,2.65-6.36,2.84-.69.2-1.58,1.08-1.58,1.08l-.05.04-.1.09-.06.05-.1.11c-.33.13-.58.26-.71.33-.28.18-1.35.23-1.35.23,0,0,1.28.55,1.84.44l.02.05c.01.09.07.45.61.69.47.21,1.14.42,1.45.7h0Zm49.1,29.18l-.92.48c-2,1.25-4.06,2.42-6.2,3.42l-.09.05c-.71.34-1.42.66-2.14.98l-.05.02-.06.02c-1.95.85-3.94,1.62-5.92,2.34-1.56.55-3.15,1.06-4.76,1.52-11.39,3.33-18.32,3.25-18.32,3.25.77.35,1.81.66,2.75.87,3.43.77,11.63,1.49,12.02,1.61l-.27.15-.2.09c-8.53,3.62-17.73,5.24-26.98,4.87-16.86-.7-25.91-5.4-26.22-5.76,0,0,4.73-.76,7.48-1.68,0,0-12.53-4.13-17.26-7.19,0,0,5.12.12,6.73.15-1.83-1.46-3.51-2.92-5.06-4.27-8.93-7.78-14.84-17.92-13.75-22.5-3.47-4.66-8.4-5.87-8.4-5.87,15.02-1.39,28.93,4.38,43.63,13.58,6.16,3.85,10.87,8.26,16.38,11.77-3.62.61-11.59,1.07-26.66-1.58,0,0,8.72,5.56,25.21,7.63,10.04,1.25,19.84.98,26.58.5,7.83-.56,15.23-1.55,22.51-4.45h0Zm298.11,71.71c-.18,1.93-.56,3.97-1.2,6.14-.68,2.24-1.18,4.69-3.88,4.85-1.96.1-3.9-.1-5.86-.22-1.13-.07-3.42-.42-4.06.86-1.93,3.84,5.7,3.63,7.68,3.71.29.01.58.01.87,0-8.07,8.91-21.12,11.27-21.93,11.41h-.05s-.36-.49-.36-.49c-2.1-2.68-8.49-8.17-21.49-9.62h-.1c.64-.94,1.35-1.85,2.12-2.74,5.4-6.2,13.85-11.41,23.05-15.88,12.83-6.23,17.72-18.48,17.72-18.48,0,0,1.76,1.49,3.59,4.33-.56,1.63-1.94,4.13-5.34,6.6,0,0-2.31,1.38-1.47,2.98.83,1.61,2.65,1.06,3.58.54.63-.35,2.39-1.47,3.82-3.9.64-.97,1.1-1.85,1.37-2.5.84,1.95,1.53,4.24,1.84,6.85.04.31-1.02,1.17-1.22,1.35-.72.71-1.52,1.32-2.36,1.88-2.32,1.56-4.85,2.55-7.43,3.6-.91.37-2.35,1.26-2.54,2.31-.32,1.7,2.03,2.07,3.23,1.88l.3-.05c1.76-.31,7.12-1.6,10.11-5.41h0Zm-105.12,114.14c-4.09.29-6.96-2.84-6.96-2.84-10.35-1.41-22.12.78-22.12.78,0,0-6.07,6.42-14.67,7.53-8.6,1.11-8.51-2.77-8.04-3.83.47-1.09,4.48-3.04,11.81-10.67,7.33-7.64,13.69-23.26,13.69-23.26,1.73,5.08,2.41,10.52,1.86,15.87-.15,1.55-.42,3.09-.79,4.61-.62,2.46-1.47,4.8-2.6,7.07,1.41-2.84,4.51-5.15,7.19-6.74.93,1.12,1.7,2.35,2.46,3.6.14.25,1.49,2.12,1.35,2.37,1.34-2.5,8.07-7.04,8.07-7.04,1.62,1.59,2.94,4.8,2.94,4.8,5.52-4.06,17.79-23.72,17.79-23.72.64,15.14-7.87,31.18-11.96,31.46h0Zm70.98-79.8c-.99,4.43-16.25,20.7-24.24,23.71,0,0,6.83-10.97,8.96-22.27-1.92,1.62-4.91,3.77-8.24,4.86,0,0,.24-5.53-1.22-8.17,0,0-4.22,4.27-8.95,7.22,0,0-2.95-4.73-3.68-8.23-3.41,5.21-9.02,12.42-15.79,15.94,0,0,.37-4.78-.83-11.59,6.37-1.54,12.15-3.4,16.52-4.93,2.95-1.66,7.94-3.25,9.13-3.34.16-.02,4.18-.86,3.76,2.08,0,0,4.99-3.85,9.02-2.49,1.34.47,2.05,1.16,2.42,1.94,1.98-1.27,5.52-3.16,8.4-2.5,4.25.96,5.7,3.36,4.73,7.79h0Zm-54.32,1.53c-.15.45-.41,1.15-.75,2.01-3.21,5.76-13.66,21.8-33.57,27.39,0,0,12.28-12.5,10.92-26.36,7.77.09,15.98-1.26,23.39-3.04h0Z"/>
  <path class="cls-5" d="m335.42,50.69c.97-.25,1.43-.25,1.81-.21,0,0,.05-.58-.42-1.1,0,0,2.74,1.65,4.01,2.97l-.34-1.19s2.19.55,3.21,1.53c1.01.97,1.52,2.07,1.82,2.57.29.51,1.1,2.21.76,2.71-.34.51-.84.51-.84.51,0,0-3.04-1.82-3.85-2.21,0,0,1.53,2.37,1.74,2.92,0,0-2.62-.39-3.3-1.31,0,0-2.95-.72-4.01-1.44-1.05-.72-1.9-1.82-1.9-2.42,0,0,1.69.81,2.54,1.19,0,0-2.28-2.76-3-3.42,0,0,.79-.85,1.77-1.11h0Zm-2.59-3.8s-2.44-2.15-3.29-2.89c0,0,1.19,2.82,1.38,3.43,0,0-2.3.08-3.54-.89-1.25-.97-3.04-2.11-2.58-2.11,0,0,.56.03,1.03.1,0,0-1.42-1.72-3.86-1.86,0,0-1.48.34-3.18-.53-1.7-.87-2.41-1.76-2.41-1.76,0,0-.93-1.04-1.11-2.37,0,0,1.67,1.17,2.49,1.49,0,0-1.47-2.1-1.47-3.35,0,0,1.05-.21,2.37.29,1.33.5,1.69.1,1.69.1,0,0-.57-.75-.79-1.51,0,0,1.68,1.4,2.39,1.72,0,0,2.08-.64,3.65.03,1.57.68,3.36,2.43,3.64,2.76.27.31,1.33,1.11,1.46,1.2-.11-.14-.93-1.25-1.16-2.13.13.08,1.17.76,1.64.99.5.26,1.46,1.26,1.64,1.9.17.64-.86,1.68-.86,1.68,0,0,1.36,1.75,1.36,2.46s-.46,1.21-.46,1.21h0Zm-12.11,10.15s-1.79-.75-3.37-.75c0,0-.7,1.06-2.37.71-1.67-.34-3.3-1.61-3.3-1.61,0,0,1.49.07,2.68.07,0,0-.52-.59-1.93-.9-1.42-.29-2.26-.54-3.26-1.32,0,0-.25.79.42,1.32,0,0-2.24.59-2.61-1.65s-1.64-2.09-.75-3.74c.89-1.62,2.74-1.63,2.8-1.63,0,0-1.6-.98-2.65-1.58,0,0,3.66.97,6.49,2.69,0,0-.22-1.12-.89-1.71,0,0,1.95-.6,4.11.9,2.16,1.49,2.24,2.84,3.88,3.96s.66,2.85-.08,3.29c0,0,.53,1.34.83,1.95h0Zm-15.46-18.77c-.08,1.04-.83,1.87-2.1,2.02-1.27.14-2.02-.37-2.46.22-.44.59-1.12,1.19-1.8,1.34,0,0-4.32-2.69-6.2-3.66,0,0,1.58,2.02,1.95,2.85,0,0-2.61.22-4.41-.52-1.79-.75-2.99-1.38-4.25-1.93-1.27-.54-2.61-2.33-2.61-2.33,0,0,2.09.97,3.21,1.27,0,0-1.86-2.1-1.94-2.77,0,0,1.41-.37,2.09-1.2.63-.77,2.48-1.27,3.88-1.34h.3c1.42,0,4.93,1.87,6.64,3.14,0,0-1.49-2.09-2.61-3.14,0,0,2.68,0,3.36-.22.68-.23,2.24-.39,3.36.14,1.05.49,1.64,1.58,1.71,1.71-.14-.06-1.25-.53-2.09-.74,0,0,0,.9,1.79,2.17,1.8,1.26,2.24,1.94,2.17,2.99h0Zm-12.49,15.34s1.96,1.79,2.47,2.76c0,0-1.01.83-1.34,1.42-.32.58-1.19,1.94-2.17,2.31,0,0-1.04,1.34-2.16,1.43-1.12.07-1.88-.19-2.62-.22-.74-.03-3.73,0-5.97-2.24,0,0,3.2.45,4.03.45,0,0-2.84-2.09-3.44-2.99,0,0,.83-.53.74-1.27-.07-.75-.3-1.42.46-2.24,0,0,2.61.9,4.17,1.12,0,0-1.71-1.73-3.43-3.14,0,0,1.06-.11,2.32.4,0,0,.51-.1,1.71-1.07,1.19-.97,3.51-.71,4.85.18,1.34.87,2.61,2.67,2.61,2.67,0,0,1.57.82,2.61,2.53,0,0-2.72-1.77-4.86-2.08h0Zm-16.34-13.54s-1.55-.38-2.16-.59c.11.18,1.04,1.5,1.26,2.23,0,0-1.41.93-2.49,1.18-1.08.24-1.39.55-1.98,1.21-.6.68-2.1,1.49-3.59,1.27-1.43-.21-4.29-1.05-4.53-1.11.16.15,1.43,1.4,1.99,2.38,0,0-1.63.82-4.33,1.2,0,0-2.46,0-3.51-.3-1.05-.3-2.02-.83-2.09-1.49-.08-.68.51-1.42.51-1.42,0,0,2.17.83,3.44,1.05,0,0-3.21-2.99-4.34-3.82,0,0,2.25.37,3.59.83,0,0-.15-.83-.68-1.73-.52-.89.46-1.78.9-2.02.45-.22,2.54-1.04,3.06-1.41,0,0-1.34-1.12-2.84-1.95,0,0,2.92.3,4.41.75,0,0,1.2.08,2.47-.44,1.27-.53,1.71-.53,2.76-.37,1.04.15,1.17.44,1.86.51.69.08,1.35.01,1.35.01,0,0-.44-.61-1.56-1.05,0,0,2.39.3,3.51,1.05,0,0,1.93.34,3.05,1.43,1.13,1.1-.07,2.6-.07,2.6h0Zm-31.95-7.71c-1.26,1.04-2.8,1.65-2.8,1.65,0,0,.19,1.3.92,2.04,0,0-1.41-.13-2.59-.81,0,0-1.05,1.18-1.17,1.67-.13.49-1.67,2.46-2.59,3.14-.92.68-2.83,1.41-2.83,1.41,0,0,1.7,2.45,3.11,3.44-.36-.15-5.1-2.23-7.05-4.24,0,0-.19,1.48.3,2.22,0,0-2.33,1.05-4.98.43-2.49-.58-4.99-2.37-5.27-2.58.29.05,2.6.48,4.09.48,0,0-3.38-1.66-4-3.33-.62-1.66-.43-3.57,1.42-4.44,1.84-.86,3.44-.74,3.44-.74,0,0,4.44,2.09,7.01,2.71,0,0-3.38-2.22-4.24-3.64,0,0,2.4.07,3.08-.36s1.17-1.54,2.46-1.97c1.29-.43,2.65-.56,2.65-.56,0,0-1.23-.68-1.54-1.05,0,0,2.53.68,3.33.68,0,0,2.21.13,3.19.26.99.12,2.83-.5,4.37-.01,1.54.5.92,2.54-.34,3.6h0Zm-42.02-3.38c-.15,1.1-.93,3.91-2.41,4.54-1.49.62-1.89.73-1.89.73v3.26s-2.21-1.98-2.68-2.62c0,0-.59.02-2.16-.21s-3.44,2.43-6.33,2.2c0,0-4.76-1.02-5.54-2.98-.78-1.95-.48-3.6-.16-4.14,0,0,1.64,2.11,2.81,2.73,0,0-1.08-2.5-1.08-4.06,0,0,.93-.7,1.08-1.41.16-.7,1.96-1.8,3.05-2.03,1.1-.23,2.17.23,2.17.23,0,0,1.28,2.92,2.22,4.02,0,0-.4-5.73.07-7.76,0,0,1.19,2.64,1.82,3.5,0,0,1.3-.14,3.18-.45,1.88-.31,3.51-.15,4.6.93,1.1,1.1,1.41,2.43,1.25,3.53h0Zm-43.78,2.97c-.23,2.02-2.82,3.81-3.52,4.26-.69.47-1.98,1.39-2.37,2.69-.38,1.31-1.76,2.15-2.61,2.23-.84.07-1.98,1.3-1.98,1.3,1.2.29,2.89-.22,3.11-.29-.18.15-1.63,1.33-2.28,1.83-.69.54-2.98,1.07-3.82.99l-4.29-.07c-2.61-.08-5.59-.31-6.49-1.96-.85-1.57-1.21-1.61-1.25-1.61-1.84.84-5.66.81-5.66.81,3.68-1.53,6.83-4.99,6.83-4.99-1.98.84-4.23,1.18-4.23,1.18-.32-.54-.37-1.1-.3-2.25.08-1.14,1.15-1.76,1.15-1.76,0,0,.07-.61.84-1.61.77-.99,3.37-2.37,4.83-2.45,1.46-.08,3.29-.84,4.29-1.53.99-.69,4.51-2.15,6.27-2,1.76.15,2.46.46,2.46.46.99-.07,3.2-.46,3.2-.46-2.9,2.3-4.74,3.14-4.74,3.14,3.37-.39,6.28-1.76,6.28-1.76,3.44.23,4.51,1.85,4.28,3.86h0Zm-55.31,9.3s1.41.79,1.49,2.71c.08,1.92-.39,2.76.08,4.06.45,1.31-.32,2.22-2.14,3.29,0,0-1.84.38-3.68.23,0,0,1.39.69,1.99.77,0,0-1.99,1.68-4.82.99,0,0-3.44,2.07-6.05,1.69-2.6-.38-3.21-1.46-3.21-1.46,0,0,3.1-.56,5.31-.86,0,0-4.04-.93-5.35-1.69,0,0,.41-1.89,1.26-2.73.84-.85.64-1.06.64-1.06,0,0-3.32-.78-4.55-1.24,0,0,3.9-.6,5.13-1.05,0,0-.46-.95,1.07-2.17,1.53-1.23,2.83-2.45,3.44-3.15.62-.69,3.6-.76,5.28-.3,1.69.47,1.68.47,2.6.47s4.84-.38,4.84-.38c0,0-.77,1.21-3.33,1.89h0Zm283.29,63.22c4.1,3.3,7.87,8.25,8.26,13.03,0,4.57-3.8,6.1-7.86,6.88-3.68.71-8.38,3.99-9.22,4.59-.3.22-2.4-.85-2.84-1-1.68-.61-3.37-1.17-5.06-1.71-2.65-.86-5.32-1.65-8-2.38-1.22-.34-2.45-.65-3.67-.98-2.18-.56-4.53-.88-6.67-1.59l-.11-.03c-3.88-.85-7.79-1.62-11.71-2.22,0,0-2.71-2.45-3.99-4.45-1.28-2.01-1.17-4.13-1.17-4.13,3.24-.2,5.12-1.69,5.6-3.6.57-2.29-1.96-4.16-1.96-4.16l-.15-.06c-3.52-3.14-15.28-5.57-23.68-5.46-2.9.03-6.06.52-9.2,1.26h-.02c4.73-2.25,18.46-3.61,21.15-3.39,2.7.23,6.31.68,6.31-.9s-1.57-7.22-5.85-15.77c-2.84-5.68-7.45-10.45-10.24-13.02-.93-.97-1.96-1.93-3.13-2.92l.07.14.11.21.09.2.13.23.23.49.14.29.28.63c.29.68.62,1.49.93,2.41.32.91.61,1.9.85,2.95.08.35.15.7.21,1.06l.06.4c.47,2.86.37,5.97-1.05,8.63-.09.2-.21.4-.33.58h0c-.21.33-.43.63-.67.93-.25.3-.51.6-.8.88l-.25.21h-.01c-4.36,1.61-9.03,2.14-13.51.59-.74-.26-1.51-.52-2.26-.84-.28-.12-.55-.25-.83-.38-4.49-2.25-8.55-5.52-12.53-8.57-6.82-5.23-13.95-9.84-21.88-13.17.41-.28.69-.43.69-.43-.02-.21-.06-.44-.1-.69-.06-.28-.11-.57-.19-.82l-.05-.18-.05-.2-.07-.22-.06-.22c.68.47,1.15,1.05,1.42,1.46l.13.19.16.29c1.34-.46,3.7-1.9,4.15-2.85.43-.95,1.08-3.29.87-4.05-.22-.76-2.6-2-3.92-2.14-1.32-.14-3.09.74-3.09.74-1.3-.44-3.08-.68-3.08-.68,0,0-7.75-.87-13.27,3.12l.46.28.15.09.32.21.15.09.33.22.1.07.41.28h.02s.31.23.31.23l.12.09.15.1.1.07.02.02c-1.78-.55-3.57-1.06-5.36-1.56-.06-.5-.21-1.09-.56-1.25-.61-.29-2.52-1.49-2.86-1.66-.34-.18-1.69-.85-2.45-.68-.75.16-.68.98-.84,1.35-.16.33-.37.4-.41.41-3.26-.78-6.55-1.51-9.83-2.14-13.3-2.59-26.91-3.58-40.43-4.09-2.41-.09-4.82-.15-7.24-.15,1.83.8,3.34,2.42,4.35,4.12-2.69-.2-5.39-.35-8.08-.47-1.63-.56-3.93-1.13-6.34-1.05-1.3.05-2.25.46-2.98.93-6.69.13-13.37.76-19.96,2.31-10.5,2.48-20.97,5.09-31.45,7.67l-.26.07c1.77-1.11,3.31-2.67,4.72-4.21-3.1.77-6.25,1.41-9.41,1.96-5.15.91-10.45,1.7-15.7,1.4-8.68-.5-17.36-2.49-25.82-4.44l-2.24-.53h-.02c-.13-.09-3.65-2.33-4.01-2.56.51-.02,2-.1,3.28-.56,0,0-2.31-.28-3.03-.68,0,0,1.57-.4,2.02-.96.45-.56,1.01-1.81,1.19-1.92.16-.12,1.23-.23,1.23-.23,0,0-.4-.44-.85-.5,0,0,.79-1.02,1.81-1.24,1.01-.22,1.97-.62,2.09-1.24.1-.62-2.03-.62-2.03-.62,0,0,1.03-.65,2.68-.47,1.08-.53,3.19-2,1.53-3.13-.36-.26-.98-.57-1.43-.57.56,0,1.14-.4,1.73-.49.09-.02-1.78-.07-2.7.26-.9.34-1.8.17-1.8.17,0,0-1.01-.79-1.86-.68-.47.06-.97.22-1.36.4l.1-.11.06-.05.1-.09.05-.04s.89-.89,1.58-1.08c.69-.19,6.36-2.84,6.36-2.84,0,0-1.55.09-2.94,0-1.47-.1-2.64-.49-2.64-.49-.61-.21-.14-.92.21-1.36,0,0,5.75-.72,12.86-1.68,0,0,8.68-1.95,19.91-4.46.58.42,1.22.99,1.43,1.41.29.57,1.1,1.53,3.68,1.82,0,0-1.5,1.37-3.52,1.18,0,0,2.24,1.13,4.07,1.04,1.83-.09,3.08-.77,4.52-.68,1.43.1,2.31.29,3.46-.19,1.16-.48,1.52-1.87,1.52-1.87,0,0-2.52-1.44-3.39-2.69,0,0,3.09,1.17,4.84,1.03,0,0-.85-.81-.85-1.87,0-.59.44-1.74.35-2.8,15.28-3.43,30.24-6.78,32.99-7.43,1.84-.5,3.73-.98,5.65-1.43.01.66.22,1.39.89,2.04,1.84,1.86,4.49,3.7,6.64,3.83.42.02.84.01,1.21-.01h.05c.3-.02.59-.05.9-.11l.5-.09.35-.07.34-.09.27-.07.14-.05.21-.07c.35-.13,1.2.65,1.49.85l.03.02c.64.41,1.3.77,1.99,1.05l.07.02c.41.14,1.25.3,1.51.64l-.06-.09-.05-.08-.09-.14-.08-.13-.05-.08-.24-.37c-.21-.33-.45-.72-.72-1.15l-.03-.05c-.64-.96-1.28-1.93-1.82-2.95-.19-.34-.35-.7-.5-1.05l-.21-.54v-.03s-.02-.04-.02-.04c-.03-.12-.08-.29-.13-.34l.11.07.08.07.14.12.53.46c1.06.98,2.13,2.26,3.39,2.64,0,0,3-1.75,5.1-1.85,2.11-.1,4.07-.49,4.8-.92,0,0-.99-1.54-2.16-2.65,0,0,3.08,1.31,3.81,1.92,0,0,.99-.56.31-1.8-.56-1.02-.42-1.96-1.12-2.98,8.87-.5,18.65-.32,29.7.93,1.22.13,2.44.28,3.64.44-1.03.62-1.89,1.33-1.89,1.33-.19.97,2.23,3.98,2.23,3.98-1.35-.77-4.09-2.44-4.09-2.44-2.01,1.17-2.08,3.17-1.49,4.15.58.97,3.43,2.2,5.29,2.39,1.88.2,4.27-.84,4.27-.84,5.16.58,6.64-1.88,6.64-1.88-1.73-.92-4.19-2.95-4.19-2.95,1.57.78,6.46,2.31,6.46,2.31.62-.52.91-1.33,1.29-2.12.13-.27.26-.53.41-.77.13-.21.27-.41.44-.61,10.51,2.11,19.6,4.66,26.12,6.69-.54.08-1.2.19-2,.36-2.37.5-2.64,1.57-2.64,1.57-.4-.06-1.19-.22-1.19-.22.17.68,1.69,2.59,1.69,2.59-.9-.4-1.4-.85-1.4-.85,0,0-.51.46-.67,1.07-.18.62.38,1.35,1.23,1.86.84.51.9,1.02,2.53,1.47,1.63.46,1.81-.28,1.81-.28-.34-.29-.68-1.19-.68-1.19,0,0,2.02,1.13,2.75,1.3.73.17.9.28,1.91.12,1.01-.16,1.69-.28,2.82.06,1.12.34,2.14.29,2.14.29.81.85,2.58,1.17,2.58,1.17-.4-.38-1.3-1.4-1.3-1.4.9-.23,1.4-.81,1.4-.81.33.15,1.19.29,1.19.29-.96-.68-.9-1.35-.9-1.35.34.57,2.08,1.25,2.59,1.3.5.06,1.76-.13,1.76-.13.58.31,3.51,2.91,3.51,2.91.54.58.38-2.53.38-2.53.11.51,1.5,1.83,1.5,1.83.56-.16.95-.55,1.5-1.17.57-.63.38-1.52.38-1.52.4.96,1.2,1.06,1.2,1.06-.4-.79-.29-2.36-.29-2.36,0,0,.51-.07.9-.35.4-.28.51-.68.79-1.12.28-.46,1.24-.62,1.77-1.03.53-.41-.42-2.3-.76-2.86-.34-.56-1.35-1.07-2.87-1.47-1.53-.4-3.6-.06-3.6-.06.06.91-.12,1.81-.12,1.81-.39-1.47-2.38-2.63-2.38-2.63.4,1,.13,1.95.13,1.95-.38.23-.84.22-2.03.34-1.18.12-2.69,1.35-2.69,1.35.16.9.06,1.7.06,1.7-.11-.29-.67-.79-.67-.79-.29.28-.74,2.09-.74,2.09-.45-.34-1.07-.77-1.07-.77-5.42-2.91-10.25-5.25-14.51-7.16.41-.16.93-.3,1.52-.3,1.24,0,2.47-1.05,2.47-1.05.77,1.24,1.25.96,1.25.96-.29-.77,0-2.39,0-3.63s-1.91-2.58-1.91-2.58c0-.68-.85-1.24-.85-1.24,0,0-.2.57-.67.57s-1.6-.45-2.95-.77c-.92-.21-3.35,0-3.35,0,.48,1.92.75,4.19.75,4.19,0,0-2.46-2.94-3.03-2.94s-1.43.19-2.76,1.14c-.69.49-1.46.81-2.04.99-9.25-3.25-13.7-3.51-13.7-3.51,0,0,15.11-3.75,37.59.7,15.64,3.08,27.19,8.18,36.87,12.97.51,1.03,1.14,1.84,1.6,2.34l.22.26.09.1.08.1-.22-.06c-.89-.25-1.64-.92-2.34-1.53l-.12-.09-.09-.07-.08-.07v.22s.01.31.01.31l.02.13.07.29c.07.22.17.48.35.74l.18.23c.2.26.45.52.8.78,1.7,1.26,4.67,2.11,6.1,2.85,1.62.84,3.59,2.01,3.59,2.01-.31-1.26-1.37-2.23-1.88-3.14-.29-.54-.15-1.03-.15-1.03.33.94,2.31,1.87,2.31,1.87,1.27.43,2.47.62,3.34.7,11.83,5.95,36.8,20.13,37.23,20.33.51.23,1.06.51,1.62.82l.56.31c.62,1.85.29,2.92.29,2.92-.72-.43-2.24-2.11-2.24-2.11-.13.63,0,1.13,0,1.13,0,0-1.39.72-1.1,2.5.29,1.77,1.98,1.9,1.98,1.9-.25-.6-.29-1.4-.29-1.4,0,0,1.01.89,1.52,1.27.51.38,2.5,1.05,4.14,1.39,1.65.34,3.44,1.92,3.44,1.92-.64-1.23-.39-2.25-.39-2.25.77,1.13,3.1,3.49,3.1,3.49,1.01.5,2.46.75,3.99,1.33.78.3,1.48.71,1.97,1.04.56.74,1.05,1.46,1.46,2.17-.71,1.43-3.81,4.88-17.05,2.7-10.83-5.76-22.04-10.39-22.04-10.39,24.23,14.56,43.42,34.3,44.36,40.16.94,5.86-3.54,8.87-.6,11.13,2.94,2.25,8.86-5.08,8.86-5.08h0Zm-55.75,37.75c-1.82.84-3.66,1.61-5.56,2.26-.93.31-1.86.61-2.81.86-3.36.92-6.73,1.26-10.19,1.47-.09.01-.22,0-.38-.02l.08-.26c.03-.16.07-.31.08-.46.21-2.08-2-3.62-2-3.62l-.07-.03-.2-.09-.08-.03c-1.43-.68-2.88-1.33-4.32-1.98-2.52-1.13-5.04-2.22-7.6-3.26l-1.47-.59c-.36-.15-.72-.3-1.08-.44-5.86-2.32-11.8-4.43-17.81-6.37-3.62-1.17-7.26-2.26-10.9-3.3l-1.75-.5c-6.14-1.77-12.87-3.56-20.19-5.32-4.8-4.52-9.53-9.04-14.61-13.2,33.75,9,56.85,18.94,68.59,24.61,4.18,1.95,7.02,3.42,8.47,4.2,1.3.4,3.13.62,4.08-.71,1.95-2.75-1.39-5.12-1.39-5.12,0,0-29.6-15.67-85.16-27.12-5.48-3.9-11.28-7.15-16.97-10.68-1.97-1.21-4-2.49-5.68-4.08-.86-.81-1.78-1.82-1.9-3.06-.02-.23-.02-.48,0-.71v-.05c.02-.15.05-.3.08-.46l.03-.14.03-.1.13-.38.09-.22c.5-1.17,1.4-2.23,2.29-2.98l.4-.35.28-.23.36-.3.38-.33h.02s.14-.13.14-.13l.08-.07.02-.02.1-.09.06-.03h.06s.01-.01.01-.01h.01s.35-.09.35-.09l.5-.13c2.38-.59,4.89-1.2,7.44-1.61.85-.14,1.71-.25,2.56-.34.92,2.99,5,7.41,5,7.41-1.93.14-4.41-.55-4.41-.55,3.59,4.83,13.53,10.91,21.25,12.43,7.73,1.52,14.76,1.24,14.76,1.24-1.1.56-2.89,1.25-2.89,1.25,0,0,3.03-.14,7.16.69.54.1,1.12.25,1.75.42,2.75.71,6.14,1.84,8.13,2.54.23.07.45.15.64.22h.03s.02.02.02.02c.62.41,1.21.81,1.79,1.21,3.45,2.3,6.73,4.85,9.87,7.56.91.78,1.81,1.58,2.68,2.38,1.42,1.31,2.7,2.72,4.1,4.04-.12-.1-.14-.64-.19-.81-.08-.3-.2-.61-.31-.91-.26-.63-.49-1.27-.76-1.89-.52-1.25-1.12-2.47-1.76-3.66-1.29-2.39-2.77-4.68-4.39-6.87-.91-1.22-1.86-2.44-2.85-3.62-.72-.84-1.48-1.66-2.24-2.49-.61-.66-1.34-1.87-2.24-2.16h-.02s-.05-.03-.05-.03c.73.02,1.42.08,2.09.16.22.02.43.05.64.08.29.03.56.08.84.14.73.13,1.41.3,2.05.5.25.07.48.15.71.23s.45.16.68.26c.44.18.86.37,1.26.57.2.09.4.2.58.3l.55.33.52.34.49.35.28.21c.19.14.37.29.55.44.21.18.4.35.58.54.12.09.22.2.32.3.84.85,1.49,1.74,1.99,2.57l.27.48c.63,1.12.98,2.1,1.17,2.72l.07.25.11.47c8.6-.31,14.85,8.62,16.52,10.87h.07-.06s.05.03.05.03c1.37.74,2.74,1.5,4.09,2.29l.72.43,1.01.61c1.18.69,2.37,1.39,3.52,2.14,3.12,1.96,6.41,4.06,9.06,6.7-.48-.01-.98.06-1.46.18s-.95.26-1.4.38c3.31,2.33,6.31,5.08,8.99,8.09.35.38,3.33,4.26,3.42,4.26h0Z"/>
  <path class="cls-4" d="m338.99,105.25c-2.08,4.29-13.09-1.47-24.91-2.53-11.81-1.06-27.7,3.53-27.7,3.53l.38-.3c1.13-.84,2.37-1.52,3.63-2.15,1.04-.53,2.1-1.02,3.17-1.48,3.75-1.62,7.68-2.92,11.67-3.86h.02c3.14-.74,6.3-1.23,9.2-1.26,8.4-.1,20.17,2.32,23.68,5.46.93.83,1.29,1.7.86,2.6h0Zm-27.79,30.18c-.95,1.33-2.78,1.11-4.08.71-1.44-.78-4.29-2.25-8.46-4.2-11.75-5.67-34.85-15.61-68.6-24.61-11.61-3.09-24.45-6.08-38.54-8.74-8.8-1.66-16.95-3-24.5-4.06,7.7.74,16.03,1.7,25.02,2.99,11.71,1.68,22.58,3.61,32.62,5.68,55.56,11.45,85.16,27.12,85.16,27.12,0,0,3.34,2.37,1.39,5.13h0Zm.94,10.65c-.01.14-.05.29-.08.46l-.08.26v.02c-.1.25-.23.5-.41.75-.92,1.34-2.75,1.13-4.07.75-1.46-.76-4.31-2.21-8.5-4.11-15.87-7.48-52.28-22.4-107.48-32.26-8.61-1.54-16.47-2.79-23.88-3.77h-.05s-.23-.03-.23-.03l-.1-.02c1.37.12,2.78.25,4.19.38.23.01.45.03.68.06,8.05.85,16.08,1.76,24.08,2.87,10.1,1.4,20.14,3.1,30.14,5.09,9.1,1.81,18.17,4.05,27.17,6.31,3.8.96,7.57,1.96,11.35,3.02l1.75.5c3.65,1.04,7.28,2.14,10.9,3.3,6.01,1.94,11.95,4.05,17.81,6.37.36.14.72.29,1.08.44l1.47.59c2.55,1.04,5.08,2.12,7.6,3.26,1.44.65,2.89,1.31,4.32,1.98l.08.03.2.09.07.03s2.21,1.54,2,3.62h0Zm4.44-80.71c13.75,14.24,4.04,26.4,4.04,26.4,0,0-17.32-3.6-30.47-2.86-6.27.36-13.67,3.21-19.71,6.08l.16.02.09.04c.9.29,1.63,1.49,2.24,2.16.76.83,1.52,1.65,2.24,2.49.99,1.18,1.95,2.38,2.86,3.61,1.62,2.2,3.09,4.48,4.38,6.88.64,1.19,1.24,2.42,1.76,3.66.27.62.51,1.26.76,1.89.11.3.23.61.31.91.04.17.07.7.18.81-1.39-1.32-2.68-2.73-4.09-4.04-.88-.81-1.77-1.6-2.68-2.38-3.13-2.71-6.42-5.26-9.87-7.57l-1.85-1.24c-.96-.64-1.92-1.27-2.92-1.87-2.03-1.27-4.81-2.95-7.39-4.31-3.9-2.07-7.91-3.99-12.03-5.63-2.57-1.31-5.08-2.69-7.57-4.12-3.36-1.95-6.69-4-9.86-6.26-1.5-1.06-3.25-1.95-4.56-3.26-.08-.08-.19-.18-.27-.19-.82-.13-1.63-.19-2.4-.21-1.04-.03-2.09,0-3.12.07-.08.01-1.27.14-1.27.13-.85.09-1.71.2-2.57.34-2.55.41-5.07,1.02-7.45,1.61l-.5.13-.35.08c.3-.26,3.36-2.88,5.22-3.92,2.72-1.52,5.75-2.45,8.71-3.35,3.08-.92,6.68-1.65,9.87-1.95,10.82-1.03,21.52.78,31.56,4.19,9.77,3.32,18.75,8.4,28.77,11.08,1.28.34,2.56.65,3.85.93l.72.15h.01c4.18.87,8.61,1.56,12.8.52,2.52-.63,5.27-1.88,7.24-3.65l.29-.25c.85-.82,1.56-1.82,2.05-2.91,1.2-2.66,1.04-5.29.79-8.11l-.06-.4c-.06-.36-.13-.71-.21-1.06-.25-1.05-.54-2.04-.85-2.95-.31-.91-.64-1.73-.93-2.41-.1-.22-.2-.43-.28-.63l-.14-.29-.23-.49-.13-.23-.09-.2-.11-.21-.07-.14c1.17.99,2.19,1.95,3.13,2.92h0Z"/>
  <path class="cls-2" d="m334.64,110.45s-.12,2.12,1.17,4.13c1.28,2,3.99,4.45,3.99,4.45-.77-.12-1.54-.23-2.31-.34-3.09-.44-6.2-.79-9.31-1.07-1.43-.13-2.87-.23-4.31-.33-.27-.02-5.19-.25-5.75-.26-4.99-.13-10.01.08-14.98.08h-.25c-1.67-2.25-7.92-11.19-16.52-10.88,0,0,15.9-4.59,27.7-3.53,11.82,1.06,22.83,6.82,24.91,2.53.43-.9.07-1.77-.86-2.6l.15.06s2.53,1.87,1.96,4.16c-.48,1.9-2.36,3.4-5.6,3.6h0Zm-89.97,10.07c7.32,1.76,14.05,3.55,20.19,5.32-3.77-1.06-7.55-2.07-11.35-3.02-8.99-2.26-18.07-4.5-27.17-6.31-10-1.98-20.04-3.69-30.14-5.09-8-1.11-16.03-2.02-24.08-2.87-.22-.02-.44-.05-.68-.06-1.41-.14-2.82-.27-4.19-.38l.1.02h-.25c2.04.53,4.08,1.1,6.1,1.69,2.88.85,5.93,1.62,8.62,2.98-3.16-.23-6.45-.54-9.61-.18,1.35.54,2.91,1.09,4.04,2.03-5.37.06-10.75.19-16.13.38-9.4.33-18.85.7-28.19,1.95,4.69,1.5,9.92,3.72,13.66,7.18.54.49,1.04,1,1.5,1.55-3.72.22-7.46.55-11.17.94-.47-.97-1.15-1.95-2.1-2.49-.31-.19-.65-.33-1.02-.41l-.62-.14c-.41-.08-.84-.19-1.27-.3-.66-.18-1.35-.4-2.03-.68-.23-.09-.45-.2-.68-.3-.23-.09-.45-.21-.66-.35-.55-.31-1.07-.69-1.56-1.12l-.03-.02c-1.06-.99-1.96-2.31-2.53-4.13,0,0-.99-2.81-3.1-3.52h-.05c-.73-.26-1.76-.57-2.83-.86-.29-.08-.58-.15-.87-.22-.62-.15-1.22-.27-1.78-.35-.99-.14-1.82-.14-2.21.13-1.06.71-1.23,2.14-1.26,2.29h0s2.45-.13,3.86-.4h.07s-2.67,1.96-8,2.66h.01c.19.06.9.26,1.71.36.48.07.99.1,1.46.06h.05s-.56,1.98-.84,3.24c-.28,1.27.28,3.66,1.68,4.78h.01s2.35-.13,4.86-.68h.06s-.84,1.39-1.97,2.24c0,0,1.27.7.56,1.83-.7,1.12-2.39,4.08-1.4,6.06.4.81,1.18,1.67,1.97,2.4,0,0-5.64,1.61-8.29,2.51-7.96,2.7-15.69,6.15-22.68,10.78.91.18,1.81.38,2.69.59,1.34.31,2.68.66,4,1.06.83.26,1.65.51,2.47.82h.03s-.59.68-.78,1.39c-.1.42-.22.77-.35,1.06l-.12.28-.16.31-.14.22c-.08.12-.16.21-.25.29-.23.26-.48.4-.7.53-.54.31-1.19.43-1.62.97-.33.41-.71,1.07-.84,2.23l-.03.02s-2.56,1.37-3.67,2.12c-1.18.79-2.33,1.62-3.44,2.51-.64.53-1.89,1.6-2.05,1.74l-.3-.35-.48-.53-.2-.23-.26-.3c-2.27-2.58-5.98-6.98-5.66-7.33,4.56-5.04,4.34-9.72,4.34-9.72h-.03c-1.22.54-3.69.17-3.89.14,3.1-1.84,5.76-5.76,5.76-5.76l-.07.03-.76.38c-.27.12-.52.23-.79.34l-.52.25-.25.1-.07.02c-.21.08-.41.14-.58.13h-.05c-.43-1.84-1.69-4.24-3.1-5.36-1.41-1.13-3.23-4.52-3.23-4.52h-.03c-.31,0-.71.03-1.14.07-.78.08-1.55.22-2.33.29l-.17.02h-.22s.12-.12.12-.12c.71-.72,3.36-2.57,3.36-3.08,0-1.12,1.27-4.08,1.97-5.64.21-.46.3-.93.3-1.41l-.02-.4v-.08s-.09-.38-.09-.38c-.02-.13-.07-.27-.12-.4l-.03-.09c-.05-.13-.1-.26-.17-.38l-.15-.29c-.58-.93-1.54-1.66-2.62-1.9l-.13-.02c-1.78-.38-3.96-.05-5.8.34l-.56.09c.2.02.42.05.65.1.85.13,1.82.4,2.45.93l.13.12.13.12c-2.95.43-4.64,1.83-4.64,1.83-.56.46-1.05.9-1.46,1.31v-.05c-.58-3.14-.97-6.3-1.14-9.47-.31-5.9-.26-12.04,1.56-17.72.06-.13.22-.23.45-.31.58-.06,1.14-.12,1.71-.19,3.69-.46,7.36-1.17,10.95-2.15,6.66-1.83,13.21-4.68,18.34-9.38.44-.4.65-.63.68-.65l-.07.02c-.38-.12-8.59-.84-12.01-1.61-.95-.21-1.99-.53-2.76-.87,0,0,6.94.08,18.32-3.26,1.61-.44,3.19-.97,4.76-1.52,1.97-.71,3.97-1.48,5.92-2.33l.06-.02.05-.02c.72-.31,1.43-.64,2.14-.98l.09-.05c2.14-1,4.19-2.17,6.2-3.42l.92-.48.09-.05c.59-.23,1.18-.48,1.76-.74,1.11-.49,2.2-1.02,3.3-1.59,1.28-.65,2.56-1.33,3.81-2.04.77-.44,1.53-.9,2.27-1.35,3.42-2.1,10.4-7.9,10.46-7.97l-.07.02-.07.05c-.97.53-1.96,1.03-2.95,1.52-3.79,1.94-7.71,3.73-11.77,4.98-.48.14-.95.29-1.44.42-2.94.85-5.92,1.5-8.92,2.07-2.6.48-5.22.84-7.85.9-2.61.07-5.24-.08-7.83-.47-1.44-.22-2.9-.48-4.33-.81-1.56-.36-3.12-.77-4.66-1.25-1.39-.43-2.75-.96-4.12-1.41-4.54-1.69-8.84-3.93-13.01-6.39-.99-.58-3.86-2.38-4.04-2.51l2.24.53c8.46,1.95,17.14,3.93,25.82,4.43,5.25.3,10.55-.49,15.7-1.4,3.16-.55,6.3-1.19,9.4-1.96-1.41,1.54-2.95,3.1-4.72,4.21l.26-.07c10.48-2.58,20.95-5.19,31.45-7.67,6.58-1.55,13.26-2.18,19.96-2.31-.5.33-.9.7-1.21.99-.77.72-2.42,1.02-2.42,1.02-.91.08-3.32.2-3.32.2,3.46.97,4.44,2.16,6.55,2.96-1.93-.29-5.34-.94-5.34-.94-.45,1.9-1.81,2.51-2.82,3.27-1.01.77-1.1,1.35-1.1,1.35,1.81.38,6.41,2.99,6.41,2.99-1.69-.47-6.41-.48-6.41-.48-.26.84-.47.84.89,2.4,1.34,1.56,1.22,2.21.76,2.71-.47.5-1.53,1.77.5,3.38,2.04,1.6,5.84,1.31,7.06,1.13,1.22-.16,2.41.1,2.41.1-.92-.68-2.37-2.14-2.37-2.14.93.08,3.96.77,3.96.77,0,0-.93-.93-.34-1.61.58-.68,2.45-.42,3.83-1.52,1.4-1.1,1.1-3.59,1.4-4.14.29-.55,1.72-1.39,1.72-1.39.55-.05,1.4,0,1.4,0-1.27-.77-5.45-2.8-5.45-2.8,1.51.03,4.1.25,4.1.25-.13-.68-.98-2.57-1.27-3.42-.29-.84-.03-1.6.08-2.11.13-.5.05-1.39.05-1.39-.42-.47-1.18-.89-1.18-.89,1.51.03,3.75.37,3.75.37-.22-.1-1.08-.53-2.33-.96,2.69.12,5.39.27,8.08.47-1.01-1.7-2.52-3.33-4.36-4.12,2.42,0,4.83.06,7.25.15,13.51.5,27.13,1.49,40.43,4.08,3.27.63,6.56,1.35,9.82,2.14.84.66,2.11,1.31,2.41,1.45-.84-.3-3.67-.4-3.67-.4-.42.34-.62,1.32-.2,3.01l.03.18c-1.26-.28-4.53-.85-7.14.07,0,0,2.37,1.53,4.37,4.34,0,0-19.39,3.56-27.13,17.48l-.31.64-.1.09-.02.02-.08.07-.14.12h-.02s-.38.34-.38.34l-.36.3-.28.23-.4.35c-.9.75-1.79,1.81-2.29,2.98l-.09.22-.13.38-.03.1-.03.14c-.03.15-.06.3-.07.46v.05c-.03.23-.03.48-.01.71.12,1.24,1.04,2.25,1.9,3.06,1.69,1.6,3.72,2.87,5.68,4.08,5.7,3.52,11.5,6.78,16.97,10.68-10.04-2.07-20.9-4-32.62-5.68-8.99-1.28-17.32-2.25-25.02-2.99,7.55,1.06,15.7,2.4,24.5,4.06,14.1,2.67,26.93,5.66,38.55,8.75,5.08,4.15,9.81,8.68,14.61,13.2h0Zm88.01-26.37c0,1.58-3.6,1.13-6.31.9-2.69-.22-16.42,1.13-21.15,3.39-3.98.94-7.91,2.24-11.67,3.86-1.07.47-2.13.96-3.17,1.48-1.26.63-2.5,1.31-3.63,2.15l-.38.3s-.62-3.41-3.61-6.47c-.16-.18-.34-.35-.53-.51-.36-.34-.75-.66-1.19-.98-1.27-.94-2.86-1.79-4.79-2.38-.64-.2-1.33-.36-2.05-.5-1.1-.21-2.28-.34-3.57-.39h-.02l-.16-.02c6.04-2.87,13.44-5.72,19.71-6.08,13.15-.74,30.47,2.86,30.47,2.86,0,0,9.71-12.15-4.04-26.4,2.8,2.57,7.4,7.33,10.24,13.02,4.28,8.56,5.85,14.2,5.85,15.77h0Zm-26.48-7.78c-4.19,1.05-8.62.35-12.8-.51-.99-.27-2.29-.68-3.44-1.13-1.57-.62-3.15-1.3-4.35-1.87-.28-.13-.55-.26-.79-.4-3.88-2.15-6.41-5.07-7.57-7,0,0-.19,1.75.2,3.1,0,0-7.96-3.5-12.24-7-3.3-2.7-4.85-7.19-4.85-9.34v-.18c.75-.73,1.56-1.34,2.11-1.73,7.93,3.33,15.06,7.94,21.88,13.17,3.98,3.05,8.04,6.32,12.53,8.57.28.14.55.27.83.38.74.32,1.52.58,2.26.84,4.48,1.54,9.15,1.02,13.51-.59l-.03.03h0c-1.97,1.78-4.73,3.02-7.24,3.65h0Zm65.78-7.55c-2.18-1.93-5.1-3.93-8.35-5.92-2.37-1.47-4.89-2.92-7.28-4.13l-.26-.13c13.24,2.18,16.34-1.27,17.05-2.7l.08.14c.2.36.39.72.53,1.07,2.64,6.28-1.77,11.66-1.77,11.66h0Z"/>
  <path class="cls-3" d="m293.46,243.45l-5.45-3.54-.71-7.84s7.72,5.06,6.16,11.38h0Zm-18.39-17.2s-4.34,16.91-24.55,27.79c0,0-15.41-5.23-23.84-24.62-6.81-15.68-.32-45.04-9.44-61.64-6.05-11.03-16.76-13.6-16.76-13.6,0,0,6.67-3.83,20.56.68,22.88,7.4,25.37,37.36,25.74,43.51.71,12.1,2.8,27.72,10.74,31.95,0,0-4.68-6.48-4.81-21.78-.42-45.51-16.14-51.93-16.14-51.93,0,0,19.2,3.15,24.36,19.43,5.16,16.29-3.15,41.25,14.15,50.22h0Zm100.49-91.62c-.68,6.08-10.13,14.87-10.13,14.87-1.35-3.37-6.41-11.49-6.41-11.49,0,0,1.35-3.38-3.72-7.79-5.06-4.39-18.91-4.39-18.91-4.39,0,0,3.73-2.13,8.44-1.69,12.38,1.13,30.73,10.49,30.73,10.49h0Zm-97.02-48.29s-11.98,7.56-20.65,5.31c-8.68-2.24-23.57-14.03-23.57-14.03,0,0,5.7-.75,15.12.83l.24.05c1.71.38,3.54,1.77,4.92,2.74.84.6,1.6,1.3,2.4,1.93.16.13,2.26,1.41,2.35,1.41l-.03.47c0,2.21,1.79,4,4.01,4s4-1.8,4-4c0-.88-.28-1.68-.76-2.34,7.9,2.26,11.97,3.63,11.97,3.63h0Z"/>
  <path class="cls-4" d="m332.83,46.89s-2.44-2.15-3.29-2.89c0,0,1.19,2.82,1.38,3.43,0,0-2.3.08-3.54-.89-1.25-.97-3.04-2.11-2.58-2.11,0,0,.56.03,1.03.1,0,0-1.42-1.72-3.86-1.86,0,0-1.48.34-3.18-.53-1.7-.87-2.41-1.76-2.41-1.76,0,0-.93-1.04-1.11-2.37,0,0,1.67,1.17,2.49,1.49,0,0-1.47-2.1-1.47-3.35,0,0,1.05-.21,2.37.29,1.33.5,1.69.1,1.69.1,0,0-.57-.75-.79-1.51,0,0,1.68,1.4,2.39,1.72,0,0,2.08-.64,3.65.03,1.57.68,3.36,2.43,3.64,2.76.27.31,1.33,1.11,1.46,1.2-.11-.14-.93-1.25-1.16-2.13.13.08,1.17.76,1.64.99.5.26,1.46,1.26,1.64,1.9.17.64-.86,1.68-.86,1.68,0,0,1.36,1.75,1.36,2.46s-.46,1.21-.46,1.21h0Zm13.43,11.07c-.34.51-.84.51-.84.51,0,0-3.04-1.82-3.85-2.21,0,0,1.53,2.37,1.74,2.92,0,0-2.62-.39-3.3-1.31,0,0-2.95-.72-4.01-1.44-1.05-.72-1.9-1.82-1.9-2.42,0,0,1.69.81,2.54,1.19,0,0-2.28-2.76-3-3.42,0,0,.79-.85,1.77-1.11.97-.25,1.43-.25,1.81-.21,0,0,.05-.58-.42-1.1,0,0,2.74,1.65,4.01,2.97l-.34-1.19s2.19.55,3.21,1.53c1.01.97,1.52,2.07,1.82,2.57.29.51,1.1,2.21.76,2.71h0Zm-100,10.36s-1.63-1.05-2.55-1.31c.19.19,2.05,2.1,1,2.35,0,0-.93-1.08-2.62-1.84-1.69-.76-4.8-2.29-5.73-3.13-.87-.79-1.45-2.48-1.5-2.69.1.14.62.83,1.08.91.47.08,1.84.97,2.02,1.09-.06-.14-.54-1.3-1.1-1.76-.58-.51-2.02-1.19-2.78-2.11l.84-.26s.23-1.66-.14-3.29l-.03-.18c-.42-1.69-.22-2.67.2-3.01,0,0,2.83.09,3.67.4-.3-.14-1.58-.78-2.41-1.45.03-.01.25-.08.41-.41.16-.37.08-1.19.84-1.35.76-.18,2.11.5,2.45.68.34.16,2.25,1.37,2.86,1.66.35.16.5.75.56,1.25,1.8.5,3.58,1.02,5.36,1.56l.1.08h.02s.06.06.06.06c-1.06-.26-3.25-.56-4.28-.7-.31.3-.98.98-1.26,1.33,0,0-.62.81-.98,2.87-.11.67.26,2.2.93,2.79.67.58,2.79,2.53,3.12,3.45.34.93-.28,2.38-.14,3.01h0Zm-1.77-35.96c-1.26,1.04-2.8,1.65-2.8,1.65,0,0,.19,1.3.92,2.04,0,0-1.41-.13-2.59-.81,0,0-1.05,1.18-1.17,1.67-.13.49-1.67,2.46-2.59,3.14-.92.68-2.83,1.41-2.83,1.41,0,0,1.7,2.45,3.11,3.44-.36-.15-5.1-2.23-7.05-4.24,0,0-.19,1.48.3,2.22,0,0-2.33,1.05-4.98.43-2.49-.58-4.99-2.37-5.27-2.58.29.05,2.6.48,4.09.48,0,0-3.38-1.66-4-3.33-.62-1.66-.43-3.57,1.42-4.44,1.84-.86,3.44-.74,3.44-.74,0,0,4.44,2.09,7.01,2.71,0,0-3.38-2.22-4.24-3.64,0,0,2.4.07,3.08-.36s1.17-1.54,2.46-1.97c1.29-.43,2.65-.56,2.65-.56,0,0-1.23-.68-1.54-1.05,0,0,2.53.68,3.33.68,0,0,2.21.13,3.19.26.99.12,2.83-.5,4.37-.01,1.54.5.92,2.54-.34,3.6h0Zm24.01,24.3c-.45.94-2.81,2.39-4.15,2.85l-.16-.29-.13-.19c-.27-.41-.75-.99-1.42-1.46l.06.22.07.22.05.2.05.18c.07.25.13.54.19.82.04.25.08.48.1.69,0,0-.28.15-.69.43-.55.38-1.36.99-2.11,1.73-.58.56-1.12,1.19-1.48,1.87-1.18,2.17-1.09,3.82-1.09,3.82,0,0-1.01-.43-1.93-1.14,0,0,.46,1.96,2.12,2.79,0,0,.94,1.25.54,2.19,0,0-2.9-.23-3.58-.78-.68-.56-2.83-1.34-2.83-1.34,0,0,.72-.12,1.49-.07,0,0-.78-1.9-1.53-2.54-.75-.63-2.25-1.79-1.91-3.26,0,0,1.77.13,2.62.47,0,0-2.8-2.43-4.51-2.81l2.34-.13s-.32-1.66,2.66-3.11c2.98-1.45,3.9-2.37,4.53-3.3.62-.93.87-1.89,1.65-2.45,0,0,1.46.83,2.61,1.7,0,0-.66-1.97-2.77-3.42,0,0,1.77.23,3.08.68,0,0,1.77-.88,3.09-.74,1.32.14,3.7,1.38,3.92,2.14.21.76-.45,3.11-.87,4.05h0Zm7.94-16.59s-1.55-.38-2.16-.59c.11.18,1.04,1.5,1.26,2.23,0,0-1.41.93-2.49,1.18-1.08.24-1.39.55-1.98,1.21-.6.68-2.1,1.49-3.59,1.27-1.43-.21-4.29-1.05-4.53-1.11.16.15,1.43,1.4,1.99,2.38,0,0-1.63.82-4.33,1.2,0,0-2.46,0-3.51-.3-1.05-.3-2.02-.83-2.09-1.49-.08-.68.51-1.42.51-1.42,0,0,2.17.83,3.44,1.05,0,0-3.21-2.99-4.34-3.82,0,0,2.25.37,3.59.83,0,0-.15-.83-.68-1.73-.52-.89.46-1.78.9-2.02.45-.22,2.54-1.04,3.06-1.41,0,0-1.34-1.12-2.84-1.95,0,0,2.92.3,4.41.75,0,0,1.2.08,2.47-.44,1.27-.53,1.71-.53,2.76-.37,1.04.15,1.17.44,1.86.51.69.08,1.35.01,1.35.01,0,0-.44-.61-1.56-1.05,0,0,2.39.3,3.51,1.05,0,0,1.93.34,3.05,1.43,1.13,1.1-.07,2.6-.07,2.6h0Zm43.45,15.03s.53,1.34.83,1.95c0,0-1.79-.75-3.37-.75,0,0-.7,1.06-2.37.71-1.67-.34-3.3-1.61-3.3-1.61,0,0,1.49.07,2.68.07,0,0-.52-.59-1.93-.9-1.42-.29-2.26-.54-3.26-1.32,0,0-.25.79.42,1.32,0,0-2.24.59-2.61-1.65s-1.64-2.09-.75-3.74c.89-1.62,2.74-1.63,2.8-1.63,0,0-1.6-.98-2.65-1.58,0,0,3.66.97,6.49,2.69,0,0-.22-1.12-.89-1.71,0,0,1.95-.6,4.11.9,2.16,1.49,2.24,2.84,3.88,3.96s.66,2.85-.08,3.29h0Zm-24.64,1.27s-1.01.83-1.34,1.42c-.32.58-1.19,1.94-2.17,2.31,0,0-1.04,1.34-2.16,1.43-1.12.07-1.88-.19-2.62-.22-.74-.03-3.73,0-5.97-2.24,0,0,3.2.45,4.03.45,0,0-2.84-2.09-3.44-2.99,0,0,.83-.53.74-1.27-.07-.75-.3-1.42.46-2.24,0,0,2.61.9,4.17,1.12,0,0-1.71-1.73-3.43-3.14,0,0,1.06-.11,2.32.4,0,0,.51-.1,1.71-1.07,1.19-.97,3.51-.71,4.85.18,1.34.87,2.61,2.67,2.61,2.67,0,0,1.57.82,2.61,2.53,0,0-2.72-1.77-4.86-2.08,0,0,1.96,1.79,2.47,2.76h0Zm10.01-18.1c-.08,1.04-.83,1.87-2.1,2.02-1.27.14-2.02-.37-2.46.22-.44.59-1.12,1.19-1.8,1.34,0,0-4.32-2.69-6.2-3.66,0,0,1.58,2.02,1.95,2.85,0,0-2.61.22-4.41-.52-1.79-.75-2.99-1.38-4.25-1.93-1.27-.54-2.61-2.33-2.61-2.33,0,0,2.09.97,3.21,1.27,0,0-1.86-2.1-1.94-2.77,0,0,1.41-.37,2.09-1.2.63-.77,2.48-1.27,3.88-1.34h.3c1.42,0,4.93,1.87,6.64,3.14,0,0-1.49-2.09-2.61-3.14,0,0,2.68,0,3.36-.22.68-.23,2.24-.39,3.36.14,1.05.49,1.64,1.58,1.71,1.71-.14-.06-1.25-.53-2.09-.74,0,0,0,.9,1.79,2.17,1.8,1.26,2.24,1.94,2.17,2.99h0Zm-137.91,117.24s1.44,2.91,1.56,5.37c.1,2.46-1.9,3.24-3.9,4.03-2.02.78-4.25.34-4.92-.1-.68-.46-1.79-.34-1.79-.34.66-.9,3.47-2.8,3.47-2.8-2.69.23-5.15,1.9-5.15,1.9,0,0-4.24.68-6.48.68s-5.68-2.12-5.68-2.12c-1.34,0-3.24,1-3.24,1,1-1.69,5.36-4.82,5.36-4.82-2.02.44-4.58,2.12-4.58,2.12-.78-.78-4.59-3.13-5.59-3.91-1-.78-1.67-1.9-1.34-4.14.34-2.23,2.9-2.46,5.24-2.57,2.37-.1,5.59-.12,5.59-.12-.94.74-1.58,2.07-1.65,2.23.47-.68,3.98-2.37,3.98-2.37,0,0,3.81-1.09,6.38-2.21,2.56-1.12,4.9-.89,7.26.56,2.35,1.45,4.58,5.93,4.58,5.93,1.78-.74,4.64-1.17,4.99-1.21-1.46.69-4.09,2.89-4.09,2.89h0Zm-54.68-57.81c-.91.59-.99,1.22-1.69,2.13-.71.91-5.02,1.11-5.02,1.11-2.61-.91-6.01-.91-6.01-.91,1.7.5,4.01,1.21,4.01,1.21,0,0-2.41.4-4.42.2-2.01-.2-3.11-2.42-4.21-3.92-1.11-1.5.2-3.82.2-3.82-.61-.41-1.31-.61-1.31-.61,2.2-.2,6.32.11,6.32.11-1.9-.61-4.05-1.03-4.05-1.03,0,0,.25-1.09.75-2.2.5-1.1,2.91-.81,3.92-.7,1,.1,2.31-1.11,3.03-1.34.72-.25,3,.54,4.2.94,1.2.4,1.3,1.31,1.3,1.31-1.11-.1-2.72.2-2.72.2l3.92,1.1s2.61,1.31,3.01,2.61c.41,1.31-.29,3.02-1.21,3.61h0Zm23.57,35.23c-.71,2.39-.14,3.52-.14,5.92s-2.96,3.4-7.6,4.1-6.61-.84-6.61-.84l.7-1.56c-1.55.28-6.06.43-6.06.43,2.96-1.28,6.76-3.96,6.76-3.96-1.82.71-5.6,1.62-5.6,1.62,0,0-1.14-.82-2.27-1.89-.79-.74-1.57-1.6-1.97-2.4-.99-1.97.7-4.94,1.4-6.06.71-1.13-.56-1.83-.56-1.83,1.13-.85,1.97-2.25,1.97-2.25h-.06c-2.5.56-4.86.7-4.86.7h-.01c-1.4-1.13-1.96-3.52-1.68-4.8.28-1.26.84-3.24.84-3.24h-.05c-.47.05-.98.01-1.46-.06-.82-.1-1.53-.3-1.71-.35h-.01c5.34-.71,8-2.68,8-2.68h-.07c-1.41.28-3.86.42-3.86.42h0c.02-.16.2-1.59,1.26-2.3.4-.27,1.22-.27,2.21-.13.56.08,1.17.2,1.78.35.29.07.58.14.87.22,1.07.29,2.1.61,2.83.85h.05c2.11.72,3.1,3.53,3.1,3.53.57,1.82,1.47,3.14,2.53,4.13l.03.02c.49.43,1.01.81,1.56,1.12.21.14.43.26.66.35.22.1.44.21.68.3.68.28,1.36.5,2.03.68.43.12.86.22,1.27.3l.62.14c.37.08.71.22,1.02.41.94.54,1.63,1.52,2.1,2.49h.01c.73,1.52.98,3.03.98,3.03-.98,1.68-3.66,3.23-3.66,3.23,1.27.28,2.96,0,2.96,0h0Zm-32.85-91.68s1.41.79,1.49,2.71c.08,1.92-.39,2.76.08,4.06.45,1.31-.32,2.22-2.14,3.29,0,0-1.84.38-3.68.23,0,0,1.39.69,1.99.77,0,0-1.99,1.68-4.82.99,0,0-3.44,2.07-6.05,1.69-2.6-.38-3.21-1.46-3.21-1.46,0,0,3.1-.56,5.31-.86,0,0-4.04-.93-5.35-1.69,0,0,.41-1.89,1.26-2.73.84-.85.64-1.06.64-1.06,0,0-3.32-.78-4.55-1.24,0,0,3.9-.6,5.13-1.05,0,0-.46-.95,1.07-2.17,1.53-1.23,2.83-2.45,3.44-3.15.62-.69,3.6-.76,5.28-.3,1.69.47,1.68.47,2.6.47s4.84-.38,4.84-.38c0,0-.77,1.21-3.33,1.89h0Zm57.49,67.94c-.98,1.49-4.93,2.01-7.05,1.75,0,0-3.96,1.78-6.23,1.48-2.25-.3-6.35-1.85-6.35-1.85,0,0,1.26-.65,2.5-.85,0,0-.76-1.52-2.6-3.26-1.84-1.75-4.21-3.9-4.62-5.35,0,0,2.42-1.02,4.17-1.42,0,0-2.92.08-4.57-.63,0,0-.12-3.07.5-4.31.62-1.23,1.03-2.25,1.03-2.87s-.12-.57.8-.88c.92-.3,5.35-1.07,5.35-1.07,0,0-.41-1.02-3.18-1.44,0,0,2.46-.92,5.23-.51,2.76.41,4.6,3.69,5.53,5.44.93,1.74,2.67,3.69,3.8,4.52,1.13.82,5.37-.21,5.37-.21,0,0-2.68,2.66-4.38,2.53,0,0,.85,3.12,2.28,4.36,1.43,1.22,3.39,3.07,2.41,4.56h0Zm-64.17,19.3c-1.26.99-4.5,3.67-6.19,5.64-1.69,1.97-3.51,4.09-7.31,3.09-3.8-.98-4.37-6.48-4.37-6.48.99-1.4,5.49-3.51,5.49-3.51-2.39,0-5.42.54-5.42.54.06-1.14.22-4.48.22-7.17s-1.41-5.21-1.41-5.21c.98-.99,3.38-2.25,3.38-2.25-4.65.7-7.04.14-7.04.14,1.27,0,3.1-.99,3.1-.99-.28-1.4.28-3.38.98-4.09.7-.7,2.82-3.37,3.8-4.09.98-.7,3.52-.28,6.05.14,2.53.42,2.95,1.97,2.95,1.97,1.27.28,2.54.14,2.54.14-1.55,1.13-5.49,2.39-5.49,2.39,1.83.29,3.38.29,3.38.29,0,0,1.12,4.09,1.69,6.2.25.91.71,1.67,1.31,2.39-1.1.65-2.97,1.69-4.55,2.25,0,0,2.72-.08,5.62-1.09.56.56,1.18,1.13,1.84,1.79,1.97,1.97.7,6.91-.57,7.89h0Zm113.23-72.13s1.11,1.22.91,2.49c-.2,1.26-.63,1.5-.99,2.33-.35.83-1.41,1.54-2.52,2.05,0,0,1.43.62,2.93,1.5-.35-.04-3.15-.4-3.95-.5,0,0-1.59.95-2.3,2.01-.71,1.07-1.97,2.02-3.79,2.1,0,0-2.28-.68-3.19-.87,0,0,1.19,1.03,1.65,1.54,0,0-1.29.51-2.56.24-1.26-.28-4.14-1.47-5.01-1.74,0,0,2.1.15,2.73.23,0,0-4.19-3.36-4.81-4.11,0,0,1.81.3,2.61.5-.29-.18-2.66-1.62-2.73-3.51-.05-1.14.75-2.01,1.69-2.52.96-.51,2.02-.56,2.41-1.27.4-.71.47-1.58.47-1.58,0,0,3.11.59,4.49.91,0,0-1.22-1.82-2.02-2.14,0,0,.26-.71,1.28-1.19,1.03-.47,2.8-.94,3.87-1.77,1.06-.83,2.25-.6,3.04-.43.78.15,2.32,1.11,4.14,1.66,0,0-.94-.79-1.26-1.46,0,0,1.97.12,2.96.55.98.43,1.49,1.46,1.02,2.22-.48.75-1.07.83-1.11,1.34-.05.51,1.34,1.43,1.93,1.94,0,0-.87-.28-1.9-.51h0Zm-87.47,110.69s-1.3.33-3.98,2.37c-2.69,2.05-3.34,4.74-3.34,4.74,1.4-1.28,3.34-2.47,3.34-2.47-.55.86-.33,1.3-1.51,3.98-1.18,2.7-4.09,2.59-6.13,2.8-2.04.22-5.37-2.25-5.37-2.25-1.19.43-3.34,2.47-3.34,2.47.97-3.23,4.52-6.67,4.52-6.67-1.5.64-4.19,2.58-4.19,2.58-1.5-1.18-6.79-2.7-10.33-4.63-3.55-1.94-3.12-5.71-3.12-5.71.22-2.26,2.16-5.29,2.16-5.29-1.19.65-2.47,2.05-2.47,2.05-.03-.44-.02-.83.01-1.19v-.03c.13-1.15.51-1.82.84-2.23.43-.54,1.08-.65,1.62-.97.22-.13.47-.27.7-.53.08-.08.16-.18.25-.29l.14-.22.16-.31.12-.28c.13-.29.25-.64.35-1.06.19-.71.78-1.38.78-1.38,1.23-1.39,3.42-2.39,3.42-2.39-1.14,1.43-1.28,2.95-1.29,3.27h.03c2.47-3.91,6.64-3.59,6.64-3.59-.86.22-1.93.86-1.93.86,0,0,1.83.64,3.66,1.18,1.83.55,5.91.86,8.28.86s6.77.86,6.77.86c1.93-.64,7.86-2.15,7.86-2.15-2.05,1.28-5.7,3.12-5.7,3.12,7.42,4.1,1.07,12.51,1.07,12.51h0Zm51.05,22.4c-1.42,2.44-3.34,2.66-3.34,2.66l.49-.92c-1.67.46-3.42-.5-3.6-.59,1.02,1.43,1.13,3.29,1.13,3.29l-.65,1.22,2.25-.16-1.27,1.56c.37,3.64-2.64,5.01-6.17,4.73-3.52-.27-7.78-3.91-7.78-3.91.25-1.41,2.9-5.19,2.9-5.19-1.89.57-5.3,2.99-5.3,2.99-3.23-2.01-2.56-1.33-11.75-2.6-9.18-1.27-13.78-3.71-13.78-3.71-.05-1.68,1.2-3.7,1.2-3.7-2.19,1.07-3.27,2.78-3.27,2.78-.78-.57-3.46-3.16-2.41-6.81,1.04-3.64,6.43-4.2,6.43-4.2,1.76-1.42,4.41-1.45,4.58-1.45-.61.36-1.62,1.06-1.62,1.06,1.5-.29,9.61.55,13.12.82,3.52.28,7.3.27,7.3.27l3.6-.83c-1.53.98-5.81,3.76-6.34,4.1,2.67-1.65,9.15-2.94,9.15-2.94,0,0,1.13-.14,2.8.59,1.65.74,2.38,3.44,2.38,3.44,1.43-1.41,3.82-.57,6.27,1.97,2.46,2.54,2.55,5.23,2.55,5.23l1.17.31h0Zm-1.74-131.99s4.18,2.02,5.46,2.79c0,0-.85-.05-1.4,0,0,0-1.43.84-1.72,1.39-.31.55,0,3.05-1.4,4.14-1.38,1.1-3.25.84-3.83,1.52-.59.68.34,1.61.34,1.61,0,0-3.03-.69-3.96-.77,0,0,1.44,1.46,2.37,2.14,0,0-1.19-.27-2.41-.1-1.23.17-5.02.47-7.05-1.13-2.03-1.61-.97-2.88-.5-3.39.46-.5.58-1.14-.76-2.71-1.35-1.57-1.14-1.57-.89-2.41,0,0,4.71.01,6.4.48,0,0-4.59-2.59-6.4-2.98,0,0,.08-.58,1.1-1.35,1.01-.76,2.35-1.37,2.81-3.27,0,0,3.4.65,5.34.94-2.11-.81-3.09-2-6.54-2.97,0,0,2.4-.12,3.32-.2,0,0,1.65-.29,2.41-1.02.31-.29.71-.66,1.21-.99.73-.48,1.68-.89,2.98-.93,2.41-.08,4.71.49,6.34,1.05,1.25.43,2.11.85,2.33.96,0,0-2.24-.34-3.75-.37,0,0,.76.42,1.18.89,0,0,.08.89-.05,1.39-.12.51-.37,1.27-.08,2.11.29.85,1.14,2.74,1.27,3.42,0,0-2.59-.21-4.1-.24h0Zm18.27,30.18c-1.91-.4-5.22-.68-5.22-.68,2.47.96,4.32,1.68,4.32,1.68,0,0-.34.29-.78.34-.45.06-1.25-.44-1.91-.34-.67.12-1.19,1.25-1.92,1.87-.72.62-1.68.44-1.68.44,0,0-.23.91-.95,1.47-.74.56-1.92.28-3.44.06-1.51-.23-2.03-3.44-2.03-3.44-1.57-1.4-3.99-2.7-3.99-2.7,1.02.05,2.31.28,2.31.28-.51-.85-3.5-2.25-3.5-2.25-.5-.23-2.03-1.07-2.03-1.07,1.53.12,6.19,1.18,6.19,1.18-1.52-.96-4.56-2.14-4.56-2.14.23-.51.51-.9,1.25-.9s2.25.22,2.75-.18c.51-.4.62-1.41,1.53-1.97.9-.56,2.53-.1,3.99.28,1.47.4,3.26,1.07,3.26,1.07-1.69.12-3.43.12-3.43.12,2.07.5,4.1,1.52,6.01,2.7,1.96,1.21,1.19,2.37,2.82,2.99,1.63.62,1,1.19,1,1.19h0Zm-31.34-55.7c-.23,2.02-2.82,3.81-3.52,4.26-.69.47-1.98,1.39-2.37,2.69-.38,1.31-1.76,2.15-2.61,2.23-.84.07-1.98,1.3-1.98,1.3,1.2.29,2.89-.22,3.11-.29-.18.15-1.63,1.33-2.28,1.83-.69.54-2.98,1.07-3.82.99l-4.29-.07c-2.61-.08-5.59-.31-6.49-1.96-.85-1.57-1.21-1.61-1.25-1.61-1.84.84-5.66.81-5.66.81,3.68-1.53,6.83-4.99,6.83-4.99-1.98.84-4.23,1.18-4.23,1.18-.32-.54-.37-1.1-.3-2.25.08-1.14,1.15-1.76,1.15-1.76,0,0,.07-.61.84-1.61.77-.99,3.37-2.37,4.83-2.45,1.46-.08,3.29-.84,4.29-1.53.99-.69,4.51-2.15,6.27-2,1.76.15,2.46.46,2.46.46.99-.07,3.2-.46,3.2-.46-2.9,2.3-4.74,3.14-4.74,3.14,3.37-.39,6.28-1.76,6.28-1.76,3.44.23,4.51,1.85,4.28,3.86h0Zm43.78-2.97c-.15,1.1-.93,3.91-2.41,4.54-1.49.62-1.89.73-1.89.73v3.26s-2.21-1.98-2.68-2.62c0,0-.59.02-2.16-.21s-3.44,2.43-6.33,2.2c0,0-4.76-1.02-5.54-2.98-.78-1.95-.48-3.6-.16-4.14,0,0,1.64,2.11,2.81,2.73,0,0-1.08-2.5-1.08-4.06,0,0,.93-.7,1.08-1.41.16-.7,1.96-1.8,3.05-2.03,1.1-.23,2.17.23,2.17.23,0,0,1.28,2.92,2.22,4.02,0,0-.4-5.73.07-7.76,0,0,1.19,2.64,1.82,3.5,0,0,1.3-.14,3.18-.45,1.88-.31,3.51-.15,4.6.93,1.1,1.1,1.41,2.43,1.25,3.53h0Zm-59.53,44.94c-.44-.04-3.01-.25-4.55-.05,0,0-.96.96-2.03,1.02-1.07.06-1.29.85-1.07,1.47.23.62,1.3,2.87-.05,4.45-1.35,1.58-4.5,1.04-4.5,1.04,0,0-3.16,2.35-6.62,1.83-3.46-.51-6.21-1.83-6.21-1.83,0,0-3.15-.71-4.88-1.63,0,0,4.28.41,7.64.21,0,0-3.6-1.11-4.65-2.39,0,0,1.22-.77,1-1.89-.23-1.13-.57-2.71-.06-3.61,0,0,3.15,1.52,4.72,1.92,0,0-2.02-1.69-2.75-3.21,0,0,1.35,0,2.59-1.02,1.23-1.02,2.55-2.84,4.85-2.8,0,0,1.06-1.09,2.13-1.32,1.06-.22,1.96-.22,1.96-.22,0,0,1.25.56,3.38.96,0,0-2.87-1.92-3.54-2.75,0,0,1.3.44,2.37.38,0,0,1.18-.34,3.09.18,1.91.5,3.21,1.97,3.21,3.21s-1.74,2.87-1.12,3.95c.57.98,4.53,1.98,5.11,2.13h0Z"/>
  <path class="cls-6" d="m262.12,82.89c-.07,1.16-.84,1.86-1.86,1.86-.29,0-.61-.07-.9-.18-.09,0-2.19-1.28-2.35-1.41-.81-.63-1.56-1.33-2.4-1.93-1.37-.97-3.19-2.35-4.91-2.74,1.05.2,5.16,1,7.56,1.65,1.22.32,2.34.63,3.45.93,0,0,1.48.65,1.41,1.82h0Zm-5.48,13.16c2.58,1.35,5.36,3.04,7.39,4.31.99.59,1.96,1.23,2.92,1.87l-.64-.22c-1.99-.7-5.38-1.83-8.13-2.53-.63-.17-1.21-.31-1.75-.42-4.14-.83-7.17-.69-7.17-.69,0,0,1.8-.69,2.89-1.25,0,0-7.03.28-14.76-1.24s-17.66-7.6-21.25-12.43c0,0,2.48.69,4.42.55,0,0-4.08-4.41-5-7.4,0,.01,1.19-.12,1.27-.13,1.04-.07,2.09-.1,3.12-.07.77.02,1.59.08,2.4.21.08.01.18.1.27.19,1.31,1.31,3.05,2.2,4.56,3.26,3.17,2.25,6.51,4.31,9.86,6.26,2.48,1.44,5,2.81,7.57,4.12,4.11,1.64,8.12,3.56,12.03,5.63h0Zm-38.01-24.58c-2.96.9-5.99,1.83-8.71,3.35-1.86,1.04-4.92,3.67-5.22,3.92h-.01s-.01.01-.01.01h-.06s-.17.14-.17.14l.1-.1.32-.64c7.75-13.92,27.13-17.48,27.13-17.48-2-2.8-4.37-4.33-4.37-4.33,2.61-.92,5.89-.35,7.15-.07.37,1.63.14,3.29.14,3.29l-.84.26c.76.92,2.19,1.6,2.78,2.11.56.47,1.04,1.62,1.1,1.76-.18-.12-1.55-1-2.02-1.09-.46-.08-.98-.77-1.08-.91.06.21.63,1.89,1.5,2.69.93.84,4.04,2.37,5.73,3.13,1.69.76,2.62,1.84,2.62,1.84,1.05-.24-.82-2.16-1-2.35.92.26,2.55,1.31,2.55,1.31-.14-.63.48-2.08.14-3.01-.34-.92-2.45-2.87-3.12-3.45-.68-.6-1.05-2.13-.93-2.79.36-2.07.98-2.87.98-2.87.28-.35.95-1.03,1.26-1.33,1.02.14,3.22.44,4.28.7l-.06-.05h-.02s-.1-.09-.1-.09l-.02-.02-.1-.07-.15-.1-.12-.09-.31-.22h-.02s-.41-.29-.41-.29l-.1-.07-.33-.22-.15-.09-.32-.21-.15-.09-.46-.28c5.52-3.99,13.27-3.12,13.27-3.12,2.11,1.45,2.77,3.42,2.77,3.42-1.15-.87-2.61-1.7-2.61-1.7-.78.56-1.04,1.52-1.65,2.45-.63.93-1.55,1.86-4.53,3.3-2.97,1.45-2.66,3.11-2.66,3.11l-2.34.13c1.71.38,4.51,2.81,4.51,2.81-.85-.34-2.62-.47-2.62-.47-.34,1.47,1.17,2.63,1.91,3.26.75.64,1.53,2.54,1.53,2.54-.77-.05-1.49.07-1.49.07,0,0,2.16.78,2.83,1.34.68.55,3.58.78,3.58.78.41-.94-.54-2.19-.54-2.19-1.66-.83-2.12-2.79-2.12-2.79.92.71,1.93,1.14,1.93,1.14,0,0-.09-1.65,1.09-3.82.36-.68.9-1.31,1.48-1.87v.18c0,2.15,1.55,6.64,4.85,9.34,4.28,3.5,12.24,7,12.24,7-.38-1.35-.2-3.1-.2-3.1,1.17,1.94,3.7,4.86,7.57,7,.25.14.51.27.79.4,1.2.57,2.77,1.25,4.35,1.87,1.14.45,2.44.86,3.43,1.13l-.72-.15c-1.29-.27-2.58-.58-3.85-.93-10.01-2.69-19-7.76-28.77-11.08-10.04-3.41-20.74-5.22-31.56-4.19-3.19.3-6.8,1.03-9.87,1.95h0Z"/>
</svg>