<?xml version="1.0" encoding="UTF-8"?>
<svg id="Layer" xmlns="http://www.w3.org/2000/svg" viewBox="0 0 420.67 528.24">
  <defs>
    <style>
      .cls-1 {
        fill: none;
        stroke: #0a0a09;
        stroke-width: .67px;
      }

      .cls-2 {
        fill: #fff;
      }

      .cls-2, .cls-3, .cls-4, .cls-5 {
        stroke-width: 0px;
      }

      .cls-3 {
        fill: #c8c7c7;
      }

      .cls-4 {
        fill: #231f20;
      }

      .cls-5 {
        fill: #0a0a09;
      }
    </style>
  </defs>
  <path class="cls-4" d="m216.63,290.47c.2.11-.02.31.07.38.1.08.27.06.39-.03-.19-.04-.01-.17-.07-.25-.11-.18-.27-.05-.4-.1"/>
  <path class="cls-2" d="m210.78.44C153.76,52.12,79.31,50.58,2.85,40.96-13.64,228.27,50.51,413.15,209.57,446.63c160.57-32.19,223.99-216.72,208.51-404.11-71.18,7.18-144.94,10.09-207.29-42.08m0,0C153.76,52.12,79.31,50.58,2.85,40.96-13.64,228.27,50.51,413.15,209.57,446.63c160.57-32.19,223.99-216.72,208.51-404.11-71.18,7.18-144.94,10.09-207.29-42.08"/>
  <path class="cls-1" d="m210.78.44C153.76,52.12,79.31,50.58,2.85,40.96-13.64,228.27,50.51,413.15,209.57,446.63c160.57-32.19,223.99-216.72,208.51-404.11-71.18,7.18-144.94,10.09-207.29-42.08h0Z"/>
  <path class="cls-5" d="m210.52,18.7c-47.53,38.66-122.5,48.25-194.09,37.79C5.76,227.3,61.47,394.21,209.07,432.72c147.81-37.71,205.08-203.88,195.33-374.75-73.04,8.22-146.56-.36-193.88-39.27"/>
  <path class="cls-2" d="m267.34,313.13c-1.73,5.26-4.43,10.46-6.01,12.81,0,0,2.22,4.01,2.98,7.93,11.48,8.84,24.14,17.13,56.37,9.27-5.74-1.76-41.73-19.69-50.99-28.43l-2.35-1.59m-118.7,4.94s5.38,8.54,7.27,9.61c0,0,2.32,2.06,1.45,9.31-12.95,9.69-44.6,13.62-60.66,7.31,0,0,38.73-15.27,49.44-24.91l2.5-1.32m100.33-3.06c-.75.81-1.4,1.65-2.21,2.41-.29.27-.53.76-.91,1.04-.9.68-1.7,1.31-2.67,1.94-.99.63-1.7,2.35-.85,3.11.73.65,2.13,1.35,3.03-.02.49-.74,1.54-.89,2.13-1.41,1.67-1.49,2.87-3.47,3.31-5.77.16-.81-.53-1.19-1.07-1.75.14.64-.72.45-.78.93l.03-.48m-82.14,2.33c.92,2.57,3.08,3.67,3.73,4.7,1.02,1.64,1.5,3.37,2.49,4.94-1.69.96-2.98,3.68-4.64,2.86-.84-.41-1.09-2.2-1.59-3.45-1.27-3.18.51-5.81.01-9.04"/>
  <path class="cls-3" d="m197.71,135.58c-19.41,0-39.47,4.85-45.5,23.41,0,0-10.22,37.37-9.56,43.23-5.43,1.65-16.4,6.91-13.11,36.73,0,0,11.76,53.58,17.04,64.06l3.39.18s3.09-3.24,2.52,7.42c0,0-1.78,6.22,3.86,9.93,0,0,2.19-8.98,3.65,4.56.28,13.13,4.41,26.96,23.62,40.6,0,0,9.06-5.84,10.05-6.27,0,0-13.34-5.08-20.22-12.73,0,0,1.94,9.33-5.77-1.27,0,0-3.7-3.6-5.82-28,.18-3.39-.28-3.9-3.01-7.45-10.6-21.59-19.01-71.39.89-89.83,20.96-1.33,71-2.45,89.77.97,7.68,1.85,11.45,4.32,13.19,17.54,3.74,16.71,1.25,50.12-7.44,76.87,0,0-1.28,5.77-4.34,8.52-2.5,1.32-11.58,7.65-15.96,17.14-1.63,3.31-5.2,6.52-11.17,9.13-6.02,3.57-28.18,9.21-19.46,18.9,0,0-2.52,1.14-6.96,2.36,0,0,1.18,5.41,3.65,4.57,0,0,4.46-1.7,6.07-4.54,13.04,1.66,29.72-1.35,39.91-10.53,4.03-2.7,11.51-6.24,12.39-13.26,0,0,4.31-8.03-2.75-21.52,2.68-4.72,7.04-13.73,6.43-20.56.26-.38,22.82-26.23,25.55-61.78,0,0-3.16-20.94-2.26-.97,0,0-.28,3.49-2.26,13.59,0,0-4.22,15.49-1.94.65,0,0,.84-23.6-1.94-44.65,0,0-.71-7.84,3.56,3.56.57,2.1-.65-2.59-.65-2.59,0,0,2.05,14.39,2.59,4.21-2.59-11.97-3.24-14.89-6.8-16.18-2.21-17.6-8.73-34.61-8.73-34.61l-1.61,1.94c5.97,16.62,9.86,71.83,8.41,87.68,0,0-3.83,31.23-7.12,29.12,0,0,5.3-52.7,2.92-72.25-1.12-24.84-4.7-30.86-6.12-40.65,0,0-7.87-20.5.29-9.38l.97-.65c-6.97-17.84-17.47-26.53-49.17-27.18l4.33,77.54-28.51.1,3.15-77.63"/>
  <path class="cls-2" d="m161.62,236.8c-.15,0,6.36-1.08,6.26-1.08,7.02.03,23.55-.08,27.12,1.33,1.83.72,5.05-.96,6.64-1.59,5.96-2.36,6.7-2.87,12.98-6.61,1.03-.61,8.42-5.07,7.08-5.21-17.15-1.88-52.14-1.66-59.05.4,0,0-2.91.48-3.73,1.4-3.27,3.65-2.58,3.94-4.85,8.98,1.48-3.28-.78,4.15-.98,4.81-.59,1.91,2.69,1.82,3.35.9,1.21-1.67,1.44-3.58,5.17-3.33m95.72,53.09c-.78,3.69-1.25,7.52-2.52,11.05-1.18,3.26-1.75,5.49-5.82,8.92-.84-7.09-2.84-10.6-2.46-13.25-2.73,1.07-2.36,5.13-2.65,8.85-.46,5.92,1.14,10.28.77,8.54.18.82-2.06,2.46-2.87,3.74-2.54,4.02-5.34,7.76-8.79,11.01-.51.48-.64,1.47-1.18,1.7-1.9.81-2.4,2.05-3.51,3.34-.91,1.06-3.32,1.9-4.57,2.58-.79.44-3.17,1.08-3.82,1.22-1.44.29-2.75.24-4.93.13-2.11-.11-4.98-2.7-7.24-3.25-6.6-1.61-8.14,4.36-18.39,2.15-4.23-.91-5.08-3.74-7.73-6.73-.51-.58-3.04-3.64-3.43-4.07,1.07,1.15-7.03-6.47-8.58-12.35-1.73-6.57-.84-7.1-.06-12.64.29-2.08-.1-7.3-2.03-7.64-1.8,1.85-.5,3.11-1.04,5.77-.51,2.6,1.88,2.7.04,8.51-.53,1.66-1.43,1.25-1.95.14-1.92-4.13-.93-13.07-5.27-16.56-1-.8-1.06-3.22-.22-3.85,1.33-1,2.64.58,4.37.18.3-.07.12-2.16-.12-2.43-1.43-1.67-4.58-.99-4.55-1.22.42-3.37.35-6.41-.79-8.06-1.59-2.27-3.9-2.65-4.85-4.87-2-4.69-1.31-7.36-1.49-8.59-.24-1.65-.64-4.34-.16-6.08-.48.11-.3-3.89-.27-4.15.3-2.93.82-2.76,1.26-5.52.09-1.69,4.27-2.69,4.31,1.21-1.03,5.13.5,9.17.64,14.35.02.62,1.04,1.22,1.73,1.42,11.29,3.24,19.75,1.99,30.97,1.77,3-.06,4.81-3.81,5.45-6.76,1.06-4.85,1.07-6.51,1.11-11.85.56-1.42,1.88-1.04,2.91.15,1.93,2.22.43,3.04.91,5.88.37,2.21-2.47,5.45-2.47,5.45.32.02-.96,7.49-.64,7.5.58.03-.43,6.7-.59,6.53-.43,3.62,2.06,2.29,1.69,4.95-.06,1.22-.68,2.9-.65,3.12.36,2.45-5.11,1.92-4.23,1.97-1.21-.06-2.15-.6-2.11-1.57.07-1.38-.3-2.41-.29-3.65-2.67-.15-1.56,2-1.71,4.76-.06,1.22.73,2.24,2.78,2.58,2.17.36,2.4.61,3.41-.06.53-.36,2.25-.74,2.51-1.58,1.01,3.94,2.19,4.49,5.11,4.4,1.25-.04,4.11.46,5.23-2.4.28-.72,2.22-.61,2.5-1.32,5.05.99,1.96,3.05,8.08,1.08,1.85-.59,3.35-3.25,1.76-5.35-.19-.25-1.18-.23-1.2-.1-.67,5.27-2.74,3.71-4.72,3.6-6.5-.38-2.99-3.07-8.51.04-.65.37-2.59,3.02-5.15.94-3.48-3.1.28-5.33.7-8.71.38-3.07.23-12.73.09-15.55-.34-6.62,1.35-2.6,2.48-5.45-.95.24-.44-8.11-.53-8.53-.57-2.95-4.04-1.8-4.95-2.93,0,0-.4-2.32.13-2.43,3.93-.76,8.9-2.93,12.48-4.69,8.26-4.06,12.92-6.59,16.92-9.07,1.19-.74,1.67-2.3,2.31-2.31,7.53-.09,14.8-1.61,21.5,2.11,4.68,2.6,5.81,5.16,7.04,9.6-.54.09.45,4.73.46,5.14.09,2.92-.06,8.24-.03,9.71.23,9.62.78,12.92-.53,19.41-.01.06-1.01,2.38-1.34,2.36-.79,1.18-2.16,2.92-3.78,4.28-.51.43-.29,1.85.07,1.6,1.01-.68,2.97-1.06,4.46-1.71-.05,4.12-.47,8.96-1.44,13.53"/>
  <path class="cls-5" d="m244.21,243.77c.18,0-2.57-2.08-4.93-3.42-1.08-.61-5.59,2.45-6.69,2.57-4.64.49-7.31.72-12.21.85-1.2.03-2.94.05-3.66-1.07-.45-.69-.38-2.02.14-2.68,1.48-1.9,4.38,1.34,6.17-3.47,0,.02,5.54-.23,7.23-.31,5.8-.27,14.34-.22,13.58.47.7-.63,1.82,2.51,2.98,3.32,2.18,1.51,1.56-.49,2.54,2.56l-.06,1.21c-.02.32-.41,1.76-.59,1.92-.18.15-2.31-.61-2.64-.62.16,0-2.04-1.32-1.87-1.31m-27.9,3.88c3.38-1.97-2.54-2.56-1.49,3.26-.09-.54,1.1-.18,1.21-.44.16-.4.23-1.85.29-2.82m-3.37,13.18c.77,3.93.07,3.4-.37,7.03-.39,3.28,2.41,4.04,2.41.37,0-13.85-.93-10.01-2.04-7.39m38.57,19.83c-.33.76-.83.81-1.46,1.22-.48.31-1.01,1.01-.77,1.53.13.27.7.53,1.08.52.41-.01.8-.51.94-.88.28-.72.16-1.59.2-2.39m-34.85-5.05c.47.03.88-.33.9-.8.02-.48-.34-.88-.81-.91-.48-.03-.88.34-.9.82-.02.47.34.88.81.89m30.62-23.04c-1.25.63-2.34.49-3.54,1.16,1.87-1.04-10.09-1.7-5.57-1.28-3.21-.3-5.84-.99-9.18-.97l-.62.33c-1.66.39-2.53-.89-3.78-1.7-.87-.55-1.64.03-2.45-.08.17-.32-.29-.52-.16-.71.2-.33.77-.5.99-.54,1.44-.18,3.12-.06,4.49-.53,4.84-1.68,8.62.62,13.58.47,1.56-.05,3.71-.36,5.17.67.3.22.29.72.51.89.65.49,1.82.19,2.2.59.78.82-.77,1.28-1.63,1.71m-4.75,7.02c-.31-.07-.43-.48-.7-.48-2.82,0-5.35-.73-7.95-1.84-.89-.38-1.75.31-2.68.43-1.23.16-2.51-.34-3.57.04-.77.27-1.44,1.43-.79,1.8,1,.55,2.62.46,3.93-.41,1.52-1.02,3.44-.68,5.23-.27.48.1.95.44,1.45.42,1.73-.07,3.38.43,5.09.31m-17.97-4.59c.06-.39-.67-.28-.45-.75-1.18-.34-2.27.72-3.4.25-.64-.25-1.03-.93-1.65-1.25-.05.92-.39,2.19.41,2.54,1.6.7,3.35-1.33,5.06-.31,0-.16,0-.32.04-.48"/>
  <path class="cls-2" d="m128.56,183.75l-10.51,10.39s9.21,14.33,10.39,14.88c1.89-3.55,5.07-8.48,9.21-8.75l.76-5.31-9.85-11.21m-38.89-41.4l5.58.05c7.35,8.16,25.54,31.95,25.54,31.95l-2.78,6.66c7.11-5.94,11.2-9.86,13.83-13.61,5.15-5.56,9.78-1.19,5.7,2.49-2.7,5.2-15.65,15.7-24.05,23.04-23.97,21.57-69.3-12.88-31.35-46.11l7.52-4.46"/>
  <path class="cls-5" d="m82.44,155.08c4.16-5.12,7.89-2.25,4.58.73-2.5,2.26,2.2,7.33,5.27,6.11,2.43-.97,5.34,2.92,4.63,4.38-1.89,3.86,1.73,7.89,4.52,6.55,1.54-.74,4.76,1.82,3.67,4.08-1.65,3.43,1.75,7.31,5.55,5.4,4.07-2.06,1.76,3.49,1.76,3.49-20.59,17.38-50.68-15.78-29.97-30.73"/>
  <path class="cls-2" d="m84.6,147.54c3.65.19,6.75-2.61,6.94-6.25.19-3.64-2.61-6.75-6.24-6.94-3.65-.19-6.75,2.61-6.95,6.25-.19,3.64,2.61,6.75,6.25,6.94"/>
  <path class="cls-5" d="m86.8,136.85c4.02,2.16.55,8.04-2.09,7.42-2.84-.67-.67-1.25-.67-1.25,2.65.39,5.07-3.86,1.74-5.25-1.26-.53,1.02-.92,1.02-.92"/>
  <path class="cls-2" d="m325.29,142.56l-5.58.22c-7.09,8.39-24.52,32.74-24.52,32.74l2.99,6.57c-7.3-5.72-11.51-9.5-14.26-13.17-5.32-5.4-9.81-.88-5.62,2.66,2.87,5.12,16.13,15.2,24.76,22.27,24.63,20.81,68.94-17.16,29.97-49.19l-7.74-2.1"/>
  <path class="cls-5" d="m333.71,152.36c-3.45-3.59-6.24-1.54-5.26,1.45,1.1,3.36-3.07,9.72-5.16,8.4-2.75-1.75-5.53,2.87-4.49,4.51,1.73,2.75-1.59,8.18-4.31,6.7-1.5-.82-4.57,2.18-3.54,4.19,1.71,3.37-1.96,6.44-5.38,5.57-4.41-1.13-1.65,3.54-1.65,3.54,21.13,16.73,50.95-20.07,29.79-34.36"/>
  <path class="cls-2" d="m330.61,145.47c-3.64.3-6.92-.27-7.22-3.9-.3-3.63,2.49-8.96,6.12-9.26,3.63-.31,6.82,2.4,7.13,6.03.31,3.63-2.39,6.82-6.03,7.13"/>
  <path class="cls-5" d="m328.07,134.85c-5.17,2.99-1.46,8.37,2.32,7.35,2.82-.76.62-1.26.62-1.26-3.7.65-6.4-3.15-1.9-5.2,1.25-.57-1.05-.89-1.05-.89"/>
  <path class="cls-2" d="m288.68,185.52c1.41.81,9.99,8.55,12.11,9.87-1.25,5.28-9.64,21.6-11.49,24.42-.22-9.73-1.58-20.73-6.93-20.77l-1-3.94,7.31-9.58"/>
  <path class="cls-5" d="m254.17,340.28c.43-2.95-2.14-5.7-3.96-3.38-.99,1.27-1.07,3.6-2.26,4.8-3.22,3.25-5.24,3.87-7.12,5.87-2.04,2.16-2.66,3.57-.74,6.46.16.24.47,3.19,2.59,4.77,2.59,1.94,6.28-.1,10.19-4.99.87-1.09.71-2.63.91-3.87.51-3.16-.08-6.44.38-9.66m-16.65,18.37c-.25,8.06-12.01,11.28-16.73,8.6-.79-.45-3.29-2.68-2.77-4.23.51-1.5,2.25-2.48,3.52-2.97,1.44-.55,2.69-.07,4.07-1.29,1.93-1.7,3.25-2.01,5.5-4.15,1.28-1.22,3.77-1.03,4.95-.1,1.2.95,1.93,1.71,1.36,3.98l.1.16"/>
  <path class="cls-2" d="m250.68,346.59c-5.01,3.33-11.08,6.22-5.34,9.3,1.32.7,4.99-1.9,5.91-4.93-.05.18-.32-4.53-.56-4.36m-17.15,15.69c-.88.73-4.09,2.35-3.65,2.11-2.12,1.19-4.58,1.85-7.03,1.45-2.18-.41-1.28-2.28-.81-2.35,6.14-.81,7.33-4.29,11.25-5.82,1.14.28,1.36,2.01,1.21,2.51-.11.37-.37,1.37-.97,2.1"/>
  <path class="cls-5" d="m187.39,289.38c-1.54,1.95.02,2.26-3.71,5.87-1.07,1.04-3.01,1.79-3.97,3.13-.16.22-.14,1.11-.18,1.76,2.37.78,6.69-1.1,11.25-1.16,2.75-.04,5.43.86,8.21,1.43,4.89,1,9.41-.07,15.29-.39,7.05-.39,8.41,1.3,10.64,1.04,4.36-.5,7.02-2.65,5.14-2.11.46-.14-3.63.4-3.32-.22-1.21-.21-1.96.45-2.98.56-2.39.28-4.76.14-7.32-.73-3.68-1.23-7.75.6-11.61.6-6.27.02-13.22-2.28-21.04-1.47-.76.08,6.39-5.71,5.85-5.04,2.08-2.57,2.51-6.1,2.93-4.95-.13-.35-2.07-2.3-5.19,1.67m8.42,20.11c5.37-.45,15.43,2.28,20.14.58-.03.48,3.95-1.24,3.85.69-.14,2.66-6.63,2.14-8.35,1.75-4.68-1.06-6.35.42-16.05.13-.41,0-4.9.72-6.17-2.75-.34-.92,2.49-1.09,6.58-.39m31.83-16.78c-.5,1.25.78,2.05,1.45,1.39.53-.52.43-1.93-.69-2.32.12.63-.61.56-.76.94m-2.1-2.57c-.49-.31-1.01-.78-1.44-.88-1.67-.4-3.01-1.32-4.73-1.59-.42-.07-.61-.81.09-1.15,1.07-.53,2.23.02,3.32.38,1.44.48,1.65,2.2,2.83,2.92.34.21,1.27.34,1.01.82-.26.5-1.22.28-1.33-.5h.24"/>
  <path class="cls-2" d="m230.55,297.28c.38,0,.68-.41.68-.91s-.3-.91-.68-.91-.69.41-.69.91.31.91.69.91m106.62-198.74c3.79,2.58,6.86,4.06,9.83,4.06,2.03,0,3.13-.77,3.13-2.03,0-1.81-1.98-2.03-5.22-2.75-6.7-1.43-10.1-5.11-10.1-10.82,0-8.23,6.43-14.28,16.42-14.28,4.5,0,8.73,1.15,13.24,3.57l-4.29,10.27c-2.75-2.03-5.6-3.08-8.07-3.08-1.98,0-3.08.71-3.08,1.87,0,1.92,2.63,2.2,7.31,3.24,5.22,1.15,8.73,5.05,8.73,10.54,0,8.4-6.7,14.77-16.97,14.77-5.16,0-10.38-1.48-15.44-4.39l4.51-10.98m-265.62-7.14h2.2c2.69,0,4.18-1.37,4.18-3.79s-1.43-3.9-4.18-3.9h-2.2v7.69h0Zm-13.84-17.79h17.74c10.49,0,15.87,4.83,15.87,13.23,0,5.6-3.02,9.5-7.58,10.05l10.49,15.98h-15.82l-6.86-12.96v12.96h-13.84v-39.27m71.42,24.67l-1.21-4.45c-.55-2.09-1.38-4.84-1.59-8.62h-.27c-.22,3.79-1.05,6.53-1.59,8.62l-1.21,4.45h5.88Zm-10.6-24.99h15.7l13.73,39.27h-15.16l-1.26-4.94h-10.65l-1.21,4.94h-15.16l14.01-39.27m42.06.32h14.33v39.27h-14.33v-39.27m52.15,19.66c0-5.16-2.86-7.58-8.57-7.58h-.6v15.21c6.26-.11,9.17-2.31,9.17-7.64Zm-21.28-19.66h11.42c6.81,0,11.91.66,15.54,2.47,6.75,3.41,10.55,9.72,10.55,17.19,0,6.48-2.91,12.14-8.13,15.71-5.11,3.52-11.15,3.9-19,3.9h-10.38v-39.27m50.88,0h26.25v10.66h-12.41v3.79h11.26v10.05h-11.26v4.12h12.74v10.65h-26.58v-39.27m56.3,17.79h2.2c2.69,0,4.18-1.37,4.18-3.79s-1.43-3.9-4.18-3.9h-2.2v7.69h0Zm-13.84-17.79h17.74c10.49,0,15.87,4.83,15.87,13.23,0,5.6-3.02,9.5-7.58,10.05l10.49,15.98h-15.81l-6.87-12.96v12.96h-13.84v-39.27"/>
</svg>