<?xml version="1.0" encoding="UTF-8"?>
<svg id="Layer" xmlns="http://www.w3.org/2000/svg" viewBox="0 0 420 563.4">
  <defs>
    <style>
      .cls-1 {
        fill: #ffc62f;
      }

      .cls-1, .cls-2, .cls-3, .cls-4, .cls-5 {
        stroke-width: 0px;
      }

      .cls-3 {
        fill: #e9bf9b;
      }

      .cls-4 {
        fill: #4f2683;
      }

      .cls-5 {
        fill: #fffffe;
      }
    </style>
  </defs>
  <path class="cls-1" d="m212.6,357c-3.07,12.07-2.55,15.49-2.34,18.93-8.4-5.86-30.1-16.89-31.11-44.82-.47-12.93.57-24.52,2.99-32.79-.4.48-.86,1.03-1.32,1.57-27.8,33.45-59.52,31.2-88.54,34.18-4.3.44-20.42,3.7-24.67,4.62,10.34-11.06,28.23-27.31,39.92-35.29,22.58-15.41,61.83-31.49,61.83-31.49-17.75,9.77-32.1,25.6-32.1,25.6,11.04-7.47,49.6-29.74,49.6-29.74-10.29,9.8-39.62,35.64-57.01,47.14,22.13-10.43,40.85-23.96,50.94-33.5,12.62-11.92,31.57-23.42,40.15-27.85,4.2,4.14,10.29,7.94,15.73,10.18-14.55,10.25-24.26,16.09-28.41,29.94,0,0,10.65-13.67,26-22.04,2.88-1.57,6.01-3.51,9.22-5.72,3.45.81,10.94,1.5,14.61,1.5l.91-.38c-.59.45-2.07,1.3-2.68,1.74-29.33,21.51-56.17,27.16-58.65,70.93,0,0,3.71-28.52,26.27-42.97,12.78-8.19,35.7-19.08,51.06-34.74,11.76-5.38,19.16-14.58,22.99-27.38l.09-.4c3.8-.37,7.58-.86,11.55-1.21-.46,4.62-1.46,10.9-3.71,17.32-2.75,8.59-7.38,18.15-15.53,28.12-14.67,17.92-32.38,29.14-50.81,53.13-18.44,23.99-22.36,48.44-22.36,48.44-4.11-29.84,10.12-48.82,10.12-48.82-2.16,1.71-11.33,12.5-14.71,25.8h0Zm-64.78-25.08c14.34-3.59,27.29-19.09,27.29-19.09-1.52,5.24-.39,21.24-.39,21.24,0,0-5.6,2.21-12.42,2.21s-15.05-4.31-15.05-4.31l.56-.06h0Zm93.24,71.29c-3.23,8.68-5.47,16.72-6.3,19.85-9.62-5.77-24.38-13.46-29.79-21.89-7.26-11.31-7.18-26.13-7.18-26.13,3.59,3.17,12.81,8.33,21.25,13.01,6.89,3.82,18.13,12.2,22.03,15.16h0Zm-18.01-18.61c.31-5.68,2.36-16.38,8.2-29.66,6.55-14.89,23.26-33.15,23.26-33.15,5.56,5.76,12.85,17.53,9.95,32.87-2.9,15.33-10.23,20.58-17.69,35.3-1.28,2.54-2.5,5.23-3.63,7.95-4.66-3.69-13.1-8.96-20.09-13.31h0Zm-32.26-173.07l.37.1-.53.09c-7.57,1.34-15.43,3.18-22.08,4.91.3-2.64.65-5.28,1.07-7.88.13-.72.28-1.45.44-2.18,2.91.71,5.86,1.39,8.82,2.07,2.67.62,5.34,1.24,7.98,1.91l3.92.99h0Zm148.58,18.91c3.89-2.59,17.49-1.55,22.02-1.03,4.54.52,19.69,2.85,27.21,1.17,7.51-1.68,10.88-3.24,10.88-3.24,0,0-1.81,13.72-16.32,14.76s-16.45-2.46-27.33-3.89c0,0,3.24-1.94,9.07-3.11,0,0-10.11-1.43-17.75.52-7.64,1.94-10.75,5.18-10.75,5.18,0,0-.91-7.77,2.98-10.36h0Zm-144.06-84.21s1.17-1.49,1.38-1.81c6.24-9.43,13.03-18.8,16.41-23.36,2.36-3.18,4.16-6.33,5.54-9.26,3.9-8.26,4.45-14.71,4.45-14.71,36.02,1.65,79.17,17.45,114.08,50.52,15.45,14.63,25.66,31.9,32.27,46.63-6.43-1.05-19.8-2.62-34.88-2.72-16.9-.12-37.17,2.17-41.02,2.63v-.02c-.06-.6-.14-1.19-.23-1.78l-.08-.52c-.07-.46-.16-.92-.25-1.38h.03c-2.17-16.55-14.41-32.36-29.94-38.93-5.58-2.6-17.34-6.5-29.6-7.61-6.2-.71-12.86-.64-20.95.22-3.47.37-6.83.8-10.14,1.22-2.4.31-4.75.61-7.07.88h0Zm45.63,307s-8.18-4.25-13.89-12.49c-4.48-6.47-4.88-14.41-4.84-17.55,5.76,3.32,12.37,6.6,16.23,9,4.24,2.63,7.68,5.23,10.24,7.4-4.07,7.21-7.73,13.64-7.73,13.64h0Zm-23.59-204.62c-27.14,7.4-84.95,31.87-118.76,55.54-14.59,10.22-30.51,26.35-40.2,36.3-9.5,2.93-21.49,7.96-27.06,10.39,12.99-14.28,39.32-39.88,60.78-54.3,64.8-43.54,118.37-50.57,122.36-51.38l1.18,1.02c.54.83,1.11,1.63,1.69,2.42h0Zm157.31,70.07c-16.71,11.01-27.33,37.26-27.33,37.26,4.29-29.13,23.02-49.48,23.02-49.48-13.99,8.16-24.18,23.77-29.59,58.55-6.18,39.78-17.59,55.05-17.59,55.05l1.19-4.03c4.79-21.5,4.01-31.6,7.9-57.5,3.89-25.9,15.29-41.7,15.29-41.7-14.25,9.97-21.92,31.3-24.61,62.3-2.97,34.18-11.16,46.28-11.16,46.28,4.98-17.08,2.87-36.05,3.64-48.74.78-12.7,1.34-29.96,8.46-46.27,7.13-16.32,23.67-32.08,41.03-39.98,17.35-7.9,31.21-4.01,31.21-4.01,9.15,8.58,9.71,17.61,9.71,17.61,0,0-14.45,3.67-31.17,14.68h0Zm-145.89,142.54c-1.72-5.77.87-7.97,2.33-9.87,0,0,3.83,3.38,7.8,5.4,0,0-2.17,5.88-3.85,11.2-2.6-1.36-5.23-3.18-6.29-6.73h0Zm-2.28,33.4s1.33,2.4,2.75,4.34c1.77,2.39,1.39,4.65.12,6.09-1.27,1.44-3.31,1.65-4.77-.08-1.47-1.72-.41-7.49,1.89-10.35Zm34.34-114.95c1.19,2.24,4.37,7.88,5.27,14.97,1.32,10.33-2.74,21.66-8.03,31.27-1.44,2.61-5.05,5.93-6.89,9.21-1.42-1.58-3.93-3.95-8.15-6.91-.88-.61-1.92-1.28-3.07-2,3.84-15.37,12.86-34.99,16.51-39.92,1.16-1.56,3.13-4.63,4.37-6.62Zm-28.29,105.98c3.07,2.07,6.32,6.71,6.55,8.97.35,3.4-4.95,6.09-4.95,6.09,0,0,.74-3.73-3.12-6.59-5.64-4.18-7.63-5.82-3.53-12.86,0,0,1.98,2.31,5.05,4.39h0Zm13.76-33.66c4.69-8.44,11.37-17.44,11.37-17.44,0,0,4.09,12.71.67,23.33-3.42,10.62-11.84,19.99-11.84,19.99,0,0-3.93-5.51-7-7.58-.27-.18-.57-.37-.88-.54,1.47-4.13,4.4-11.87,7.67-17.75h0Zm-10.94,20.81c4.2,2.01,7.2,4.81,8.77,8.11,1.56,3.3.16,6.33-2.66,8.31,0,0-1.5-4.03-5.47-6.05-3.97-2.02-7.71-3.75-8.64-7.77-.92-4.01,1.59-7.4,1.59-7.4,0,0,2.21,2.8,6.41,4.81h0Z"/>
  <path class="cls-5" d="m215.46,212.05c-12.62-3.82-30.77-7.23-46.88-11.8-32.54-9.11-54.88-28.73-66.4-58.3-7.58-19.44-7.75-37.06-7.66-41.3,0-.61-.03-1.74-.03-2.13.18-13.63,2.01-26.25,3.55-35.33l.18-1.11.03,1.94c-.05,9.43.6,17.74.83,20.32l.02.25c.04.38.29-1.94.47-3.1.63-4.2,1.35-8.37,1.77-12.61.42-4.21,1.37-9.25,1.55-13.48.07-1.62.14-3.26.1-4.89.47.28.66,1.86.75,2.3.37,1.76,1.18,15.58,1.42,20.32.1,1.89.13,3.78.15,5.67.01.94.04,1.87.19,2.81.03.25.11.52.17.78.05.22.74-6.16,1.26-9.52.44-2.83,1.15-5.7,1.13-8.58,0-.25-.08-.56-.03-.81.07-.43.69,1.41,1,4.79.22,3.81.38,7.77.82,11.5l.34,2.95c3.08,27.07,19.31,51.74,41.23,62.79,17.69,9.92,34.21,7.8,51.69,5.56,3.26-.42,6.59-.85,10.01-1.21,7.65-.81,13.92-.88,19.76-.22,12.88,1.16,24.79,5.55,28.71,7.58,13.07,5.87,23.32,19.18,25.46,33.18v.37c.56,2.54.85,5.18.85,7.89v.1c-.09-.52-.14-1.02-.25-1.54-.06,4.54-.98,8.86-2.58,12.84,1.3-4.03,1.73-8.75.55-14.26-.07,5.16-1.26,10.02-3.3,14.43,1.22-3.95,1.72-8.18,1.32-12.54-.8-8.83-5.09-16.51-11.4-21.88,5.05,5.4,7.49,13.96,8.22,21.96,1.69,18.76-13.31,31.05-29.4,33.82l-.34.08c1.38.25,6.75.98,12.09-.72,2.37-.17,5.52-.7,8.72-2.25,1.18-.57,2.68-1.43,4.28-2.55-6.68,6.17-15.59,9.97-25.4,9.97-12.96,0-24.35-6.58-31.07-16.58,9.34,1.17,18.49,3.03,18.49,3.03-8.42-6.5-22.39-10.59-22.39-10.59v.05s0,0,0,0Zm-5.69-97.24c-4.38,6.74-10.86,15.9-15.91,23.02-6.1-4.58-16.28-13.66-20.97-26.05-7.24-19.15-4.81-37.41-6.07-47.63-.37-2.94-.83-6.53-1.41-10.36,1.6,5.28,3.71,12.85,4.27,17.69,0,0-.47-13.76-2.37-22.3,0,0,4.74,13.29,5.69,20.87,0,0,.62-7.35-.07-15.2.9,3.01,1.7,6.18,2.29,9.52,3.73,20.73,9.87,35.19,34.55,50.43h0Z"/>
  <path class="cls-3" d="m360.44,250.92c1.3,1.56,3.63,4.92,3.76,6.09.02.14,0,.46-.03.89h0s-.03.31-.03.31v.05c-.17,1.79-1.03,10.12-2.95,12.45-.28.46-.6.91-1,1.31-2.21,2.06-6.06,4.02-13.35,9.08-8.03,5.57-14.38,16.97-14.38,16.97,0,0,2.28-10.77,7.25-16.92,6.15-7.62,14.17-12.66,19.12-15.29l2.22-9.93c-1.7-1.14-3.85-2.3-5.92-2.67-4.3-.76-11.55-.66-15.99-2.11l.05-.09c5.31-.65,8.42-2.2,16.32-3.5,7.9-1.29,13.99,1.04,13.99,1.04-5.31.26-9.07,2.33-9.07,2.33h0Zm25.7-4.28s3.3,7.55,3.14,13.05c-.15,5.5,1.57,9.27,3.61,10.85,2.05,1.57,4.09,1.89,5.35,2.83,1.26.94,1.26,3.77.63,6.13-.63,2.36-2.36,2.67-4.25,2.2-1.76-.44-10.96-1.68-20.95.15-.53-1.85-1.44-6.07.54-8.17,2.59-2.71,7.64-2.46,9.58-2.07,0,0-4.14-1.94-7.77-1.94s-6.61,2.46-7.65,5.18c-.77,2.02-.11,6.18.28,8.19-10.86,3.2-26.41,11.68-39.16,28.05-13.84,17.76-16.97,39.93-16.97,39.93,0,0-14.6,2.87-22.15-8.34-10.13-15.05-6.32-32.69-6.32-32.69,0,0-6,2.83-10.75,1.59-1.66-.43-2.85-1.53-3.68-2.83,7.9-7.02,16.3-13.61,24.64-23.15,4.32.96,8.2,2,10.32,2.65,4.67,1.42,9.53,5.37,10.82,9.64,1.3,4.28,1.94,18.78,1.94,18.78,2.62-10.09,3.04-15.18,3.3-18.04.27-2.85-.03-10.05-5.5-15.03-2.95-2.69-11.31-5.19-14.62-7.03,12.65-17.42,16.12-44.1,16.12-44.1v-.76c1.28-.14,2.12-.27,2.15-.41,2.33-.13,10.61-1.14,12.91-1.19,0,0-3.46,10.21-.47,17.76,0,0,7.71-5.19,18.72-4.4,11.01.79,28.62,6.13,36.17,3.15h0Zm-104.34,97.16c5.23,7.68,12.25,14.21,23.52,14.21,1.63,0,3.57-.03,5.67-.08-.93,5.84-1.38,12.13-1.61,16.7-2.45.81-4.62,1.6-6.35,2.33-10.95,4.57-31.32,15.37-31.32,15.37l-.69.42c-1.68-11.61-5.47-21.15-5.47-21.15,0,0,7.31-19.01,4.58-30.69-3.59-15.35-9.47-23.51-9.47-23.51.65-.69,1.29-1.33,1.94-1.99,3.85,5.25,10.38,5.4,10.38,5.4,0,0,3.6,15.35,8.82,23.02h0Zm111.84,13.96c5.55.16,10.66-.25,10.66-.25-1.63,1.31-6.04,1.14-8.49,1.47-2.45.33-17.64.82-36.1,3.59-3.34.5-6.99,1.15-10.77,1.89,1.17-3.17,2.26-5.44,3.62-7.57h.16c13.56,0,35.36.69,40.92.85h0Zm6.5-22.44c3.88,1.56,6.09,2.98,7.51,11.01,1.42,8.03-3.11,7.77-5.31,7.65-2.2-.13-8.6-.17-18.45-1.34-9.85-1.16-27.43-1.62-27.43-1.62,8.41-23.26,37.72-35.89,37.72-35.89.52,6.73-4.53,19.04-4.53,19.04,0,0,6.61-.39,10.5,1.16h0Z"/>
  <path class="cls-4" d="m372.37,200c-4.64-.86-19.44-3.1-37.8-3.22-16.69-.11-36.81,1.97-40.78,2.41v.07c-.03,24.82-21.4,42.54-41.3,42.83-30.06.45-41.12-23.77-41.35-25.2-2.14-.62-4.43-1.25-6.8-1.88-3.99.49-8.26,1.1-12.74,1.89-8.28,1.46-16.84,3.5-23.8,5.31-.33,3.68-.86,9.59-.88,10.09-.99,20.9.33,19.44.33,19.44,6.06-2.37,28.42-8.1,28.42-8.1,6.55-1.52,14.32-3.16,23.43-4.84,6.4,12.9,19.69,21.76,35.07,21.76,19.2,0,35.15-13.82,38.49-32.04,41.96-4.55,61.79-4.68,87.71-1.24-2.72-14.44-7.97-27.29-7.97-27.29"/>
  <path class="cls-2" d="m369.5,248.59s-6.08-2.33-13.98-1.04c-7.91,1.29-11.02,2.85-16.33,3.5l-.05.09c4.43,1.45,11.68,1.35,15.99,2.1,2.08.38,4.22,1.54,5.92,2.67l-2.23,9.94c-4.95,2.64-12.97,7.66-19.11,15.29-.47.57-.92,1.2-1.33,1.86-.2.27-.38.56-.54.86-.24.38-.45.75-.65,1.13-.25.45-.49.92-.72,1.4-.23.47-.45.93-.65,1.4-.88,1.97-1.58,3.95-2.1,5.62l-.18.57c-.39,1.31-.68,2.39-.86,3.12l-.07.29-.05.22-.07.34-.02.09c.11-.18.66-1.19,1.6-2.64l.68-1.04c1.79-2.69,4.52-6.42,7.77-9.61.45-.45.91-.9,1.38-1.31.95-.84,1.92-1.63,2.92-2.33,7.29-5.06,11.14-7.01,13.35-9.08.4-.41.72-.86,1.01-1.31,1.92-2.33,2.78-10.67,2.94-12.45v-.05l.03-.31c.02-.31.02-.56.02-.72v-.18c-.13-1.17-2.46-4.54-3.75-6.08,0,0,3.75-2.08,9.06-2.33h0Zm0,0s-6.08-2.33-13.98-1.04c-7.91,1.29-11.02,2.85-16.33,3.5l-.05.09c4.43,1.45,11.68,1.35,15.99,2.1,2.08.38,4.22,1.54,5.92,2.67l-2.23,9.94c-4.95,2.64-12.97,7.66-19.11,15.29-.47.57-.92,1.2-1.33,1.86-.2.27-.38.56-.54.86-.24.38-.45.75-.65,1.13-.25.45-.49.92-.72,1.4-.23.47-.45.93-.65,1.4-.88,1.97-1.58,3.95-2.1,5.62l-.18.57c-.39,1.31-.68,2.39-.86,3.12l-.07.29-.05.22-.07.34-.02.09c.11-.18.66-1.19,1.6-2.64l.68-1.04c1.79-2.69,4.52-6.42,7.77-9.61.45-.45.91-.9,1.38-1.31.95-.84,1.92-1.63,2.92-2.33,7.29-5.06,11.14-7.01,13.35-9.08.4-.41.72-.86,1.01-1.31,1.92-2.33,2.78-10.67,2.94-12.45v-.05l.03-.31c.02-.31.02-.56.02-.72v-.18c-.13-1.17-2.46-4.54-3.75-6.08,0,0,3.75-2.08,9.06-2.33h0Zm0,0s-6.08-2.33-13.98-1.04c-7.91,1.29-11.02,2.85-16.33,3.5l-.05.09c4.43,1.45,11.68,1.35,15.99,2.1,2.08.38,4.22,1.54,5.92,2.67l-2.23,9.94c-4.95,2.64-12.97,7.66-19.11,15.29-.47.57-.92,1.2-1.33,1.86-.2.27-.38.56-.54.86-.24.38-.45.75-.65,1.13-.25.45-.49.92-.72,1.4-.23.47-.45.93-.65,1.4-.88,1.97-1.58,3.95-2.1,5.62l-.18.57c-.39,1.31-.68,2.39-.86,3.12l-.07.29-.05.22-.07.34-.02.09c.11-.18.66-1.19,1.6-2.64l.68-1.04c1.79-2.69,4.52-6.42,7.77-9.61.45-.45.91-.9,1.38-1.31.95-.84,1.92-1.63,2.92-2.33,7.29-5.06,11.14-7.01,13.35-9.08.4-.41.72-.86,1.01-1.31,1.92-2.33,2.78-10.67,2.94-12.45v-.05l.03-.31c.02-.31.02-.56.02-.72v-.18c-.13-1.17-2.46-4.54-3.75-6.08,0,0,3.75-2.08,9.06-2.33h0Zm0,0s-6.08-2.33-13.98-1.04c-7.91,1.29-11.02,2.85-16.33,3.5l-.05.09c4.43,1.45,11.68,1.35,15.99,2.1,2.08.38,4.22,1.54,5.92,2.67l-2.23,9.94c-4.95,2.64-12.97,7.66-19.11,15.29-.47.57-.92,1.2-1.33,1.86-.2.27-.38.56-.54.86-.24.38-.45.75-.65,1.13-.25.45-.49.92-.72,1.4-.23.47-.45.93-.65,1.4-.88,1.97-1.58,3.95-2.1,5.62l-.18.57c-.39,1.31-.68,2.39-.86,3.12l-.07.29-.05.22-.07.34-.02.09c.11-.18.66-1.19,1.6-2.64l.68-1.04c1.79-2.69,4.52-6.42,7.77-9.61.45-.45.91-.9,1.38-1.31.95-.84,1.92-1.63,2.92-2.33,7.29-5.06,11.14-7.01,13.35-9.08.4-.41.72-.86,1.01-1.31,1.92-2.33,2.78-10.67,2.94-12.45v-.05l.03-.31c.02-.31.02-.56.02-.72v-.18c-.13-1.17-2.46-4.54-3.75-6.08,0,0,3.75-2.08,9.06-2.33h0Zm-13.98-1.04c-7.91,1.29-11.02,2.85-16.33,3.5l-.05.09c4.43,1.45,11.68,1.35,15.99,2.1,2.08.38,4.22,1.54,5.92,2.67l-2.23,9.94c-4.95,2.64-12.97,7.66-19.11,15.29-.47.57-.92,1.2-1.33,1.86-.2.27-.38.56-.54.86-.24.38-.45.75-.65,1.13-.25.45-.49.92-.72,1.4-.23.47-.45.93-.65,1.4-.88,1.97-1.58,3.95-2.1,5.62l-.18.57c-.39,1.31-.68,2.39-.86,3.12l-.07.29-.05.22-.07.34-.02.09c.11-.18.66-1.19,1.6-2.64l.68-1.04c1.79-2.69,4.52-6.42,7.77-9.61.45-.45.91-.9,1.38-1.31.95-.84,1.92-1.63,2.92-2.33,7.29-5.06,11.14-7.01,13.35-9.08.4-.41.72-.86,1.01-1.31,1.92-2.33,2.78-10.67,2.94-12.45v-.05l.03-.31c.02-.31.02-.56.02-.72v-.18c-.13-1.17-2.46-4.54-3.75-6.08,0,0,3.75-2.08,9.06-2.33,0,0-6.08-2.33-13.98-1.04h0Zm46.81,106.43c-2.21-.13-8.59-.16-18.45-1.35-9.85-1.15-27.44-1.61-27.44-1.61,8.4-23.25,37.72-35.89,37.72-35.89.52,6.73-4.52,19.03-4.52,19.03,0,0,6.6-.37,10.48,1.17,3.89,1.56,6.1,2.98,7.52,11.01,1.42,8.04-3.11,7.77-5.31,7.64h0Zm-6.53,5.01c-2.46.34-17.64.83-36.1,3.61-3.34.5-6.98,1.15-10.77,1.88,1.17-3.16,2.26-5.44,3.62-7.55l.16-.02c13.55,0,35.35.7,40.91.86,5.54.16,10.66-.25,10.66-.25-1.63,1.31-6.03,1.15-8.49,1.47h0Zm-55.05,6.01c-6.19,39.79-17.58,55.05-17.58,55.05l1.19-4.04c4.79-21.49,4.02-31.59,7.89-57.5,3.89-25.9,15.29-41.71,15.29-41.71-14.25,9.98-21.93,31.31-24.62,62.3-2.87,33.1-10.64,45.51-11.12,46.25,4.95-17.06,2.83-36.02,3.62-48.7.77-12.7,1.33-29.96,8.45-46.28,7.12-16.32,23.67-32.07,41.04-39.98,17.35-7.89,31.2-4,31.2-4,9.13,8.57,9.71,17.6,9.71,17.6,0,0-14.45,3.68-31.17,14.69-16.71,10.99-27.33,37.26-27.33,37.26,4.29-29.13,23.02-49.49,23.02-49.49-14,8.16-24.19,23.77-29.59,58.55h0Zm-31.36,9.63c-2.46.81-4.63,1.6-6.35,2.33-10.95,4.57-31.33,15.37-31.33,15.37l-.7.41c-1.67-11.62-5.46-21.15-5.46-21.15,0,0,7.3-19.01,4.58-30.69-3.59-15.35-9.47-23.52-9.47-23.52.64-.7,1.29-1.35,1.94-1.99,3.86,5.24,10.37,5.4,10.37,5.4,0,0,3.61,15.34,8.83,23.02,5.24,7.68,12.26,14.21,23.52,14.21,1.63,0,3.57-.03,5.67-.09-.91,5.85-1.38,12.13-1.6,16.7h0Zm-51.32,51.27c-1.43,2.62-5.06,5.94-6.89,9.2-1.42-1.58-3.93-3.95-8.14-6.91-.88-.61-1.94-1.27-3.09-1.99,3.86-15.37,12.87-34.98,16.51-39.93,1.17-1.56,3.14-4.63,4.38-6.6,1.18,2.23,4.36,7.87,5.26,14.96,1.33,10.33-2.73,21.67-8.02,31.27h0Zm.27,31.97c-3.41,10.62-11.83,20-11.83,20,0,0-3.93-5.51-7-7.59-.27-.18-.57-.36-.88-.54,1.45-4.14,4.4-11.87,7.66-17.76,4.68-8.43,11.37-17.44,11.37-17.44,0,0,4.09,12.7.66,23.32h0Zm-16.87,31.34s-1.49-4.02-5.47-6.05c-3.97-2.01-7.7-3.75-8.63-7.77-.93-4.02,1.58-7.41,1.58-7.41,0,0,2.23,2.82,6.42,4.81,4.2,2.01,7.2,4.81,8.76,8.11,1.56,3.3.16,6.33-2.66,8.31h0Zm-7.32,11.5s.73-3.73-3.14-6.58c-5.63-4.2-7.63-5.83-3.52-12.86,0,0,1.97,2.32,5.04,4.38,3.07,2.08,6.32,6.73,6.55,8.97.36,3.41-4.93,6.1-4.93,6.1h0Zm-4.79,4.34c-1.27,1.43-3.3,1.65-4.77-.07-1.45-1.72-.41-7.5,1.9-10.35,0,0,1.33,2.4,2.75,4.33,1.78,2.39,1.4,4.66.12,6.1h0Zm9.53-48.31s-2.15,5.89-3.84,11.2c-2.6-1.35-5.22-3.17-6.28-6.71-1.72-5.77.86-7.98,2.33-9.88,0,0,3.82,3.39,7.79,5.4h0Zm-16.69-33.56c5.76,3.32,12.38,6.6,16.24,9.01,4.23,2.62,7.68,5.22,10.23,7.39-4.06,7.21-7.73,13.65-7.73,13.65,0,0-8.16-4.25-13.89-12.5-4.49-6.46-4.88-14.4-4.84-17.54h0Zm-17.23-22.01c-7.25-11.3-7.18-26.12-7.18-26.12,3.59,3.17,12.81,8.32,21.24,13.01,6.89,3.82,18.12,12.2,22.02,15.16-3.23,8.68-5.46,16.72-6.3,19.84-9.6-5.76-24.37-13.45-29.79-21.89Zm59.48-46.5c-2.89,15.34-10.23,20.58-17.69,35.28-1.28,2.55-2.49,5.24-3.62,7.95-4.65-3.7-13.1-8.95-20.08-13.29.31-5.69,2.35-16.38,8.2-29.67,6.55-14.87,23.25-33.15,23.25-33.15,5.56,5.76,12.85,17.54,9.94,32.88h0Zm-85.3-23.57c-.48-12.92.56-24.5,2.98-32.79-.39.49-.86,1.04-1.31,1.58-27.81,33.46-59.52,31.2-88.55,34.19-4.29.43-20.42,3.7-24.67,4.61,10.35-11.07,28.24-27.32,39.93-35.28,21.87-14.92,59.38-30.5,61.71-31.45-17.69,9.8-31.98,25.56-31.98,25.56,10.69-7.25,47.23-28.36,49.49-29.67-10.37,9.88-39.57,35.59-56.9,47.07,22.12-10.44,40.86-23.97,50.94-33.51,12.61-11.91,31.56-23.41,40.14-27.84,4.2,4.14,10.3,7.93,15.74,10.17-14.55,10.24-24.26,16.09-28.42,29.94,0,0,10.66-13.67,26-22.05,2.89-1.56,6.01-3.5,9.22-5.7,3.44.81,10.94,1.51,14.6,1.51l.9-.4c-.59.45-2.06,1.29-2.67,1.74-29.28,21.49-56.09,27.14-58.64,70.75.38-2.46,4.76-29.03,26.27-42.8,12.78-8.18,35.69-19.07,51.05-34.73,11.75-5.38,19.16-14.58,22.99-27.37l.09-.39c3.8-.38,7.59-.86,11.56-1.22-.45,4.63-1.47,10.91-3.71,17.31-2.75,8.59-7.38,18.15-15.52,28.13-14.68,17.92-32.39,29.13-50.81,53.13-18.45,23.98-22.36,48.43-22.36,48.43-4-29.03,9.35-47.77,10.08-48.77-2.23,1.78-11.32,12.54-14.68,25.76-3.07,12.07-2.55,15.5-2.35,18.93-8.4-5.87-30.09-16.88-31.1-44.83h0Zm-4.41,2.98s-5.6,2.21-12.42,2.21-15.06-4.3-15.06-4.3l.56-.06c14.34-3.59,27.29-19.08,27.29-19.08-1.51,5.24-.38,21.24-.38,21.24Zm-116.35,6.37c-9.49,2.93-21.5,7.97-27.06,10.39,12.99-14.28,39.32-39.88,60.77-54.3,64.8-43.54,118.37-50.57,122.38-51.38l1.17,1.02c.53.84,1.11,1.63,1.68,2.42-27.13,7.41-84.95,31.88-118.75,55.54-14.59,10.22-30.5,26.35-40.19,36.31h0Zm43.78-198.49c-7.57-19.45-7.73-37.06-7.66-41.29.02-.61-.02-1.76-.02-2.13.18-13.63,2.01-26.26,3.55-35.34.07-.36.13-.74.18-1.09l.04,1.94c-.05,9.44.59,17.74.83,20.32l.02.25c.04.38.29-1.94.47-3.1.63-4.2,1.35-8.38,1.76-12.61.43-4.22,1.38-9.24,1.56-13.47.07-1.63.14-3.27.09-4.88.48.27.66,1.85.77,2.3.36,1.76,1.17,15.59,1.4,20.32.11,1.88.14,3.77.16,5.67.02.93.04,1.87.2,2.8.02.25.11.52.16.79.07,0,.74-6.22,1.26-9.53.45-2.83,1.15-5.7,1.13-8.57,0-.25-.07-.57-.04-.81.07-.43.7,1.4,1,4.77.22,3.82.38,7.77.83,11.5l.34,2.96c3.09,27.07,19.31,51.74,41.24,62.78,17.69,9.92,34.2,7.8,51.7,5.56,3.25-.41,6.59-.84,9.99-1.2,7.66-.81,13.92-.88,19.76-.23,12.88,1.17,24.8,5.56,28.71,7.59,13.08,5.87,23.33,19.19,25.48,33.19v.38c.56,2.55.85,5.18.85,7.89v.09c-.09-.52-.14-1-.25-1.54-.07,4.54-.98,8.86-2.58,12.84,1.29-4.04,1.72-8.75.54-14.26-.05,5.17-1.26,10.03-3.3,14.42,1.22-3.95,1.72-8.18,1.33-12.54-.81-8.83-5.1-16.5-11.39-21.89,5.04,5.4,7.5,13.96,8.22,21.97,1.69,18.75-13.31,31.03-29.39,33.81l-.34.09c1.38.23,6.75.99,12.1-.72,2.37-.18,5.53-.7,8.72-2.26,1.18-.56,2.67-1.42,4.29-2.55-6.68,6.17-15.59,9.97-25.41,9.97-12.95,0-24.35-6.58-31.06-16.58,9.35,1.17,18.5,3.01,18.5,3.01-8.43-6.49-22.39-10.58-22.39-10.58v.05c-12.63-3.82-30.77-7.23-46.89-11.8-32.53-9.11-54.87-28.74-66.41-58.3h0Zm70.72-30.17c-7.25-19.14-4.81-37.4-6.07-47.63-.38-2.94-.84-6.53-1.42-10.37,1.61,5.29,3.71,12.86,4.27,17.7,0,0-.47-13.72-2.35-22.26.27.79,4.76,13.47,5.67,20.83,0,0,.63-7.36-.07-15.19.9,3.01,1.7,6.19,2.3,9.53,3.73,20.72,9.87,35.2,34.56,50.43-4.4,6.73-10.87,15.89-15.92,23.02-6.1-4.57-16.29-13.65-20.98-26.05h0Zm45.76.02c3.89-8.25,4.45-14.73,4.45-14.73,36.01,1.67,79.17,17.45,114.07,50.53,15.45,14.62,25.68,31.89,32.28,46.62-6.44-1.04-19.81-2.62-34.88-2.73-16.9-.11-37.16,2.17-41.02,2.64v-.02c-.07-.59-.14-1.18-.23-1.78l-.07-.52c-.07-.47-.16-.92-.25-1.38h.02c-2.15-16.54-14.41-32.36-29.93-38.93-5.58-2.6-17.33-6.51-29.61-7.61-6.21-.72-12.87-.65-20.94.22-3.48.36-6.84.81-10.14,1.22-2.4.31-4.76.61-7.09.88,0,0,1.18-1.49,1.38-1.81,6.24-9.44,13.03-18.8,16.42-23.36,2.35-3.17,4.16-6.33,5.54-9.26h0Zm-50.08,104.81c.29-2.64.65-5.27,1.06-7.87.14-.72.29-1.45.45-2.17,2.91.7,5.87,1.38,8.83,2.06,2.66.63,5.33,1.26,7.97,1.92,1.33.32,2.64.65,3.93.99l.38.09-.54.09c-7.57,1.33-15.43,3.17-22.07,4.9h0Zm211.77,10.67c-25.91-3.44-45.74-3.32-87.71,1.24-3.34,18.23-19.29,32.06-38.49,32.06-15.38,0-28.66-8.88-35.06-21.78-9.1,1.69-16.88,3.32-23.43,4.84,0,0-22.36,5.74-28.4,8.11,0,0-1.33,1.45-.34-19.45.04-.5.56-6.42.9-10.08,6.96-1.81,15.52-3.86,23.79-5.33,4.49-.79,8.76-1.4,12.74-1.88,2.37.63,4.67,1.26,6.8,1.88.23,1.43,11.3,25.65,41.36,25.2,19.9-.31,41.27-18.01,41.29-42.84v-.07c3.97-.43,24.1-2.53,40.79-2.4,18.37.13,33.16,2.35,37.81,3.21,0,0,5.26,12.86,7.97,27.28Zm8.27,3.28c7.5-1.69,10.88-3.23,10.88-3.23,0,0-1.81,13.72-16.33,14.75-14.5,1.04-16.44-2.46-27.33-3.87,0,0,3.25-1.96,9.08-3.1,0,0-10.12-1.43-17.76.5-7.63,1.96-10.75,5.18-10.75,5.18,0,0-.9-7.77,2.98-10.35,3.89-2.6,17.49-1.56,22.01-1.04,4.54.52,19.7,2.85,27.22,1.17h0Zm4.29,39.97c2.05,1.58,4.09,1.9,5.35,2.83,1.26.95,1.26,3.78.63,6.13-.63,2.35-2.37,2.67-4.25,2.2-1.76-.45-10.95-1.69-20.94.14-.54-1.85-1.45-6.06.54-8.16,2.58-2.69,7.56-2.46,9.53-2.08-.47-.22-4.31-1.94-7.72-1.94-3.62,0-6.6,2.48-7.64,5.19-.77,2.03-.11,6.19.29,8.2-10.86,3.19-26.41,11.68-39.17,28.06-13.83,17.76-16.96,39.93-16.96,39.93,0,0-14.61,2.87-22.16-8.34-10.14-15.05-6.32-32.7-6.32-32.7,0,0-6.01,2.83-10.75,1.6-1.67-.43-2.85-1.52-3.69-2.83,7.91-7.01,16.31-13.6,24.65-23.14,4.3.95,8.18,1.99,10.3,2.65,4.67,1.42,9.53,5.36,10.84,9.63,1.29,4.27,1.94,18.78,1.94,18.78,2.62-10.1,3.03-15.18,3.28-18.05.27-2.83-.04-10.05-5.49-15.03-2.96-2.69-11.3-5.18-14.63-7.02,12.65-17.42,16.13-44.11,16.13-44.11-.02-.25-.02-.5-.02-.75,1.29-.14,2.13-.27,2.17-.41,2.33-.13,10.6-1.15,12.9-1.18,0,0-3.46,10.21-.47,17.76,0,0,7.7-5.18,18.72-4.39,11,.79,28.62,6.13,36.17,3.14,0,0,3.3,7.55,3.14,13.06-.14,5.49,1.58,9.27,3.62,10.84h0Zm19.32,70.78c-.72-4.4-5.13-8.32-7.34-8.81-2.21-.48-7.84-1.95-7.84-1.95,4.16-11.75,4.16-19.1,4.16-19.1,3.68-1.96,11.02-4.9,11.02-4.9-2.44-12.99-11.27-23.03-11.27-23.03.74-2.69,2.46-7.34,2.46-9.06s-3.19-4.65-6.62-6.85c-3.43-2.21-3.91-6.12-3.91-10.78s-1.96-10.53-2.69-10.78c-.74-.23,8.74-3.23,11.68-11.57,2.94-8.32,3.01-15.09,3.01-15.09-3.91,5.7-19.24,8.05-19.24,8.05-1.22-12.99-11.64-54.87-53.78-92.83-42.13-37.96-113.92-44.83-113.92-44.83.11,2.12-.16,4.63-.79,7.39-.59,3.57-1.63,7.79-3.45,11.19-.11.2-.25.45-.39.68-9.91-5.36-20.31-12.57-25.09-21.01-9.24-16.32-8.09-30.37-12.99-41.89-8.02-18.85-19.6-29.1-23.04-32.09-1.97-1.72-2.64-2.3-3.66-1.47-1,.81-.34,1.97.48,3.19.77,1.15,7.99,15.05,10.68,33.92,2.69,18.85-.88,48.61,7.95,67.72,5.49,11.89,14.57,21.31,20.65,26.73.22.18.43.38.63.56l1.97,1.96c-12.6,1.18-24.31.74-36.77-6.26-20.03-10.08-35.39-33.53-38.2-58.34l-.34-2.98c-.79-6.8-.47-13.6-.77-20.41-.27-6.19-.95-12.36-2.03-18.46-.47-2.69-1.02-5.35-1.67-8l-.02-.09c-.27-1.61-.74-3.21-1.2-4.79-.31-1.04-.65-2.08-.99-3.14-.79-2.31-1.81-4.54-3.12-6.66-1.58-2.55-3.32-5.02-5.35-7.23-1.2-1.31-2.49-2.55-3.95-3.57,0,0-1.35-.84-2.26-.36,0,0-1.2.84.07,3.46,0,0,.32.52.7,1.42.22.5.45,1.13.66,1.85.2.65.36,1.35.48,2.1,1,5.38,1.72,16.97-2.53,39.09l-.04.07c-.38,3.21-.79,6.42-1.35,9.61-1.76,10.35-3.46,22.1-3.75,34.3,0,.54.07,2.12.05,2.44-.13,10.85,1.96,82,75.54,104.4-.34,1.52-.66,3-.9,4.41-4.97,31.37-3.14,44.6-3.14,44.6l.04.32c-15.06,5.67-32.08,13.31-50.03,23.57-20.08,11-41.86,25.96-63.18,46.37-4,3.86-7.75,7.64-11.3,11.41-.86.9-1.72,1.81-2.58,2.73l-.16.18c-11.25,12.11-19.74,23.27-25.89,32.34,33.25-24,85.2-31.19,101.08-32.13,16.65-.97,33.52-3.82,33.52-3.82,0,0,6.59,3.51,14.45,5.24,8.92,1.97,18.25-.86,18.25-.86,3.36,17.26,15.49,28.34,18.66,30.83-.83,5.19.02,22.3,5.85,31.81,6.28,10.24,16.65,17.15,16.65,17.15,0,0-.72,9.27,1.72,15.91,2.44,6.64,8.11,12.68,8.11,12.68,0,0-2.58,4.34-2.92,9.79-.34,5.45,2.92,8.48,2.92,8.48,0,0-2.96,3.8-3.46,6.76-.49,2.98,1.35,7.44,1.35,7.44,0,0-1.79,3.27-2.31,5.78-.54,2.53.97,5.63.97,5.63-1.2,2.35-4.77,13.38.48,17.81,5.24,4.43,11.77-3.84,11.77-3.84,2.01-.59,5.79-3.09,7.59-5.88,2.21-3.43,2.21-6.62,2.21-6.62,0,0,2.82-1.83,5.26-6.49,2.01-3.78,1.72-6.28,1.72-6.28,0,0,11.39-11.96,13.76-26.91,2.03-12.74-.97-24.49-.97-24.49,0,0,8.56-13.02,8.17-27.91,5.83-4.07,19.9-13.2,37.41-20.02.5,10.04,2.08,18.74-1.06,34.89-3.93,20.09-21.82,34.78-21.82,34.78,24.99-2.69,41.67-24.74,48.27-40.67,5.4-12.99,10.32-31.36,12.6-39.68,24.38-4.74,46.65-5.99,54.05-7.1,9.8-1.47,12.26-3.66,12.49-7.34.25-3.68-.74-10.3-1.47-14.71h0Zm-42.72-92.72s-6.08-2.33-13.98-1.04c-7.91,1.29-11.02,2.85-16.33,3.5l-.05.09c4.43,1.45,11.68,1.35,15.99,2.1,2.08.38,4.22,1.54,5.92,2.67l-2.23,9.94c-4.95,2.64-12.97,7.66-19.11,15.29-.47.57-.92,1.2-1.33,1.86-.2.27-.38.56-.54.86-.24.38-.45.75-.65,1.13-.25.45-.49.92-.72,1.4-.23.47-.45.93-.65,1.4-.88,1.97-1.58,3.95-2.1,5.62l-.18.57c-.39,1.31-.68,2.39-.86,3.12l-.07.29-.05.22-.07.34-.02.09c.11-.18.66-1.19,1.6-2.64l.68-1.04c1.79-2.69,4.52-6.42,7.77-9.61.45-.45.91-.9,1.38-1.31.95-.84,1.92-1.63,2.92-2.33,7.29-5.06,11.14-7.01,13.35-9.08.4-.41.72-.86,1.01-1.31,1.92-2.33,2.78-10.67,2.94-12.45v-.05l.03-.31c.02-.31.02-.56.02-.72v-.18c-.13-1.17-2.46-4.54-3.75-6.08,0,0,3.75-2.08,9.06-2.33h0Zm0,0s-6.08-2.33-13.98-1.04c-7.91,1.29-11.02,2.85-16.33,3.5l-.05.09c4.43,1.45,11.68,1.35,15.99,2.1,2.08.38,4.22,1.54,5.92,2.67l-2.23,9.94c-4.95,2.64-12.97,7.66-19.11,15.29-.47.57-.92,1.2-1.33,1.86-.2.27-.38.56-.54.86-.24.38-.45.75-.65,1.13-.25.45-.49.92-.72,1.4-.23.47-.45.93-.65,1.4-.88,1.97-1.58,3.95-2.1,5.62l-.18.57c-.39,1.31-.68,2.39-.86,3.12l-.07.29-.05.22-.07.34-.02.09c.11-.18.66-1.19,1.6-2.64l.68-1.04c1.79-2.69,4.52-6.42,7.77-9.61.45-.45.91-.9,1.38-1.31.95-.84,1.92-1.63,2.92-2.33,7.29-5.06,11.14-7.01,13.35-9.08.4-.41.72-.86,1.01-1.31,1.92-2.33,2.78-10.67,2.94-12.45v-.05l.03-.31c.02-.31.02-.56.02-.72v-.18c-.13-1.17-2.46-4.54-3.75-6.08,0,0,3.75-2.08,9.06-2.33h0Zm0,0s-6.08-2.33-13.98-1.04c-7.91,1.29-11.02,2.85-16.33,3.5l-.05.09c4.43,1.45,11.68,1.35,15.99,2.1,2.08.38,4.22,1.54,5.92,2.67l-2.23,9.94c-4.95,2.64-12.97,7.66-19.11,15.29-.47.57-.92,1.2-1.33,1.86-.2.27-.38.56-.54.86-.24.38-.45.75-.65,1.13-.25.45-.49.92-.72,1.4-.23.47-.45.93-.65,1.4-.88,1.97-1.58,3.95-2.1,5.62l-.18.57c-.39,1.31-.68,2.39-.86,3.12l-.07.29-.05.22-.07.34-.02.09c.11-.18.66-1.19,1.6-2.64l.68-1.04c1.79-2.69,4.52-6.42,7.77-9.61.45-.45.91-.9,1.38-1.31.95-.84,1.92-1.63,2.92-2.33,7.29-5.06,11.14-7.01,13.35-9.08.4-.41.72-.86,1.01-1.31,1.92-2.33,2.78-10.67,2.94-12.45v-.05l.03-.31c.02-.31.02-.56.02-.72v-.18c-.13-1.17-2.46-4.54-3.75-6.08,0,0,3.75-2.08,9.06-2.33h0Zm0,0s-6.08-2.33-13.98-1.04c-7.91,1.29-11.02,2.85-16.33,3.5l-.05.09c4.43,1.45,11.68,1.35,15.99,2.1,2.08.38,4.22,1.54,5.92,2.67l-2.23,9.94c-4.95,2.64-12.97,7.66-19.11,15.29-.47.57-.92,1.2-1.33,1.86-.2.27-.38.56-.54.86-.24.38-.45.75-.65,1.13-.25.45-.49.92-.72,1.4-.23.47-.45.93-.65,1.4-.88,1.97-1.58,3.95-2.1,5.62l-.18.57c-.39,1.31-.68,2.39-.86,3.12l-.07.29-.05.22-.07.34-.02.09c.11-.18.66-1.19,1.6-2.64l.68-1.04c1.79-2.69,4.52-6.42,7.77-9.61.45-.45.91-.9,1.38-1.31.95-.84,1.92-1.63,2.92-2.33,7.29-5.06,11.14-7.01,13.35-9.08.4-.41.72-.86,1.01-1.31,1.92-2.33,2.78-10.67,2.94-12.45v-.05l.03-.31c.02-.31.02-.56.02-.72v-.18c-.13-1.17-2.46-4.54-3.75-6.08,0,0,3.75-2.08,9.06-2.33h0Zm0,0s-6.08-2.33-13.98-1.04c-7.91,1.29-11.02,2.85-16.33,3.5l-.05.09c4.43,1.45,11.68,1.35,15.99,2.1,2.08.38,4.22,1.54,5.92,2.67l-2.23,9.94c-4.95,2.64-12.97,7.66-19.11,15.29-.47.57-.92,1.2-1.33,1.86-.2.27-.38.56-.54.86-.24.38-.45.75-.65,1.13-.25.45-.49.92-.72,1.4-.23.47-.45.93-.65,1.4-.88,1.97-1.58,3.95-2.1,5.62l-.18.57c-.39,1.31-.68,2.39-.86,3.12l-.07.29-.05.22-.07.34-.02.09c.11-.18.66-1.19,1.6-2.64l.68-1.04c1.79-2.69,4.52-6.42,7.77-9.61.45-.45.91-.9,1.38-1.31.95-.84,1.92-1.63,2.92-2.33,7.29-5.06,11.14-7.01,13.35-9.08.4-.41.72-.86,1.01-1.31,1.92-2.33,2.78-10.67,2.94-12.45v-.05l.03-.31c.02-.31.02-.56.02-.72v-.18c-.13-1.17-2.46-4.54-3.75-6.08,0,0,3.75-2.08,9.06-2.33h0Zm0,0s-6.08-2.33-13.98-1.04c-7.91,1.29-11.02,2.85-16.33,3.5l-.05.09c4.43,1.45,11.68,1.35,15.99,2.1,2.08.38,4.22,1.54,5.92,2.67l-2.23,9.94c-4.95,2.64-12.97,7.66-19.11,15.29-.47.57-.92,1.2-1.33,1.86-.2.27-.38.56-.54.86-.24.38-.45.75-.65,1.13-.25.45-.49.92-.72,1.4-.23.47-.45.93-.65,1.4-.88,1.97-1.58,3.95-2.1,5.62l-.18.57c-.39,1.31-.68,2.39-.86,3.12l-.07.29-.05.22-.07.34-.02.09c.11-.18.66-1.19,1.6-2.64l.68-1.04c1.79-2.69,4.52-6.42,7.77-9.61.45-.45.91-.9,1.38-1.31.95-.84,1.92-1.63,2.92-2.33,7.29-5.06,11.14-7.01,13.35-9.08.4-.41.72-.86,1.01-1.31,1.92-2.33,2.78-10.67,2.94-12.45v-.05l.03-.31c.02-.31.02-.56.02-.72v-.18c-.13-1.17-2.46-4.54-3.75-6.08,0,0,3.75-2.08,9.06-2.33h0Z"/>
  <path class="cls-5" d="m413.7,356.03c-.23,3.68-2.69,5.86-12.49,7.34-7.39,1.11-29.66,2.37-54.05,7.1-2.28,8.32-7.19,26.69-12.6,39.68-6.6,15.93-23.27,37.98-48.27,40.67,0,0,17.89-14.69,21.82-34.78,3.14-16.15,1.56-24.84,1.06-34.89-17.51,6.81-31.58,15.94-37.41,20.02.39,14.89-8.17,27.91-8.17,27.91,0,0,3,11.75.97,24.49-2.37,14.94-13.76,26.91-13.76,26.91,0,0,.29,2.49-1.72,6.28-2.44,4.66-5.26,6.49-5.26,6.49,0,0,0,3.19-2.21,6.62-1.79,2.8-5.58,5.29-7.59,5.88,0,0-6.53,8.27-11.77,3.84-5.26-4.43-1.69-15.46-.48-17.81,0,0-1.51-3.1-.97-5.63.52-2.51,2.31-5.78,2.31-5.78,0,0-1.83-4.46-1.35-7.44.5-2.96,3.46-6.76,3.46-6.76,0,0-3.27-3.03-2.92-8.48.34-5.45,2.92-9.79,2.92-9.79,0,0-5.67-6.05-8.11-12.68-2.44-6.64-1.72-15.91-1.72-15.91,0,0-10.37-6.91-16.65-17.15-5.83-9.51-6.68-26.62-5.85-31.81-3.18-2.49-15.31-13.58-18.66-30.83,0,0-9.33,2.83-18.25.86-7.86-1.72-14.45-5.24-14.45-5.24,0,0-16.87,2.85-33.52,3.82-15.88.93-67.83,8.13-101.08,32.13,6.15-9.08,14.64-20.24,25.89-32.34l.16-.18c.86-.92,1.72-1.83,2.58-2.73,3.55-3.77,7.3-7.55,11.3-11.41,21.32-20.41,43.1-35.37,63.18-46.37,17.94-10.26,34.97-17.9,50.03-23.57l-.04-.32s-1.83-13.22,3.14-44.6c.23-1.42.56-2.89.9-4.41-73.59-22.4-75.67-93.55-75.54-104.4.02-.32-.05-1.9-.05-2.44.29-12.2,1.99-23.95,3.75-34.3.56-3.19.97-6.4,1.35-9.61l.04-.07c4.25-22.12,3.53-33.71,2.53-39.09-.13-.75-.29-1.45-.48-2.1-.22-.72-.45-1.35-.66-1.85-.38-.9-.7-1.42-.7-1.42-1.27-2.62-.07-3.46-.07-3.46.92-.48,2.26.36,2.26.36,1.45,1.02,2.75,2.26,3.95,3.57,2.03,2.21,3.77,4.68,5.35,7.23,1.31,2.12,2.33,4.34,3.12,6.66.34,1.06.68,2.1.99,3.14.47,1.58.93,3.17,1.2,4.79l.02.09c.65,2.66,1.2,5.31,1.67,8,1.08,6.1,1.76,12.27,2.03,18.46.31,6.82-.02,13.61.77,20.41l.34,2.98c2.82,24.81,18.18,48.25,38.2,58.34,12.45,7,24.17,7.44,36.77,6.26l-1.97-1.96c-.2-.18-.41-.38-.63-.56-6.08-5.42-15.16-14.84-20.65-26.73-8.83-19.1-5.26-48.86-7.95-67.72-2.69-18.87-9.91-32.77-10.68-33.92-.83-1.22-1.49-2.39-.48-3.19,1.02-.83,1.69-.25,3.66,1.47,3.45,3,15.02,13.24,23.04,32.09,4.9,11.52,3.75,25.56,12.99,41.89,4.77,8.43,15.18,15.64,25.09,21.01.14-.23.29-.48.39-.68,1.81-3.41,2.85-7.62,3.45-11.19.63-2.76.9-5.27.79-7.39,0,0,71.79,6.87,113.92,44.83,42.13,37.96,52.56,79.84,53.78,92.83,0,0,15.32-2.35,19.24-8.05,0,0-.07,6.76-3.01,15.09-2.94,8.34-12.42,11.34-11.68,11.57.74.25,2.69,6.13,2.69,10.78s.48,8.57,3.91,10.78,6.62,5.13,6.62,6.85-1.72,6.37-2.46,9.06c0,0,8.83,10.05,11.27,23.03,0,0-7.34,2.94-11.02,4.9,0,0,0,7.36-4.16,19.1,0,0,5.63,1.47,7.84,1.95,2.21.49,6.62,4.41,7.34,8.81.74,4.41,1.72,11.03,1.47,14.71h0Zm4.7-15.57c-1.13-6.83-7.32-12.81-12.15-13.88-.34-.07-.79-.16-1.27-.29,1.26-4.52,1.86-8.13,2.17-10.66,2.78-1.27,6.03-2.6,7.43-3.16l4.76-1.92-.95-5.02c-1.96-10.37-7.39-18.94-10.5-23.18,1.12-3.53,1.78-5.83,1.78-7.78,0-3.98-3.19-8.06-9.47-12.09-.5-.32-1.08-1.24-1.08-5.56,0-.07-.07-4.13-1.13-8.25,3.41-2.31,7.68-6.12,9.78-12.04,2.1-5.96,2.89-11.23,3.19-14.3.16-1.67-.07-5.67-.07-5.67l-.64-7.71s-3.88,3.09-6.03,4.74c-.58.43-1.01.75-1.24.9-.31.23-.64.45-.97.65-1.58.95-3.34,1.7-4.09,2.1-1.69.92-4.25,1.88-7.07,2.67-4.05-20.97-18.91-57.65-54.83-90.02-43.21-38.93-114.57-46.14-117.58-46.44l-6.69-.63s-.14,10.03-.77,12.88l-.07.32c-.23,1.38-.5,2.69-.83,3.91-8.13-5.08-13.8-10.22-16.54-15.09-5.08-8.97-6.73-17.2-8.31-25.15-1.11-5.63-2.19-10.98-4.38-16.15-5.78-13.56-14.09-25.13-24.69-34.37-1.92-1.65-3.88-3.37-6.89-3.37-1.2,0-3,.31-4.81,1.76-1.29,1.06-5.17,4.97-.84,11.37.07.11,7.12,13.01,9.76,31.48.88,6.08,1.06,13.58,1.26,21.51.39,16.05.86,34.23,7.21,48,2.8,6.05,6.41,11.48,10.17,16.2.38.47,1.81,1.97,2.06,2.28.65.75,1.31,1.51,1.96,2.22-6.94-.59-12.9-2.42-18.82-5.74l-.25-.14c-18.23-9.18-32.23-30.68-34.81-53.49l-.34-2.98c-.48-4.04-.52-8.13-.57-12.45-.02-2.46-.05-4.99-.16-7.53-.29-6.39-.99-12.86-2.12-19.25-.47-2.69-1.04-5.4-1.67-8.05l-.05-.2c-.34-1.96-.88-3.8-1.33-5.29-.32-1.13-.68-2.24-1.06-3.35-.93-2.8-2.17-5.47-3.71-7.96-2.05-3.32-3.98-5.92-6.08-8.2-1.65-1.79-3.27-3.25-4.92-4.41l-.25-.16c-.7-.47-2.6-1.51-4.97-1.51-1.26,0-2.46.29-3.55.86l-.7.43c-2.75,1.94-4.4,6.19-1.92,11.28l.23.43c.05.09.18.34.34.7.14.34.29.75.43,1.2.13.39.22.84.32,1.45.83,4.43,1.6,15-2.42,36.2l-.22,1.09c-.45,3.77-.84,6.62-1.29,9.27-1.72,10.15-3.53,22.26-3.84,35.21,0,.39.02,1.22.04,1.9l.02.61c-.09,8.57,1.22,82.89,74.59,108.67l.05.02-.23.09c-3.34,21.36-3.57,34.53-3.36,40.95-15.92,6.24-31.58,13.74-46.53,22.3-23.4,12.81-45.11,28.76-64.54,47.38-3.93,3.78-7.7,7.57-11.5,11.59-.9.93-1.78,1.87-2.55,2.71l-.25.27c-9.62,10.35-18.3,21.15-25.82,32.09-.23.34-.92,1.43-1.18,2.08-.86,1.97-1.78,5.76.02,7.75,1.08,1.2,3.19,2.22,7.19.52.2-.05.97-.36,1.26-.52.77-.43,1.92-1.15,2.3-1.44,24.3-18.58,80.1-28.84,96.39-29.79,13.65-.81,27.2-2.8,32.23-3.59,2.73,1.29,8.06,3.54,14.07,4.86,2.55.56,5.29.84,8.18.84,2.51,0,4.86-.21,6.87-.5,4.16,13.15,12.45,22.17,16.76,26.21-.27,7.93,1.08,22.8,7.02,32.45,4.84,7.91,11.77,13.96,15.63,16.97,0,3.78.32,9.87,2.23,15.01,1.69,4.61,4.54,8.79,6.66,11.53-.83,2.21-1.65,5.13-1.85,8.42-.23,3.69.63,6.67,1.7,8.9-.93,1.69-1.81,3.71-2.15,5.74-.47,2.78.11,5.81.75,8.04-.65,1.42-1.33,3.23-1.71,4.95-.5,2.48-.09,4.95.43,6.8-1.92,5.58-4.02,16.68,3.11,22.69,2.15,1.81,4.74,2.76,7.46,2.76,5.47,0,9.92-3.89,12.06-6.15,3.18-1.49,6.98-4.4,9.13-7.73,1.63-2.53,2.42-4.97,2.82-6.81,1.44-1.44,3.26-3.63,4.91-6.76,1.4-2.65,2.03-4.93,2.3-6.66,3.1-3.71,9.98-12.83,12.95-24.18l.7-3.14c.07-.37.14-.77.2-1.18,1.63-10.3.31-19.91-.54-24.4,2.42-4.34,7.18-14.23,7.75-25.69,5.26-3.5,14.43-9.15,25.62-14.23.43,6.85.56,13.9-1.53,24.59-2.57,13.06-12.09,23.86-16.88,28.59-1.67,1.63-5.78,6.3-5.78,6.3,0,0-1.58,1.33-1.27,4.04.02.16.14.63.27.97.05.12.34.54.47.65,2.28,2.21,8.54,1.4,8.54,1.4,26.97-2.89,45.23-25.54,53.01-44.25,4.84-11.66,9.22-27.21,11.82-36.7,15.63-2.83,30.09-4.25,39.91-5.22,4.38-.43,7.84-.77,10.12-1.13,5.98-.88,17.1-2.55,17.8-13.1.23-3.35-.27-8.48-1.54-16.15h0Z"/>
</svg>