<?xml version="1.0" encoding="UTF-8"?>
<svg id="Layer" xmlns="http://www.w3.org/2000/svg" viewBox="0 0 420 405.84">
  <defs>
    <style>
      .cls-1 {
        fill: #c60c30;
      }

      .cls-1, .cls-2, .cls-3, .cls-4 {
        stroke-width: 0px;
      }

      .cls-2 {
        fill: #024;
      }

      .cls-3 {
        fill: #b0b7bc;
      }

      .cls-4 {
        fill: #fffffe;
      }
    </style>
  </defs>
  <path class="cls-4" d="m414.62,24.53c-52.85,12.46-55.16-18.1-134.64-23.7C172.99-6.72,83.09,39.82,11.24,45.78c-15.61,1.3-13.58,14.27-2.37,16.47,27.08,6.31,55.02,5.51,80.6,2.08-.86,2.06-1.72,5.23,1.14,7.66,10.13,8.6,50.85,9.33,68.72,8.31,6.07-.35,19.03-1.57,19.03-1.57-3.7.35-9.47,11.59,2.74,14.76,75.45,21.09,110.95,55.15,151.7,108.79,16.56-2.11,32.15-22.01,25.5-37.19l3.3-8.15,12.2-5.64-3.5-27.2,18.59-8.74s28.96-77.71,30.66-83.37c1.7-5.66-1.81-8.19-4.94-7.45"/>
  <path class="cls-1" d="m205.27,35.22c-52.31,3.09-115.08,32.6-194.99,19.45,70.83-9.55,124.83-32.94,190.7-42.25l4.3,22.81h0Zm5.64,30.52c-28.93,3.41-62.5,11.48-110.93,2.37,41.74-1.13,72.99-15.08,107.38-21.94l3.55,19.57h0Z"/>
  <path class="cls-2" d="m214,65.42c21.21-2.28,39.91-1.55,60.29,10.86-42.52-4.61-63.34,7.25-89.84,9.89,93.62,24.53,127.9,76.95,151.12,106,16.23-6.88,17.11-20.96,12.97-25.99l4.18-8.94.19-5.74,11.19-5.22-3.54-27.83,20.95-8.57,27.75-75.85c-47.02,9.74-62.26-20.62-129.16-24.76-27.25-1.69-51.8-.44-74.84,2.58l3.76,23.22c15.4-.53,29.89,1.43,43.65,7.67-15.12-.94-28.73.32-42,2.78l3.33,19.92"/>
  <path class="cls-3" d="m286.22,129.42c25.31,17.69,38.3,37.3,51.49,54.46,6.71-2.78,8.81-10.56,6.6-13.3l-6.39-7.85,7.26.43,3.33-5.78-9.03-.53-10.17,1.83,10.32-7.05,7.85.46.29-4.47-8.02-3.84,2.76-3.01,14.84.92-4.27-33c-5.87-.71-10.8,2.36-12.93,10.83l-26.31-1.55c3.7-8.38,9.47-12.15,20.41-10.76-6.14-8.59-36.06-9.38-40.28,4.09l23.23,19,3.01,17.37-9.54-13.83c-8.58-7.42-17.59-12.62-24.45-4.43"/>
  <path class="cls-4" d="m364.07,44.32l1.87,16.57,18.69,7-17.53,4.38,1.73,22.35-15.16-18.88-22.67,5.33,14-16.29-11.55-15.28,19.35,6.63,11.27-11.82"/>
</svg>