<?xml version="1.0" encoding="UTF-8"?>
<svg id="Layer" xmlns="http://www.w3.org/2000/svg" viewBox="0 0 420 561.12">
  <defs>
    <style>
      .cls-1, .cls-2, .cls-3 {
        stroke-width: 0px;
      }

      .cls-2 {
        fill: #d3bc8d;
      }

      .cls-3 {
        fill: #fffffe;
      }
    </style>
  </defs>
  <path class="cls-1" d="m376.14,203.12c-37.71-21.92-74.83-16.85-102.98-4.3-1.24-9.26-3.66-19.42-7.69-31.32-5.97-17.69-12.51-34.6-18.28-49.52-7.58-19.6-13.35-36.39-16.52-47.62L210.15,0l-21.3,70.4c-3.25,11.18-8.87,28.06-16.41,47.68-5.73,14.93-12.23,31.86-18.16,49.55-3.99,11.91-6.4,22.09-7.61,31.36-28.18-12.49-65.32-17.49-102.98,4.52C12.9,221.52-3.58,252.82.66,285.21c3.87,29.46,24.01,52.61,52.54,60.46l21.25,5.84,5.2-21.42c.75-2.91,8.41-29.72,32.55-29.24,16.74.35,30.64,15.15,37.6,24.73-2.25,6.77-3.44,14.89-2.3,23.63l-9.45-12.61-17.1,12.75c-15.4,11.47-37.75,39.83-23.94,73.29,6.03,14.59,18.98,24.53,36.47,28.02,10.7,2.13,22.85,1.63,34.11-.84,4.43,14.23,12.51,31.45,27.2,46.83l15.5,16.2,15.45-16.24c14.66-15.41,22.69-32.66,27.11-46.89,11.27,2.43,23.41,2.91,34.11.75,17.48-3.51,30.41-13.49,36.4-28.1,13.74-33.5-8.7-61.81-24.11-73.24l-17.13-12.7-9.42,12.63c1.13-8.74-.09-16.85-2.35-23.63,6.93-9.58,20.8-24.42,37.54-24.8,24.14-.54,31.86,26.25,32.67,29.31l5.24,21.41c-.03-.16,21.2-6.05,21.2-6.05,28.53-7.9,48.59-31.11,52.39-60.59,4.17-32.38-12.4-63.64-43.23-81.57"/>
  <path class="cls-3" d="m203.08,73.41c-2.6,12.25-9.3,29.69-17.06,49.89-5.69,14.79-12.12,31.56-17.95,48.94-5.59,16.71-7.87,29.16-7.87,40.77,0,3.71.43,7.34.86,10.99-21.49-14.76-63.84-34.95-110.02-7.94-25.65,15.01-39.43,40.76-35.96,67.24,3.09,23.55,19.17,42.08,41.98,48.35l6.77,1.86,1.68-6.83c.42-1.67,10.58-41.09,46.99-40.36,29.3.59,48.45,29.09,53.62,37.85-2.46,4.55-4.5,10.83-4.5,18.04,0,7.73,2.63,16.51,9.33,25.32-2.67,3.63-7.05,8.07-12.17,8.49-7.29.6-14.67-7.08-19.57-13.64l-4.09-5.46-5.47,4.09c-11.2,8.35-29.63,30.81-19.2,56.08,4.18,10.1,13.12,16.77,25.87,19.31,13.18,2.61,29.82.24,41.64-5.15,2.29,13.34,8.77,35.92,27.35,55.34l4.96,5.19,4.94-5.2c18.53-19.48,24.97-42.08,27.22-55.43,11.84,5.36,28.5,7.71,41.68,5.05,12.73-2.56,21.65-9.26,25.8-19.36,10.36-25.29-8.11-47.71-19.32-56.03l-5.48-4.07-4.08,5.48c-4.89,6.56-12.26,14.26-19.55,13.67-5.11-.42-9.5-4.85-12.18-8.46,6.66-8.8,9.27-17.55,9.27-25.26,0-7.25-2.06-13.55-4.55-18.12,5.15-8.76,24.25-37.33,53.53-37.98,36.4-.82,46.66,38.58,47.08,40.26l1.7,6.81,6.77-1.86c22.78-6.32,38.82-24.88,41.85-48.43,3.41-26.48-10.42-52.21-36.11-67.16-46.28-26.92-88.6-6.59-110.04,8.23.4-3.55.81-7.08.81-10.7,0-11.74-2.27-24.39-7.9-41.08-5.86-17.36-12.34-34.09-18.05-48.86-7.81-20.19-14.55-37.63-17.18-49.88l-6.73-31.41-6.65,31.43"/>
  <path class="cls-1" d="m210.28,481.85c26.21-27.54,26.52-62.28,26.52-62.28,11.6,11.57,56.66,19.3,66.76-5.33,11.08-27.04-17.06-47.94-17.06-47.94-27.28,36.59-45.58.78-45.58.78,20.77-22.46,5.19-42.71,5.19-42.71,1.36-4.07,24.4-44.31,61.28-45.13,42.51-.96,53.87,45.46,53.87,45.46,44.58-12.36,53.19-74.55,4.13-103.08-62.25-36.22-116.49,18.96-116.49,18.96,5.05-20.65,6.48-36.08-3.69-66.24-13.8-40.88-30.71-77.42-35.44-99.49-4.69,22.08-21.52,58.67-35.22,99.59-10.1,30.18-8.62,45.61-3.54,66.24,0,0-54.36-55.04-116.53-18.68-49,28.65-40.24,90.8,4.37,103.06,0,0,11.25-46.44,53.77-45.57,36.9.73,60.02,40.92,61.38,44.97,0,0-15.54,20.3,5.29,42.7,0,0-18.23,35.87-45.58-.66,0,0-28.12,20.95-16.96,47.97,10.17,24.61,55.2,16.77,66.77,5.18,0,0,.4,34.74,26.66,62.22"/>
  <path class="cls-2" d="m321.79,219.66c-50.66.05-92.2,57.62-92.2,57.62,1.8-9.42,23.46-51.8,3.86-102.45-19.6-50.65-23.6-71.05-23.6-71.05l-.09.58v-.57s-3.96,20.41-23.44,71.11c-19.48,50.7,2.28,93.03,4.1,102.43,0,0-41.67-57.46-92.33-57.39-50.65.06-92.83,57.74-46.02,91.8,0,0,13.7-42.56,60.91-42.65,34.72-.07,69.51,37.19,70.98,55.66,0,0-15.9,22.46,6.21,41.25,0,0-23.88,50.26-56.98,14.05,0,0-25.46,31.87,7.83,39.58,26.41,6.11,52.43-20.69,52.43-20.69,0,0-2.84,42.34,16.73,65.49v-.21l.1.2c19.51-23.19,16.57-65.53,16.57-65.53,0,0,26.08,26.75,52.49,20.57,33.27-7.79,7.73-39.6,7.73-39.6-33.01,36.28-57-13.92-57-13.92,22.04-18.85,6.09-41.27,6.09-41.27,1.43-18.46,36.12-55.82,70.85-55.83,47.22,0,61.02,42.51,61.02,42.51,46.73-34.17,4.42-91.77-46.23-91.71"/>
</svg>