<?xml version="1.0" encoding="UTF-8"?>
<svg id="Layer" xmlns="http://www.w3.org/2000/svg" viewBox="0 0 420 429.72">
  <defs>
    <style>
      .cls-1, .cls-2, .cls-3, .cls-4 {
        stroke-width: 0px;
      }

      .cls-2 {
        fill: #a00;
      }

      .cls-3 {
        fill: #b3995d;
      }

      .cls-4 {
        fill: #fffffe;
      }
    </style>
  </defs>
  <path class="cls-4" d="m211.12,250.04c71.6,0,142.14-24.27,179.71-61.85,19.08-19.08,29.17-41.11,29.17-63.73s-9.95-44.27-28.78-63.09C353.94,24.09,283.24,0,211.12,0c-50.5,0-102.04,11.89-141.4,32.61C24.76,56.29,0,88.91,0,124.46c0,22.29,9.99,44.07,28.89,62.96,18.89,18.88,46.34,34.78,79.38,45.95,32.25,10.91,67.82,16.67,102.85,16.67"/>
  <path class="cls-1" d="m72.84,38.53C30.18,60.99,6.69,91.51,6.69,124.46c0,20.48,9.31,40.61,26.93,58.24,18.16,18.16,44.72,33.49,76.79,44.34,31.57,10.68,66.4,16.32,100.71,16.32,69.91,0,138.6-23.51,174.98-59.89,17.8-17.79,27.21-38.19,27.21-59s-9.27-40.82-26.82-58.36C350.4,30.01,281.56,6.69,211.12,6.69c-49.45,0-99.85,11.6-138.28,31.84"/>
  <path class="cls-3" d="m211,231.49c61.71,0,120.2-20.14,152.62-52.55,16.35-16.36,25-35.02,25-53.99s-8.64-37.63-25-53.98c-32.43-32.42-90.91-52.55-152.62-52.55-45.32,0-90.43,11.18-123.76,30.69-34.73,20.32-53.86,47.25-53.86,75.84,0,18.97,8.65,37.63,25,53.99,32.42,32.41,90.9,52.55,152.62,52.55"/>
  <path class="cls-2" d="m211.32,227.71c90.46,0,163.8-46.86,163.8-103.33S301.78,22.15,211.32,22.15,47.52,67.92,47.52,124.38s73.33,103.33,163.8,103.33"/>
  <path class="cls-1" d="m339.44,111.54h-.45v-3.73h-64.99c-1.39-7.31-5.6-14.09-11.6-19.39-5.91-6.79-14.5-11.9-24.28-13.85l-4.05-.84c-9.38-1.97-16.79-3.53-46.6-3.38,0,0-5.73-.2-11.3-.93-1.41-.36-2.64-.78-3.7-1.24.41-2.48,4.94-5.9,10.07-6.56.53-.1,32.79-6.03,65.99,15.47l.81.52h21.82v-33.39h-3.73v-3.73h-29.95l-5.05,3.85c-8.62-2.16-50.85-11.4-87.32,4.56-15.33,6.33-24.83,18.28-24.16,30.42.34,6.12,3.27,11.46,8.34,15.59,3.72,4.65,9.58,8.28,17.21,10.48,10.79,3.11,19.94,4.39,28.8,4.9v15.22h3.73v3.73h11.39c4.72,0,5.93,2.61,6.22,3.58-14.53-.95-36.63-5.08-52.9-20.13l-.61-.66h-.12c-.9-.86-1.78-1.75-2.64-2.68l-.98-1.05h-16.37v47.53h3.73v3.72h13.36c1.96.14,8.16-.55,12.45-13.07,6.95,2.42,24.07,7.58,45.15,8.15v29.57c-.73,9.93-22.61,13.04-30.22,13.34l-3.15.12v14.7h3.73v3.72h96.04v-14.06l-2.45-.65c-.44-.11-.86-.23-1.28-.35v-3.22l-3-.26c-5.4-.48-9.55-1.41-12.77-2.56-6.04-3.38-7.07-6.13-7.21-6.57v-15.76h28.15c2.97.45,5.52,1.75,7.68,3.44,4.05,4.99,5.9,10.7,5.93,10.79l.72,2.31h2.42s.08,0,.08,0c.34.85.51,1.38.52,1.41l.72,2.31h2.42s12.71,0,12.71,0v-57.19h-3.73v-3.73h-15.06l-.54,2.61c-3.94,19-25.92,18.73-45.47,15.88,3.83-1.04,7.68-2.31,11.52-3.83,10.46-4.16,18.31-9.81,23.21-16.43h42.19c2.94.09,5.44.83,7.54,2.21,4.42,6.48,3.98,16.04,3.97,16.15l-.18,3.46h3.92v.26s-.19,3.46-.19,3.46h3.46s13.35,0,13.35,0v-44.27h-3.28"/>
  <path class="cls-4" d="m272.15,123.25c3.07-3.72,3.21-12.16,3.21-12.16h60.33v37.71h-10.06s1.44-24.91-18.53-25.55h-34.96,0Zm-71.16,32.2c13.58.29,25.09-2.59,25.09-2.59,3.46-.76,50.2,12.95,56.52-17.54h9.1v50.62h-9.42s-5.59-18.21-20.12-20.29h-31.79v19.33s.12,13.55,26.71,15.85v8.26h-89.47v-8.26s32.35-1.26,33.38-16.43v-28.96h0Zm27.91-49.81c-4.33-1.32-10.59-1.6-17.79-1.87-25.77-.98-41.99,2.09-67.43-5.25-28.87-8.32-23.69-35.67,2.75-46.59,39.34-17.22,86.72-3.99,86.72-3.99l5.44-4.15h25.55v26.83h-17.57c-34.81-22.55-68.2-15.97-68.2-15.97-10.86,1.41-21.4,13.38-2.88,18.01,5.91.8,11.98.99,11.98.99,33.62-.18,38.27,1.83,49.99,4.15,30.45,6.04,47.3,44.54,3.03,62.12-45.7,18.15-93.75-1.41-93.75-1.41-3.99,15.01-10.22,14.06-10.22,14.06h-10.22v-40.96h11.65c27.32,29.53,74.11,24.48,74.11,24.48,0,0,13.9-.35,23-8.94,7.11-8.68,5.98-17.95-6.17-21.5h0Zm-38.18,16.61h-12.14v-10.88c9.41,0,28.6.08,42.18,0,13.66,0,15.49,7.9,9.73,13.24-5.43,5.03-16.79,8.62-30.25,6.17,0,0-1.11-8.54-9.52-8.54h0Z"/>
</svg>