<?xml version="1.0" encoding="UTF-8"?>
<svg id="Layer" xmlns="http://www.w3.org/2000/svg" viewBox="0 0 420 453.55">
  <defs>
    <style>
      .cls-1 {
        fill: #c60c30;
      }

      .cls-1, .cls-2, .cls-3, .cls-4, .cls-5 {
        stroke-width: 0px;
      }

      .cls-2 {
        fill: #4b92db;
      }

      .cls-3 {
        fill: #024;
      }

      .cls-4 {
        fill: #fffffe;
      }

      .cls-5 {
        fill: #a5acaf;
      }
    </style>
  </defs>
  <path class="cls-4" d="m135.62,173.67c.41,4.93,2.16,14.75,7.84,25.71,7.01,13.53,21.7,31.57,51.99,41.78,4.81,7.55,10.46,14.61,16.87,20.99,23.03,22.97,53.61,35.6,86.13,35.55,32.52-.05,63.07-12.76,86.03-35.8,22.96-23.03,35.58-53.64,35.53-86.17-.05-32.54-12.76-63.11-35.78-86.08-18.24-18.2-41.13-29.91-66.31-33.98-34.08-30.88-73.88-19.82-75.58-19.32-.57.16-1.43.41-2.49.73-12.25,4.08-18.58-.59-22.68-3.81-4.55-3.57-9.51-7.19-14.29-9.88-16.26-9.15-39.36-9.48-58.82-1.63-12.82,4.37-19.28-1.28-23.11-3.92C95.55.31,64.34-3.88,31.22,3.42,8.92,8.34,0,12.88,0,12.88c0,0,15.28,2.22,31.24,8.89,13.1,5.48,23.52,12.51,31.41,25.14,0,0,4.97,7.3,1.74,9.45-3.61,2.41-7.37-3.49-7.37-3.49-.12,4.24-.12,8.46.16,11.67,1.83,33.68,8.7,53.92,24.94,69.38,7.39,7.03,19.85,13.87,39.11,21.44,8.78,3.52,13.54,8.02,14.4,18.32"/>
  <path class="cls-3" d="m378.73,95.15c-17.66-17.62-40.08-28.74-64.35-32.15-31.64-30.29-69.89-19.19-69.89-19.19,8.11,1.21,13.49,6.04,11.41,11.4-1.38,3.54-7.27,3.73-9.96,3.75-8.55.09-15.93-5.15-21.82-9.94-6.12-4.98-16.12-13.83-25.07-18.86-16.67-9.38-43.14-8.21-62.29,4.03,11.45.78,25.24,4.08,33.46,10.89,4.59,3.8,10.44,11.45,5.65,15.02-4.21,3.14-14.54,1.52-19.79-1.52-8.35-4.84-15.88-12.17-20.38-17.49C105.39,5.34,62.43,3.35,27.01,12.1c23.25,6.53,38.77,19.78,48.35,42.63,9.59,22.84,17.03,32.57,32.82,38.76,9.89,3.87,12.56,4.59,11.79,8.98-1.14,6.42-12.85,3.34-21.78-.15-10.88-4.25-25.22-15.99-33.76-38.01,1.55,28.49,6.99,48.69,23.03,63.98,6.82,6.49,19.34,13.2,38.94,20.75,12.51,4.82,22.41,7.74,31.73,16.09,10.87,9.74,6.24,16.17-.97,14.95-8.16-1.38-13.98-9.71-13.98-9.71,0,0,.01,46.42,57.36,64.29,4.77,7.92,10.54,15.31,17.26,22.01,21.56,21.51,50.19,33.33,80.63,33.28,30.44-.05,59.05-11.94,80.54-33.52,21.49-21.57,33.31-50.22,33.26-80.68-.04-30.46-11.94-59.08-33.5-80.58"/>
  <path class="cls-2" d="m372.68,100.92c-17.11-17.11-39.06-27.6-62.76-30.2-20.39-20.33-40.73-19.38-40.73-19.38,8.93,5.6,4.32,18.07-15.54,20.81-19.67,2.72-44.65-3.95-56.82-18.13-12.54-14.61-22.01-15.28-22.01-15.28,10.88,6.8,11.65,14.96,18.25,27.39,6.6,12.44,20.2,16.9,32.03,17.68,12.47.82,12.78,6.47,2.72,12.44-10.97,6.5-20.68.36-27.74-6.6-11.14-11-22.24-13.1-37.58-12.91-15.34.2-35.61,2.21-52.72-4.2-17.11-6.41-28.4-28.95-28.4-28.95,8.46,29.92,27.27,44.1,44.72,47.53,23.06,4.52,38.99,10.01,48.75,17.91,9.52,7.73,14.59,15.43,18.17,26.07,2.76,8.2,3.26,19.09.53,19.74-3.18.76-3.83-3.63-7.58-11.27-4.14-8.44-9.08-15.07-19.04-20.38-13.5-7.21-26.72-6.79-40.19-6.6-10.67.15-16.93-1.07-16.93-1.07,0,0,.45,1.44,17.84,5.35,19.38,4.35,38.12,15.28,50.6,41.92,10.61,22.66,5.08,38.61-18.44,31.39,0,0,10.98,24.43,46.85,33.13,4.63,8.14,10.38,15.71,17.18,22.52,19.88,19.88,46.3,30.83,74.41,30.83s54.53-10.95,74.42-30.83c19.87-19.89,30.82-46.33,30.82-74.46s-10.94-54.56-30.82-74.45"/>
  <path class="cls-4" d="m298.26,75.23c26.73,0,51.87,10.42,70.77,29.33,18.91,18.92,29.32,44.07,29.32,70.81,0,55.22-44.9,100.16-100.09,100.16-26.73,0-51.87-10.42-70.78-29.34-18.91-18.92-29.31-44.07-29.31-70.82s10.41-51.9,29.31-70.81c18.91-18.92,44.04-29.33,70.78-29.33"/>
  <path class="cls-3" d="m298.39,266.89c-50.5.08-91.51-40.83-91.59-91.37-.07-50.54,40.82-91.57,91.33-91.64,50.51-.08,91.52,40.84,91.59,91.38.08,50.54-40.81,91.57-91.33,91.64"/>
  <path class="cls-4" d="m275.9,156.86h-27.1l-8.93,15.94-12.01-34.08h140.57l-11.99,34.08-8.86-15.94h-26.64l-22.57,98.79-22.45-98.79"/>
  <path class="cls-5" d="m368.42,138.72h-140.57l2.28,6.46h67.03l-21.26,11.68,22.45,98.77v-110.46h67.79l2.27-6.46"/>
  <path class="cls-1" d="m229.25,59.68c-20.38-.58-28.69-8.67-41.35-18.84-15.49-12.45-32.68-8.98-32.68-8.98,10.29-5.89,30.53-6.14,45.11,6.65,13.02,11.43,19.41,17.63,28.93,21.18h0ZM55.26,14.76c22.72-4.2,41.78,2.9,56.18,28.45,14.1,25,39.86,25.66,39.86,25.66-19.56,5.55-46.29.51-60.3-24.65C74.34,14.29,55.26,14.76,55.26,14.76h0Zm107.97,144.91c-11.2-15.49-28.78-19.18-52.75-25.61-34.32-9.21-34.58-39.15-34.58-39.15,0,0,5.14,20.77,45.02,28.89,39.62,8.07,42.32,35.88,42.32,35.88h0Zm148.76-29.75l-13.74-9.87-13.59,10.08,5.14-16.12-13.78-9.81,16.91-.2,5.07-16.04,5.31,16.04h16.91l-13.63,9.88,5.39,16.04h0Zm-60.34,56.72l-1.68,16.84,15.52,6.73-16.52,3.61-1.6,16.85-8.54-14.61-16.5,3.68,11.25-12.64-8.6-14.57,15.48,6.8,11.19-12.69h0Zm79.26,23.94l15.42-6.97-1.93-16.81,11.39,12.51,15.37-7.03-8.37,14.7,11.44,12.46-16.56-3.42-8.31,14.74-1.86-16.82-16.58-3.35Z"/>
</svg>