<?xml version="1.0" encoding="UTF-8"?>
<svg id="Layer" xmlns="http://www.w3.org/2000/svg" viewBox="0 0 420 444.93">
  <defs>
    <style>
      .cls-1 {
        fill: #c60c30;
      }

      .cls-1, .cls-2, .cls-3 {
        stroke-width: 0px;
      }

      .cls-2 {
        fill: #00338d;
      }

      .cls-3 {
        fill: #fffffe;
      }
    </style>
  </defs>
  <path class="cls-3" d="m44.3,199.06c29.2-18.65,38.38-39.65,38.38-39.65L0,171.27l35.14-62.43,70.6-5.95s27.47-24.52,70-42.1c0,0,4.44-7.74,28.72-21.72,0,0,22.28-13.12,47.64-21.52,0,0,17.19-5.92,22.27-6.21l-1.49-5.47,32.42-2.78.84-3.11s16.92,1.14,26.63,5.44l1.91-2.55s22.65,10.41,39.5,36c0,0,16.35-.91,30.98,6.09,0,0,15.51,6.17,14.81,24.18,0,0-.1,22.98-6.97,45.75,0,0-1.05,3.57-2.03,5.69,0,0-1.43,2.9-4.18,6.56,0,0-7.68,7.91-10.66,14.88,0,0-1.61,4.63-4.82,13.05,0,0-2.47,11.58-19.28,12.22,0,0-16.36,20.71-23.19,26.66l-.58-5.03s-11.42,10.58-21.32,16.83l3.35-29.32s.82-5.24-2.5-5.61l-8.55-.21s2.8,17.65-.58,25.81c0,0-2.15,12.81-22.02,18.91,0,0-15.35,4.89-32.92,6.26l-3.77-.6-27.65,11.34,8.08-29s-10.36,1.05-11.25-.25l-30.79,13.2,12.1-34.69,8.29-4.59-2.65-3.6-17.02.15-6.26,4.87c-14.46-3.77-28.52-2.75-28.52-2.75l-71.55,58.09-17.93,39.64-21.41-28.64,6.7-8.77-2.55-1.92-9.71,7.64-14.37,38.71-21.16-29.87,5.44-12.14-1.2-7.44c6.3-4.16,10.37-6.95,13.56-10.53,1.74-2.24,2.69-3.02,4.71-6.79,1.9-4.6,1.97-9.59,4.09-11.17,2.66-1.8,4.68-3.01,5.4-3.47"/>
  <path class="cls-1" d="m39.16,115.1l-27.36,48.23,353.02-52.63s-12.27-9.33,5.52-24.09L39.16,115.1"/>
  <path class="cls-2" d="m397.5,79.9l-281.93,23.17c30.28-24.78,71.88-39.81,71.88-39.81l-3.7-2.03,6.92-3.26.99-2.98c54.46-36.47,92.85-38.25,92.85-38.25l-1.73-5.15c18.62-1.94,27.15-1.88,27.15-1.88l.71-1.95c14.04-.16,23.96,6.67,23.96,6.67l2.11-3.14c29.03,20.1,33.23,34.76,33.23,34.76,21.06-1.72,32.31,4.48,32.31,4.48,15.14,6.51,10.62,28.61,10.62,28.61.03,4.26-4.17,26.6-4.17,26.6-3.48,15.41-9.75,21.29-9.75,21.29-8.1,7.97-10.06,16.07-10.06,16.07-4.19,11.53-5.67,13.02-5.67,13.02-3.23,5.3-16.34,5.04-16.34,5.04-3.06,7.4-15,20.33-15,20.33l-1.09-3.68-15.75,14.04,2.47-19.54c.9-6.66-6.28-8.19-6.28-8.19l-34.44,1.5c-5.04,23.45-23.14,27.03-23.14,27.03-26.09,5.28-43.44,4.2-43.44,4.2l-1.12-.84-19.93,8.68,7.02-19.47,10.62-4.22c.82-.26.52-1.36.52-1.36l-1.01-3.12c10.94-.99,20.92-8.67,20.92-8.67,1.27-1.03-.63-1.47-.63-1.47l-50.7,1.12-4,3.84c-43.79-7.25-73.78,5.55-73.78,5.55-33.99,12.67-54.66,45.03-54.66,45.03l-21.12,16.23-10.67,28.81-11.79-16.94,4.82-11.06-.73-5.15c10.28-6.58,14.72-14.32,14.72-14.32,3.58-4.77,3.3-8.71,3.3-8.71.26-3.16,3.14-4.85,3.14-4.85,39.36-23.81,45.3-48.95,45.3-48.95l277.54-42.01c-4.52,21.11,12.57,13.41,12.57,13.41-11.05-7.8-1.05-13.34-1.05-13.34-9.56-16.26,18.01-35.12,18.01-35.12h0Zm-97.25,90.03l11.91-.14s2.38,15.72.97,22.74c0,0-2.35,10.43-12.99,14.5,0,0-15.68,6.64-39.18,8.14l-1.14-.98-17.82,7.52,5.85-20.73s23.89-1.85,31.1-4.01c0,0,18.52-3.64,21.29-27.06h0Zm-146.71,6.16l-65.96,53.46-14.25,31.58-12.64-16.95,7.13-9.82-.56-3.91c15-8.39,15.08-20.77,15.08-20.77,28.95-34.11,71.21-33.6,71.21-33.6h0Z"/>
</svg>