<?xml version="1.0" encoding="UTF-8"?>
<svg id="Layer" xmlns="http://www.w3.org/2000/svg" viewBox="0 0 420 418.74">
  <defs>
    <style>
      .cls-1, .cls-2, .cls-3 {
        stroke-width: 0px;
      }

      .cls-2 {
        fill: #bfc0bf;
      }

      .cls-3 {
        fill: #0085ca;
      }
    </style>
  </defs>
  <path class="cls-1" d="m385.03,22.14h0s0,0,0,0Zm-60.09,89.94s4.97-10.94,2.73-24.36c0,0-9.44-3.48-26.59,0,0,0-8.21,18.38-18.65,27.33,0,0,7.96-18.64,3.23-32.56,0,0,14.42-5.72,32.08-4.47,17.65,1.24,21.62,4.98,21.62,4.98,0,0-4.47,21.12-14.42,29.08h0Zm-11.4,38.51c8.21-6,7.33-17.75,7.33-17.75,1.99,4.65,3.1,10.87,1.99,15.32-1.11,4.43-3.99,8.87-15.98,9.97-11.99,1.12-18.87-2.66-18.87-2.66,5.33-5.32,10.51-19.74,10.51-19.74,2.67,10.22.4,14.94.4,14.94,5.77,1.77,14.62-.08,14.62-.08h0Zm18.88-1.94c2.89,21.09-15.87,29.94-26.29,29.94s-24.76-4.43-30.23-22.13c-5.47-17.71-5.47-39.59,1.56-50.27,0,0-4.68,21.1-2.08,33.08,2.6,11.98,7.55,22.14,17.19,23.97,9.64,1.82,23.98,1.3,29.18-4.7,5.22-5.99,7.3-14.58,2.09-26.31-5.22-11.71-15.64-26.83,1.58-41.92,0,0-7.57,9.11-4.7,22.4,2.86,13.28,8.8,14.86,11.7,35.95h0Zm-67.33-87.23c-39.26-5.4-71.47,2.62-71.47,2.62,31.63-10.19,60.38-8.92,74.55-7.29-1.33,1.63-2.35,3.19-3.09,4.67h0Zm-1.84,9.76c-38.37-2.66-68.8,6.75-68.8,6.75,27.67-10.64,53.56-12.04,68.95-11.61-.35,1.85-.33,3.5-.15,4.87h0Zm-64.63,55.48c-14.65-17.97-8.48-41.98-8.48-41.98,0,0,.55,20.59,18.52,38.79,17.98,18.2,40.3,23.12,40.3,23.12,0,0-35.69-1.96-50.34-19.93h0Zm78.84-78.21c-2.02,1.4-3.76,2.78-5.27,4.13-42.02-9.92-78.76-2.89-78.76-2.89,45.5-11.93,84.03-1.24,84.03-1.24Zm-32.77-21.99h0s.01-.01.01-.01c.63-.27,13.42-5.61,26.48-2.65,13.39,3.05,21.7,12.12,21.7,12.12,0,0-12.03-3.6-34.31-3.21,0,0-.88-1.62,1.42-5.02,0,0-3.57-1.04-15.3-1.24h0Zm98.62,3.71c6.85-1.38,13.11,2.14,16.05,4.88,0,0-15.84-2.93-23.27,3.91,0,0,.39-7.43,7.23-8.79Zm75.51,52.25c-15.48-8.44-33.04-11.07-46.51-11.59,0,0-5.48.1-6.33.08.28-2.24.21-4.25-.15-6.03,3.34-.1,7.58-.23,8.2-.26l.51-.03c26.99-.88,41.27,6.25,41.27,6.25l-1.37-1.04c-13.15-6.09-27.06-8.32-39.09-8.66h-.48s-5.81,0-10.23.07c-1.21-2.55-2.98-4.48-4.76-5.89,5.68-.03,12.27-.01,16.06.15h.28c20.77.23,32.1,5.15,32.1,5.15l-1.36-1.07c-10.3-4.4-20.83-6.39-30.7-7.04,0,0-12.87-.69-22.79-.63,2.87,2.18,5.07,5.31,5.28,9.81.67,13.86-13.64,19.44-13.64,19.44,3.36-2.24,9.4-9.83,7.84-19.67-1.57-9.83-14.31-14.5-14.31-14.5,0,0-14.92,6.46-18.16,18.64,0,0,.25-12.67-20.89-20.88,0,0,9.95-2.98,20.64-2.24,10.69.75,18.4,4.48,18.4,4.48,0,0,1.97-5.21,12.46-6.99,10.5-1.78,21.84.79,21.84.79-2.09-3.82-4.51-9.4-15.06-13.71-10.54-4.31-20-.41-20-.41,0,0-.69-5.09-8.35-10.05-12.46-8.05-45.4-12.85-51.76-13.2-6.34-.33,4.76,3.75,9.21,6.29,5.06,2.88,10.72,7.77,11.2,12.42.12,1.25-.17,2.34-.73,3.24-.45-1.3-1.39-2.96-3.03-5.08-9.03-11.59-31.91-16.6-49.09-15.45-17.18,1.15-30.83,7.64-30.83,7.64.2,1.59-6.33,7.12-24.35,9.11-17.16,1.88-29.28-1.26-33.64-1.9l-.33-.06c-1.77-.22-3.09-.14-3.65,1.13l-.06.18-.04.24c-.08.89.47,2.11.47,2.11l-.25-.48c1.22,2.34,8.52,15.8,18.15,22.71,0,0,5.75-1.22,12.57-1.95,0,0-105.44,51.3-148.16,131.46,18.61-2.18,43.1-3.59,69.69-1.25l-.18-.02h-.01c3.84-6.46,23.1-42.51,68.92-64.66,0,0-33.87,23.54-45.91,67.59,15.32,2.6,30.96,6.63,46.28,12.59,49.24,19.18,90.74,39.24,137.53,38.83l7.95-.35v-.04c-12.44-25.9-24.68-37.74-24.68-37.74,9.25,1.66,16.73-.98,16.86-1.02.69-.25,1.3-.5,1.8-.73,15.3-8.25,17.86-22.21,19.11-32.21,1.44-11.57-.61-18.96-.61-18.96,0,0,26.49-34.77,33.22-62.11,0,0,3.39-.46,6-.41,31.57.36,48.82,9.13,48.82,9.13l-1.18-1.19h0Zm-34.17-59.17c.1-.22.17-.43.23-.63l.14-.51v-.02c-.61-1.74-1.82-1.87-4.38-1.67-3.72.71-7.15,1.16-10.05,1.44h0l-.47.05-.34.03-1.25.12h-.18c-3.73.31-6.09.33-6.09.33,9.53,7.2,10.64,18.35,10.64,18.35l.49-.42c7.31-5.31,11.25-17.08,11.25-17.08h0Z"/>
  <path class="cls-2" d="m285.65,82.51c4.73,13.91-3.23,32.56-3.23,32.56,10.45-8.95,18.65-27.33,18.65-27.33,17.15-3.48,26.59,0,26.59,0,2.24,13.42-2.73,24.36-2.73,24.36,9.95-7.95,14.42-29.08,14.42-29.08,0,0-3.97-3.73-21.62-4.98-17.66-1.24-32.08,4.47-32.08,4.47h0Zm57.66-52.32c-6.83,1.36-7.23,8.79-7.23,8.79,7.43-6.84,23.27-3.91,23.27-3.91-2.94-2.74-9.19-6.26-16.05-4.88Zm-29.77,120.42s-8.85,1.85-14.62.08c0,0,2.27-4.73-.4-14.94,0,0-5.17,14.42-10.51,19.74,0,0,6.88,3.78,18.87,2.66,11.99-1.1,14.87-5.54,15.98-9.97,1.11-4.44,0-10.66-1.99-15.32,0,0,.87,11.75-7.33,17.75h0Zm-42.36-126.79c-13.06-2.97-25.84,2.38-26.48,2.65.62-.26,12.83-5.36,25.56-2.84-7.24-1.37-10.28,4.09-10.28,4.09-2.29,3.4-1.42,5.02-1.42,5.02,22.29-.4,34.31,3.21,34.31,3.21,0,0-8.31-9.07-21.7-12.12h0Z"/>
  <path class="cls-3" d="m365.17,74.91c-6.72,27.35-33.22,62.11-33.22,62.11h.01c20.02-17.09,33.37-47.29,39.21-62.52-2.61-.05-6,.41-6,.41h0Zm.81-3.99c.85.02,6.33-.08,6.33-.08.51-1.71,1.13-3.88,1.72-6.21-.62.03-4.85.16-8.2.26.36,1.78.42,3.78.15,6.03h0Zm-45.26,41.79c-2.86-13.29,4.7-22.4,4.7-22.4-17.21,15.1-6.79,30.21-1.58,41.92,5.21,11.73,3.13,20.32-2.09,26.31-5.2,6-19.54,6.52-29.18,4.7-9.64-1.83-14.59-11.99-17.19-23.97-2.6-11.99,2.08-33.08,2.08-33.08-7.03,10.68-7.03,32.56-1.56,50.27,5.47,17.71,19.8,22.13,30.23,22.13s29.18-8.85,26.29-29.94c-2.9-21.08-8.84-22.67-11.7-35.95h0Zm64.48-91.98l-.04-.34-.03-.18-.09-.3-.06-.15-.12-.26-.07-.12-.16-.23-.09-.1-.18-.19-.09-.08-.21-.16-.1-.07-.22-.12-.1-.06-.22-.1-.09-.05-.21-.07-.09-.03-.2-.05-.07-.02-.18-.03h-.05s-.14-.03-.14-.03h-.03s-.16-.03-.16-.03c-13.16.14-23.96-4.32-23.96-4.32l-.89-.32C328.09,2.62,297.73-.44,270.7.05v-.03c-12.08.11-20.89,1.1-20.89,1.1-38.81,3.28-66.63,12.58-66.63,12.58,0,0-10.56,2.97-24.63,2.27,0,0-5.22-.09-6.25,3.23-.88,2.12-1,4.64.98,10.15,2.29,6.36,11.47,18.31,11.54,18.4C137.05,59.03,64.76,99.56,0,181.07c0,0,13.69-3.56,35.21-6.08C77.93,94.84,183.37,43.54,183.37,43.54c-6.82.73-12.57,1.95-12.57,1.95-9.62-6.91-16.92-20.37-18.15-22.71l.25.48s-.54-1.22-.47-2.11l.04-.24.06-.18c.55-1.27,1.88-1.35,3.65-1.13l.33.06c4.36.65,16.47,3.78,33.64,1.9,18.01-1.99,24.54-7.52,24.35-9.11,0,0,13.65-6.5,30.83-7.64,17.18-1.14,40.07,3.87,49.09,15.45,1.65,2.12,2.59,3.78,3.03,5.08.56-.91.85-1.99.73-3.24-.49-4.65-6.15-9.54-11.2-12.42-4.45-2.54-15.56-6.63-9.21-6.29,6.35.35,39.3,5.14,51.76,13.2,7.67,4.96,8.35,10.05,8.35,10.05,0,0,9.46-3.9,20,.41,10.55,4.31,12.96,9.88,15.06,13.71,0,0-1.11-11.15-10.64-18.35,0,0,2.36-.01,6.09-.32h.18s1.25-.12,1.25-.12l.34-.03.47-.05h0c2.9-.29,6.33-.74,10.05-1.44,2.55-.2,3.76-.07,4.37,1.67v.02s-.14.51-.14.51c-.06.2-.14.41-.23.63,0,0-3.94,11.77-11.25,17.08l-.49.42s-11.35-2.57-21.84-.79c-10.49,1.78-12.46,6.99-12.46,6.99,0,0,12.74,4.67,14.31,14.5,1.56,9.84-4.47,17.43-7.84,19.67,0,0,14.31-5.59,13.64-19.44-.21-4.5-2.41-7.63-5.28-9.81,9.92-.06,22.79.63,22.79.63.06-3.84-.58-7-2.04-9.74,7.61-6.61,10.43-16.67,10.83-20.64h0c.04-.15.11-.51.12-.59l.02-.23c.02-.13.02-.27.02-.39v-.2h0Zm-85.62,24c21.14,8.21,20.89,20.88,20.89,20.88,3.24-12.17,18.16-18.64,18.16-18.64,0,0-7.71-3.73-18.4-4.48-10.7-.74-20.64,2.24-20.64,2.24Zm60.29,10.61c1.78,1.41,3.55,3.33,4.76,5.89,4.42-.08,10.23-.07,10.23-.07.42-1.87.79-3.75,1.04-5.51l.02-.15c-3.79-.17-10.38-.19-16.06-.15h0Zm-48.21,133.59c-.14.05-7.61,2.68-16.86,1.02,0,0,12.24,11.84,24.67,37.74v.04s.5-.03.5-.03c-1.2-11.8-6.24-31.57-7.41-35.23l-.9-3.54h0Zm-103-65.45c-17.98-18.19-18.52-38.79-18.52-38.79,0,0-6.17,24.01,8.48,41.98,14.65,17.98,50.34,19.93,50.34,19.93,0,0-22.31-4.92-40.3-23.12h0Zm-103.96,50.25h.01l.18.02c.67.06,2.82.26,2.93.28.29.02,3.98.41,4.01.41,5.23.59,10.52,1.32,15.87,2.23,12.04-44.05,45.91-67.59,45.91-67.59-45.81,22.15-65.08,58.2-68.92,64.66h0Zm88.72-124.02s36.74-7.03,78.76,2.89c1.51-1.36,3.25-2.73,5.27-4.13,0,0-38.53-10.69-84.03,1.24Zm.2,14.34s32.2-8.02,71.47-2.62c.74-1.48,1.76-3.05,3.09-4.67-14.18-1.62-42.93-2.9-74.55,7.29h0Zm76.65-40.43c-12.73-2.52-24.95,2.57-25.56,2.84h-.01s0,.01,0,.01h0c11.73.19,15.3,1.24,15.3,1.24,0,0,3.05-5.46,10.28-4.09h0Zm-75.83,54.32s30.43-9.41,68.8-6.75c-.19-1.37-.21-3.02.15-4.87-15.38-.43-41.28.97-68.95,11.61h0Z"/>
</svg>