<?xml version="1.0" encoding="UTF-8"?>
<svg id="Layer" xmlns="http://www.w3.org/2000/svg" viewBox="0 0 420 452.24">
  <defs>
    <style>
      .cls-1, .cls-2, .cls-3 {
        stroke-width: 0px;
      }

      .cls-2 {
        fill: #fb4f14;
      }

      .cls-3 {
        fill: #fffffe;
      }
    </style>
  </defs>
  <path class="cls-3" d="m377.13,142.73c-2.22-1.12-1.94-3.13-.34-4.32,18.9-13.98,31.65-31.92,31.65-59.61,0-32.79-23.48-78.8-115.3-78.8H56.45L2.85,93.24h39.36c4.4,0,7.95,3.54,7.95,7.92v93.08c0,4.38-3.55,7.93-7.95,7.93H0l54.17,92.91,250.18-.03c80.74,0,115.65-42.06,115.65-87.2,0-29.9-21.26-54.12-42.87-65.12"/>
  <path class="cls-2" d="m236.95,126.94h-38.88v-37.37c.04-3.92,3.21-7.07,7.14-7.07h31.74c18.63,0,25.54,9.48,25.54,21.86,0,13.13-6.92,22.58-25.54,22.58h0Zm0,85.96h-31.74c-3.94,0-7.14-3.19-7.14-7.12v-37.31h38.88c18.63,0,25.54,9.12,25.54,21.86s-6.92,22.57-25.54,22.57h0Zm110.97-68.07c-2.85-.67-2.38-4.16-.3-4.94,25.67-9.7,40.65-26.97,40.65-57.4.36-40.8-35.75-68.84-94.49-68.84H71.19l-39.06,68.88h26.88c5.32,0,9.61,4.29,9.61,9.59v111.15c0,5.3-4.29,9.59-9.61,9.59h-26.58l39.35,68.54,232.57-.03c66.4,0,93.76-44.07,93.76-76.49,0-28.49-21.04-53.09-50.2-60.06h0Z"/>
  <path class="cls-1" d="m146.92,261.96C105.65,184.51,94.8,95.46,110.18,13.66h-38.98l-39.06,68.88h26.88c5.32,0,9.61,4.29,9.61,9.59v85.29c20.03,32.45,49.03,63.53,78.29,84.54h0ZM341.55,21.32c-47.24,69.94-72.83,159.09-61.34,240.28,14.08-68.3,50.79-131.38,107.98-177.08.01-.68.07-1.33.07-2.03.24-28.12-16.84-50.19-46.72-61.18h0Zm-79.18-7.66c-7.41,19.37-15.19,42.74-21.73,68.98-1.17-.09-2.4-.14-3.69-.14h-31.74c-3.93,0-7.11,3.16-7.14,7.07v37.37h33.38c-2.21,13.4-3.99,27.27-5.17,41.53h-28.21v37.31c0,3.94,3.2,7.12,7.14,7.12h19.49c.29,22.37,2.29,45.32,6.48,68.48h-29.01c-22.89-55.19-54.39-148.56-23.06-267.73h83.26Z"/>
</svg>