<?xml version="1.0" encoding="UTF-8"?>
<svg id="Layer" xmlns="http://www.w3.org/2000/svg" viewBox="0 0 420 467.02">
  <defs>
    <style>
      .cls-1 {
        fill: #fff;
      }

      .cls-1, .cls-2, .cls-3 {
        stroke-width: 0px;
      }

      .cls-2 {
        fill: #311d00;
      }

      .cls-3 {
        fill: #ff3c00;
      }
    </style>
  </defs>
  <path class="cls-1" d="m419.97,283.84v-.18l-.02-.18c-1.89-25.55-7.6-51.4-17.47-79.03l-.11-.28-.11-.28-1.15-2.75.13.3c-4.12-10.69-12.7-15.3-25.34-13.73,0,0-5.9.65-5.69.62l-2.33.21c-9.74.89-23.76,2.14-36.1,1l-15.34-36.31c3.16-2.08,5.85-4.49,7.54-7.56,1.37-2.47,2.22-5.08,2.74-7.65,4.72-.65,9.17-2.75,12.36-6.19,4.66-5.09,7.31-14.25.71-24.7l.33.55-20.55-37.04-12.16,5.17C258.71-2.73,166.02-14.76,97.6,14.76,35.54,41.55-24.57,112.23,10.25,223.28c3.68,11.7,8.41,23.22,14,34.34-.34,3.46-.14,6.89.66,10.38l.03.18.06.19c1.78,6.7,3.4,11.15,7.54,20.39-.24,6.07,2.02,12.26,6.4,16.97,6.84,7.36,17.69,10.24,29.79,7.9l-.58.08c15.99-2.24,26.38-6.93,31.82-10.06,23.95,16.76,55.27,24.26,83.08,19.64,18.12-3.01,32.76-10.84,42.86-22.76,7.71.52,14.66-.3,16.05-.47,8.54-.62,16.32-2.43,23.25-5.35,10.27,11.99,24.17,20.58,40.84,24.99,19.47,5.13,41.54,4.78,62.54-.85,4.07.38,8.03-.73,10.92-2.06,22.06-5.04,26.98-7.16,30.25-9.95.04-.02.08-.07.12-.12,7.85-5.38,10.42-15.47,10.1-22.92v.02Zm-11.64,23.99l-.18.11c.19-.11.34-.26.52-.37l-.35.26h0Z"/>
  <path class="cls-1" d="m286.75,252.09c15.06-1.6,29.12-3.71,42.65-6.02l-40.58-6.85c-.28,4.47-.97,8.77-2.07,12.86h0Z"/>
  <path class="cls-1" d="m355.63,235.14c-1.54-4.64-4.49-13.44-6.12-17.54l-.02-.06v-.06s-.07-.51-1.03-1.23c-.58-.42-2.32-.13-2.32-.13-3.91.84-8.53,1.7-13.61,2.54l6.96,16.66c4.4.07,10.01.06,16.14-.18h0Z"/>
  <path class="cls-1" d="m326.07,234.31c-1.75-4.12-3.71-8.78-5.82-13.76-10.23,1.46-21.34,2.82-31.88,3.95.13,1.09.26,2.18.35,3.25l37.35,6.56Z"/>
  <path class="cls-1" d="m282.03,185.83c.06,7.38.98,14.29,2.18,19.31.78,2.47,1.47,4.94,2.08,7.42,9.8-1.01,19.89-2.25,29.11-3.54,0,0,0,0,0-.02-12.31-4.07-24.4-12.16-33.34-23.18h0Z"/>
  <path class="cls-1" d="m283.57,169.73c8.3,11.95,18.45,19.78,22.69,22.4.64.55,1.63,1.14,2.67,1.68-8.51-20.12-16.28-38.5-17.64-41.71-.14.18-.26.34-.4.54-3.75,4.68-6,10.72-7.33,17.09h0Z"/>
  <path class="cls-1" d="m222.61,276.78c-.23.58-.43,1.19-.67,1.76.23-.59.47-1.18.67-1.76Z"/>
  <path class="cls-1" d="m173.61,308.83c18.11-1.33,34.59-8.27,44.27-22.65h-.03c.46-.66.86-1.32,1.26-1.98.23-.39.49-.74.71-1.13.28-.48.5-.97.75-1.46.29-.56.58-1.15.86-1.74.18-.4.32-.8.48-1.2-8.59,19.47-27.41,28.54-48.29,30.18h0Z"/>
  <path class="cls-1" d="m368.35,234.28c5.8-.56,11.57-1.42,16.83-2.65l-1.62-6.66c-.7-2.88-3.2-10.75-4.91-14.89-1.31.45-6.02,1.87-17.48,3.96,2.58,6.12,5.01,12.98,7.18,20.24Z"/>
  <path class="cls-1" d="m380.08,291.16c-.76-.16-1.53-.45-2.28-.65,0,.35-.02.68,0,1.03.79-.13,1.61-.25,2.3-.38h0Z"/>
  <path class="cls-1" d="m377.07,277.75c4.97,2.12,10.2,3.68,15.53,4.52.27.02,1.57.13,3.21.45.13-.6.22-1.28.17-2.16-1-8.74-3.65-22.98-5.38-32.41l-.27-1.44c-3.36.85-12.7,3.19-17.7,4.11,2.01,8.95,3.58,18.07,4.44,26.94Z"/>
  <path class="cls-1" d="m364,294.17c.21-.13,1.61-1.03,1.62-3.54,0-.05-.1-2.03-.3-5.06-10.97-5.93-21.13-15.65-28.55-27.96-17.71,3.06-38.29,5.78-55.53,7.64-1.01,1.65-2.12,3.22-3.33,4.71,16.82,28.32,54.08,32.89,86.1,24.22h0Z"/>
  <path class="cls-1" d="m363.87,270.21c-.66-5.41-1.55-10.88-2.71-14.97l-.03-.11v-.13c-.03-.32-.24-1.38-.82-1.76-.11-.08-.42-.3-1.2-.09-3.02.72-6.37,1.44-9.91,2.14,3.91,5.66,8.88,10.73,14.66,14.92h0Z"/>
  <path class="cls-1" d="m70.52,284.52c-.14.05-.25.08-.4.13,3.06-.45,6.79-.92,9.29-.99,3.59-.08,8.68.68,13.56,3.71.67-.39,1.36-.81,1.87-1.14l2.06,1.72c-.5.33-1.1.67-1.67,1.01.57.45,1.14.91,1.7,1.44,0,0-.13.09-.17.13.4-.27,1.63-1.14,3.35-2.52-6.65-4.74-16.11-8.21-29.58-3.47h0Z"/>
  <path class="cls-3" d="m193.11,213.97c3.26,2.14,6.91,4.69,7.06,9.45.14,4.89-4.1,10.61-5.49,12.46-1.78,2.38-7.41,9.05-14.72,4.4,0,0-10.6-6.58-18.08-11.05l-5.33,7.9c9.85,1.69,36.64,6.29,59.3,10.17-1.28-9.45-4.38-18.09-6.27-25.62,3.3,7.08,6.67,16.15,8.6,26.02,1.69.29,3.34.58,4.96.86-.52-2.57-1.07-4.9-1.5-6.88-.89-4.08-4.53-12.8-7.74-23.41-4.73-2.76-9.46-6.38-14.11-11.42-.07-.06-7.92-7.53-14.74-14.36-3.48,5.62-5.72,9.26-7.12,11.52l15.2,9.96h0Z"/>
  <path class="cls-3" d="m234.47,143.86c8.74-4.71,16.11-7.27,27.93-9.03-.06,0,3.44-.48,3.44-.48,2.35-.35,6.85-1.28,8.13-3.62.72-1.32.94-3.12.86-5.22-14.73,3.08-30.11,6.77-43.44,12.18-4.55,1.65-8.17,3.97-11.72,6.26,1.08,2.29,2.37,5.04,3.83,8.15,2.96-2.83,5.89-4.97,8.27-6.48.48-.39,2.7-1.75,2.7-1.75h0Z"/>
  <path class="cls-3" d="m191.89,181.28c4.88,5.31,12.02,13.08,17.7,18.71-1.23-7.96-1.51-16.14.13-23.71,1.05-4.81,2.76-9,4.81-12.67l-4.86-10.6c-1.13,1.7-2.74,4.16-4.28,6.59,0,0-6.57,10.47-13.5,21.67h0Z"/>
  <path class="cls-3" d="m211.38,134.26c5.48-4.48,13.21-7.27,13.21-7.27,10.32-4.33,28.7-9.27,47.48-13.04-1.3-3.76-5.49-15.82-5.49-15.82-.21-.52-3.1-6.43-.82-9.99.99-1.53,2.87-2.39,5.21-2.38,0,0-.11.07,6.48.31l.29-.12c.05-.02.13-.07.13-.07l7.2-3.45c1.7-.5,3.75-1.01,3.75-1.01,4.68-.25,7.23,2.6,8.58,5.03l.79.06c-3.07-6.04-4.82-7.96-6.86-11.37C201.6-52.69-24.64,26.34,19.99,204.94c9.98,36.27,21.64,55.52,34.31,73.56,0,0,.29,8.74,14.54,4.17,13.62-4.37,23.18-4.07,36.32,6.19,17.47,13.63,44.38,21.74,68.44,19.97,20.89-1.63,39.7-10.71,48.29-30.18.02-.04.02-.08.04-.11.24-.56.44-1.18.67-1.76,1.78-5.24,2.28-10.55,2.12-15.56-1.71-.29-3.49-.59-5.34-.91-1.31,22.5-23.66,44.11-63.58,41.61-16.7-.62-34.52-8.74-45.16-14.53-4.88-3.28-18.68-10.99-25.29-12.46,5.76.31,20.13,7.84,26.17,11.31,12.36,6.38,29.62,12.47,44.3,13.09,26.67,2.5,56.94-11.13,60.3-39.56-26.69-4.52-62.9-10.65-67.62-11.46-1.04.73-2.34,1.12-3.78,1.02-2.7-.18-5.32-1.85-6.37-4.04-.78-1.65-.6-3.39.49-4.92-.02.02,12.7-18.94,12.7-18.94l.55-1.08c-.55-2.86.77-5.38,1.38-5.98,1.03-1.04,6.81-10.53,8.16-13.2.14-.29,1.68-2.61,4.68-2.86,1.32-2.09,4.57-7.28,10.12-16.29-.44-2.52.72-4.96,2.51-6.36.56-.44,1.12-.67,1.68-.92,6.79-11,14.41-23.05,16.54-26.2,2.44-3.34,4.32-5.55,6.5-8.06.89-1.02,2.98-2.65,3.49-3.05,1.02-1.3,2.44-2.32,3.95-2.76.02-.13.09-.26.29-.43h0Zm-30.08,121.06c4.38,0,7.95,3.58,7.93,7.98-.02,3.28-2.01,6.07-4.85,7.28-.95,1.01-2.27,1.64-3.74,1.64-2.05,0-3.78-1.25-4.62-3.02-1.65-1.46-2.71-3.58-2.7-5.96,0-4.38,3.59-7.93,7.97-7.92h0Zm-62.6,25.12c-1.18.97-2.78,1.32-4.44,1.16-1.79,1.03-4.45.47-6.4-1.58-1.85-1.95-2.31-4.49-1.4-6.23-.38-2.81.4-5.61,2.39-7,3.01-2.13,7.58-.82,10.2,2.9,2.62,3.72,2.49,8.37-.35,10.75Zm39.19-21.38c-13.34,14.11-39.77,14.01-54.79-5.23,25.42,23.57,49.12,8,54.79,5.23Zm-24.05-16.6c-1.63.54-3.37.82-5.16.8-4.93-.03-9.84-2.24-13.49-6.06-7.14-7.48-7.6-19.02-1.03-25.72,2.96-3.01,6.99-4.65,11.33-4.62,4.93.03,9.85,2.23,13.49,6.06,3.68,3.86,5.59,8.79,5.67,13.57l-10.81,15.96h0Z"/>
  <path class="cls-2" d="m221.42,279.85c-.28.59-.56,1.18-.86,1.74.29-.58.6-1.16.86-1.74Z"/>
  <path class="cls-2" d="m173.6,308.83c-24.07,1.77-50.97-6.32-68.44-19.97-13.15-10.27-22.71-10.55-36.32-6.19-14.25,4.57-14.54-4.17-14.54-4.17-12.67-18.04-24.33-37.28-34.31-73.56C-24.64,26.34,201.6-52.69,291.34,75.14c2.04,3.41,3.8,5.33,6.86,11.37l3.18.25C217.38-62.92-40.98,20.12,21.22,218.37c4.38,13.96,9.8,26.12,14.93,35.9.13-.56.26-1.04.33-1.34,0,0,.54,1.55,1.59,3.95.02-.07.02-.16.04-.23,0,0,5.49,10.46,13.53,21.5.85.88,1.72,1.75,2.65,2.55.14,1.92.65,3.21,1.55,4.02.72.46,1.51.83,2.39,1.04.02,0,.03,0,.05.02.29.07.64.04.95.08,1.5.09,3.35-.06,5.68-.42,0,0,2.32-.41,5.24-.84.14-.04.25-.08.4-.13,13.47-4.75,22.93-1.27,29.58,3.47.86.61,1.68,1.24,2.44,1.87,36.49,28.44,96.16,30.69,118.19-2.99-.98-.2-1.96-.42-2.87-.71-9.67,14.38-26.16,21.33-44.27,22.65v.03Z"/>
  <path class="cls-2" d="m219.81,283.05c-.22.39-.48.75-.7,1.13.23-.38.49-.75.7-1.13Z"/>
  <path class="cls-2" d="m215.82,247.3c.79.14,1.55.27,2.33.4-1.93-9.88-5.3-18.95-8.6-26.02,1.89,7.53,4.98,16.17,6.27,25.62Z"/>
  <path class="cls-2" d="m155.8,299.33c-14.68-.61-31.94-6.71-44.3-13.09-6.03-3.47-20.4-10.99-26.17-11.31,6.62,1.47,20.41,9.19,25.29,12.47,10.63,5.79,28.46,13.91,45.16,14.53,39.92,2.49,62.27-19.11,63.58-41.61-1.08-.18-2.17-.37-3.28-.55-3.36,28.44-33.63,42.07-60.3,39.56h0Z"/>
  <path class="cls-2" d="m125.48,206.88c-4.34-.03-8.37,1.61-11.33,4.62-6.57,6.7-6.11,18.23,1.03,25.72,3.65,3.81,8.56,6.02,13.49,6.06,1.8,0,3.53-.27,5.16-.8l10.81-15.96c-.08-4.79-1.99-9.72-5.67-13.57-3.65-3.82-8.55-6.02-13.49-6.06h0Z"/>
  <path class="cls-2" d="m103.08,253.83c15.02,19.24,41.45,19.35,54.79,5.23-5.67,2.76-29.38,18.34-54.79-5.23Z"/>
  <path class="cls-2" d="m176.03,269.2c-.34-.71-.56-1.47-.56-2.3,0-2.93,2.34-5.3,5.21-5.29,2.87,0,5.18,2.39,5.17,5.32,0,1.42-.57,2.7-1.47,3.65,2.83-1.2,4.83-4.01,4.85-7.28,0-4.4-3.55-7.96-7.93-7.98-4.38,0-7.96,3.54-7.97,7.92,0,2.39,1.05,4.5,2.71,5.96h0Zm8.02-6.69c-1.12-1.24-3.92-1.83-5.54-.76-.73.44-1.48-.14-.55-1.09,1.81-1.58,5.2-1.49,6.74.81.78,1.17-.06,1.94-.65,1.03Zm-2.56-5.76c5.16-.03,8.79,6.62,4.46,11.09,1.86-4.03.34-9.16-4.6-9.37-5.15-.21-6.85,4.95-5.95,7.63-1.74-1.62-1.14-9.33,6.09-9.36Z"/>
  <path class="cls-2" d="m180.68,261.61c-2.87,0-5.21,2.35-5.21,5.29,0,.83.23,1.6.56,2.3.84,1.76,2.57,3.01,4.62,3.01,1.47,0,2.79-.63,3.74-1.64.9-.95,1.47-2.23,1.47-3.64,0-2.93-2.3-5.31-5.17-5.32h0Zm-.06,9.68c-2.39,0-4.33-1.96-4.33-4.38s1.94-4.38,4.33-4.38,4.33,1.96,4.33,4.38-1.94,4.38-4.33,4.38Z"/>
  <path class="cls-1" d="m177.96,260.66c-.92.94-.18,1.54.55,1.09,1.62-1.07,4.43-.49,5.54.76.6.91,1.44.13.66-1.03-1.55-2.3-4.93-2.39-6.75-.82Z"/>
  <path class="cls-1" d="m181.35,258.47c4.94.21,6.47,5.33,4.6,9.37,4.33-4.47.7-11.11-4.46-11.09-7.23.02-7.83,7.74-6.09,9.36-.9-2.69.8-7.85,5.95-7.64Z"/>
  <path class="cls-1" d="m184.95,266.91c0-2.42-1.94-4.38-4.33-4.38s-4.33,1.96-4.33,4.38,1.94,4.38,4.33,4.38,4.33-1.96,4.33-4.38Zm-7.83-.03c0-1.91,1.55-3.47,3.46-3.47s3.45,1.55,3.45,3.47-1.55,3.45-3.45,3.45-3.46-1.55-3.46-3.45Z"/>
  <path class="cls-2" d="m184.05,266.88c0-1.91-1.55-3.47-3.45-3.47s-3.46,1.55-3.46,3.47,1.55,3.45,3.46,3.45,3.45-1.55,3.45-3.45Zm-6.02.11c.1-.44.29-.21.4.11.94,1.5,3.56,1.61,4.37.45.4-.59.39.22.39.22-1.65,3.25-5.41,1.2-5.16-.79h0Z"/>
  <path class="cls-1" d="m183.19,267.78s0-.82-.4-.22c-.8,1.16-3.43,1.04-4.37-.45-.1-.32-.29-.55-.39-.11-.25,1.99,3.51,4.04,5.16.79h0Z"/>
  <path class="cls-2" d="m108.85,266.78c-1.99,1.39-2.76,4.19-2.39,7.01.17-.32.29-.66.56-.91,1.72-1.63,4.89-1.09,7.07,1.22,2.19,2.3,2.57,5.49.84,7.12-.19.18-.45.23-.67.37,1.65.17,3.26-.18,4.44-1.16,2.85-2.38,2.97-7.03.35-10.75-2.62-3.72-7.19-5.02-10.2-2.9Zm6.65,7.86c-.53-1.13-2.24-2.56-3.19-2.75-.96-.19-.6-1.75.56-1.34,1.08.37,2.75,1.78,3.16,2.45,1.06,1.75-.08,2.62-.53,1.65Zm1.3,5.44c5.31-6.9-5.02-14.94-9.1-8.54,3.4-10.43,17.11,2.66,9.1,8.54Z"/>
  <path class="cls-2" d="m114.1,274.11c-2.18-2.31-5.35-2.86-7.07-1.22-.26.25-.39.59-.56.91-.91,1.74-.46,4.28,1.4,6.22,1.95,2.04,4.61,2.6,6.4,1.58.22-.13.48-.18.67-.37,1.72-1.63,1.34-4.82-.84-7.12Zm-5.72,5.29c-1.86-1.96-2.18-4.66-.71-6.06,1.46-1.39,4.15-.92,6.01,1.03s2.18,4.65.71,6.04-4.15.93-6.01-1.03h0Z"/>
  <path class="cls-1" d="m112.88,270.55c-1.16-.4-1.52,1.16-.56,1.34.96.18,2.66,1.63,3.19,2.75.45.97,1.59.1.53-1.65-.41-.68-2.08-2.09-3.16-2.45Z"/>
  <path class="cls-1" d="m107.71,271.56c4.07-6.4,14.41,1.65,9.1,8.54,8.01-5.89-5.7-18.98-9.1-8.54Z"/>
  <path class="cls-1" d="m113.66,274.37c-1.86-1.96-4.54-2.42-6.01-1.03s-1.14,4.1.71,6.06c1.86,1.96,4.54,2.41,6.01,1.03s1.14-4.09-.71-6.04h0Zm-.06,5.62c-1.22.9-3.26.17-4.77-1.23-1.62-1.48-1.76-3.78-.63-4.85,1.24-1.2,3.46-.45,4.8,1.07,1.08,1.24,2.01,3.96.61,5h0Z"/>
  <path class="cls-2" d="m108.2,273.92c-1.13,1.07-.99,3.38.63,4.85,1.51,1.39,3.55,2.13,4.77,1.23,1.4-1.04.47-3.76-.61-5-1.34-1.52-3.55-2.28-4.8-1.08h0Zm4.38,5.48c-2.49.24-4.71-2.79-3.8-4.13,0,0,.68-.92.81-.06.21,1.48,1.78,3.03,3.26,3.42.36.09.47.63-.27.76h0Z"/>
  <path class="cls-1" d="m109.59,275.22c-.13-.86-.81.06-.81.06-.92,1.34,1.3,4.37,3.8,4.13.75-.13.63-.68.27-.76-1.48-.39-3.05-1.94-3.26-3.42h0Z"/>
  <path class="cls-2" d="m95.23,288.95c-6.99,4.16-19.24,8.84-31.05,9.96-12.88,2.07-20.03-6.95-17.55-13.84,0,0,0,0-.71-1.72-.7-1.71-9.48-19.66-7.86-26.46-1.04-2.4-1.59-3.95-1.59-3.95-.07.29-.19.77-.33,1.34-.45,1.95-1.03,5.37-.06,9.62,1.69,6.34,3.09,10.24,8.21,21.5-2.06,7.62,5.07,18.84,22.36,15.5,20.14-2.85,29.25-9.71,30.1-10.38.04-.03.17-.13.17-.13-.55-.53-1.13-.98-1.7-1.44h.02Z"/>
  <path class="cls-2" d="m55.82,284.75c-.91-.81-1.4-2.1-1.55-4.02-.92-.81-1.8-1.67-2.65-2.55.25.34.49.69.74,1.03.45,2.7,1.72,4.46,3.45,5.55h0Z"/>
  <path class="cls-2" d="m58.2,285.8s.03,0,.05.02c-.02,0-.03,0-.05-.02Z"/>
  <path class="cls-2" d="m63.64,285.85c-3.11,6.36-15.3,2.94-12.94-5.33-1.75-2.16-5.96-8.99-5.96-8.99-.19.03.19,2.02.17,1.9,1.42,2.96,3.9,8.05,3.9,8.05-1.91,12.02,15.36,12.92,16.58,4.09,1-.18.97-.04,1.6-.35-.75,3.59-2.47,5.55-4.5,6.59-3.7,1.86-4.78,5.14.83,4.75,5.71-.41,15.8-2.31,27.59-8.01,0,0,1-.56,2.07-1.19-4.88-3.02-9.96-3.79-13.56-3.71-2.5.06-6.23.54-9.29.99-2.92.44-5.24.84-5.24.84-2.33.35-4.17.51-5.68.42.72.11,1.44.24,2.22.2.55-.07,1.78-.15,2.23-.25h0Z"/>
  <path class="cls-1" d="m45.91,283.35c.71,1.73.71,1.72.71,1.72-2.49,6.9,4.67,15.92,17.55,13.84,11.81-1.13,24.07-5.81,31.05-9.96.57-.34,1.18-.68,1.67-1.01l-2.06-1.72c-.5.34-1.19.75-1.86,1.14-1.07.63-2.07,1.19-2.07,1.19-11.79,5.7-21.87,7.6-27.59,8.01-5.62.39-4.53-2.89-.83-4.75,2.03-1.03,3.75-3,4.5-6.59-.63.31-.6.17-1.6.35-1.22,8.83-18.49,7.93-16.58-4.09,0,0-2.49-5.09-3.9-8.05.03.13-.36-1.87-.17-1.9,0,0,4.22,6.83,5.96,8.99-2.35,8.27,9.84,11.68,12.94,5.33-.45.1-1.68.19-2.23.25-.78.03-1.5-.1-2.22-.2-.31-.04-.66-.02-.95-.08-.02,0-.03,0-.05-.02-.87-.21-1.66-.58-2.39-1.04-1.73-1.09-3.01-2.86-3.45-5.55-.25-.34-.49-.69-.74-1.03-8.05-11.05-13.53-21.5-13.53-21.5-.02.08-.03.16-.04.23-1.63,6.8,7.17,24.74,7.86,26.46v-.02Z"/>
  <path class="cls-2" d="m224.62,282.32l-1.3-.17c3.46-7.15,4.32-14.55,4.27-20.45-.93-.16-1.88-.32-2.86-.49.16,5.01-.34,10.31-2.12,15.56-.19.59-.45,1.18-.67,1.76-.02.03-.03.07-.04.11-.16.4-.3.8-.48,1.2-.25.58-.56,1.16-.86,1.74-.24.49-.47.97-.75,1.46-.21.39-.48.76-.71,1.13-.41.66-.81,1.33-1.26,1.98h.03c.91.29,1.89.5,2.87.71,8.8,1.81,19.75.34,19.75.34,11.48-.75,20.71-3.83,27.91-8.62-.91-1.42-1.83-2.81-2.62-4.32-9.2,6.24-22.48,9.57-41.15,8.05h0Z"/>
  <path class="cls-2" d="m281.27,252.66c1.86-.18,3.65-.38,5.48-.57,1.11-4.09,1.8-8.4,2.08-12.86l-.23-.04-.86-.14-.08-.87c-.58-5.7-.75-8.96-.5-9.7l.32-.93.97.17.27.05c-.08-1.08-.22-2.17-.35-3.25-1.76.18-3.49.37-5.2.55,1.12,9.33.76,18.96-1.9,27.62h.02Z"/>
  <path class="cls-2" d="m276.48,267.6c.44.83.95,1.56,1.42,2.35,1.22-1.5,2.32-3.07,3.33-4.71-1.47.16-2.92.31-4.33.45,0,0-.7.21-1.91.45l1.49,1.44h0Z"/>
  <path class="cls-2" d="m216.04,205.73c6.02,4.57,12.33,7.11,21.6,8.26l-20.37-44.39c-4.28,11.73-3.59,24.03-1.23,36.14Z"/>
  <path class="cls-2" d="m209.59,200c1.08,1.07,2.12,2.08,3.06,2.96-2.33-12.07-2.42-24.76,3.32-36.21l-1.44-3.12c-2.05,3.67-3.76,7.86-4.81,12.67-1.65,7.57-1.37,15.75-.13,23.71Z"/>
  <path class="cls-2" d="m223.13,248.56c1.5.25,2.96.51,4.39.76,7.54-4.64,13.43-13.1,16.62-21.16l-.86-1.86c-.11,0-.22-.02-.33-.02-7.24-.4-15.16-1.55-23.25-5.03,2.05,7.78,4.15,15.32,5.31,22.36-1.44-6.03-4.74-14.22-7.75-23.46-1.13-.55-2.24-1.21-3.37-1.87,3.21,10.61,6.85,19.33,7.74,23.41.44,1.98.98,4.32,1.5,6.88h0Z"/>
  <path class="cls-1" d="m245.35,199.11c2.43,5.28,4.84,10.55,7.17,15.65h1.17c7.49-.05,17.08-.7,27.28-1.66-1.22-4.8-2.74-9.36-4.46-13.44-8.37-19.76-30.45-12.13-31.15-.55h0Z"/>
  <path class="cls-1" d="m227.52,249.31c13.87,2.39,24.11,4.14,24.11,4.14,1.61.23,3.02.41,4.37.55l-11.86-25.86c-3.18,8.06-9.07,16.51-16.61,21.16Z"/>
  <path class="cls-1" d="m269.62,253.65c3.96-.29,7.83-.61,11.65-.97,2.65-8.67,3.02-18.3,1.9-27.62-8.86.89-17.13,1.6-23.82,2.02-.03,0-.53,0-1.31-.04,5.06,11.37,9.11,20.97,11.48,26.67.04-.02.11-.05.11-.05h0Z"/>
  <path class="cls-1" d="m223.33,282.16l1.3.17c18.66,1.52,31.95-1.81,41.15-8.05-1.17-2.19-2.24-4.47-3.17-6.83l-.53-.74c-.16,0-.3,0-.46-.02-3.8-.24-13.39-1.24-16.72-2.04,0,0-7.06-1.19-17.31-2.93.06,5.9-.81,13.3-4.27,20.45Z"/>
  <path class="cls-1" d="m287.43,151.81c-12.06,1.47-15.42,31.66-8.58,39.2-2.5-11.57.14-33.06,8.58-39.2Z"/>
  <path class="cls-1" d="m219.7,221.24c-.81-.35-1.63-.7-2.44-1.09,3.02,9.24,6.33,17.42,7.75,23.46-1.16-7.05-3.26-14.58-5.31-22.36h0Z"/>
  <path class="cls-1" d="m212.65,202.95c1.13,1.01,2.26,1.91,3.39,2.77-2.35-12.11-3.06-24.41,1.23-36.14l-1.31-2.86c-5.74,11.47-5.64,24.15-3.32,36.21h0Z"/>
  <path class="cls-1" d="m238.52,144.84c-4.9,2.16-8.78,5.58-8.78,5.58-1.83,1.41-3.47,2.88-4.98,4.38.16.34.33.7.49,1.04,2.2-2.39,6.48-6.66,13.27-11Z"/>
  <path class="cls-2" d="m280.6,112.33c.08-.02.16-.02.24-.04-.36-.84-1.17-2.78-2.18-5.52l1.96,5.56h0Z"/>
  <path class="cls-2" d="m313.21,121.49l-.59-.05c2.24,8.59,1.66,20.17-9.96,22.76,5.88-2.57.94-4.33.48-4.54-12.49-2.88-33.28.96-35.56-.61,13.31-1.29,14.33-7.91,13.25-14.77-.69.14-1.38.28-2.08.42,1.25,7.18-1.71,9.9-5.71,11.39-6.1,2.07-10.49,2.13-10.69,2.1l-3.97-.14c1.72-.58,5.13-.72,9.31-1.59,6.39-1.32,10.09-4.14,9.66-11.47-.84.18-1.65.33-2.5.5.08,2.1-.13,3.91-.86,5.22-1.28,2.34-5.78,3.27-8.13,3.62,0,0-3.5.49-3.44.48-11.82,1.76-19.19,4.33-27.93,9.03,0,0-2.22,1.36-2.7,1.76-2.39,1.51-5.31,3.65-8.27,6.48.41.88.82,1.76,1.26,2.7,1.52-1.5,3.15-2.96,4.98-4.38,0,0,3.88-3.42,8.78-5.58-6.79,4.33-11.07,8.61-13.27,11,5.54,11.84,12.88,27.59,20.09,43.28.7-11.57,22.78-19.21,31.15.55,1.72,4.07,3.25,8.64,4.46,13.44,1.76-.17,3.54-.34,5.32-.53-.6-2.48-1.29-4.95-2.07-7.42-1.2-5.02-2.12-11.93-2.18-19.31-.18-.22-.38-.42-.55-.65-.44-9.06,1.34-16.51,1.34-16.51.24.37.51.7.76,1.06,1.34-6.38,3.58-12.41,7.32-17.09.14-.21.26-.35.4-.54-.14-.32-.24-.55-.24-.55,1.62-2.07,2.54-4.17,7.03-4.9.18-.03.34-.08.54-.1,3.14-.41,2.34-.49,3.62-.41l.18.42c.06,0,.17-.02.2-.03,5.89-1.06,9.55-4.27,11.81-8.34,1.45-2.65,1.82-6.2,1.85-9.17-.13-.22,2.21-1.11,2.78-1.45-2.13-.92-4.07-2.75-5.86-6.07h0Zm-34.36,69.53c-6.83-7.54-3.48-37.74,8.59-39.2-8.44,6.14-11.09,27.64-8.59,39.2Z"/>
  <path class="cls-2" d="m290.27,127.68l10.8-.14c5.53-.95,8-3.31,8.71-6.41l-.26-.04c-1.3,5.6-7.5,6.06-9.03,6.26-2.17.29-7.78.29-11.52,0-2.55-.19-3.74-2.44-4.25-3.86-.05,0-.1.03-.15.03,1.86,4.47,5.7,4.17,5.7,4.17h0Z"/>
  <path class="cls-2" d="m275.87,98.88l1.08,3.08c-.55-1.65-1.11-3.39-1.66-5.28-.91-3.01-.78-5.28-.26-6.95-1.55,4.31.84,9.14.84,9.14h0Z"/>
  <path class="cls-2" d="m298.2,86.52l-.79-.06c.97,1.76,1.34,3.32,1.34,3.32l8.52,19.8h.19c-2.8-6.78-8.85-20.62-8.85-20.62l3.31.29c1.96,5.04,4.84,13.65,7.04,20.42l.33.02c-1.02-3.09-6.82-20.92-6.82-20.92l-.34-1.01.83-.7.33-.14-1.91-.15-3.18-.25h0Z"/>
  <path class="cls-1" d="m277.33,124.99c.43,7.33-3.27,10.15-9.66,11.47-4.18.87-7.59,1.01-9.31,1.59l3.97.14c.2.02,4.59-.03,10.68-2.1,4.01-1.49,6.97-4.21,5.71-11.39-.47.09-.93.19-1.41.29h0Z"/>
  <path class="cls-1" d="m268.96,94.29c-.41-1.3-1.01-3.79-.29-5.96,0,0-2.73,2.17-.28,7.96l6.21,17.16c.44-.08.87-.17,1.31-.25-.35-1.03-.74-2.1-1.19-3.23-2.24-5.72-4.96-13.16-5.75-15.68h0Z"/>
  <path class="cls-1" d="m309.78,121.13c-.71,3.1-3.18,5.46-8.71,6.41l-10.8.14s-3.84.3-5.7-4.17c-1.23.25-2.49.51-3.75.76,1.07,6.86.07,13.48-13.25,14.77,2.28,1.57,23.07-2.27,35.56.61.46.19,5.4,1.97-.48,4.54,11.62-2.58,12.2-14.17,9.96-22.75l-1.86-.17-.99-.14h.02Z"/>
  <path class="cls-1" d="m301.92,89.24l-3.31-.29s6.06,13.84,8.85,20.64l1.49.08c-2.2-6.76-5.06-15.37-7.04-20.42h0Z"/>
  <path class="cls-1" d="m276.96,101.97l-1.08-3.08s-2.39-4.83-.84-9.14c.19-.57.4-1.07.66-1.5-.11-.02-1.73-.24-2.84-.14-1.72.14-3.33.22-2.16,4.31.86,3.03,1.19,3.75,1.86,5.62.82,2.24,3.44,9.01,5.36,14.77.9-.17,1.78-.31,2.68-.47l-1.96-5.56c-.53-1.41-1.1-3.02-1.69-4.81h0Z"/>
  <path class="cls-2" d="m274.83,125.5c.85-.18,1.65-.34,2.5-.5.48-.1.94-.19,1.41-.29.7-.14,1.39-.28,2.08-.42,1.24-.25,2.51-.51,3.75-.76.05,0,.1-.02.15-.02-.24-.67-.34-1.19-.34-1.19,7.91-1.01,8.34-3.45,8.34-3.45,2.3-4.75-2.87-6.62-2.87-6.62-2.44-1.01-8.78.58-8.78.58,0,0-.09-.21-.22-.51-.08.02-.15.03-.24.04-.9.16-1.78.3-2.68.47-.67.13-1.35.27-2.03.4-.44.08-.87.18-1.31.25-.84.16-1.67.32-2.51.5-18.78,3.76-37.16,8.71-47.48,13.04,0,0-7.74,2.79-13.21,7.27-.2.17-.28.3-.29.43.57-.17,1.15-.25,1.71-.25,1.45.03,2.61.68,3.25,1.83.12.24,1.47,3.09,3.62,7.67,3.55-2.29,7.17-4.62,11.72-6.26,13.33-5.41,28.7-9.1,43.44-12.18v-.02Zm-55.97,16.07s-1.73-3.55-2.2-4.68c-.82-1.99-1.34-1.92-2.14-2.38,2.5-1.69,6.19-3.42,10.58-5.26,12.77-5.34,39.22-12.16,62.09-15.85,2.44-.34,4.47,1.34,4.72,3.09.24,1.56-.56,3.38-3.55,3.86l-1.4.28c-18.29,3.66-39.05,7.81-56.39,14.85-5.45,1.97-8.65,3.76-11.71,6.09Z"/>
  <path class="cls-2" d="m206.3,145.67l-.45-.98c.03.08.03.14.08.21.1.2.24.47.38.77Z"/>
  <path class="cls-2" d="m205.61,143.99c-.03-.79-.07-1.73.02-2.71.03-.04.06-.06,0,.02,0,0-.45,1.13-.02,2.69Z"/>
  <path class="cls-2" d="m197.15,148.55c-2.12,3.15-9.74,15.2-16.54,26.2,2.46-1.08,4.86-.51,6.43,1.31.91.94,2.67,2.86,4.85,5.22,6.93-11.2,13.5-21.68,13.5-21.67,1.55-2.44,3.16-4.9,4.28-6.59l-.97-2.12c-.51.71-3.33,4.42-5.27,7.44l-12.92,21.03-3.45-3.8s-1.81-1.54-3.4-1.4c6.99-11.33,13.21-21.12,15.37-24.35,1.99-3.27,6.09-7.97,6.61-8.53.11-1.06.36-2.16.94-3.12.15-.25.37-.47.55-.71-.51.39-2.6,2.03-3.49,3.05-2.18,2.5-4.07,4.71-6.5,8.06h.02Z"/>
  <path class="cls-2" d="m391.51,206.78l-1.14-2.73c-2.38-6.19-6.69-7.35-13.47-6.51l-5.9.65c-11.86,1.06-30.93,3.01-46.87.32l3.65,8.74c6.49-1,12.06-1.94,15.94-2.7l1.09-.37c.38-.85,1.16-1.56,2.28-2.08,2.18-.99,5.75-1.21,8.48.62l.11.22c3.28-.7,7.63-1.54,18.18-3.02,1.14.03,2.08.33,2.93.73.82-.13,1.4-.19,1.4-.19,2.07.35,2.94,1.56,3.21,3.24.08.5.32,2.09-.94,3.14-.09,1.19-.51,2.3-1.34,3.09,0,0-.19.07-.47.16,1.71,4.14,4.23,12.01,4.91,14.89l1.62,6.66c.97-.23,1.97-.45,2.9-.71h.03c-.28-.02-.48-.13-.78-.12-2.68-12.1-6.48-21.45-6.48-21.45,4.9-3.6,3.12-9.17-.19-10.17,0,0,6.04-1.28,8.83,9.17,10.12,28.37,17.98,67.23,15.74,80.66,0-1.73-2.69-4.95-7.3-5.9,0,0,.1-1.78-.04-3.95-1.16-11.7-5.38-33-5.38-33,4.3-1.39,5.43-7.62,2.56-11.7.59.97,1.01,2.03,1.2,3.09.62,3.39-.56,7.6-4.69,8.83-.1.03-.61.16-1.28.33l.27,1.44c1.75,9.43,4.38,23.67,5.38,32.42.05.87-.04,1.55-.17,2.16,3.45.7,8.55,2.46,9.56,7.11l.03.09v.09c0,.18.7,3.23-1.74,5.5,4.94-3.86,4.71-12.34,4.69-12.77-1.83-24.85-7.42-49.64-16.83-75.95v-.03Zm-46.92-2.57c-5.17,1.3-16.84,2.59-16.84,2.59l-2.44-5.61c12.52,1.72,21.59.72,21.59.72-2.16.29-2.3,2.3-2.3,2.3Zm11.23-1.59c-1.59-1.29-3.17-1.29-3.17-1.29,3.76.3,15.4-.86,15.4-.86-2.8.79-12.23,2.16-12.23,2.16h0Z"/>
  <path class="cls-2" d="m283.58,169.73c-.25-.36-.51-.69-.76-1.06,0,0-1.78,7.44-1.34,16.51.18.23.38.43.55.65,8.94,11.02,21.02,19.11,33.34,23.18-.4-.93-.78-1.87-1.19-2.8-18.84-6.19-32.21-23.96-32.21-23.96.09-5.61.93-9.64.93-9.64,12.17,16.77,25.56,23.26,27.24,24.02-.4-.95-.81-1.9-1.2-2.84-1.04-.54-2.03-1.12-2.67-1.68-4.24-2.61-14.4-10.45-22.69-22.39h0Z"/>
  <path class="cls-2" d="m360.84,213.18c.12.27.22.58.34.85,11.46-2.08,16.17-3.5,17.48-3.96.29-.09.47-.16.47-.16.83-.8,1.25-1.91,1.34-3.09-.3.24-.6.49-1.09.65-1.24.68-3.49,1.18-3.49,1.18-2.6.63-5.54,1.39-9.61,2.16-2.92.55-5.86,1.17-5.61,1.03-.62-1.35-1.32-3.55-3.12-7.03,5.58-1.03,11.37-2.3,16.43-3.59.92-.25,1.99-.45,2.82-.58-.85-.4-1.8-.71-2.93-.73-10.53,1.49-14.88,2.33-18.18,3.02l5.14,10.26h0Z"/>
  <path class="cls-2" d="m339.5,235.33l-6.95-16.66c-.62.1-1.27.21-1.9.3,2.32,5.86,4.78,11.73,6.73,16.31.68,0,1.37.03,2.12.04Z"/>
  <path class="cls-2" d="m365.32,285.57c-.06-.79-.12-1.65-.18-2.57-15.63-8.07-25.82-25.58-25.82-25.58,1.59-.29,7.78-1.44,7.78-1.44,6.37,9.54,15.68,16.09,17.13,17.08-.11-.94-.22-1.89-.34-2.85-5.78-4.19-10.75-9.26-14.66-14.92-3.91.78-8.09,1.55-12.45,2.31,7.43,12.32,17.58,22.03,28.55,27.96h0Z"/>
  <path class="cls-2" d="m328.7,234.77c-2.61-6.17-5.45-13.01-6.09-14.57-.78.12-1.56.23-2.36.35,2.11,4.98,4.07,9.63,5.82,13.76l2.63.46Z"/>
  <path class="cls-2" d="m298.65,146.55c-.2.03-.35.07-.54.1-4.5.73-5.41,2.83-7.03,4.9,0,0,.09.23.24.55,1.36,3.21,9.13,21.59,17.64,41.71.4.94.8,1.89,1.2,2.84.12.06.18.08.18.08l3.89,9.5h-.02c.4.93.79,1.87,1.18,2.8,0,0,0,0,0,.02,4.39-.6,8.54-1.21,12.39-1.81l-3.65-8.74-21.68-51.95-.18-.42c-1.29-.07-.48,0-3.62.41h0Zm26.98,60.73c-3.54.63-7.78,1.11-7.78,1.11l-24.92-58.39c2.68-2.92,7.03-3.01,7.03-3.01,1.63,3.31,25.66,60.29,25.66,60.29h0Z"/>
  <path class="cls-2" d="m405.38,290v-.09l-.03-.09c-1.01-4.64-6.11-6.42-9.56-7.11-1.63-.32-2.93-.43-3.21-.45-5.33-.84-10.56-2.39-15.53-4.52.42,4.35.65,8.6.72,12.76.76.2,1.52.49,2.28.65-.68.13-1.51.25-2.3.38.03,2.75.05,5.5-.09,8.11-.11,1.96-.87,3.63-2.14,4.77,21.76-4.94,25.45-6.74,26.79-7.96.52-.29.95-.61,1.32-.96,2.44-2.26,1.75-5.32,1.74-5.5v.02Zm-27.79,11.91c.71-3.17.58-8.21.58-8.21,25.48-5.47,1.29-7.78,1.29-7.78,5.61,1.73,5.48,3.75,5.48,3.75-2.45.14-6.76-1.14-6.76-1.14.13-1.59-.29-8.06-.29-8.06,6.62,2.88,7.68,2.06,14.53,3.59,7.06,1.59,3.6,4.47,3.6,4.47-3.6,4.45-16.84,6.33-16.84,6.33,22.18-2.88,20.15-8.93,20.15-8.93,9.08,5.91.14,10.08-4.45,11.37-4.07,1.14-17.28,4.61-17.28,4.61h0Z"/>
  <path class="cls-2" d="m339.5,235.33c-.76,0-1.45-.03-2.13-.04,2.14,5.01,3.67,8.47,3.67,8.47-1.3.58-7.78,1.44-7.78,1.44-.59-1.12-2.5-5.56-4.56-10.42l-2.63-.46-37.35-6.56-.27-.05-.97-.17-.32.93c-.24.73-.08,4,.5,9.7l.08.87.86.14.23.04,40.58,6.85c7.17-1.22,14.23-2.49,21.19-3.74l5.06-.91c1.14-.41,1.48-1.71.97-3.28,0-.03-.4-1.23-.99-3.01-6.12.24-11.73.25-16.14.19h-.02Zm-9.31,8.8l-41.3-6.85c.38-4.03.18-7.48.18-7.48l38.09,6.96c.72,2.07,3.02,7.38,3.02,7.38Zm25.92-6.71c1.14,3.89-1.88,3.69-1.88,3.69l-11.08,2.31-2.75-6.06c9.64.14,15.7.06,15.7.06h0Z"/>
  <path class="cls-2" d="m372.62,250.81c5-.92,14.34-3.25,17.7-4.11.66-.17,1.18-.3,1.28-.33,4.13-1.23,5.31-5.44,4.69-8.83-.19-1.07-.61-2.13-1.2-3.09-1.37-1.94-3.64-3.35-6.97-3.54h-.02c-.93.26-1.92.48-2.9.71-5.27,1.23-11.04,2.07-16.83,2.65,1.6,5.33,3.01,10.89,4.28,16.54h0Zm21.43-13.82s1.73,5.23-2.73,7.1c0,0-3.31,1.68-18.57,4.41,0,0-1.24-4.75-1.82-7.19,0,0,12.91-2.69,17.95-4.57,0,0-.1-1.68-2.6-1.63,0,0-13.1,3.31-16.12,3.59l-.72-2.01s11.23-2.16,14.98-3.02c0,0,7.92-2.73,9.64,3.31h0Z"/>
  <path class="cls-2" d="m377.69,299.64c.14-2.61.12-5.36.09-8.11,0-.35.02-.68,0-1.02-.08-4.16-.3-8.4-.72-12.76-.87-8.87-2.44-18-4.44-26.94-1.26-5.65-2.68-11.2-4.28-16.54-2.18-7.27-4.6-14.11-7.18-20.24-.11-.27-.22-.58-.34-.85l-5.14-10.26-.11-.22c-2.73-1.83-6.31-1.61-8.48-.62-1.13.51-1.91,1.23-2.28,2.07l-1.09.37c-3.88.76-9.45,1.7-15.94,2.7-3.85.6-8,1.2-12.39,1.81-9.21,1.28-19.31,2.52-29.11,3.54-1.79.19-3.56.36-5.32.53-10.2.96-19.79,1.61-27.28,1.66h-1.17c-2.33-5.11-4.73-10.37-7.16-15.65-7.22-15.69-14.56-31.44-20.09-43.28-.16-.35-.33-.71-.49-1.04-.44-.94-.85-1.81-1.26-2.7-1.45-3.11-2.75-5.86-3.83-8.15-2.16-4.58-3.5-7.43-3.62-7.67-.65-1.16-1.8-1.81-3.25-1.83-.56,0-1.13.08-1.71.25-1.5.44-2.93,1.45-3.95,2.76-.18.24-.4.45-.55.71-.58.97-.84,2.07-.94,3.12,0,0,.02-.02,0,0-.09.98-.06,1.92-.03,2.71.07.23.12.45.24.7l.45.98c.9,1.84,2.47,5.11,2.47,5.11.03-.03,0,0-.07.11l.97,2.12,4.86,10.6,1.44,3.12,1.31,2.86,20.37,44.39c-9.26-1.14-15.57-3.68-21.6-8.26-1.13-.86-2.26-1.76-3.39-2.77-.94-.87-1.98-1.89-3.06-2.96-5.69-5.64-12.83-13.41-17.7-18.71-2.18-2.37-3.93-4.28-4.85-5.23-1.56-1.82-3.96-2.39-6.43-1.31-.56.25-1.12.49-1.68.92-1.8,1.39-2.95,3.84-2.51,6.36.17-.27.32-.51.49-.8,0,0-.07,1.53,2.51,4.27,2.6,2.75,6.08,6.22,6.08,6.22-.18.29-.31.5-.48.78,6.82,6.81,14.67,14.29,14.74,14.36,4.64,5.04,9.38,8.66,14.11,11.42,1.12.66,2.25,1.32,3.37,1.87.81.4,1.63.74,2.44,1.09,8.09,3.49,16.01,4.63,23.25,5.03.11,0,.22.02.33.03l.86,1.86,11.86,25.85c-1.34-.14-2.76-.32-4.37-.55,0,0-10.24-1.76-24.11-4.14-1.43-.24-2.9-.5-4.39-.76-1.62-.28-3.28-.56-4.97-.86-.78-.13-1.54-.26-2.33-.4-22.66-3.89-49.44-8.48-59.3-10.17l-1.43,2.11c6.3,1.08,92.69,15.91,92.7,15.92,14.18,2.11,21.92.81,22.08.78,30.23-2.17,56.1-6.82,81.11-11.33l5.17-.93.08-.02.08-.03c1.88-.29,3.17,1.62,3.17,1.62.73-1.22-.99-8.27-.99-8.27-.06-.15-4.59-14.5-6.85-20.21l.03.11c-.07-.22-1.24-2.78-3.42-3.21,0,0,.3-1.82-.28-2.97,0,0-.28,2.75-2.89,3.32-22.97,4.61-61.39,9.34-84.82,10.74-.1,0-10.03-.07-17.56-.59-12.73-.71-27.25-3.69-41.3-18.93-.16-.14-15.71-14.95-21.97-21.81-1.56-2.21-.73-4.66.91-5.96,1.16-.91,3.74-1.76,5.04-.27,2.73,3.66,17.56,19.24,25.17,27.21,8.62,6.72,15.78,10.08,27.8,11.58,6.12.78,14.96.87,15.34.87,27.85-.35,71.51-6.9,89.49-10.1,2.16-.28,4.17,1.7,4.17,1.7l-.6-2.54.09-.72c.03-.24,1.01-1.02,1.82-1.4,1.56-.7,3.65-.72,5.38.7,12.11,22.32,23.22,64.47,21.31,95.04-.11,1.66-.82,3.01-2.1,3.66,0,0-3.42,2.48-6.16-1.85,0,0,.69,1.89-2.34,2.89-18.64,4.8-38.61,5.07-55.44.63-15.26-4.03-33.31-12.87-43.33-35.06,2.45-3.31,7.29-3.35,7.29-3.35,15.57,33.31,55.28,39.13,89.65,30.34,0,0,2.4-.47,3.59,1.24,1.01-2.01,1.08-8.64,1.08-8.64-.04-.97-.45-21.09-4.23-34.74-.04-.48-.89-2.9-2.32-3.34,0,0-.62-3.97-.71-3.24-.4,3.28-4.54,3.52-4.54,3.52-21.19,5.04-53.98,9.22-79.88,11.84-.04,0-2.01.31-5.52.47l-2.79.07c-4.92.06-12.73.04-20.66-1.65,0,0-91.36-14.97-91.4-14.98-1.39-.45-1.8-2.17-1.8-2.17-.44-1.31-.23-2.94.1-4.19l-3.97,5.88c-.38.58-.88,1.03-1.44,1.42,4.72.8,40.93,6.93,67.62,11.46,1.11.18,2.2.37,3.28.55,1.85.32,3.63.61,5.34.91.98.17,1.93.33,2.86.49,10.26,1.73,17.31,2.93,17.31,2.93,3.34.8,12.92,1.81,16.72,2.04.16.02.3.02.46.03l.53.74c.93,2.36,2,4.64,3.17,6.83.8,1.5,1.72,2.9,2.62,4.32,8.84,13.85,22.64,23.85,40.38,28.53,18.37,4.86,39.23,4.38,59.3-1.51,2.4,1.24,4.7.48,6.28-.34.44-.24.83-.53,1.18-.85,1.28-1.14,2.03-2.81,2.14-4.77h0Zm-122.31-72.46l11.7,26.44s-3.17.71-8.64.29c-1.44-3.14-3.14-7.19-10.65-23.6,2.54-4.03,7.58-3.13,7.58-3.13Zm3.97-.13c6.69-.42,14.96-1.13,23.82-2.02,1.71-.18,3.44-.35,5.2-.55,10.54-1.13,21.65-2.49,31.88-3.95.8-.12,1.58-.23,2.36-.34-.09-.21-.14-.35-.14-.35,1.35-.17,8.06-1.16,8.06-1.16.03.09.08.18.11.27.63-.1,1.28-.2,1.9-.3,5.07-.84,9.7-1.7,13.61-2.54,0,0,1.75-.3,2.32.13.96.72,1,1.23,1.01,1.23v.06l.03.06c1.63,4.09,4.58,12.89,6.11,17.54.6,1.78.98,2.97.99,3.01.51,1.56.18,2.86-.97,3.28l-5.06.91c-6.96,1.25-14.02,2.52-21.19,3.74-13.52,2.3-27.59,4.43-42.66,6.02-1.82.19-3.62.39-5.48.57-3.81.36-7.69.7-11.65.97,0,0-.07.02-.11.05-2.37-5.7-6.42-15.3-11.48-26.67.78.03,1.29.04,1.31.04h.02Zm-51.39-83.42c-.72-1.73-.14-3.17.6-4.41.97-1.65,2.9-2.6,4.2-2.58.92,0,1.19.49,1.23.56l35.95,77.26s-5.28.27-9.06-.52c-14.95-32.69-32.89-70.27-32.92-70.31Zm73.27,121.61c17.25-1.85,37.83-4.58,55.53-7.64,4.36-.76,8.53-1.53,12.45-2.31,3.54-.7,6.88-1.42,9.91-2.14.78-.21,1.09,0,1.2.09.56.39.78,1.44.8,1.76v.13l.04.11c1.16,4.09,2.04,9.56,2.71,14.97.12.96.23,1.91.34,2.85.13.08.29.2.29.2.28,2.59.71,9.79.71,9.79-.03-.02-.06-.03-.08-.04.07.92.13,1.78.18,2.57.2,3.03.3,5.02.3,5.07,0,2.5-1.41,3.41-1.62,3.54-32.02,8.67-69.28,4.1-86.1-24.22-.47-.79-.98-1.53-1.42-2.35l-1.5-1.45c1.21-.24,1.91-.45,1.91-.45,1.42-.14,2.87-.3,4.33-.45v-.02Z"/>
  <path class="cls-2" d="m157.01,226.39c-3.24-1.83-4.54-4.02-4.93-6.02l-.55,1.07s-12.72,18.97-12.7,18.94c-1.09,1.54-1.27,3.28-.49,4.92,1.04,2.2,3.66,3.86,6.37,4.04,1.44.09,2.73-.29,3.78-1.03.55-.39,1.05-.83,1.44-1.42l3.97-5.88c.31-1.15.72-1.97.81-1.86,0,0,.16.03.4.07l1.43-2.11,5.33-7.9c-1.89-1.13-3.59-2.13-4.86-2.85h0Zm-8.86,19.08c-.84,1.3-2.18,1.49-3.14,1.42-1.85-.13-3.76-1.3-4.44-2.73-.42-.87-.32-1.76.3-2.62l12.1-18.46c.76,1.47,6.83,5.11,6.83,5.11-2.54,3.76-11.63,17.28-11.64,17.29h0Z"/>
  <path class="cls-2" d="m175.84,231.42s.26.75.81,1.76v-.02c.5.9,1.29,1.73,2.21,2.28,6.67,3.97,10.36-1.09,10.39-1.13.02-.04,3.07-4.01-1.38-8.37-.11-.1-2.82-2.51-6.51-2.06-.39-1.52-2.32-5.81-7.85-5.62h-.08c-4.43.31-5.46,2.71-5.97,4.09,0,0-1.13,3.03.54,5.65.03.04,2.18,4.28,7.84,3.41Zm5.83-6.4c5-.15,8.89,4.83,6.38,8.48l-.9.14c-4.35.56-6.8-1.16-7.53-5.02.68-.49,1.78-1.83,2.04-3.61h0Zm-5.8-5.32c2.47.78,4.28,2.96,4.14,5.19l.29.03c-.2,1.61-1.92,3.81-5.39,3.28-.18-.7-.2-1.4-.24-2.18.57.2,1.21.31,1.89.28-.02-.31.08-1,.08-1-.7-.06-1.3-.29-1.97-.58.06-1.89.45-3.6,1.22-5.01h0Zm-5.78,1.06c1.12-.92,2.01-1.34,3.68-1.25-.71,1.1-.97,2.73-1.07,4.42-.35-.28-.61-.31-.96-.66v1.2c.21.39.55.51,1,.81.02,1.06.06,1.86.25,2.57-.22-.09-.35-.28-.6-.39-3.46-1.94-2.31-6.69-2.31-6.69v-.02Zm-1.27,1.54c-.57,7.2,6,8.24,9.69,6.89.81,5.82,5.87,5.98,8.32,5.59-3.07,1.94-8.99.63-10.08-4.85-4.64,1.42-9.89-2.34-7.93-7.64h0Z"/>
  <path class="cls-2" d="m157.01,226.39c1.27.71,2.97,1.71,4.86,2.85,7.48,4.47,18.08,11.05,18.08,11.05,7.32,4.65,12.94-2.02,14.73-4.4,1.39-1.85,5.64-7.57,5.48-12.46-.14-4.76-3.8-7.31-7.06-9.45l-15.2-9.96c-.18.29-.4.65-.55.89l-2.05-1.08-1.27,2.01c-1.23.99-3.86-.02-5.5-1.6-.37-.35-2.18-2.21-1.09-3.5l.06-.07.04-.07c.03-.05.17-.27.39-.65l-2.02-1.06c.09-.15.23-.37.37-.59-3,.25-4.54,2.57-4.68,2.86-1.34,2.66-7.12,12.16-8.16,13.2-.61.61-1.93,3.13-1.38,5.98.4,2.01,1.69,4.19,4.93,6.02l.02.02Zm20.24-20.28c5.84,3.75,13.52,8.79,16.83,11.3,5.96,4.52,2.75,9.95,2.75,9.95.6-3.27-.87-6.52-4.69-9.08-3.31-2.22-16.26-10.84-16.26-10.84l1.37-1.32Zm-12.72-4.68c-.25,4.36,6.45,7.86,9.62,7l16.95,11.34c2.54,1.83,5.04,4.96,3.55,9.17-.21-3.96-5.13-7.07-5.13-7.07,0,0-18.22-10.72-23.81-14.22-3.19-2-2.88-4.78-1.18-6.22h0Zm-8.48,13.52c3.35-4.72,4.99-7.42,5.71-8.68.71,1.59,2.95,2.89,2.95,2.89,5.64,3.52,17.49,10.7,20.9,12.58,3.66,2.04,4.41,3.02,4.41,3.02,4.26,4.03,3.45,8.04,1.37,10.84-2.35,3.17-6.86,5.18-10.63,2.66l-5.12-3.13v-.02l-1.85-1.11-15.88-9.74-.05-.03-.04-.02s-2.65-1.22-3.31-3.68c-.45-1.63.07-3.52,1.54-5.59h0Z"/>
  <path class="cls-2" d="m165.92,198.9l2.02,1.06c.86-1.4,3.33-5.49,9.38-15.3,2.3,3.17,5.99,6.5,5.99,6.5l-8.01,12.67,2.05,1.08c.15-.24.37-.61.55-.89,1.39-2.26,3.64-5.9,7.12-11.52.18-.28.3-.49.48-.78,0,0-3.49-3.48-6.08-6.22-2.59-2.73-2.51-4.27-2.51-4.27-.18.29-.32.52-.49.8-5.56,9.01-8.81,14.2-10.12,16.29-.14.22-.28.44-.37.59Z"/>
  <path class="cls-2" d="m302.13,87.75l.34,1.01s5.81,17.82,6.82,20.92l.5.02c5.5.52,12.72,1.58,15.23,2.42l-.21-.06c2.92.42,4.45,3.58,4.23,6.27-.08.93-.45,1.88-1.01,2.73,2.65-2.84,1.67-8.3-2.2-9.42-3.45-1-5.47-1-6.33-1.14l-10.37-23.32,6.04-2.6,14.83,27.21c8.47,13.43-7.23,18.3-13.24,10.08,0,0,1.07-.03,2.68.19-1.29-.29-3.05-.52-5.41-.5l-.81-.08c1.8,3.33,3.74,5.15,5.86,6.07,1.88.82,3.89.98,6.07.82,4.4-.29,7.95-2.88,9.48-7.02.06-.17,1.37-4.17-2.21-10.14l-16.33-29.69-.87.35-11.92,5.04-.33.14-.83.7h-.02Zm5.12.14l9.79,22.46c-1.45-.29-5.19-.72-5.19-.72l-7.33-20.59,2.73-1.16h0Z"/>
  <path class="cls-2" d="m309.51,121.09l.26.04.99.14,1.86.17.59.05.81.08c2.36-.02,4.12.22,5.41.5.89.13,1.89.31,3.07.67,2.61.35,4.37-.44,5.51-1.66.56-.85.92-1.8,1.01-2.73.24-2.69-1.31-5.85-4.22-6.27l.21.06c-2.51-.85-9.74-1.9-15.23-2.42l-.5-.03-.33-.02-1.49-.08h-.19l.71,1.63c1.81,4.4,2.08,7.57,1.55,9.87v-.02Zm15.04-7.21l.1.03.11.03c1.5.21,2.39,2.16,2.24,3.76-.07.87-.6,2.85-3.58,2.85-1.97-.59-8.45-1.54-13.36-1.6,0-3.03-1.86-7.34-1.86-7.34,4,.39,14.23,1.56,16.34,2.28h0Z"/>
  <path class="cls-2" d="m289.51,85.75s-2.48.58-1.3,4.9c0,0,.21.52.38.97.64,1.25,1.38,2.87,3.37,4.64,0,0-.1,1.73.4,3.83l.08.25c.49,1.63.92,2.9,2.12,4.28,2.87,3.31,6.11,1.44,5.21-2.55-.79-3.52-2.34-4.83-3.89-6.38.29-6.26-3.59-10.75-6.37-9.93h0Zm6.58,18.4c-1.73-1.72-2.61-3.62-2.79-6.36,2.71.56,4.39,3.94,2.79,6.36Zm-3.61-9.27c-1.47-.93-3.32-4.51-3.37-6.74,3.43.04,4.42,5.04,3.37,6.74Z"/>
  <path class="cls-1" d="m291.52,83.88c-1.78-.73-6.12-.32-5.04,4.7,0,0,.1.55.39,1.2l.87,2.16,3.39,8.2.1.29,5.62,13.11s1.3,3.75,1.3,4.75h9.58s-.18-2.45-2.35-7.92c-1.63-4.13-7.23-16.92-8.37-19.57-1.3-3.02-3.02-5.9-5.48-6.91Zm4.35,11.8c1.55,1.55,3.1,2.86,3.89,6.38.9,4-2.33,5.86-5.21,2.55-1.2-1.38-1.63-2.65-2.13-4.28l-.08-.25c-.5-2.09-.4-3.83-.4-3.83-1.99-1.76-2.73-3.39-3.37-4.64-.17-.45-.38-.97-.38-.97-1.18-4.32,1.3-4.9,1.3-4.9,2.78-.82,6.65,3.68,6.37,9.93h0Z"/>
  <path class="cls-1" d="m289.11,88.13c.04,2.23,1.9,5.8,3.37,6.74,1.06-1.7.07-6.69-3.37-6.74Z"/>
  <path class="cls-1" d="m293.3,97.78c.18,2.75,1.06,4.64,2.79,6.36,1.6-2.42-.08-5.8-2.79-6.36Z"/>
  <path class="cls-1" d="m294.97,114.44c-.92-2.4-8.06-18.86-9.79-22.88-1.07-2.49-1.2-4.16-1.14-5.06.03-.57.13-.55.13-.55l-3.02,1.59c-2.16,2.73.72,9.93.72,9.93,0,0,2.16,6.76,4.9,13.53,7.19-1.87,13.47,11.17-.34,12.33,1.25,5.27,13.15,3.07,8.54-8.88Z"/>
  <path class="cls-1" d="m282.2,111.85l2.59-.49-4.93-13.77s-2.11-4.8-.82-9.12l-2.2,1.06s-1.4,2.69.14,7.34c2.02,6.12,5.23,14.98,5.23,14.98Z"/>
  <path class="cls-1" d="m295.44,125.66c9.6.68,11.27-3.44,11.27-3.44-3.07-.06-8.82-.06-8.82-.06-.14,1.88-2.45,3.5-2.45,3.5Z"/>
  <path class="cls-1" d="m183.65,174.17c1.59-.14,3.4,1.4,3.4,1.4l3.45,3.8,12.92-21.03c1.92-3.02,4.75-6.73,5.27-7.44.08-.1.1-.14.07-.11,0,0-1.56-3.28-2.47-5.11-.14-.29-.28-.57-.38-.76-.04-.08-.04-.14-.08-.21-.11-.25-.17-.47-.24-.7-.44-1.56.02-2.69.02-2.69.07-.08.04-.06,0-.03-.52.56-4.62,5.28-6.61,8.54-2.17,3.23-8.39,13.02-15.37,24.35h0Z"/>
  <path class="cls-1" d="m352.65,201.34s1.58,0,3.17,1.28c0,0,9.43-1.37,12.23-2.16,0,0-11.64,1.17-15.4.86h0Z"/>
  <path class="cls-1" d="m289.07,229.79s.19,3.45-.18,7.49l41.3,6.85s-2.3-5.32-3.02-7.38l-38.09-6.96Z"/>
  <path class="cls-1" d="m343.15,243.42l11.08-2.31s3.02.2,1.88-3.69c0,0-6.06.09-15.7-.06l2.75,6.06h0Z"/>
  <path class="cls-1" d="m292.94,150.01l24.92,58.39s4.24-.48,7.78-1.11c0,0-24.03-56.98-25.66-60.29,0,0-4.35.1-7.03,3.01h0Z"/>
  <path class="cls-1" d="m333.26,245.19s6.48-.86,7.78-1.44c0,0-1.53-3.45-3.67-8.47-1.95-4.58-4.41-10.45-6.73-16.31-.04-.09-.08-.18-.11-.27,0,0-6.71.99-8.06,1.16,0,0,.06.14.14.35.65,1.55,3.48,8.39,6.09,14.56,2.06,4.86,3.97,9.3,4.56,10.42h0Z"/>
  <path class="cls-1" d="m347.08,255.99s-6.19,1.16-7.78,1.44c0,0,10.19,17.5,25.82,25.58.03,0,.06.03.08.04,0,0-.44-7.2-.71-9.79,0,0-.17-.12-.29-.2-1.45-.99-10.76-7.54-17.13-17.08h0Z"/>
  <path class="cls-1" d="m399.33,285.93s2.02,6.06-20.15,8.93c0,0,13.24-1.88,16.84-6.33,0,0,3.45-2.88-3.6-4.47-6.85-1.54-7.91-.72-14.53-3.59,0,0,.42,6.48.29,8.06,0,0,4.31,1.28,6.76,1.14,0,0,.13-2.01-5.48-3.75,0,0,24.18,2.31-1.29,7.78,0,0,.13,5.04-.58,8.21,0,0,13.2-3.47,17.28-4.61,4.6-1.3,13.53-5.47,4.45-11.37h0Z"/>
  <path class="cls-1" d="m267.07,253.63l-11.7-26.44s-5.04-.91-7.58,3.12c7.51,16.42,9.22,20.46,10.65,23.6,5.47.42,8.64-.29,8.64-.29Z"/>
  <path class="cls-1" d="m249.94,214.47l-35.95-77.26c-.04-.07-.31-.55-1.23-.55-1.3-.03-3.23.93-4.2,2.58-.75,1.24-1.32,2.68-.6,4.41.03.04,17.97,37.62,32.92,70.31,3.79.79,9.06.52,9.06.52Z"/>
  <path class="cls-1" d="m153.89,241.02c-.34,1.24-.55,2.88-.1,4.19,0,0,.41,1.71,1.8,2.17.04.03,91.4,14.99,91.4,14.99,7.92,1.69,15.73,1.7,20.65,1.65l2.79-.07c3.51-.15,5.48-.45,5.52-.47,25.9-2.61,58.68-6.79,79.88-11.84,0,0,4.14-.24,4.54-3.52.09-.73.71,3.24.71,3.24,1.44.44,2.28,2.86,2.32,3.34,3.79,13.64,4.19,33.78,4.23,34.74,0,0-.07,6.62-1.07,8.63-1.19-1.71-3.59-1.24-3.59-1.24-34.37,8.79-74.09,2.96-89.65-30.34,0,0-4.83.04-7.29,3.35,10.02,22.19,28.07,31.03,43.34,35.06,16.83,4.44,36.79,4.17,55.44-.63,3.02-1,2.33-2.89,2.33-2.89,2.73,4.32,6.16,1.85,6.16,1.85,1.28-.65,1.99-2,2.1-3.66,1.91-30.58-9.2-72.72-21.31-95.04-1.73-1.42-3.82-1.4-5.39-.7-.81.38-1.79,1.16-1.82,1.4l-.09.72.6,2.54s-2.01-1.99-4.17-1.7c-17.98,3.2-61.65,9.74-89.49,10.1-.38,0-9.22-.09-15.34-.87-12.02-1.51-19.19-4.86-27.8-11.58-7.62-7.96-22.45-23.54-25.18-27.21-1.3-1.5-3.88-.65-5.04.27-1.65,1.28-2.48,3.75-.91,5.96,6.26,6.85,21.81,21.66,21.97,21.81,14.05,15.25,28.58,18.22,41.3,18.93,7.54.52,17.46.6,17.56.59,23.43-1.4,61.86-6.13,84.82-10.74,2.6-.58,2.89-3.32,2.89-3.32.58,1.16.28,2.96.28,2.96,2.18.44,3.35,2.99,3.42,3.21l-.03-.11c2.27,5.71,6.8,20.05,6.85,20.21,0,0,1.72,7.06.99,8.27,0,0-1.29-1.91-3.17-1.62l-.07.02-.08.03-5.17.93c-25.01,4.51-50.88,9.16-81.11,11.33-.17.03-7.91,1.34-22.08-.78,0,0-86.41-14.83-92.7-15.92-.23-.04-.39-.07-.39-.07-.09-.12-.5.71-.81,1.86l-.03-.04Z"/>
  <path class="cls-1" d="m157.82,224.22l.04.03.05.03,15.88,9.74,1.86,1.11v.02l5.11,3.13c3.77,2.51,8.28.5,10.63-2.66,2.09-2.8,2.89-6.81-1.37-10.85,0,0-.75-.97-4.41-3.02-3.41-1.89-15.26-9.06-20.9-12.58,0,0-2.23-1.3-2.95-2.89-.72,1.25-2.35,3.96-5.71,8.68-1.47,2.07-1.99,3.96-1.55,5.59.66,2.45,3.28,3.66,3.31,3.68h0Zm9.64-1.86c.51-1.38,1.54-3.78,5.97-4.07h.08c5.54-.19,7.47,4.09,7.85,5.61,3.69-.45,6.4,1.96,6.51,2.06,4.44,4.36,1.4,8.32,1.38,8.37-.03.04-3.72,5.1-10.39,1.13-.91-.55-1.71-1.38-2.2-2.28v.02c-.56-1.02-.82-1.76-.82-1.76-5.66.87-7.81-3.37-7.84-3.41-1.67-2.62-.54-5.65-.54-5.65h0Z"/>
  <path class="cls-1" d="m196.83,227.35s3.21-5.42-2.75-9.94c-3.31-2.51-11-7.54-16.83-11.3l-1.37,1.32s12.95,8.62,16.26,10.84c3.81,2.55,5.29,5.81,4.69,9.08Z"/>
  <path class="cls-1" d="m165.72,207.66c5.59,3.5,23.81,14.22,23.81,14.22,0,0,4.92,3.12,5.13,7.07,1.49-4.22-1.02-7.34-3.55-9.17l-16.95-11.34c-3.17.87-9.86-2.65-9.62-7-1.69,1.45-2.01,4.23,1.18,6.23h0Z"/>
  <path class="cls-1" d="m187.16,233.65l.9-.14c2.5-3.65-1.39-8.64-6.38-8.48-.25,1.78-1.36,3.13-2.04,3.61.73,3.86,3.18,5.59,7.53,5.02h0Z"/>
  <path class="cls-1" d="m176.75,229.92c1.09,5.48,7,6.79,10.08,4.85-2.45.39-7.52.24-8.32-5.59-3.68,1.35-10.26.31-9.69-6.89-1.96,5.3,3.29,9.06,7.93,7.64h0Z"/>
  <path class="cls-1" d="m357.54,204.79c1.8,3.49,2.5,5.68,3.13,7.03-.24.14,2.69-.48,5.61-1.02,4.07-.76,7.01-1.52,9.61-2.16,0,0,2.24-.5,3.49-1.18.5-.16.79-.4,1.09-.65,1.27-1.04,1.02-2.63.94-3.14-.27-1.68-1.14-2.89-3.21-3.24,0,0-.59.07-1.4.19-.83.13-1.91.32-2.82.58-5.06,1.29-10.85,2.55-16.43,3.59h0Z"/>
  <path class="cls-1" d="m370.16,238.71c3.02-.29,16.12-3.6,16.12-3.6,2.5-.04,2.6,1.63,2.6,1.63-5.04,1.88-17.95,4.57-17.95,4.57.58,2.44,1.82,7.19,1.82,7.19,15.26-2.73,18.57-4.41,18.57-4.41,4.47-1.86,2.73-7.1,2.73-7.1-1.72-6.04-9.64-3.31-9.64-3.31-3.75.87-14.98,3.02-14.98,3.02l.72,2.01h0Z"/>
  <path class="cls-1" d="m395.08,234.45c2.86,4.08,1.74,10.31-2.56,11.7,0,0,4.22,21.31,5.38,33,.14,2.17.04,3.95.04,3.95,4.61.96,7.3,4.17,7.3,5.9,2.24-13.43-5.62-52.31-15.74-80.67-2.79-10.46-8.83-9.16-8.83-9.16,3.31,1.01,5.09,6.58.18,10.17,0,0,3.8,9.36,6.48,21.45.29,0,.5.1.78.12,3.32.18,5.6,1.59,6.97,3.54Z"/>
  <path class="cls-1" d="m282.9,172.62s-.84,4.03-.93,9.64c0,0,13.37,17.77,32.21,23.96h.02l-3.89-9.5s-.07-.03-.18-.08c-1.68-.76-15.07-7.26-27.24-24.02h0Z"/>
  <path class="cls-1" d="m325.3,201.2l2.44,5.61s11.67-1.28,16.84-2.59c0,0,.14-2.01,2.3-2.3,0,0-9.06,1-21.59-.72Z"/>
  <path class="cls-1" d="m152.96,223.08l-12.1,18.46c-.62.87-.71,1.75-.3,2.62.68,1.44,2.59,2.61,4.44,2.73.97.07,2.29-.13,3.14-1.42,0,0,9.1-13.52,11.64-17.29,0,0-6.07-3.65-6.83-5.11h0Z"/>
  <path class="cls-1" d="m286.96,120.63l1.4-.28c2.99-.47,3.79-2.28,3.55-3.86-.25-1.75-2.28-3.44-4.72-3.09-22.87,3.69-49.33,10.51-62.09,15.85-4.4,1.83-8.09,3.56-10.58,5.26.8.45,1.32.39,2.14,2.38.47,1.13,2.2,4.68,2.2,4.68,3.06-2.32,6.26-4.12,11.71-6.09,17.34-7.04,38.09-11.19,56.39-14.85Z"/>
  <path class="cls-1" d="m167.51,200.68l-.06.07c-1.08,1.28.71,3.14,1.09,3.5,1.64,1.58,4.26,2.59,5.5,1.6l1.27-2.01,8-12.67s-3.69-3.32-5.99-6.5c-6.05,9.8-8.53,13.89-9.38,15.3-.22.37-.36.6-.39.65l-.04.07h0Z"/>
  <path class="cls-1" d="m310.08,118.94c4.91.06,11.39,1.01,13.36,1.6,2.97,0,3.5-1.97,3.58-2.85.14-1.61-.75-3.55-2.24-3.76l-.11-.03-.1-.03c-2.11-.71-12.34-1.89-16.34-2.28,0,0,1.86,4.31,1.86,7.34h0Z"/>
  <path class="cls-1" d="m322.51,122.74c-1.19-.36-2.18-.55-3.08-.67-1.6-.22-2.68-.19-2.68-.19,6.01,8.22,21.7,3.35,13.24-10.08l-14.83-27.21-6.04,2.6,10.37,23.32c.86.14,2.87.14,6.33,1.14,3.87,1.13,4.85,6.59,2.2,9.42-1.14,1.23-2.9,2.02-5.51,1.66v.02Z"/>
  <path class="cls-1" d="m317.04,110.37l-9.79-22.46-2.73,1.16,7.33,20.59s3.75.44,5.19.72h0Z"/>
  <path class="cls-1" d="m176.55,226.29c-.68.03-1.32-.08-1.89-.28.04.79.06,1.49.24,2.18,3.49.54,5.19-1.66,5.39-3.28l-.28-.03c.13-2.23-1.66-4.41-4.14-5.19-.76,1.41-1.17,3.12-1.22,5.01.67.29,1.28.52,1.97.58,0,0-.09.69-.08,1h0Z"/>
  <path class="cls-1" d="m172.4,227.45c.23.11.37.3.6.39-.19-.71-.24-1.51-.25-2.57-.45-.3-.79-.42-1.01-.81v-1.2c.34.35.61.39.96.66.09-1.69.36-3.32,1.08-4.42-1.66-.09-2.55.34-3.68,1.25,0,0-1.15,4.75,2.31,6.69v.02Z"/>
  <path class="cls-1" d="m298.35,86.67h-1.39c-.4-.57-.81-1.08-1.23-1.5-.14-.14-.28-.29-.42-.42-.14-.14-.28-.26-.42-.37-.28-.24-.56-.45-.84-.62-.57-.37-1.17-.64-1.77-.82-.76-.25-1.55-.36-2.39-.37-.03,0-.39,0-.88.09-.11.03-.22.05-.33.06-.22.05-.45.11-.7.2h-.02c-.26.09-.55.22-.82.37l-1.6.73c-4.1-6.91-8.79-13.5-14.07-19.63-5.28-6.13-11.15-11.85-17.53-17.07-30.28-24.68-72.66-37.88-123.56-30.43,11.14-2.7,22.56-4.24,34.04-4.58,41.41-1.21,83.42,13.47,114.32,47.08,4.46,4.85,8.68,10.05,12.64,15.68.55.92,1.06,1.71,1.6,2.51.44.66.9,1.35,1.37,2.08.7,1.07,1.46,2.28,2.31,3.84.51.92,1.08,1.96,1.68,3.17h0Z"/>
  <path class="cls-2" d="m285.55,84.02h-1.13v.56c-1.23.62-2.67,1.35-3.97,2h-12.95c-15.68-26.55-46.44-53.73-87.23-64.19-18.54-4.75-39.15-6.04-61.35-2.27l11.47-3.23c50.9-7.44,93.28,5.76,123.56,30.43,6.38,5.22,12.26,10.93,17.53,17.07,5.27,6.14,9.97,12.72,14.07,19.63Z"/>
  <path class="cls-2" d="m272.56,98.04c-.68-1.88-1-2.59-1.86-5.62-1.18-4.09.44-4.17,2.16-4.31,1.11-.09,2.73.12,2.84.14.81-1.42,1.78-2.09,2.07-2.27l-.29.12c-6.6-.24-6.48-.31-6.49-.31-2.33-.02-4.22.84-5.21,2.38-2.28,3.55.61,9.47.82,9.99,0,0,4.19,12.06,5.49,15.82.84-.18,1.67-.34,2.51-.49l-6.21-17.16c-2.44-5.8.29-7.96.29-7.96-.72,2.17-.13,4.65.28,5.96.8,2.54,3.51,9.96,5.75,15.68.45,1.13.83,2.2,1.19,3.23.68-.13,1.35-.27,2.02-.4-1.92-5.76-4.54-12.53-5.36-14.78h0Z"/>
  <path class="cls-2" d="m288.83,81.42s-2.04.5-3.75,1.01l-7.2,3.45s-.07.05-.13.08c-.28.18-1.26.85-2.07,2.27-.24.44-.47.93-.65,1.5-.52,1.66-.66,3.93.26,6.95.55,1.89,1.12,3.64,1.66,5.28.6,1.79,1.17,3.39,1.69,4.8,1.02,2.73,1.82,4.68,2.18,5.52.13.3.22.51.22.51,0,0,6.33-1.59,8.78-.58,0,0,5.17,1.88,2.87,6.62,0,0-.44,2.44-8.34,3.45,0,0,.11.51.34,1.18.51,1.43,1.7,3.66,4.25,3.86,3.75.29,9.36.29,11.52,0,1.53-.21,7.73-.65,9.03-6.26.54-2.3.26-5.47-1.55-9.87l-.7-1.64-8.52-19.8s-.37-1.55-1.34-3.32c-1.35-2.44-3.91-5.28-8.59-5.03h.03Zm-11.99,8.11l2.2-1.06c-1.29,4.32.82,9.12.82,9.12l4.93,13.77-2.59.49s-3.21-8.85-5.23-14.98c-1.54-4.65-.13-7.34-.13-7.34Zm9.58,33.78c13.82-1.16,7.53-14.2.34-12.33-2.75-6.76-4.9-13.53-4.9-13.53,0,0-2.88-7.2-.72-9.93l3.02-1.59s-.1,0-.13.56c-.06.91.08,2.58,1.14,5.06,1.73,4.02,8.86,20.49,9.79,22.88,4.61,11.94-7.29,14.15-8.54,8.88Zm9.02,2.34s2.31-1.62,2.45-3.5c0,0,5.75,0,8.82.06,0,0-1.68,4.12-11.27,3.44Zm1.55-34.88c1.14,2.66,6.74,15.44,8.37,19.57,2.17,5.47,2.35,7.91,2.35,7.91h-9.58c0-1-1.3-4.75-1.3-4.75l-5.62-13.11-.1-.29-3.39-8.2-.87-2.16c-.28-.65-.39-1.2-.39-1.2-1.07-5.02,3.27-5.43,5.04-4.7,2.45,1.01,4.18,3.89,5.48,6.91Z"/>
</svg>