<?xml version="1.0" encoding="UTF-8"?>
<svg id="Layer" xmlns="http://www.w3.org/2000/svg" viewBox="0 0 420 440.91">
  <defs>
    <style>
      .cls-1, .cls-2, .cls-3 {
        stroke-width: 0px;
      }

      .cls-2 {
        fill: #e31837;
      }

      .cls-3 {
        fill: #fffffe;
      }
    </style>
  </defs>
  <path class="cls-3" d="m16.12,220.4c-2.54-1.16-5.87-2.01-8.82-6.65-3.31-5.22-2.14-9.04-1.08-16.26,1.13-7.65,1-10.75-1.15-19.26-1.76-6.99-2.76-9.39-3.85-17.5-.67-5-1.17-9.21-1.21-12.04-.07-4.2.25-8.14.71-13.99.25-3.25,1.05-7.86,3.85-16.31.92-2.77,3.42-9.31,4.95-12.42,2.56-5.19,5.3-7.76,4.03-16.92-.49-3.52-1.83-5.41-2.38-10.13-.62-5.36-.27-7.87.74-11.18,1-3.3,2.2-5.36,4.25-7.89,1.19-1.47,3.44-4.32,8.6-5.24,0,0,3.39-.97,6.17-.21,6.98.61,5.95,6.78,16.37.31,4.99-2.79,13.55-5.02,22.19,1.04,3.69,2.17,6.77,9.54,2.81-2.61-1.85-7.22-3.74-10.82-6.26-22.19-2.95-10.75-.56-21.72,8.2-27.65,6.32-5.55,19.14-3.08,34.02-.29,13.05,2.45,16.14-1.66,25.03-1.28,5,.22,9.24.23,13.35,1.2,5.67,1.34,8.87,3,12.01,4.71,8.9,4.86,8.39.06,20.83,1.7,3.98.52,5.54-.06,9.57,1.1,4.66,1.34,7.55,2.88,11.67,5.28,11.53,6.72,11.54,8.23,30.75,7.39,3.55-.16,9.89,2.59,13.32,4.83,3.81,2.49,13.07,7.88,21.26,8.41,10.42.67,19.35-.66,32.2,8.48,9.38,8.35,21.05,7.96,31.46,13.61,3.35,1.81,11.34,7.93,15.27,14.25.84,1.35,4.27,3.58,12.82,5,7.69,1.27,15.76,10.41,20.05,16.79,5.53,5.1,2.29,1.64,9.87,6.93,3.66,2.56,5.5,3.84,9.08,6.52,4.67,3.49,1.69.95,7.26,5.35,1.02.8,2.38,2.33,6.1,5.68,4.84,3.72,6.95,7.03,8.58,10.28,2.74,5.46.55,9.31-1.99,13.84-1.87,3.33-4.87,8.69-9.65,13.2-5.3,5.01-4.88,5.15-9.72,8.05-11,6.57-19.22,4.35-23.87,12.19-6.88,11.59-12.41,15.33-17.6,17.76-10.46,4.9-17.48,4.73-24.11,9.94-5.41,4.25-13.96,9.71-19.74,12.29-11.13,4.96-12.5,2.04-20.11,6.8-2.58,1.62-.94.68-7.45,6.04-3.74,3.09-9.71,5.7-12.68,6.11-3.88.54-8.17.97-11.79,1.94-9.14,2.45-10.13,5.66-20.2,7.59-11.75,2.26-16.61,1.14-27.82,6.49-2.93,1.4-6.12,2.79-10.4,5.12-3.52,1.92-14.36,4.54-22.73,4.96-3.65.19-7.07-2.22-15.89,1.99-11.39,5.43-11.55,4.88-20.58,6.71-3.28.67-6.98.3-10.41.29-6.56-.02-13.4-2.29-20.42-2.07-7.19.23-5.52-.22-11.51.46l-4.24.69-6.25,1.39-2.27.6c-5.73,1.26-9.16.74-12.52.08-5.64-1.12-11.88-4.49-14.15-7.58-3.73-4.45-4.24-8.74-3.8-14.58,2.1-10.18,6.42-24.67,8.42-29.84,0,0,3.31-7.52-4.69-3.3-8.1,2.99-14.43-2.24-19.35-.57-4.85,2.44-7.85,4.67-13.91,5.55-6.29.92-11.18-1.02-11.18-1.02"/>
  <path class="cls-1" d="m106.4,260.22c7.27-.82,9.01-.32,15.52.53,6.05.79,11.85,1.96,17.85,1.28,3.01-.34,5.97-.92,8.92-1.86,8.41-2.69,12.31-6.35,22.45-7.73,8.39-1.14,8.4.26,15.76-.09,7.71-.37,12-3.65,15.24-5.42,3.94-2.14,4.97-2.32,7.6-3.73,9.53-5.1,20.72-4.47,31.42-7.09,7.53-1.84,10.47-5.39,18.88-7.64,3.34-.89,7-.83,10.58-1.33,2.74-.38,7.57-2.82,10.28-5.31,4.64-4.3,4.13-4.47,7.74-6.51,6.02-3.41,12.83-3.3,18.88-6.11,5.63-2.61,11.42-4.84,15.87-9.33,6.49-6.56,16.74-8.4,25.17-11.46,4.96-1.81,11.48-5,16.95-14.46,5.37-9.27,10.11-10.6,19.65-13.47,6.35-1.92,9.09-3.27,13.97-7.88,4.4-4.15,5.98-6.82,7.96-9.73,2.26-3.34,6.71-8.82,1.99-13.01-2.07-1.84-4.17-5.27-8.63-8.7-3.42-3.09-6.25-4.81-7.19-5.55-5.13-4.05-.81-.85-5.74-3.98-3.48-2.2-4.47-3.98-8.05-6-6.42-3.63-7.1-4.7-12.23-10.87-4.46-8.23-11.45-9.37-18.45-10.93-6.77-1.51-11.57-6.92-12.71-8.78-3.6-5.83-9.42-8.72-12.5-10.39-9.59-5.2-20.64-4.37-29.28-12.06-13.02-9.26-16.45-7.54-30.13-7.96-7.55-.23-17.45-5.06-20.67-7.74-2.71-2.26-5.84-3.74-8.63-4.6-9.65-2.98-16.25,2.14-29.74-4.44-3.94-1.92-7.5-4.56-11.37-6.79-2.41-1.39-4.25-2.06-8.03-2.87-7.14-1.54-13.35-.56-22,.18-4.06.35-6.46-1.81-10.19-3.82-3.42-1.85-7.08-3.22-11.61-4.06-5.86-1.09-12.51-.32-19.33,1.05-13.49,2.71-25.86-4.12-38.87-2.91-2.21.21-6.57,2.98-8.04,6.08-1.96,4.16-1.96,6.56-1.67,10.67.4,5.58,1.05,5.98,2.15,9.61,2.36,7.88,3.56,12.17,5.44,17.48,2.19,6.17,2.12,13.69-3.08,16.09-2.5,1.16-6.67,1.19-9.02-.61-3.66-2.79-5.66-6.72-9.79-7.53-5.51-1.09-12.11,4.57-17.96,6.11-5.87,1.55-6.62-1.65-10.69-3.54-2.71-1.26-5.32.57-6.84,1.42-2.74,1.53-3.41,4.69-4.05,8.06-.51,2.7-.73,5.21-.06,8.14.97,4.27,2.39,6.83,2.5,9.81.26,7.48-.94,12.96-4.02,16.91-1.96,2.51-4.53,9.44-5.34,12-2.71,8.57-2.38,7.07-3.69,15.03-.67,4.06-.56,8.62-.92,12.42-.07.7.45,9.34.87,11.92,1.03,6.39,2.23,10.5,3.58,15.89,1.94,7.78,2.77,12.62,2.57,18.64-.19,6.16-4.08,11.96-.39,16.31,2.29,2.7,8.27,5.14,13.13,3,4.92-2.18,8.52-4.75,12.39-5.28,7.13-.98,11.71,2.07,14.81,1.71,2.73-.32,7.53-3.06,9.79-3.25,1.8-.15,5.7-.33,7.07.7,2.17,1.63,3.51,3.43,3.15,9.06,0,.08-1.32,6-1.33,6.05-2.25,7.4-4.67,14.27-5.83,19.36-1.21,5.3-7.03,16.79,4.78,21.5,4.97,1.98,10.23,1.6,16.74-.08,3.3-.85,4.67-.99,7.75-1.51,0-.23,4.63-.15,4.63-.38l4.11-.17"/>
  <path class="cls-3" d="m329.86,82c3.2,2.09,6.87,7.48,9.95,11.93,3.77,3.43,4.11,5.42,13.44,7.09-1.8-.33,8.4,3.2,9.94,4.06,4.01,2.23,5.04,3.6,8.6,7.66,3.68,4.2,5.14,5.32,12.57,10.29,2.88,1.93,3.4,2.63,8.89,6.53,2.26,1.61,5.13,4.22,6.15,6.36,2.6,5.44-1.03,7.38-6.67,10.37-9.28,4.93-16.96,3.52-25.32,12.06-6.97,7.12-14.59,15.8-19.75,17.37-2.25.68-8.2,2.55-12.26,5.08-4.03,2.51-5.16,2.43-8.77,5.65-4.29,3.82-6.68,6.57-14.57,9.29-4.86,1.68-10.6,2.46-15.69,3.98-3.77,1.14-6.78,2.7-10.13,4.61-5.12,2.9-11.28,9.7-19.74,11.27-16.76,3.12-12.31,2.78-24.26,8.2-2.97,1.35-9.09,2.81-13.39,2.81-7.19,0-12.79,1.19-19.12,4.56-4.61,2.46-9.3,6.97-18.34,8.17-11.17,1.49-11.79.08-25.66,3.05-4.21.91-9.52,3.98-13.53,5.43-4.51,1.63-15.12,1.84-22.62,1.15-7.33-.67-12.71-.68-23.29,1.24-8.2,1.49-12.61,1.65-20.57,1.45-1.79-.05-3.14-1.31-4.3-3.2-1.38-2.24-1.55-4.22-1.24-6.69.64-5.2.53-5.46,1.75-10.28.38-1.46,2.21-11.01,2.54-12.48,2.05-9.19,2.69-18.45-4.54-22.63-2.26-1.3-7.88-2.14-11.94-1.42-12.24,2.17-9.68,4.23-17.5,1.46-1.32-.46-4.64-1.07-6.58-.99-3.92.16-9.5,2.9-14.43,3.68-3.47.55-4.37-3.32-4.28-6.08.14-4.28.59-8.4.4-13.19-.51-12.54-2.69-13.21-4.2-20.77-1.37-6.86-.97-18.5-1.3-18.17.34-9.6,4.69-19.94,7.16-23.52,2.59-3.75,3.15-5.28,5.11-9.86,2.08-4.85,1.8-9.13.75-14.58-.03-.13-1.29-4.16-.83-4.16-.36-2.57.26-5.38,1.08-7.12,1.32-2.82,2.35-4.19,4.46-5.1,1.3-.57,2.68-1.25,4.07-1.35,4.55-.32,5.47,2.6,13.97-.97,4.4-1.85,8.78.63,10.94,1.42,5.9,2.15,4.87,2.15,8.63,2.27,3.57.11,7.01-.79,10.32-2.8,1.91-1.16,3.35-1.8,4.48-3.45.97-1.42,2.25-5.33,2.6-7.35.42-2.46,1.11-4.01.42-9.83-1.88-7.2-2.57-8.74-3.86-13.3-1.05-3.71-2.31-7.27-2.84-10.68,0-.06-.15-4.14-.15-4.14-.46-3.41,1.85-5.85,4.8-5.87,10.54-.08,20.43,2.92,31.56,2.85,9.19-.06,13.1-1.94,23.92,2,3.77,1.37,5.99,4.46,11.89,6.12,11.22,3.16,20.13-4.41,29.73.11,7.98,3.76,6.3,1.49,13.8,6.28,3.5,2.23,10,6.01,19.33,7.38,6.46.95,16.7-1.71,27.26,5.95,5.94,4.31,11.36,6.05,18.95,6.84,8.94.92,9.81-.34,16.86,4.77,5.19,3.76,3.76,2.92,8.99,6.82,2.37,1.76,4.23,3.56,7.66,5.1,1.96.88,9.48,1.93,9.25,1.92,6.68.34,8.56-.21,13.87,1.68-.11-.12,6.85,4.45,5.64,3.66"/>
  <path class="cls-1" d="m98.97,145.57v14.2h53.33l5.31-4.98v-17.04h-7.88l.03-4.32,29.39-16.87,2.47,2.54c-6.58,4.63-11.68,8.95-15.62,15.81-5.77,9.62-7.88,22.97-4.45,33.6,2.23,7.2,4.97,11.49,9.76,16.49,4.62,4.76,8.56,7.51,16.1,11.11,6.16,3.09,20.72,7.51,32.02,8.71,10.96.86,24.66.69,33.74-.52,9.93-1.03,20.21-4.63,26.37-7.17,4.96-2.4,10.44-4.63,14.65-7.92,10.62-7.64,21.82-19.17,21.99-33.57h-19.8c-6.24,22.11-66.17,32.23-90.14,15.12-17.47-13.75-12.5-25.92-5.14-31.58l2.23,2.4-3.74,3.94.27,14.23h50.48l6.51-6.17v-15.43h-3.87l-17.47-18.86c33.56-7.2,50.18,7.54,59.97,23.65h13.15l6.64-6.51v-37.37l-14-.03-8.39,5.21c-29.8-13.2-51.89-11.69-75.01-4.01l-3.77-3.84,21.34-12.76,12.88-.07,6.3-6,.03-12.72h-51.51l-5.48,5.56v8.67l-48.29,27.64v-21.29l7.8-7.89v-12.82h-50.62l-6.91,8.09v10.15h8.29v54.79h-2.54s-6.78,7.68-6.44,7.82"/>
  <path class="cls-2" d="m107.94,67.88h46.23v8.3l-7.88.07v35.93l63.02-36h-5.55v-8.3l47.68-.07v8.3l-10.62.14-32.28,19.06,43.44,46.97,1.51.03v9.57h-47.95v-9.67l6.68.07-29.76-31.74-35.83,20.57v11.17h7.53v9.53h-46.23v-9.53h7.88v-66.1h-7.88v-8.3h0Zm204.6,90.86c-1.85,9.77-6.3,13.71-11.82,20.05-7.37,6.86-8.87,7.72-16.23,11.66-12.67,6.34-25.86,9.08-40.93,9.43-21.07.86-39.73-3.6-51.2-8.4-7.02-2.57-17.47-9.09-23.97-20.23-5.31-10.8-2.71-22.29-.82-27.94,2.36-6.86,6.13-13.89,17.12-21.39l13.84,14.95c-7.02,6.1-12.16,17.24-1.16,29.93,13.15,16.45,43.12,21.08,74.29,11.82,16.1-4.79,23.11-11.48,28.22-19.88h12.67,0Zm-92.27-55.88c9.41-2.92,35.96-12,73.29,4.46l7.88-5.14h11.02l-.13,33.19-12.26.14c-12.5-18.82-40.93-25.44-67.47-19.1l-12.33-13.54h0Z"/>
</svg>