<?xml version="1.0" encoding="UTF-8"?>
<svg id="Layer" xmlns="http://www.w3.org/2000/svg" viewBox="0 0 420 397.3">
  <defs>
    <style>
      .cls-1 {
        fill: #ffc20e;
      }

      .cls-1, .cls-2, .cls-3 {
        fill-rule: evenodd;
        stroke-width: 0px;
      }

      .cls-2 {
        fill: #fff;
      }

      .cls-3 {
        fill: #0080c6;
      }
    </style>
  </defs>
  <path class="cls-2" d="m419.14,185.2c-23.29-31.36-63.93-69.67-112.36-91.18l9.89,22.79c-41.18-20.74-86.95-35.63-138.84-35.39l11.06,11.97C93.05,97.14,36.82,144.67,0,185.2c.86-54.88,40.18-104.44,91.99-134.69l-10.66-9.9C119.88,13.92,173.95,6.44,219.59,11.71l-6.49-11.71c151.19,11.23,215.22,124.07,206.04,185.2"/>
  <path class="cls-3" d="m177.13,88.75l-11.62-12.58c44.02-1.46,88.52,5.16,140.29,29.5l-9.54-21.98c38.98,15.1,82.16,43.29,118.37,87.01-3.19-66.2-70.04-151.98-191.64-164.24l6.76,12.2c-49.15-8.35-104.37.34-139.51,22.75l10.99,10.2C48.34,79.97,13.59,125.1,6.13,170.7c43.66-45.6,100.42-77.1,171-81.95"/>
  <path class="cls-1" d="m395.66,135.16c-20.6-55.46-82.58-103.28-152.15-114.73l8.17,14.56c-41.9-12.96-102.79-12.18-142.82,8.71l11.48,10.66c-36.69,15.72-75.4,49.39-90.72,80.32,25.13-22.67,79.8-48.9,124.64-54.48l-11.14-12.07c43.1-8.54,100.55-.09,141.5,16.54l-7.94-18.31c30.16,6.18,86.22,33.13,118.98,68.78"/>
</svg>