<?xml version="1.0" encoding="UTF-8"?>
<svg id="Layer" xmlns="http://www.w3.org/2000/svg" xmlns:xlink="http://www.w3.org/1999/xlink" viewBox="0 0 420 455.45">
  <defs>
    <style>
      .cls-1 {
        fill: url(#linear-gradient);
      }

      .cls-1, .cls-2, .cls-3, .cls-4, .cls-5, .cls-6, .cls-7, .cls-8 {
        stroke-width: 0px;
      }

      .cls-2 {
        fill: #ff8200;
      }

      .cls-3 {
        fill: #ffd100;
      }

      .cls-4 {
        fill: #ffa300;
      }

      .cls-5 {
        fill: #003594;
      }

      .cls-6 {
        fill: #fff;
      }

      .cls-7 {
        fill: url(#linear-gradient-2);
      }

      .cls-8 {
        fill: #d7d2cb;
      }
    </style>
    <linearGradient id="linear-gradient" x1="-745.96" y1="1646.23" x2="-745.96" y2="1645.32" gradientTransform="translate(206746.34 376382.33) scale(276.77 -228.63)" gradientUnits="userSpaceOnUse">
      <stop offset=".22" stop-color="#ffd100"/>
      <stop offset=".3" stop-color="#ffd724"/>
      <stop offset=".47" stop-color="#ffe87f"/>
      <stop offset=".71" stop-color="#fff"/>
    </linearGradient>
    <linearGradient id="linear-gradient-2" x1="-746.29" y1="1646.55" x2="-745.38" y2="1646.55" gradientTransform="translate(198677.07 437883.18) scale(266.1 -265.85)" gradientUnits="userSpaceOnUse">
      <stop offset="0" stop-color="#ffa300"/>
      <stop offset=".13" stop-color="#ffa800"/>
      <stop offset=".29" stop-color="#ffb600"/>
      <stop offset=".45" stop-color="#ffcd00"/>
      <stop offset=".48" stop-color="#ffd100"/>
    </linearGradient>
  </defs>
  <path class="cls-5" d="m368.79,51.21C311.28-6.31,221.7-16.56,152.69,26.49h0c-19.02,12.62-35.5,28.71-48.57,47.44-.05.06-.09.11-.14.16h-36.03L0,227.84h88.16c12.75,23.76,32.07,43.36,55.65,56.45,44.98,24.75,99.95,22.69,142.94-5.38,4.98-3.26,7.24-9.38,5.57-15.09-1.66-5.71-6.86-9.66-12.81-9.73-1.34,0-2.68.2-3.97.59-8.79,2.64-17.91,3.97-27.09,3.97-26.4.06-51.57-11.14-69.19-30.8h82.33l14.14-19.7h54.88s-1.67,4.25-2.59,6.33l-5.89,13.38h89.81l1.91-7.03c16.5-60.52-.7-125.25-45.06-169.6Zm35.86,167.1h-67.92c2.81-6.38,5.14-12.97,6.95-19.7h-72.93l-14.06,19.7h-65.37l97.74-136.92h-.01c-12.88-5.27-26.68-7.94-40.59-7.86-1.78,0-3.54.05-5.29.14-53.02,2.67-95.31,45.24-95.31,97.18,0,3.37.18,6.75.54,10.1h57.74l-17.19,24.19c-5.42,7.3-12.62,13.17-23.58,13.17h-4.71c17.24,29.73,50.14,49.85,87.81,49.85,10.11,0,20.16-1.46,29.84-4.37.39-.12.8-.18,1.22-.19,1.73.07,3.22,1.25,3.68,2.92.46,1.67-.21,3.45-1.66,4.4-31.24,20.4-69.77,26.31-105.7,16.24-35.92-10.08-65.75-35.18-81.82-68.85H14.63l59.53-134.69h34.4c23.83-30.97,60.39-49.5,99.45-50.41.94-.02,1.88-.03,2.82-.03,55.05,0,101.22,32.94,119.92,81.4l-33.85,47.42h51.54c-.21-45.98-23.25-88.85-61.48-114.39-38.23-25.55-86.65-30.43-129.21-13.03C215.45-1.4,289.3,1.64,343.85,42.24c54.55,40.6,78.68,110.46,60.79,176.07Zm-191.57-46.9h-55.69c0-.19-.01-.38-.01-.57,0-46.72,37.89-85.23,86.27-87.67,1.61-.08,3.23-.12,4.81-.12,8.56,0,17.09,1.1,25.36,3.29l-60.73,85.07Zm120.75-44.62c2.43,8.37,3.99,16.97,4.67,25.66h-22.98l18.31-25.66Z"/>
  <path class="cls-1" d="m157.74,34.57c52.19-21.33,112.1-8.86,151.44,31.52,39.34,40.39,50.24,100.6,27.54,152.22h67.92c17.9-65.61-6.22-135.49-60.78-176.09C289.31,1.62,215.45-1.42,157.74,34.57"/>
  <path class="cls-8" d="m330.73,114.59l-13.07,18.32c-12.53-12.89-29.75-20.15-47.73-20.13-1.12,0-2.24.03-3.34.08l22.47-31.48c16.76,6.89,31.21,18.41,41.67,33.21Zm12.96,84.01c3.16-11.75,4.76-23.86,4.75-36.03v-.59h-14.13c3.26,12.01,3.1,24.69-.47,36.62h9.85Z"/>
  <path class="cls-3" d="m281.53,270.93c-40.04,26.13-91.23,28.06-133.12,5.01h0c-10.34-13.03-17.97-28-22.45-44.01,14.47-.67,35.42.58,50.9,7.23,19.14,18.68,44.85,29.1,71.59,29.01,10.11,0,20.16-1.46,29.84-4.37.39-.12.8-.18,1.22-.19,1.73.07,3.22,1.25,3.68,2.93s-.21,3.45-1.66,4.4Zm-133.14-89.98c-.36-3.36-.54-6.73-.54-10.1,0-51.95,42.29-94.51,95.32-97.18-61.47,2.5-111.82,48.32-120.41,107.29h25.63Z"/>
  <path class="cls-4" d="m160.64,218.31h-37.65c.73,4.59,1.72,9.14,2.97,13.62h0c14.47-.67,35.42.58,50.9,7.23-6.32-6.19-11.78-13.2-16.22-20.85Z"/>
  <path class="cls-2" d="m94.01,218.31c4.69,9.81,10.61,19,17.6,27.33,3.65-5.62,8.56-10.32,14.35-13.72-1.25-4.48-2.24-9.03-2.97-13.62h-28.97Z"/>
  <path class="cls-7" d="m289.05,81.38c-12.88-5.26-26.68-7.93-40.59-7.86-1.78,0-3.54.05-5.29.14-61.47,2.5-111.82,48.32-120.41,107.29h-35l43.12-97.33h-22.31c23.83-30.97,60.39-49.5,99.45-50.41.94-.02,1.88-.03,2.82-.03,55.05,0,101.23,32.94,119.92,81.4v.02c-10.48-14.8-24.93-26.32-41.7-33.22ZM125.96,231.92h0c-5.78,3.4-10.69,8.09-14.35,13.72,10.29,12.28,22.77,22.55,36.8,30.3-10.34-13.03-17.97-28-22.45-44.01h0Z"/>
  <path class="cls-6" d="m336.63,179.48c0,6.48-.94,12.92-2.79,19.13h-63.08l-14.06,19.7h-65.37l75.27-105.44c1.11-.05,2.22-.08,3.34-.08,17.98-.02,35.19,7.24,47.73,20.13l-20.76,29.08h37.4c1.55,5.7,2.33,11.58,2.33,17.49h0ZM74.16,83.62L14.63,218.31h150.72c10.96,0,18.16-5.87,23.58-13.17l17.19-24.19h-118.37l43.12-97.33h-56.7Z"/>
</svg>