<?xml version="1.0" encoding="UTF-8"?>
<svg id="Layer" xmlns="http://www.w3.org/2000/svg" viewBox="0 0 420 470.65">
  <defs>
    <style>
      .cls-1 {
        fill: #008e97;
      }

      .cls-1, .cls-2, .cls-3, .cls-4 {
        fill-rule: evenodd;
        stroke-width: 0px;
      }

      .cls-2 {
        fill: #fc4c02;
      }

      .cls-3 {
        fill: #fff;
      }

      .cls-4 {
        fill: #005778;
      }
    </style>
  </defs>
  <path class="cls-3" d="m387.37,159.49c-13.4,1.82-36.82,11.52-32.37,16.72,4.45,5.2,17.42,12.35,19.26,13.25-6.18,0-26.5,2.1-28.77,7.86-2.28,5.76,29.41,25.07,41.01,29.61-14.43-4.06-48.84-10.84-51.13-6.2-2.29,4.64,3.66,18.99,9.1,23.25-3.98-1.19-24.77-7.1-28.1.58-3.67,8.46,16.65,39.48,18.96,45.28-9.37-9.29-35.02-30.13-38.66-27.74-3.64,2.38-2.74,14-1.79,19.9-3.52-4.29-9.57-11.17-14.8-9.11-5.23,2.06-4.58,22-4.92,30.49-4.31-9.99-11.35-30.11-17.86-29.38-6.51.73-13.82,14.42-15.21,19.65-.99-5.24-5.26-16.75-11.7-16.75s-21.44,30.48-25.97,40.38c-.02-7.66,1.82-45.05-2.25-46.9-4.06-1.85-17.78,6.67-20.72,10.55,1.09-4.91,2.02-21.51-1.64-23.52-3.66-2.01-14.09-2.64-32.94,14.79,3.13-6.69,8.28-13.96,9.53-21.02,7.81-.4,15.54-1.29,23.33-2.81,17.01,12.31,37.92,19.58,60.53,19.58,57.09,0,103.37-46.28,103.37-103.37,0-4.47-.29-8.88-.84-13.2,3.83-3.61,7.5-7.1,10.92-10.35-.78,1.87-1.22,4.13-1.14,6.91.22,8.72,22.8,10.58,34.8,11.55Zm-257.09,37.15c-3.26-1.76-18.4-2.46-18.4-2.46,0,0,17.05-11.46,16.66-19.75-.4-8.28-27.59-12.53-38.35-14.91,9.49-2,40.21-8.94,41.53-15.12,1.32-6.18-9.6-10.56-14.19-12.72,5.15.07,18.19,2.25,19.95-4.12,2.01-7.3-30.11-26.32-37.43-28.95,1.64.39,32.23,7.52,43.41,5.1,8.33-1.81-1.38-13.01-2.98-14.33,2.46,1.2,16.48,4.09,20.5-2.57,4.02-6.66-9.61-33.17-17.23-44.41,6.77,6.75,37.7,28.76,42.31,25.01,4.62-3.74,1.09-15.84-1.38-19.83,4.98,4.66,9.89,10.9,16.22,10.77,3.17-.07,7.16-10.55,7.82-34.25,4.29,13.28,14.54,31.33,22.06,30.23,7.53-1.09,10.1-12.27,11.14-17.03.87,5.11,4.82,18.25,9.84,18.73,6.16.96,17.96-26.47,22.25-38.86.65,6.12-3.84,37.56,2.8,40.17,6.64,2.62,17.62-10.62,23.85-18.04-3.78,7.18-11.17,24.53-6.77,28.68,4.4,4.15,19.61-.2,25.54-5.09-1.66,3.64-2.02,6.54-1.56,9.28-6.76,1.32-13.74,3.27-20.94,5.95-16.28-10.68-35.74-16.91-56.67-16.91-57.08,0-103.36,46.28-103.36,103.36,0,13.74,2.68,26.85,7.55,38.84-5.88,4.36-11.52,7.81-17.29,10.48,4.22-5.03,7.89-14.69,3.12-17.26Zm289.7-115.39c-.07-1.57-.37-2.5-.37-2.5h0c-1.91-6.68-8.72-10.79-17.99-10.79-.99,0-1.99.05-2.98.15-7.1.7-19.73,4.98-23.48,6.29-11.77-2.98-22.81-4.42-33.7-4.42-5.63,0-11.23.4-16.82,1.18h0s-2.3.31-2.3.31c0,0-.9-2.92,1.45-9.73,1.22-3.53,2.88-6.78,2.88-6.78,0,0-25.64,13.33-28.84,9.07-3.2-4.25,11.14-38.07,11.14-38.07,0,0-24.72,27.46-29.57,26.25-1.9-.48-2.09-10.42-2.18-21.13-.13-14.5.38-31.08.38-31.08,0,0-20.35,50.6-25.32,50.34-4.31-.23-10.57-27.24-10.57-27.24,0,0-3.93,23.28-10.99,26.12-7.06,2.85-25.24-40.68-25.24-40.68,0,0-.84,43.57-5.89,44.55-5.05.98-21.15-15.31-21.15-15.31,0,0,7.54,21.7,4.99,24.56-1.52,1.71-17-7.86-33.1-19.41-9.3-6.67-17.08-12.26-17.08-12.26,0,0,9.08,15.07,16.29,30.83,4.97,10.85,7.98,21.26,6.68,23.28-3.19,4.97-27.09-2.11-27.09-2.11,0,0,13.58,13.09,12.71,16.46-.42,1.64-13.93.45-27.66-1.42-14.56-1.99-29.38-4.74-29.38-4.74,0,0,48.5,28.2,46.98,33.27-1.2,4.01-31.39.73-31.39.73,0,0,26.24,11.99,26.14,15.95-.11,3.96-51.37,16.93-51.37,16.93,0,0,46.43,9.71,47.31,14.89.89,5.18-18.31,21.79-18.31,21.79,0,0,22.35,2.02,23.46,4.95,1.11,2.93-5.43,14.49-11.11,16.32-7.02,2.27-13.4,3.71-21.18,3.71-1.12,0-2.21-.03-3.28-.09.38-.5.77-1.01,1.1-1.5,1.91-2.8,3.34-5.8,4.12-8.65v-.03s.02-.03.02-.03c.4-1.57.6-3.13.61-4.64v-.13c-.06-1.72-.61-3.19-1.63-4.18-1.9-1.66-3.67-1.46-4.95-.89l-4.41,2.16c-.33.14-.7.28-1.15.42-.84.25-2.62.56-6.31.56-3.5,0-7.66-.26-11.68-.51,0,0-2.47-.14-2.95-.14-4.8,0-8.01,1.53-9.94,2.93l-1.05-.55c-9.82-5.22-21.25-7.33-28.38-8.64-.55-.1-1.08-.2-1.58-.29-7.88-1.55-12.2-6.22-12.55-6.6-.67-.72-1.54-1.66-2.67-2.31,0,0-2.05-1.28-5.09-.34-1.98.7-2.82,2.24-2.82,2.24-1.7,2.82-.08,6.97,2.06,11.65,2.43,5.31,10.06,18.58,28.32,27.05,5.98,2.78,13.84,4.75,23.37,5.87,7.17.84,13.23.95,15.65.95,2.32,1.13,9.48,4.44,20.11,7.76,11.68,3.65,29.92,7.99,50.83,8.09,0,0,7.42.09,11.42-.16.4,1.67-2.49,7.64-5.98,14.64-4.13,8.29-9.42,18.11-9.42,18.11,0,0,9.57-8.45,18.48-14.72,8.97-6.31,19.02-11.38,21.4-8.45,4.49,5.52-.3,28.29-.3,28.29,0,0,18.13-16.04,22.33-13.87,1.92.99,2.12,12.98,2.12,25.61.01,14.96-.38,30.85-.38,30.85,0,0,24.97-50.52,30.16-49.08,5.19,1.44,10.88,24.48,10.88,24.48,0,0,9.49-28.06,15.28-27.38,2.32-.28,7.3,8.82,11.72,18.12,4.85,10.2,9,20.17,9,20.17,0,0,.1-10.42.83-21.07.66-9.62,1.88-19.01,3.99-19.53,4.45-1.1,17.38,16.22,17.38,16.22,0,0-4.57-24.14-.99-26.18,3.58-2.05,46.59,35.14,46.59,35.14,0,0-28.22-52.29-24.79-56.29,3.43-3.99,33.58,4.15,33.58,4.15,0,0-4.49-5.3-8.33-11.3-4.02-6.27-7.36-13.27-5.79-14.95,1.43-1.53,17.14.06,33.38,3.21,18.72,3.63,30.9,6.22,30.9,6.22,0,0-11.03-5.97-27.29-15.75-14.08-8.47-26.46-18.01-25.94-19.55,1.14-3.33,34.77-6.53,34.77-6.53,0,0-5.64-3.32-11.71-7.03-6.58-4.03-13.61-9.04-13.61-10.87,0-1.6,8.43-5.58,19.55-9,13.33-4.1,25.66-6.85,25.66-6.85,0,0-45.84-3.68-48.7-10.22-1.95-4.46,1.64-10.28,4.27-14.05,2.63-3.76,6.4-7.17,6.4-7.17,12.52-11.56,28.47-22.21,33.56-25.34.36-.22.7-.44,1.05-.66,0,0,11.76-8.68,12.97-9.7,1.05-.88,3.74-3.71,4.35-7.3,0,0,.21-.99.14-2.57h0Z"/>
  <path class="cls-2" d="m296.93,78.13c7.21-2.68,14.18-4.63,20.94-5.95-.45-2.73-.1-5.64,1.56-9.28-5.93,4.89-21.14,9.24-25.54,5.09-4.4-4.15,2.99-21.51,6.76-28.68l-.29.34c-6.28,7.47-17.02,20.27-23.56,17.69-4.79-1.88-3.79-18.77-3.11-30.34.26-4.46.48-8.13.3-9.84-4.29,12.39-16.09,39.83-22.25,38.86-5.02-.48-8.98-13.62-9.84-18.73-1.04,4.76-3.61,15.94-11.14,17.03-7.52,1.1-17.77-16.95-22.06-30.23-.66,23.7-4.65,34.19-7.82,34.25-5.23.11-9.48-4.12-13.61-8.22-.87-.87-1.74-1.73-2.61-2.55,2.47,3.99,6,16.09,1.38,19.83-4.61,3.74-35.54-18.26-42.31-25.01,7.63,11.24,21.25,37.75,17.23,44.41-4.01,6.66-18.04,3.77-20.5,2.57,1.6,1.32,11.31,12.53,2.98,14.33-11.18,2.42-41.78-4.72-43.41-5.1,7.32,2.64,39.44,21.65,37.43,28.95-1.46,5.29-10.69,4.68-16.73,4.28-1.24-.08-2.34-.15-3.21-.17.38.18.8.37,1.25.58,5.06,2.31,14.16,6.47,12.94,12.14-1.32,6.18-32.04,13.12-41.53,15.12,1.45.32,3.2.68,5.15,1.07,12.46,2.53,32.85,6.67,33.2,13.84.4,8.29-16.66,19.75-16.66,19.75,0,0,15.14.7,18.4,2.46,4.77,2.58,1.1,12.24-3.12,17.26,5.77-2.67,11.41-6.12,17.29-10.48-4.87-11.99-7.55-25.1-7.55-38.84,0-57.08,46.28-103.36,103.36-103.36,20.92,0,40.39,6.22,56.67,16.91Zm47.53,165.86c-5.44-4.27-11.38-18.61-9.1-23.25,2.29-4.64,36.7,2.14,51.13,6.2-11.6-4.54-43.28-23.85-41-29.61,2.27-5.76,22.59-7.86,28.77-7.86-1.84-.9-14.82-8.05-19.26-13.26-4.45-5.21,18.97-14.9,32.37-16.72-12-.97-34.58-2.83-34.8-11.55-.07-2.78.36-5.04,1.14-6.91-3.42,3.26-7.09,6.75-10.92,10.35.55,4.32.84,8.72.84,13.2,0,57.09-46.28,103.37-103.37,103.37-22.6,0-43.52-7.27-60.53-19.58-7.8,1.52-15.52,2.41-23.33,2.81-.86,4.87-3.58,9.84-6.21,14.65-1.18,2.16-2.35,4.3-3.32,6.37,18.85-17.43,29.28-16.8,32.94-14.79,3.65,2,2.73,18.61,1.64,23.52,2.94-3.88,16.66-12.4,20.72-10.55,3.32,1.51,2.7,26.74,2.37,40.11-.07,2.99-.13,5.39-.13,6.8,4.53-9.9,19.52-40.38,25.97-40.38s10.71,11.52,11.7,16.75c1.39-5.23,8.7-18.92,15.21-19.65,5.53-.62,11.44,13.79,15.74,24.28.76,1.86,1.47,3.59,2.12,5.1.05-1.36.08-3.02.12-4.85.17-9.58.42-23.91,4.8-25.64,5.23-2.06,11.28,4.82,14.8,9.11-.94-5.91-1.84-17.52,1.8-19.9,3.64-2.38,29.29,18.45,38.66,27.74-.58-1.46-2.31-4.53-4.51-8.44-6.52-11.58-17.19-30.52-14.45-36.84,3.34-7.69,24.12-1.78,28.1-.58Z"/>
  <path class="cls-1" d="m375.33,78.17s15.79-5.69,23.67-6.47c7.77-.78,15.73,1.87,17.28,8.51h0c-3.68-5.77-38.61,5.83-48.54,9.83-2.7,1.09-19.32,8.58-36.29,18.28h0s0,0,0,0c0,0,0,0,0,0,0,0,0,0,0,0-.03.01-.11.05-.22.11-10.05,3.5-29.67,14.29-37.13,21.27-9.01,8.42-14.46,18.07-20.98,29.63-6.24,11.05-13.45,23.84-25.71,38.96-11.16,13.77-20.8,23.42-28.41,29.77-4.86,4.1-9.13,6.99-12.27,8.66-.12-.39-.15-.69-.15-.69-.02-.11-.02-.23-.02-.36,0-2.27,2.37-7.14,4.59-11.7h0c.47-.98.94-1.93,1.38-2.85,1.68-3.53,2.83-6.42,2.83-6.42,3.86-9.58,5.91-18.73,6.48-21.46.87-3.46,3.11-13.22,3.11-13.22,0,0-40.32,36.22-82.11,48.35-14.24,4.13-29.57,7.49-41,7.73,0,0-9.79-.42-10.44-.63-9.93-1.66-21.74-6.24-32.14-17.34-1.33-1.05-2.66-2.16-3.99-3.31.07.08.29.37.63.83,1.55,2.11,5.66,7.7,10.46,11.92-.09,0-.19.01-.28.02-.05,0-.11,0-.16.01-1.93.16-5.33.44-14.53-.87-34.84-4.95-45.8-32.22-46.09-35.49-.47.13-.88.28-1.17.55.29-.28.7-.42,1.17-.55,1.32-.37,2.33.72,3.39,1.87h0c.41.44.83.9,1.28,1.28l.13.11c1.69,1.44,5.79,4.93,13.13,6.31.5.09,1.03.19,1.59.3,7.8,1.44,20.68,3.82,30.56,10.15h0c.75.44,1.61.99,2.56,1.6,10.06,6.46,31.29,20.09,66.6,6.27,17.82-6.97,33.74-20.92,57.4-44.33,3.85-3.8,7.66-7.79,11.54-11.91-.55-2.77-2.07-7.79-5.41-9.87-5.18-3.24-13.04-3.36-18.22-2.99-1.13.08-2.14.18-3.05.27h0c-3.28.32-5.26.51-6.64-.6-.77-.61-.81-1.62-.39-2.76,3.26-3.97,9.02-9.03,23.84-10.98,8.28-1.09,14.08-.86,19.15-.67,6.4.25,11.65.45,19.25-2.09,2.7-2.73,5.85-5.57,8.3-7.78,5.68-5.14,11.76-10.26,18.38-15.3,6.63-5.03,13.79-9.97,21.63-14.74,41.99-25.55,76.22-24.71,105.07-17.22ZM92.47,204.59h0c-.66.09-1.16.43-1.81.88-.83.57-1.91,1.32-3.88,1.91-3.84,1.15-11.77.66-19.26.19-.5-.03-.99-.06-1.48-.09-5.76-.36-8.8,1.81-10.03,3.02h0,0l.23.13.17.1c4,2.28,15.15,8.63,24.72,10.47.54.1,1.83.32,3.05.44,1.21.12,2.65.06,2.96.04.02-.02,1.89-2.13,3.02-3.8,1.87-2.73,3.02-5.38,3.62-7.57.33-1.28.49-2.54.5-3.77-.07-2.22-1.44-1.99-1.76-1.94-.01,0-.02,0-.03,0Zm231.59-41.65c-2.97,9.15-7.52,21.66-13.1,32.24-6.63,12.58-15.37,21.26-19.98,24.6-.76-.46-1.05-1.44-1.08-2.44-.01-.49.27-1.53.72-3.17,1.2-4.41,3.6-13.16,4.72-27.33,4.97-3.74,9.44-7.3,13.39-10.58,5.02-4.18,10.19-8.7,15.33-13.31Z"/>
  <path class="cls-4" d="m414.22,87.17s0,0,0,0c.33-.6,1.2-2.23,1.03-3.32-.39-2.52-5.8-1.81-19.17,2.71-.02.01-.05.02-.08.03-.02,0-.04.01-.06.02-1.14.39-2.32.79-3.57,1.23-26.01,9.14-51.45,31.15-79.95,55.81h0c-14.54,12.58-29.87,25.85-46.48,38.45l.37-.57c5.29-7.96,9.32-15.15,13.02-21.74h0c6.5-11.58,11.95-21.3,21.34-30.07,7.6-7.25,19.26-14.82,30.75-21.38-.03.01-.11.05-.22.11-10.05,3.5-29.67,14.29-37.14,21.27-9.01,8.42-14.46,18.07-20.98,29.63-6.24,11.05-13.45,23.84-25.71,38.96-11.16,13.77-20.8,23.42-28.41,29.77-4.86,4.1-9.13,6.99-12.27,8.66v.02c.06.17.46,1.38,1.53,1.65,1.82.46,8.64-2.97,17.35-10.32h0l.1-.05c1.39-.66,17.01-8.09,24.65-12.26,9.4-5.13,24.9-14.79,28.29-17.04,0,0,0,0,0,0,6.04-4.02,16.73-11.86,16.73-11.88,4.97-3.74,9.44-7.3,13.39-10.58,5.02-4.18,10.19-8.7,15.33-13.31-2.97,9.15-7.52,21.66-13.1,32.24-6.63,12.58-15.37,21.26-19.98,24.6,1.37.87,3.36-.27,3.84-.54l.04-.02s.03-.02.04-.02c3.79-2.08,14.48-11.15,21.65-25.68,9.78-19.83,14.12-35.28,14.56-36.83h0c.02-.07.03-.11.03-.13.43-.4,9.81-9.24,18.64-17.58l.05-.05h.01c7.9-7.47,15.36-14.5,15.57-14.7,12.34-11.41,28.41-22.28,34.18-25.82,6.03-3.71,9.69-6.51,11.83-8.4,2.15-1.88,2.8-2.83,2.8-2.83Zm-65.5-2.22c3.33,0,11.13-.24,14.3-1.01,1.54-.37,2.64-.79,3.4-1.07h0c.8-.3,1.21-.46,1.3-.24.18.42-1.56,1.41-7.02,3.65-3.99,1.64-7.66,2.63-13.58,4.11-2.73.82-6.59,2.06-6.59,2.06,0,0-.01-.02-.02-.03v-.02s-.03-.02-.03-.03h0c-.07-.1-.13-.2-.18-.3,0,0,0-.01,0-.02h0s0-.02,0-.02c-.34-.76-.04-1.52.32-2.07-10.76-.79-16.03,5.28-16.03,5.28-.39.29-.85.85-1.35,1.55,1.56-2.39,5.05-6.92,10.23-9.19,6.41-2.8,10.83-2.73,14.07-2.68.41,0,.81.01,1.19.01Zm-126.92,108.29c.87-3.45,3.11-13.22,3.11-13.22,0,0-40.32,36.22-82.11,48.35-14.24,4.13-29.57,7.49-41,7.73h.11s.13,0,.13,0c3.36.09,29.21.76,57.5-9.86,23.83-8.7,47.26-22.92,62.25-33.01Zm-127.54,13.3c0,1.23-.18,2.49-.5,3.77-.6,2.19-1.75,4.84-3.62,7.57-1.13,1.67-3,3.77-3.02,3.8-.31.02-1.75.08-2.96-.04-1.22-.12-2.51-.34-3.05-.44h0c-.07-.11.66-.72,1.8-1.67,3.99-3.34,12.93-10.82,9.55-14.93h.03s0,0,0,0c.32-.05,1.69-.28,1.76,1.94Zm89.29-70.56c8.27-1.09,14.08-.86,19.15-.67,6.41.25,11.65.45,19.26-2.09,2.66-2.69,5.76-5.49,8.2-7.69l.09-.09c-3.86,1.24-6.84,1.98-9.65,2.47-3.28.65-6.09.87-9.85,1.18h0c-3.56.29-7.96.64-14.4,1.49-20.8,2.74-30.53,9.25-33.25,11.77-.82.76-1.45,1.42-2.32,2.62-.6.83-1.01,1.81-1.08,1.99,3.27-3.98,9.02-9.04,23.85-10.99Zm27.55,87.99c.47-.97.94-1.93,1.38-2.85,1.68-3.53,2.83-6.42,2.83-6.42-13.66,7.25-35.49,16.54-55.24,21.16-38.89,9.12-63.8,1.21-68.07-.19l-.56-.18h-.04s0-.01,0-.01c-.01,0-.02,0-.02,0,0,0-.01,0-.02,0-9.93-1.66-21.74-6.24-32.14-17.34-1.33-1.05-2.66-2.15-3.99-3.31.07.08.29.37.63.83,1.55,2.11,5.66,7.7,10.46,11.92-.14.01-.29.02-.45.04-1.93.16-5.33.44-14.53-.87-34.84-4.95-45.8-32.22-46.09-35.49-.35.1-.67.2-.93.36,0,0,0,0,0,0-.08.05-.17.11-.24.18-.86.78-.73,2.67,1.98,8.6,3.64,7.95,12.01,18.53,26.55,25.28,13.3,6.18,33.55,6.49,37.64,6.49.25,0,.43,0,.56,0,.06,0,.11,0,.14,0,0,0,0,0,0,0,0,0,34.31,17.75,77.92,15.69h.05c1.24.01,26.64.29,57.62-11.81-.02-.11-.02-.23-.02-.36,0-2.27,2.37-7.14,4.59-11.7Z"/>
  <path class="cls-3" d="m323.22,96.79c.49-.7.96-1.25,1.35-1.55,0,0,5.27-6.08,16.03-5.29-.36.55-.66,1.32-.32,2.07,0,0,0,.01,0,.02,0,0,0,.01,0,.02.05.1.11.2.18.3-6.69,2.28-18,6.76-21.58,12.08,0,0,2.39-4.92,4.33-7.65Zm-107.91,117.9c3.86-9.58,5.91-18.73,6.48-21.46-14.99,10.09-38.42,24.3-62.25,33.01-28.3,10.62-54.14,9.95-57.5,9.86-.1,0-.18,0-.24,0,0,0-9.45-.41-10.4-.61l.61.19c4.27,1.4,29.18,9.31,68.07.19,19.75-4.63,41.58-13.92,55.24-21.16Z"/>
</svg>