<?xml version="1.0" encoding="UTF-8"?>
<svg id="Layer" xmlns="http://www.w3.org/2000/svg" viewBox="0 0 420 467.72">
  <defs>
    <style>
      .cls-1 {
        fill: #a71930;
      }

      .cls-1, .cls-2 {
        stroke-width: 0px;
      }

      .cls-2 {
        fill: #fffffe;
      }
    </style>
  </defs>
  <path class="cls-1" d="m419.98,256.57c0,.54.02,13.92.02,14.45,0,36.39-24.54,47.9-35.26,51.18-7.84,2.22-17.16,3.34-27.07,3.85H32.14v-66.9h300.34c8.15-.19,13.29-2.84,15.62-7.89.94-2.65,1.19-4.78,1.19-8.18v-14.28c-4.79,3.2-13.3,5.88-13.3,5.88-18.41,6.51-52.52,1.41-66.57-9.72-13.97-7.94-24.96-24.88-26.11-43.41v-112.5c0-4.83-3.9-8.74-8.71-8.74h-17.91V2.78h97.1l-.1,153.56c-.03,9.18,8.17,16.58,17.85,16.58,3.37,0,6.49-.91,9.17-2.45,4.63-2.66,7.87-7.25,8.55-12.62.06-.68.1-1.35.12-2.04.1-1.74.13-3.52.13-5.3V2.78h70.29l.18,253.78h0Zm-206.74-79.46h16.27v55.35h-64.4c-12.75,0-23.58-8.07-27.79-19.38-1.2-3.22-1.88-6.69-1.88-10.33v-124.74c-.21-9-7.86-16.24-17.29-16.24s-17.32,7.43-17.32,16.59h0v1.61s-.01,152.93-.01,152.93H32.17V69.22c0-4.82-3.89-8.74-8.72-8.74H0L.02,2.78h100.76v10.98C117.17,1.22,141.28-3.24,163.69,2.43c14.16,3.7,24.67,10.28,32.96,22.37,3.97,5.8,5.94,11.66,6.94,16.21.59,2.67.83,4.88.92,6.33v63.07s0,3.14,0,8.22v41.96c0,2.1,0,4.19-.01,6.22v.37s.01,1.21.01,1.21c0,4.83,3.92,8.73,8.73,8.73h0Z"/>
  <path class="cls-2" d="m274.19,216.52c-11.75-6.69-20.25-20.9-21.19-35.4v-112.06c0-10.17-8.26-18.45-18.41-18.45h-8.22V12.5h77.72c-.01,17.04-.1,143.91-.1,143.94,0,6.69,2.7,13.07,7.56,17.96,5.21,5.25,12.5,8.24,19.99,8.24,4.91,0,9.75-1.29,14-3.74,7.32-4.23,12.31-11.64,13.33-19.84l.04-.28.17-2.49.13-5.79V12.49h50.92c.01,17.95.17,258.53.17,258.53,0,28.88-17.8,38.66-28.4,41.91-6.89,1.93-15.45,2.93-24.56,3.41-.63,0-297.31.03-315.52,0v-47.47h290.65c15.22-.37,21.65-7.56,24.41-13.52l.21-.43.14-.44c1.45-4.12,1.73-7.42,1.73-11.4v-32.46l-15.09,10.1c-2.61,1.77-8.02,3.82-10.83,4.71l-.3.09c-15.17,5.38-45.73,1.01-57.34-8.18l-.57-.45-.65-.37h0Zm-79.38-48.14c0,10.17,8.26,18.45,18.42,18.45h6.57v35.92h-54.7c-8.29,0-15.79-5.24-18.69-13.05-.85-2.27-1.28-4.61-1.28-6.95v-124.74c-.32-14.4-12.42-25.94-26.98-25.94s-27.01,11.8-27.02,26.29c0-.06-.01,1.55-.01,1.55v143.28h-49.27V69.22c0-10.17-8.25-18.45-18.41-18.45h-13.75V12.49h81.4v20.93l15.58-11.94c14.21-10.87,35.15-14.58,54.64-9.64,12.51,3.27,20.72,8.79,27.33,18.45,2.61,3.81,4.45,8.11,5.48,12.8,0,0,.63,4.32.7,4.76v62.54s0,8.26,0,8.26v48.35s0,.41,0,.41v.97h0Z"/>
</svg>