<?xml version="1.0" encoding="UTF-8"?>
<svg id="Layer" xmlns="http://www.w3.org/2000/svg" viewBox="0 0 420 429.97">
  <defs>
    <style>
      .cls-1 {
        fill: #fff;
      }

      .cls-1, .cls-2 {
        stroke-width: 0px;
      }

      .cls-2 {
        fill: #115740;
      }
    </style>
  </defs>
  <path class="cls-1" d="m210,250.55c-29.48,0-78.65-7.74-120.17-29.58-40.64-21.37-70.18-46.16-83.19-69.81C2.24,143.14-.06,134.2,0,125.27c-.06-8.93,2.23-17.88,6.64-25.87,13.01-23.65,42.55-48.45,83.19-69.81C131.36,7.74,180.52,0,210,0s78.64,7.74,120.17,29.58c40.64,21.37,70.18,46.16,83.19,69.81,4.4,8,6.7,16.94,6.64,25.87.06,8.93-2.23,17.88-6.64,25.87-13.01,23.65-42.55,48.45-83.19,69.81-41.52,21.83-90.69,29.59-120.17,29.59"/>
  <path class="cls-2" d="m408.19,125.27c.06-7.18-1.8-14.27-5.27-20.57-11.71-21.29-39.96-44.94-78.42-65.16-39.6-20.82-86.29-28.19-114.5-28.19s-74.9,7.37-114.5,28.19C57.04,59.76,28.8,83.4,17.08,104.7c-3.46,6.29-5.33,13.38-5.27,20.57-.06,7.18,1.81,14.27,5.27,20.57,11.71,21.29,39.96,44.94,78.42,65.16,39.6,20.82,86.29,28.19,114.5,28.19s74.9-7.37,114.5-28.19c38.46-20.22,66.7-43.87,78.42-65.16,3.46-6.29,5.33-13.38,5.27-20.57Z"/>
  <path class="cls-1" d="m303.95,104.56l-12.95,22.44c-1.37,2.38-.31,5.42,2.24,6.43l23.6,9.32h-50.65l-7.78,13.47h76.01c1.6,0,3.09-.86,3.89-2.24l12.95-22.44c1.37-2.38.31-5.42-2.24-6.43l-29.3-11.56h41.92l6.48-11.23h-60.29c-1.6,0-3.09.86-3.89,2.24h0Z"/>
  <path class="cls-1" d="m289.78,113.55l6.48-11.23h-71.87l-6.48,11.23h17.97l-24.64,42.67h35.94l24.64-42.67h17.97Z"/>
  <path class="cls-1" d="m208.92,113.55l6.49-11.23h-58.39l-31.12,53.9h74.11l7.78-13.48h-38.18l5.19-8.98h20.2l6.48-11.23h-20.21l5.19-8.98h22.45Z"/>
  <path class="cls-1" d="m360.18,88.66s-5.33-1.08-20.97-2.16l-54.85-5.39c-30.15-2.66-56.61-9.59-81.14-26.81h-.82l20.71,33.42h-104.81l-30.47,52.78c-.81,1.39-2.28,2.24-3.89,2.24h-33.34l-7.78,13.47h66.68c3.21,0,6.17-1.71,7.78-4.49l33.72-58.39h222.34c-2.76-1.61-7.2-3.65-13.14-4.68h0Z"/>
</svg>