<?xml version="1.0" encoding="UTF-8"?>
<svg id="Layer" xmlns="http://www.w3.org/2000/svg" viewBox="0 0 420 514.7">
  <defs>
    <style>
      .cls-1 {
        fill: #c60c30;
      }

      .cls-1, .cls-2, .cls-3, .cls-4, .cls-5, .cls-6 {
        stroke-width: 0px;
      }

      .cls-3 {
        fill: #00539b;
      }

      .cls-4 {
        fill: #ffb612;
      }

      .cls-5 {
        fill: #fffffe;
      }

      .cls-6 {
        fill: #a5acaf;
      }
    </style>
  </defs>
  <path class="cls-2" d="m0,210c0,115.8,94.2,210,210,210s210-94.2,210-210S325.79,0,210,0,0,94.2,0,210"/>
  <path class="cls-6" d="m210,415.39c113.43,0,205.39-91.96,205.39-205.39S323.43,4.61,210,4.61,4.61,96.57,4.61,210s91.96,205.39,205.39,205.39"/>
  <path class="cls-5" d="m210,381.84c94.62,0,171.34-76.71,171.34-171.34S304.62,39.16,210,39.16,38.66,115.88,38.66,210.5s76.71,171.34,171.34,171.34"/>
  <path class="cls-4" d="m210.89,210.73c1.98-70.18,68.27-86.66,84.93-85.14-41.06-2.23-81.58-19.58-84.71-84.51-4.95,60.38-29.17,77.54-85.01,84.71,39.88,2.02,80.25,17.8,84.79,84.94"/>
  <path class="cls-1" d="m296.05,297.6c1.98-70.18,67.1-87.5,83.77-85.99-41.2-1.52-80.87-21.1-84-86.02-4.95,60.38-29.09,77.98-84.93,85.14,39.88,2.02,80.62,19.73,85.16,86.86"/>
  <path class="cls-3" d="m211.92,381.12c1.97-70.19,67.47-85.04,84.13-83.53-41.06-2.23-82.03-21.93-85.16-86.86-4.95,60.38-28.45,78.52-84.28,85.68,39.88,2.03,80.77,17.58,85.31,84.71"/>
  <path class="cls-2" d="m163.15,195.73l6.69-.07.03,3.23c1.01-1.77,1.61-2.83,3.89-3.34h1.66v7.83c-5.76-.41-5.38,1.61-5.45,3.16v14.89h-6.82v-25.7h0Zm30.14,8.38l-5.97-.03c0-.62.01-1.16-.1-1.63-.16-.66-1.05-1.29-1.95-1.3-1.06,0-1.88.34-2.23,1.37-.42,1.24-.23,3.06,2.99,3.43l1.64.41c1.83.61,3.59,1.12,4.97,3.75.23.45.27.6.64,1.88.78,2.66.26,4.7-.61,6.28-.53.95-1.83,2.13-2.29,2.42-2.53,1.56-5.94,1.72-9.04.78-1.52-.46-3.18-1.63-4-3.22-.85-1.65-.87-3-.98-5.23l5.77-.04c-.12.9.44,1.95,1.33,2.29.9.35,3.16.37,3.55-.64.28-.71.46-1.1-.16-2.03-1.13-1.7-3.54-1.98-5.66-2.52-3.79-.96-4.71-4.63-4.55-7.42.08-1.32.32-2.84,1.15-3.86,1.75-2.17,2.52-2.06,3.57-2.56,3.49-1.7,7.83-.49,10.15,1.86,1.3,1.31,1.72,3.72,1.77,6.04h0Zm-110.72-8.23h-4.73l-2.57.02c-.06-1.13-.23-2.59-.98-3.28-1.11-1.01-3.61-.45-4.27.95-1.2,2.51.34,4.87,4.2,6.11l1.06.53c3.65,1.78,4.66,2.66,6.03,4.58.41.58,1.21,2.1,1.54,3.95.69,3.96-.3,6.41-1.19,8.58,0,0-.34,1.03-1.28,1.9-3.84,3.58-9.15,3.74-13.09,1.87-1.81-.87-3.21-1.71-4.21-3.95-.98-2.2-1.2-4.19-.92-7.43l7.35-.04c-.14,1.03.16,3.63.86,4.36.68.72,3.47,1.42,4.54-.48.38-.67.47-3.56-.7-4.68-2.21-2.12-4.11-2.33-6.71-3.96-3.71-2.31-5.68-6.47-5.44-10.41.11-1.87.62-3.17,1.53-4.8.91-1.62,2.19-3.09,4.05-3.9,4.94-2.17,10.98-.93,13.64,3.76.7,1.23,1.4,3.06,1.3,6.32h0Zm3.75-.13v-2.37l6.89-3.78.03,6.24,2.62-.06.03,6.08-2.65-.04v10.12c0,1.38-.25,1.94,2.53,1.89v7.7c-3.28-.08-9.49,1.03-9.52-6.21l-.05-13.64-2.57.09-.03-5.93,2.73-.09h0Zm48.66-10.31l6.94.02v36.19h-6.94v-36.21h0Zm14.67,28.72c0,2.31,5.04,2.78,5.17-.13v-.73l5.67-.03v3.03c.07,2.01-.77,4.2-4.17,5.37-3.61,1.12-5.86.45-7.97,0-2.77-1.02-4.12-3.22-4.25-6.33v-12.54c-.13-2.35,1.18-4.4,3.45-5.9,3.87-1.69,5.99-1.24,8.9-.23,2.77,1.51,4.02,3.38,4.05,5.99v7.95h-10.87l.02,3.53h0Zm.25-8.9l5.13.02c1.06-4.49-5.99-5.07-5.13-.02Zm-27.86,8.9c.01,2.31,5.05,2.78,5.18-.13v-.73l5.66-.03v3.03c.06,2.01-.77,4.2-4.17,5.37-3.61,1.12-5.86.45-7.97,0-2.77-1.02-4.12-3.22-4.25-6.33v-12.54c-.13-2.35,1.19-4.4,3.45-5.9,3.87-1.69,5.99-1.24,8.89-.23,2.78,1.51,4.02,3.38,4.06,5.99v7.95h-10.85v3.53s-.01,0-.01,0Zm.25-8.9l5.13.02c1.06-4.49-5.99-5.07-5.13-.02Zm-19.05,8.9c.01,2.31,5.05,2.78,5.18-.13v-.73l5.66-.03v3.03c.07,2.01-.77,4.2-4.17,5.37-3.61,1.12-5.87.45-7.97,0-2.77-1.02-4.12-3.22-4.25-6.33v-12.54c-.13-2.35,1.19-4.4,3.45-5.9,3.87-1.69,5.99-1.24,8.89-.23,2.78,1.51,4.02,3.38,4.06,5.99v7.95h-10.85v3.53s-.01,0-.01,0Zm.25-8.9l5.13.02c1.06-4.49-5.99-5.07-5.13-.02Z"/>
</svg>