<?xml version="1.0" encoding="UTF-8"?>
<svg id="Layer" xmlns="http://www.w3.org/2000/svg" viewBox="0 0 420 397.56">
  <defs>
    <style>
      .cls-1 {
        fill: #024;
      }

      .cls-1, .cls-2, .cls-3, .cls-4 {
        stroke-width: 0px;
      }

      .cls-2 {
        fill: #69be28;
      }

      .cls-3 {
        fill: #fffffe;
      }

      .cls-4 {
        fill: #a5acaf;
      }
    </style>
  </defs>
  <path class="cls-3" d="m351.99,152.3c-19.14-3.82-44.27-4.84-54.88-4.84l-252.57.06c-15.71,0-31.96,0-40.3-12.84-8.46-13.03-3.86-25.84,10.4-51.48C15.7,81.28,58.96,0,58.96,0c0,0,4.42,5.48,8.88,8.98,4.4,3.45,8.92,5.28,20.97,5.28,21.41,0,159.5-.3,160.91-.31,28.03,0,56.35,2.9,74.69,23.01,9.52,1.02,40.27,5.08,65.61,17.19,14.83,7.08,24.61,17.66,28.31,30.58,1.12,3.91,1.67,8.01,1.67,12.27,0,12.26-4.59,25.84-13.6,39.96-19.03,29.83-36.58,40.26-37.36,40.82-10.81,7.6-21.29,7.96-21.29,7.96,0,0,9.43-10.72,12.61-21.44,3.19-10.72-8.37-11.99-8.37-11.99"/>
  <path class="cls-1" d="m386.9,60.69c28.88,13.8,33.94,40.17,13.4,72.37-18.42,28.86-37.02,41.1-37.02,41.1,0,0,17.92-23.42-9.86-28.98-20.93-4.18-47.73-4.97-56.3-4.97-9.86,0-97.95.2-108.94.2s-14.03-1.5-16.44-4.82c-2.41-3.3-2.83-7.83,1.68-14.6,4.52-6.77,11.4-17.38,11.4-17.38l-29.7-23.88c24.92-24.85,44.82-33.19,62.2-33.19s25.38,2.59,54.38,14.75c29,12.17,38.59-.77,38.59-.77-12.18,5.17-23.05.77-43.52-8.28-20.46-9.06-32.63-13.2-51-13.2s-33.92,5.17-53.38,19.48c-18.32,13.47-19.71,16.24-47.33,16.24H27.26L61.07,11.51s2.53,9.99,27.74,9.99c21.66,0,160.91-.31,160.91-.31,27.65,0,55,2.93,71.19,22.71,0,0,37.1,2.98,65.98,16.79h0Zm-51.03,5.19c-13.14-3.14-1.91-10.74-1.91-10.74-18.9,3.82-25.94,19.23-27.56,23.54-.3.58-.61,1.18-.93,1.82-10.46,21.03-19.88,19.9-37.74,19.9h-30.58c-24.77,0-36.31,12.27-48.19,33.17h13.99c12.79-19.03,22.44-24.16,47.73-25.59,57.79.03,103.87,16.6,128.21,29.27,34.63-58.12-16.76-67.74-43.03-71.37h0Zm-107.57,67.46c6.46-9.77,19.61-13.08,40.79-11.86,52.29,3.03,82.36,13.2,105.71,21.9-28.8-16.85-80.13-29-115.81-28.88-17.44.05-32.66,3.1-41.6,18.84h10.91,0Zm56.12-57.65c-6.81,9.5-15.79,12.75-41.25,11.01-29.62-2.01-21.98-14.48-18.53-20.62h-.1c.94-1.75,2.56-4.7,4.19-7.67-22.69-1.4-39.27,16.06-39.27,16.06,16.92,16.72,28.2,18.47,43.51,18.47h28.61c26.61,0,33.03-11.96,35.47-17.28-4.59.57-8.73.52-12.64.03h0Z"/>
  <path class="cls-2" d="m271.5,72.85c-.54-.22-1.1-.45-1.66-.68-2.61,2.75-7.11,4.34-11.47,3.78-5.74-.73-9.04-4.9-7.42-9.3.23-.64.58-1.25.98-1.83-2.94-1.15-5.89-2.26-8.77-3.26-5.89,9.53-9.35,15.85,11.1,17.57,12.74,1.08,16.2-1.1,18.87-5.67-.55-.21-1.08-.39-1.65-.62"/>
  <path class="cls-4" d="m168.77,109.06c-10.55,18.3-14.74,22.51-7.33,31.2H44.54c-17.24,0-28.45-.65-34.22-9.53-5.61-8.63-4.46-16.86,10.66-44.02h99.4c17.11,0,21.51.98,30.8,8.18,9.29,7.21,17.6,14.18,17.6,14.18"/>
</svg>