<?xml version="1.0" encoding="UTF-8"?>
<svg id="Layer" xmlns="http://www.w3.org/2000/svg" viewBox="0 0 420 491.46">
  <defs>
    <style>
      .cls-1, .cls-2, .cls-3, .cls-4, .cls-5, .cls-6, .cls-7 {
        fill-rule: evenodd;
        stroke-width: 0px;
      }

      .cls-2 {
        fill: #a71930;
      }

      .cls-3 {
        fill: #0a0b09;
      }

      .cls-4 {
        fill: #c2242b;
      }

      .cls-5 {
        fill: #dc4405;
      }

      .cls-6 {
        fill: #fff;
      }

      .cls-7 {
        fill: #b1babf;
      }
    </style>
  </defs>
  <path class="cls-7" d="m323.89,273.51c-9.53,14.41-18.59,27.7-25.96,38.36,8.53,7.06,8.02,15.94,8.02,17.63-.16,9.45-5.2,16.51-9.8,20.63-5.73,4.89-13.57,7.25-21.83,7.31-.24,0-6.16-.18-8.19-.65-.87,1.28-2.56,2.84-5.3,3.95-.3.86-.72,1.73-1.26,2.55-2.26,3.39-6,5.27-9.81,5.27,0,0-3.86-.11-6.54-1.95-3.42-2.26-5.31-6.01-5.31-9.83v-.1c0-1.82.45-3.67,1.33-5.35-.4-.94-1.79-6.57-1.79-6.57l3.64-3.21c.29-.17,1.19-1.53,2.2-5,1.07-3.38,2.35-8.4,5.03-14.26,3.42-7.44,8.15-15.13,11.61-20.46-.34-1.7-2.13-2.49-3.42-2.8-1.44-.39-3.23-1.23-4.64-2.88-1.49-1.73-2.63-4.17-1.99-7.31.63-3.1,2.58-5.34,4.85-6.39h0c2.58-1.35,5.76-.71,5.76-.71,7.58.7,13.19,7.74,13.19,7.74,7.55-10.53,25.11-36.65,25.48-37.22-23.02,4.4-46.79,5-66.54,1.72-35.91-5.96-63.53-25.07-81.38-33.79-17.85-8.71-51.84-17.63-86.91-8.71-35.06,8.92-58.22,41.23-58.22,41.23,10.47-73.77,56.17-86.2,60.55-87.45,6.66-6.23,15.39-25.26-5.29-38.09-7.06-4.38-13-9.93-13-9.93,4.33.51,14.49-.83,20.13-3.06,6.77-2.67,13-3.56,13-3.56-5.34-5.09-13.51-7.64-13.51-7.64,8.15-.51,20.9-3.31,28.79-6.88,7.89-3.56,12.23-9.93,10.95-12.74-1.27-2.81-8.4-1.27-8.4-1.27,2.55-3.82,8.66-5.35,8.66-5.35-17.58-1.02-30.38,8.55-30.38,8.55,1.95-4.19,8.38-11.73,8.38-11.73-2.44.8-9.19,2.91-9.61,3.04,27.52-21.25,58.24-39.94,101.28-40.21,43.03-.29,84.96,19,112.89,27.94,27.95,8.94,42.78,13.45,72.97,8.99,14.45-2.14,27.1-8.07,36.37-13.62,0,0,6.48-16.49,6.98-40.16,0,0,7.77,13.94,7.81,35.64.08,74.48-36.01,128.87-47.55,148.67-11.02,19.48-25.52,42.81-43.23,69.65ZM403.25,0s.98,17.91-2.4,34.3c-3.27,15.84-5.07,21.88-5.07,21.88-6.92,4.06-18.11,9.04-34.48,11.77-30.55,5.09-58.27-3.11-88.53-14.99-30.27-11.88-70.77-24.68-108.35-20.36-36.44,4.18-62.5,18.94-76.36,28.57-13.86,9.61-16.41,12.16-28.29,15.55,0,0,9.34,3.67,14.15,3.67,0,0-2.27,9.35-1.42,12.45,0,0,19.8-9.05,22.07-4.81s-7.07,7.08-13.57,8.77c-6.5,1.7-23.48,1.41-23.48,1.41,0,0,7.96,6.16,10.77,10.44,0,0-15.01,6.54-31.71,4.27,0,0-.55,6.18,13.17,16.31-2.92,1.05-6.62,2.74-8.91,5.19,0,0,14.38-2.97,23.41,7.1,2.38,2.98,3.16,5.65,2.89,9.03-.49,6.11-2.84,8.45-8.59,12.25-3.29,1.34-6.8,3.02-10.18,5.08-15.9,9.77-27.53,24.64-35.69,41.63-3.54,7.36-6.36,15.91-8.36,23.66-2,7.8-2.73,14.72-3.2,19.05-.47,4.31-1.11,17.92-1.11,17.92,0,0,7.13-10,10.48-14.79,3.33-4.77,24.43-31.3,55.15-38.99,9.83-2.5,19.62-3.54,28.97-3.54,22.49-.02,42.57,6.09,54.46,11.91,17.26,8.35,45.61,28.07,82.78,34.23,8.75,1.44,18.18,2.16,27.96,2.16s19.09-.68,28.79-2.01c-5.48,8.18-10.74,15.82-15.74,22.9-5.07-4.82-11.94-5.33-11.94-5.33-8.33-.79-12.51,4.29-12.51,4.29-1.69,1.82-2.95,4.19-3.44,6.99-.59,2.59.11,5.59.6,7.12,1.59,5.05,5.9,7.35,7.58,8.08-12.18,16.23-15.72,34.91-15.72,34.92l-5.56,4.9,2.01,8.13c-3.1,9.97,1.76,17.45,8.07,20.54,6.4,3.15,12.37,1.32,12.37,1.32,3.76-1.05,7.17-3.42,9.48-6.9.36-.53.67-1.06.94-1.6,1.3-.7,2.41-1.49,3.36-2.33,1.76.2,6.25.34,6.25.34,9.22-.08,18.23-2.69,25.1-8.53,5.41-4.84,11.37-13.1,11.58-24.38,0-2.12.39-10.66-6.67-18.11,44.52-65.37,73.42-107.45,91.88-150.26C445.13,47.73,403.43.41,403.25,0h0Z"/>
  <path class="cls-1" d="m256.51,332.15s-.02.04-.03.06c0,0,0,.02,0,.03,0-.02.02-.03.03-.05,0-.02,0-.03,0-.03Zm88.92-102.32c-19.59,9.13-64.8,24.27-109.82,15.87-15.67-2.92-36.29-7.82-63.56-24.35-17.89-10.83-37.2-21.19-82.23-20.99-37.3.18-61.26,17.08-68.88,23.37,20.24-66.04,80.07-56.38,80.07-56.38-10.92-5.24-24.03-3.23-24.03-3.23,18.75-29.49-11.46-43.3-11.46-43.3,2.54,0,14.01-3.31,19.86-5.35,5.86-2.03,16.62-3.44,16.62-3.44-3.75-3.45-15.35-6.23-15.35-6.23,10.95,0,20.87-5.31,27.77-12.49,2.4-2.5,8.98-15.01,1.52-19.86-6.87-4.46-20.48.49-20.49.5.02-.02,40.77-43.92,124.86-25.16,39.89,8.91,84.86,32.27,126.38,32.52,13.96.09,44.74-4.44,63.12-22.94-.97,35.14-7.51,84.35-64.38,171.48Zm-52.93,77.31c-.05-.04-.13-.1-.17-.13-1.06-.97-2.44-2.14-3.96-3.41,2.48-3.54,30.91-45.81,39.25-58.92,2.91-1.03,5.75-2.15,8.55-3.33-5.64,8.91-36.39,55.26-43.66,65.78Zm-1.49,37.01c-3.86,3.36-10.41,5.51-17.26,5.38-6.1-.12-10.39-1.11-14.27-3.22-.02.04-.03.08-.03.13-.3.26-.92,1.67-5.4,2.33-3.01.49-4.76-.11-4.94-.17,5.29,5.35,10.08,1.98,10.08,1.98.23.93.55,1.6.55,1.6,0,0-1.59,2.34-6.43,1.53-.59-.1-1.09-.26-1.58-.44.1.05.18.09.28.15,1.86,1.22,2.36,3.72,1.14,5.57-1.24,1.86-3.73,2.36-5.59,1.14-1.85-1.23-2.36-3.73-1.13-5.58,1-1.52,2.84-2.12,4.49-1.63-3.63-1.75-4.57-5.4-4.57-5.4,4.64-4.12,4.5-11.57,9.23-21.93.22-.48.46-.96.69-1.44,0,.02,0,.03-.02.05-1.03,2.58-2.01,7-1.61,10.23.09.7.23,1.34.39,1.96h0c.07.29,1.66,6.74,6.01,5.69-.04.1-.67,1.51-.68,1.53,1.9,1.18,6.26,3.25,13.68,3.35,10.42.14,16.12-6.72,17.68-11.82,1.23-3.97-.67-8.38-4.6-12.24,1.15-1.33,1.85-3.19,1.08-5.75.35,1.18-1.87,3.29-4.21,3.09-.22-.02-.42-.05-.64-.11-3.54-.99-7.57-5.29-10.98-7.84-3.4-2.55-4.39-6.5-4.32-9.3.05-2.8-.9-6.12-3.57-8.64-2.67-2.52-5.07-2.76-5.83-2.96-.77-.21-.99-.68-.91-1.19.16-.84,1.24-.68,1.24-.68,6.48,1.3,11.22,7.72,12.27,9.61.97,1.73,11.21,9.73,15.17,13.23,1.85,1.35,9.87,7.5,11.3,13.8,1.7,7.52-2.85,14.65-6.7,18Zm-11.55-17.1c1.27.63,3.1,1.87,3.95,3.66.22.48.33.93.33,1.44.13,2.09-2.32,5.15-4.49,5.96-1.57.65-3.66.97-5.67.96-.64,0-1.27-.03-1.88-.09.57-.96,1.26-2.13,2.03-3.38,1.73-2.83,3.87-6.12,5.73-8.55Zm-18.05-12.44c1.71-2.91,3.51-5.76,5.33-8.59.09-.13.17-.26.26-.39-.08.6-.29,3.84.8,7.06.63,1.54,1.63,3.1,3.22,4.55,1.42,1.31,2.6,2.35,3.59,3.17-4.79,6.19-11.58,17.77-11.58,17.77-2.91.17-4.36-.79-6-4.29-.23-.5-.42-1.05-.55-1.63h0c-.86-3.61-.08-8.26-.06-8.39.12-.24,3.35-6.47,4.99-9.25Zm47.86-64.51c3.98-.97,7.91-2.02,11.78-3.23.11-.03.23-.07.34-.11-3.95,5.99-35.06,50.5-37.2,53.39-.17-.14-5.52-4.71-5.71-4.88,7.93-11.02,30.35-44.48,30.8-45.17ZM406.86,19.54c-.49,23.67-6.98,40.16-6.98,40.16-9.27,5.55-21.92,11.47-36.37,13.62-30.18,4.46-45.01-.05-72.97-8.99-27.94-8.94-69.86-28.23-112.89-27.94-43.04.28-73.76,18.96-101.28,40.21.42-.13,7.18-2.24,9.61-3.04,0,0-6.42,7.54-8.38,11.73,0,0,12.81-9.57,30.38-8.55,0,0-6.11,1.53-8.66,5.35,0,0,7.13-1.54,8.4,1.27,1.28,2.8-3.05,9.17-10.95,12.74-7.89,3.57-20.64,6.37-28.79,6.88,0,0,8.16,2.55,13.51,7.64,0,0-6.23.89-13,3.56-5.64,2.23-15.8,3.57-20.13,3.06,0,0,5.93,5.55,13,9.93,20.68,12.83,11.95,31.85,5.29,38.09-4.38,1.25-50.08,13.68-60.55,87.45,0,0,23.15-32.3,58.22-41.23,35.07-8.92,69.07,0,86.91,8.71,17.85,8.72,45.47,27.83,81.38,33.79,19.75,3.28,43.53,2.68,66.54-1.72-.37.57-17.93,26.69-25.48,37.22,0,0-5.6-7.04-13.19-7.74,0,0-3.18-.64-5.76.7h0c-2.27,1.05-4.22,3.29-4.85,6.4-.64,3.15.5,5.59,1.99,7.31,1.42,1.65,3.2,2.49,4.64,2.88,1.29.31,3.08,1.1,3.42,2.8-3.46,5.33-8.2,13.02-11.61,20.46-2.68,5.85-3.96,10.88-5.03,14.26-1.01,3.47-1.91,4.82-2.2,5l-3.64,3.21s1.39,5.63,1.79,6.57c-.88,1.68-1.32,3.53-1.33,5.35v.1c0,3.82,1.88,7.57,5.31,9.83,2.67,1.84,6.54,1.95,6.54,1.95,3.81,0,7.56-1.88,9.81-5.27.54-.82.96-1.69,1.26-2.55,2.74-1.12,4.43-2.67,5.3-3.95,2.03.47,7.95.65,8.19.65,8.27-.06,16.1-2.43,21.83-7.31,4.61-4.12,9.64-11.18,9.8-20.63,0-1.69.51-10.57-8.02-17.63,7.38-10.66,16.44-23.95,25.96-38.36,17.72-26.85,32.21-50.17,43.23-69.65,11.53-19.8,47.62-74.19,47.55-148.67-.03-21.7-7.81-35.64-7.81-35.64Zm-150.38,312.67s0,.02,0,.03c0-.02.02-.03.03-.05,0-.02,0-.03,0-.03,0,.02-.02.04-.03.06h0Z"/>
  <path class="cls-2" d="m315.82,181.93c-20.13,14.24-51.64,18.59-51.64,18.59-.35,1.37-2.44,2.8-2.44,2.8,0,0,3.23,1.19,11.15,7.15,7.91,5.96,5.77,5.66,8.29,7.37,2.52,1.69,3.96,1.22,3.96,1.22.76,1.53.86,3.8.86,3.8,1.05.99,6.22,5.92,1.42,11.02-4.81,5.1-10.36.36-10.36.36-1.96.42-3.87-.23-3.87-.23,0,0-10.27,6.47-20.47-.58-8.3-5.72-7.8-12.51-7.31-14.85-2.8,1.61-5.81,2.86-8.9,3.83-8.33,2.61-18.95,3.69-29.51.18-6.93-2.33-12.68-6.38-17.21-10.87-4.54-4.5-7.89-9.46-10.08-13.93-.33-.68-.64-1.36-.92-2.01-.73,1.73-4.2,8.29-14.97,7.82-12.39-.54-16.69-11.89-16.69-11.89,0,0-1.91-.64-3.23-2.14,0,0-7.28.43-8.04-6.54-.75-6.97,6.35-7.78,7.79-7.94,0,0,1.44-1.76,2.97-2.52,0,0,.86,1.25,3.9,1.42,3.03.16,1.15-.9,11.06-.87,9.91.02,13.19,1.02,13.19,1.02,0,0-.8-2.4-.25-3.71,0,0-22.51-22.48-29.97-45.98-7.46-23.5-5.18-32.22,3.88-57,0,0,6.72,42.22,27.34,68.75,11.77,15.14,25,26.94,34.21,34.29.21,0,.42,0,.63,0-1.96-2.19-3.46-4.76-4.2-7.7-1.84-7.26-4.86-14.02-6.24-19.39-1.38-5.39,1.69-16.15,1.69-16.15-4.13-6.62-2.12-17.53-2.12-17.53,0,0,2.24-1.06,3.94-3.13,1.69-2.08,1.11-8.2,2.49-17.21,1.38-9.01,7.25-18.33,20.23-23.63,12.92-5.27,32.32,1.64,32.49,1.7.17.05,19.83,6.23,26.95,18.23,7.16,12.06,6.21,23.04,1.88,31.06-4.33,8.02-8.5,12.55-8.39,15.23.1,2.67,1.25,4.87,1.25,4.87,0,0-4.96,9.92-12.27,12.72,0,0-4.04,10.44-8.4,13.89-4.34,3.46-10.83,7.02-16.68,11.71-2.31,1.85-4.96,2.99-7.79,3.57.19.14.37.28.56.42,11.77-.31,29.37-1.74,47.8-6.69,32.45-8.73,63.27-38.35,63.27-38.35-7.71,25.23-11.15,33.56-31.27,47.81Zm30.87-100.64c-41.52-.25-86.49-23.61-126.38-32.52-84.09-18.76-124.84,25.14-124.86,25.16,0,0,13.63-4.96,20.49-.5,7.46,4.85.88,17.36-1.52,19.86-6.9,7.19-16.82,12.49-27.77,12.49,0,0,11.59,2.78,15.35,6.23,0,0-10.76,1.41-16.62,3.44-5.85,2.04-17.32,5.35-19.86,5.35,0,0,30.2,13.81,11.46,43.3,0,0,13.11-2.01,24.03,3.23,0,0-59.83-9.66-80.07,56.38,7.63-6.29,31.58-23.19,68.88-23.37,45.03-.2,64.35,10.16,82.23,20.99,27.27,16.53,47.89,21.43,63.56,24.35,45.02,8.4,90.23-6.74,109.82-15.87,56.87-87.13,63.41-136.34,64.38-171.48-18.37,18.49-49.16,23.02-63.12,22.94h0Z"/>
  <path class="cls-6" d="m256.27,324.16s0,.03-.02.05c-1.03,2.58-2.01,7-1.61,10.23.09.7.23,1.34.39,1.96h0c-2.43,11.17-7.13,11.35-8.38,11.19-.2-.03-.31-.06-.31-.06,4.64-4.11,4.5-11.57,9.23-21.93.22-.48.46-.96.69-1.44Zm10.73-18.54c-.07.6-.29,3.84.8,7.06,0,0-6,7.84-11.33,19.57.08-.22.04-.11,0-.03,0,0,0,.01,0,.02-.86-3.6-.08-8.25-.06-8.38.12-.24,3.35-6.47,4.99-9.25,1.71-2.9,3.51-5.76,5.34-8.59.09-.13.17-.26.26-.39Zm54.38-58.87c-3.95,5.99-35.06,50.5-37.21,53.38-.17-.14-5.52-4.71-5.71-4.88,7.93-11.02,30.35-44.48,30.8-45.16,3.98-.97,7.91-2.02,11.78-3.23.11-.03.23-.07.34-.11Zm-51.52-32.41s1.74,1.4,1.89,1.51c.66.5,2.08,1.81,2.74,2.46.54.53,1.08,1.06,1.61,1.6.39.4,2.01,1.93,2.56,2.33.42.31.84.58,1.28.8.4.2.82.35,1.25.46h0l-.04.03c-.9.68-1.96,1.12-3.1,1.12-.39,0-.82-.06-1.2-.15-.53-.13-1.04-.32-1.53-.57-.31-.16-.61-.33-.9-.52-.18-.12-.36-.25-.54-.38,0,0-.01-.02-.01-.02.05-.23.09-.48.11-.76.06-1.02-.15-2.18-.53-3.12-.63-1.66-3.52-4.71-3.59-4.76Zm-10.46-6.5c.14.08.28.15.43.24.7.4,1.41.79,2.11,1.19,1.47.85,2.93,1.73,4.36,2.65,1.02.66,2.04,1.33,3.02,2.04.13.09.25.19.38.28.96,1.07,1.95,2.45,2.4,3.73.54,1.48.57,2.84.38,3.84-3.13-3.02-9.72-7.86-11.58-8.82.18-2.22-.73-4.03-1.5-5.15Zm-52.63-25.84c1,.13,1.98.28,2.93.44-.54.75-1.06,1.51-1.56,2.3,1.06.19,2.13.41,3.22.66.44-.81.9-1.6,1.38-2.38.91.2,1.81.41,2.69.63-.41.8-.8,1.62-1.19,2.46,1.01.27,2.03.56,3.05.88.32-.86.65-1.7.97-2.53.86.27,1.71.55,2.55.86-.24.86-.5,1.72-.76,2.6,1.01.36,2,.74,2.97,1.13.19-.89.37-1.78.53-2.66.85.35,1.69.72,2.53,1.12-.09.9-.2,1.8-.33,2.7,1.01.45,2,.92,2.96,1.4.08-.91.12-1.82.14-2.73.86.45,1.73.92,2.61,1.42.04.91.04,1.83,0,2.74.53.29,1.05.58,1.56.87,0,.14,0,.29.01.43.02.8,0,1.61-.03,2.42-.01.23-.02.47-.04.7-.61-.31-1.23-.62-1.86-.93-.23,1.41-.58,2.8-1.05,4.16-.93-.54-1.88-1.06-2.84-1.56.42-1.31.75-2.63,1-3.96-1.02-.47-2.07-.92-3.14-1.37-.28,1.26-.62,2.53-1.02,3.78-.98-.45-1.97-.89-2.97-1.3.39-1.22.74-2.44,1.06-3.66-1.05-.4-2.11-.79-3.19-1.17-.37,1.18-.75,2.37-1.14,3.57-1.02-.36-2.03-.71-3.06-1.03.41-1.19.82-2.38,1.24-3.54-1.09-.35-2.17-.67-3.25-.98-.48,1.16-.93,2.34-1.36,3.55-1.04-.28-2.09-.53-3.15-.76.44-1.23.93-2.44,1.46-3.61-1.12-.28-2.24-.55-3.34-.79-.6,1.21-1.12,2.45-1.57,3.74-1.06-.18-2.14-.34-3.21-.47.44-1.35,1-2.66,1.66-3.91-.69-.13-1.38-.26-2.05-.37.15-.22.3-.44.45-.66.47-.68.95-1.33,1.46-1.97.06-.07.12-.15.18-.22.59.07,1.18.15,1.78.23.53-.77,1.1-1.52,1.69-2.24Zm130.36-32.72c-.16.38-6.57,15.1-33.24,26.67-1.19.51-2.4,1.03-3.66,1.53-5.42,2.04-16.83,5.9-31.93,8.62-6.1,1.1-12.28,1.85-18.45,2.37-.49.04-4.07.3-4.07.3-1.12-1.44-2.35-2.86-3.7-4.25,8.18-.36,16.59-1.17,24.83-2.66,34.03-6.11,54.92-20.34,64.94-28.26.92-.72,1.72-1.38,2.46-1.99,1.72-1.39,2.79-2.27,2.82-2.34Zm-176.25,28.79c.3,0,.91.01.86.02-1.59.09-4.09.67-5.69,1.63,0,0-.02.01-.03.02-.91.53-1.89,1.43-2.39,2.37-.03.06-.21.4-.26.46-5.2,0-6.13-3.94-6.15-4.01.43.18.87.31,1.32.39h0l.36.06c.36.05.73.07,1.11.07,1.6.01,3.26-.29,4.98-.53,1.95-.27,3.92-.47,5.89-.48Zm1.1.01c.68.01,1.36.03,2.04.07,1.07.05,2.15.13,3.22.22,2.16.19,4.67.48,6.81.82-1.28.43-3.05,1.27-4.25,3.15-.02.02-.03.03-.05.05-2.07-.36-10.24-.46-14.56.05.45-.91,1.3-1.98,2.62-2.83,1.14-.75,2.76-1.25,4.17-1.53Zm-14.61-92.48c1.86,7.83,7.39,37,36.35,68.37,5.73,6.21,11.99,11.96,18.35,17.22-1.92.31-3.77.71-5.54,1.19-4.45-3.92-14.74-14.06-15.28-14.59l-.02-.02c-8.61-8.67-15.05-17-19.88-24.75-1.01-1.65-1.79-3.01-2.42-4.03h0l-.96-1.72c-13.35-24.46-10.6-41.67-10.6-41.67Zm58.05,53.12c1.35-1.13,4.4-.61,4.4-.61,0,0,1.37,1.44,1.69,2.51.31,1.08-.01,6.98,2.32,11.04h0v-.1s.11-.43.61-1.17c.5-.74,1.47-1.78,2.05-1.37.58.41.5,1.57.49,2.81,0,1.24-.43,2.57-.74,2.94,0,0,.48.99,1.8,1.62,0,0-.06-.47.04-1.15.21-1.19.81-2.17,1.19-3.26.12-.38.49-.77,1.04-.47.01,0,1.1.57,2.06,1.05.11.08.78.59.42,1.55-.02.04-.02.06-.03.08-.01.04-.03.08-.05.13-.36.91-.67,1.74-1.13,2.69,0,0-.24.88-.65.92,0,0,.81.53,1.18.69.56.24,1.25.54,1.59.62,0,0-.37-.57-.28-1.39.22-1.17.57-2.77.86-4.11.1-.32.38-.85,1.03-.65.73.3,1.47.59,2.22.86.62.26.62.88.59,1.09-.34,1.48-.72,3.26-1.13,4.68-.09.22-.22.52-.33.63,0,0,.67.47,1.12.59.45.12,1.29.29,1.29.29,0,0-.16-.57.04-1.19,0-.01,0-.02,0-.04.33-.95.66-1.9,1-2.85.08-.24.32-.79.45-1.14.07-.18.36-.72,1.02-.58.87.26,1.75.5,2.63.72.65.19.28,1.19.28,1.19,0,0-.95,2.32-1.56,3.82h0s-.21.52-.55.8c0,0,.61.27,1.06.36.96.19,1.53.17,1.77.19,0,0-.3-.72.05-1.57.02-.04.03-.08.04-.12.29-.68.6-1.35.88-2.03.08-.19.15-.38.23-.58.1-.29.56-.77,1.33-.64.03,0,.04,0,.07,0,.61.11,1.22.22,1.84.31h0s1.1.23.7,1.26c-.55,1.23-1.14,2.47-1.8,3.71.68.05,1.37.09,2.07.11,0,0-.09-.06.2-.83.28-.77,1.11-2.4,1.2-2.64.08-.24.4-1.19.8-1.24.4-.04,1.97,1.21,1.56,3.63,4.3-1.84,7.59-6.73,8.49-7.39.79-.58,2.37-.9,2.77-.97.66.38,2.59,1.59,2.92,3.01,0,0-3.24,2.98-7.23,4.74-4,1.76-10.04,5.57-12.42,7.16-.9.6-2.13,1.12-3.68,1.4-.97-1.72-4.33-3.85-8.64-5.3-4.5-1.51-8.64-1.81-10.33-.87-1.23-1.26-1.98-2.52-2.36-3.63-.94-2.7-3.47-9.39-5.59-13.2-2.12-3.81-2.91-8.14-2.91-8.14Zm13.05-49.59c.09-4.49,4.83-22.96,29.45-18.76,4.54.94,8.18,2.04,9.13,2.34.1.03.18.06.28.1.47.15,1.11.35,1.88.64.22.09.46.17.7.27.32.12.66.25,1.01.4.47.19.96.4,1.48.62.51.23,1.05.48,1.6.74,1.2.58,2.48,1.26,3.77,2.04.13.07.26.15.38.22.04.02.08.04.11.07,10.02,6.1,12.77,13.54,12.77,19.7,0,5.41-2.13,9.84-3.29,11.47-1.64,2.28-3.12,3.85-3.88,5-.91-1.63-1.61-3.35-1.88-5.08h0s0,.03,0,.03c.03.51.62,8.36,4.62,12.4l.21.2s-2.33,5.2-2.81,8.35c-.48,3.16.75,6.49.75,6.49,0,0-.31.5-.76,1.19-2.45,2.9-6.75,5.4-9.06,4.98-2.62-.48-8.93-2.63-12.59-1.88-3,.62-4.81,2.32-5.8,4.03,0,0,0,0,.02,0-.27.32-.52.67-.69,1.09,0,0-.78,1.36-.99,3.17-.54-.23-.99-.42-.99-.42,0,.1,0,.22-.02.36-.03.27-.16.7-.17.76,0,.1-.02.16-.03.19-.06.24-.13.48-.19.73-.24.88-.46,1.6-.73,2.46,0,0-.03.03-.03.06-.28.82-1.11.55-1.11.55,0,0-.09-.03-.09-.03-.61-.3-1.27-.62-1.96-.95,0,0-.78-.41-.66-1.21,0-.02,0-.03,0-.06,0-.03,0-.06.02-.09.03-.07.04-.16.07-.22.22-.78.67-2.45.73-2.84.08-.46.38-1.3.57-1.63-.13-.13-.46-.48-.74-.62-.24-.12-.5-.17-.86-.15-.13.11-.35.45-.35.63,0,.1-.28.97-.59,1.92-.31.96-.67,2.01-.82,2.49-.17.52-.54.63-.85.63-.19,0-.35-.04-.41-.07h-.03c-.6-.25-1.43-.55-2.08-.79-.04,0-.08-.03-.12-.04-.78-.29-.73-.96-.67-1.23.34-1,.77-2.27,1.1-3.27.07-.23.16-.47.22-.71,0,0,0-.02.02-.03.03-.1.32-.85.77-1.07-.29-.22-.88-.46-1.32-.61-.53-.17-1.47-.34-1.52-.35.16.34.19.93.11,1.22-.11.39-1.15,4.01-1.19,4.15-.05.14-.23.57-.52.67-.28.1-1.05-.15-1.05-.15-.05,0-.09-.02-.13-.03-.66-.2-1.59-.35-2.21-.52,0,0-1.02-.29-.7-1.23,0,0,.67-2.44.99-3.6,0-.03,0-.07.02-.1.03-.09.17-.57.22-1.31s-.44-.91-.8-.91-.73.62-.81.99c-.1.39-.31,1.04-.31,1.04h0l-.03.06c-.03.06-.05.12-.07.17-.35.94-.63,1.72-.95,2.66-.3.8-1.13.74-1.3.71h-.03c-.74-.16-1.46-.31-2.13-.43,0,0-.1-.03-.1-.03,0,0-.83-.29-.55-1.11,0-.03,0-.05.02-.08.29-.86.54-1.55.89-2.4.1-.22.44-1.05.64-1.37.21-.32.48-.49.48-.49,0-.19-.28-.54-.8-.73-.06-.02-.13-.03-.21-.05.3-.75.68-1.79.86-2.66.57-2.12.5-5.1-1.95-7.91-2.46-2.81-8.8-4.9-11.17-6.1-2.38-1.19-4.51-6.93-4.23-10.89,0,0,2.98-1.92,4.5-4.73,1.54-2.8,2.8-8.34,2.8-8.34,5.75-.65,11.13-6.77,11.46-7.15-1.43,1.37-3.3,2.4-5.23,3.2.1-1.31-.11-3.53-.05-6.8Z"/>
  <path class="cls-7" d="m257.73,290.19c.16-.84,1.24-.68,1.24-.68,6.48,1.3,11.22,7.72,12.27,9.61.97,1.73,11.21,9.73,15.17,13.23,1.85,1.35,9.87,7.5,11.3,13.8,1.7,7.52-2.85,14.65-6.7,18-3.86,3.36-10.41,5.51-17.26,5.38-6.1-.12-10.39-1.11-14.27-3.22-.02.04-.03.08-.04.13-.3.26-.92,1.67-5.4,2.33-3.01.49-4.76-.11-4.94-.17,5.29,5.35,10.08,1.98,10.08,1.98.23.93.55,1.6.55,1.6,0,0-1.59,2.34-6.43,1.53-.59-.1-1.09-.26-1.58-.44.09.05.18.09.28.15,1.86,1.22,2.36,3.72,1.14,5.57-1.24,1.86-3.73,2.36-5.59,1.14-1.85-1.23-2.36-3.73-1.13-5.58,1-1.52,2.84-2.12,4.49-1.63-3.63-1.75-4.57-5.4-4.57-5.4,0,0,.11.03.31.06,1.25.16,5.95-.02,8.38-11.18.07.29,1.66,6.73,6.01,5.68-.04.1-.67,1.51-.68,1.53,1.9,1.18,6.26,3.25,13.68,3.35,10.42.14,16.12-6.72,17.68-11.82,1.23-3.97-.67-8.38-4.6-12.24,1.15-1.33,1.85-3.19,1.08-5.75.35,1.19-1.87,3.3-4.21,3.09-.22-.02-.42-.05-.64-.11-3.54-.99-7.57-5.29-10.98-7.84-3.4-2.55-4.39-6.5-4.32-9.3.05-2.8-.9-6.12-3.57-8.64-2.67-2.52-5.07-2.76-5.83-2.96-.77-.21-.99-.68-.91-1.19Zm21.72,36.85c1.27.63,3.1,1.87,3.95,3.66.22.48.33.93.33,1.44.13,2.09-2.32,5.15-4.49,5.96-1.57.65-3.66.97-5.67.96-.64,0-1.27-.03-1.88-.09.57-.96,1.26-2.13,2.03-3.38,1.73-2.83,3.88-6.12,5.73-8.55Zm-11.65-14.37c.63,1.54,1.63,3.1,3.22,4.55,1.42,1.31,2.6,2.35,3.59,3.17-4.79,6.19-11.58,17.77-11.58,17.77-2.9.17-4.36-.79-6-4.29-.23-.5-.42-1.05-.55-1.63,5.32-11.72,11.32-19.56,11.33-19.57Zm68.36-71.31c-5.64,8.91-36.39,55.25-43.67,65.78-.05-.04-.13-.1-.17-.13-1.06-.97-2.44-2.14-3.96-3.41,2.48-3.54,30.91-45.81,39.25-58.91,2.91-1.03,5.75-2.15,8.55-3.33Zm-77.05-43.86s.5-.37.81,0c.18.24.2.54-.14.85-.33.31-1.47,1.08-2.15,3.07-.68,2.01-.26,3.94.52,5.35.73,1.3,1.04,2.88.79,4.36-.09.52-.25,1.05-.47,1.53-.56,1.19-.99,2.43-1.49,3.64-.55,1.32-1.16,2.55-1.95,3.3-.87.83-2.28.57-3.15-.12-.04-.03-.08-.05-.11-.08.36,1.56,1.34,2.18,2.36,2.41-.47,3.11.63,5.38,4.38,7.22,3.84,1.88,10.49,1.87,15.46-2.87-.5-.56-1.09-.97-1.67-1.43,0,0-.02-.02-.03-.02.39-.11.88-.32,1.2-.72.18-.22.3-.58.39-1h0l.02.02c.18.14.36.27.54.38.29.19.59.36.9.52.49.25,1,.44,1.53.57.38.09.8.15,1.2.15,1.14,0,2.2-.44,3.1-1.12.01,0,.02-.01.03-.02,0,0,.09.55.09.67.04.71-.04,1.84-.71,2.94.69-.52,1.65-.64,2.46-.19,1.1.6,1.52,1.98.92,3.08-.6,1.1-1.98,1.52-3.08.92-1.07-.58-1.46-1.88-.95-2.96-.18.18-.35.37-.57.54-1.31,1-2.33,1.16-2.97,1.12-.45-.03-.71-.15-.71-.15,0,0,.03-.29-.1-.76-.02-.06-.03-.12-.05-.19.16.01.44.02.8-.03,1.11-.16,2.92-.86,3.79-3.71,0,0-.21.28-.58.63-.8.79-2.44,1.96-4.7,1.8-1.08.93-7.8,6.26-15.84,3.42-8.78-3.11-8.85-8.53-8.63-10.3.14-1.16.76-3.06.79-3.15.71-2.22,4.34-10.24,4.36-11.48.02-1.24.69-5.77,3.63-8.18Zm1.79,15.47c1.85.96,8.44,5.8,11.58,8.82-.1.5-.24.94-.44,1.19-.31.39-.76.6-1.15.73-2.76-1.89-6.94-4.36-11.36-6.35.27-.68.59-1.53.96-2.58.24-.67.41-1.82.41-1.82Zm-81.06-42.34c.47-.12.65.48.65.48.89,3.69-1.31,7.71-2.04,8.71-.73,1-2.68,9.58-3.46,11.79,0,0-.91,2.26-1.27,2.99-.8,1.59-4.22,5.83-13.1,3.01-8.13-2.58-10.31-10.88-10.61-12.26-2.77-1.78-2.7-5.14-2.7-5.14-1.36,3.71.88,5.42,1.41,5.76-.06-.04-.53.45-.58.51,0,0-.11.16-.12.16,0,0-.8-.15-1.53-1.19-.31-.43-.6-1-.82-1.8-.08-.29-.13-.57-.16-.84,0,.03,0,.06,0,.09-.19,1.26-1.36,2.12-2.62,1.93-1.25-.19-2.12-1.37-1.93-2.62.19-1.26,1.36-2.12,2.62-1.93.99.15,1.74.91,1.92,1.84.07-2.26,1.72-3.59,1.72-3.59.02.07.95,4.01,6.15,4.01-.18.39-.3.75-.29,1.04.02.51.28.98.53,1.3h-.26c-.57,0-1.98.01-1.98.13,1.1,6.78,6.41,10.8,10.6,11.61,4.09.8,6.34-.34,7.84-3.1.95.43,2.11.51,3.35-.51-1.81.08-2.59-1.02-2.73-1.81-.36-2.08.94-5.22,1.44-7.61.51-2.39,2.33-3.85,3.8-4.5,1.48-.65,2.98-1.94,3.65-3.95.67-2,.21-3.3.13-3.75-.08-.45.12-.68.4-.76Zm157.28-21.37s-.16.47-.16.47c-1.99,5.73-5.66,11.05-9.69,15.53-2.93,3.25-6.12,6.21-9.52,8.96-5.22,4.21-11.16,7.63-17.21,10.49-6.01,2.84-12.32,5.09-18.72,6.87-10.02,2.78-20.62,4.23-31.1,4.82-.8-1.55-1.75-3.14-2.83-4.74,33.67-2.41,55.83-15.6,55.83-15.6h0l.17-.13c26.66-11.57,33.07-26.29,33.24-26.67Zm-181.94,33.16c4.32-.51,12.49-.4,14.56-.05.01-.02.03-.03.05-.05-.32.51-.61,1.07-.82,1.74-.34,1.06-.6,1.92-.8,2.63-4.98-1.37-12.89-1.79-12.89-1.79-.23-.33-.46-.78-.47-1.28,0-.33.15-.76.37-1.22Zm-7.82-96.84s-2.75,17.21,10.6,41.67l-.04-.07-.04-.06s9.52,23.54,34.48,45.63l.76.67c-1.82.64-3.54,1.33-5.11,2.08-.25.12-2.77-2.39-3.08-2.66-2.52-2.23-4.97-4.53-7.34-6.9-5.54-5.54-10.64-11.52-15.11-17.94-3.63-5.22-6.9-10.71-9.54-16.5-2.58-5.65-4.68-11.51-6-17.59-1.24-5.72-1.79-11.61-1.48-17.46.18-3.46.6-7.05,1.72-10.35,0,0,.17-.49.17-.49Zm60.09,42.43s2.35,1.14,3.08,1.57c0,0,0,.03-.01.08-.09.66-.71,5.34-.74,7.59,0,.35,0,.63.03.84,0,0-3.05-.53-4.4.61,0,0,.79,4.33,2.91,8.14,2.12,3.81,4.65,10.5,5.59,13.2.38,1.11,1.14,2.37,2.36,3.63,1.69-.94,5.82-.65,10.33.87,4.31,1.45,7.67,3.58,8.64,5.3,1.55-.29,2.78-.8,3.68-1.4,2.38-1.59,8.42-5.4,12.42-7.16,3.99-1.76,7.23-4.74,7.23-4.74-.33-1.42-2.26-2.63-2.92-3.01.06-.01.09-.01.09-.01,1.11-1.12,4.15-6.49,4.53-7.15.03-.05.04-.07.04-.07.84.1,3.4.61,3.4.61,0,0-2.66,6.18-4.23,8.84-1.57,2.65-2.85,3.55-4.38,4.63-1.53,1.08-8.27,5.54-10.06,6.79-1.78,1.26-6.52,5.51-10.66,6.24-2.05.36-3.83.41-5.52.22-1.69-.19-3.29-.61-4.98-1.18-.01,0-.02,0-.03-.01-.01,0-.03,0-.03,0-3.38-1.14-6.12-2.51-8.95-5.57-2.5-2.69-3.74-7.82-4.46-10.45-.1-.38-.19-.7-.28-.96-.66-2.08-3.35-9.7-3.92-11.49-.57-1.78-1.05-3.27-.7-6.34.33-2.88,1.76-8.8,1.94-9.53,0-.05.02-.07.02-.07Zm38.39,17.74s1.53-1.08,4.27-.95c0,0-.02.02-.02.03h.02c-.08.2-.7,1.9-.86,3.4-.09.93-.54,3.26-.54,3.28-.8,2.8-3.5,4.35-3.74,4.19-.29-.18-.66-.86.55-4.74,0-.19.62-.41.76-.41.25-.04.5-.08.75-.12,0,0-.07-.15-.33-.52-.11-.18-.41-.29-.59-.4-.21-.11-1.26-.58-1.26-.59.2-1.66.87-2.94.98-3.15l.02-.03Zm-40.86-32.81c-.29,3.96,1.85,9.69,4.23,10.89,2.37,1.19,8.71,3.28,11.17,6.1,2.46,2.81,2.52,5.79,1.95,7.91-.18.87-.56,1.91-.86,2.66-.17-.04-.34-.07-.51-.09-.5-.06-1.3-.11-1.46.51,0,.03-.02.04-.02.04.08.27.14.6.1.78-.04.2-.11.38-.15.47-1.36,3.81-2.08,4.14-2.41,4.11-.29-.02-1.5-2.89-.46-5.6,0-.02.02-.03.02-.05.54-1.21,1.05-2.09,1.52-2.89.84-1.38,1.37-3.26,1.37-3.26h0l.02.03v-.03c.7.48,1.3,1.06,1.85,1.69.02.02.03.03.03.04.25.42.64.73.86,1.18.06.13.1.25.1.34.19-.73.16-1.61-.11-2.32-.02-.03-.02-.05-.03-.08-1.03-2.81-3.69-4.46-6.17-5.86-1.65-.93-3.37-1.75-5.11-2.51-5.09-2.24-5.17-3.73-5.85-6.08-.08-.29-.15-.64-.2-1.02-.1-.75-.12-1.65-.12-2.54,0-2.22.22-4.43.22-4.43Zm68.98,24.6s-.04.06-.06.09c-1.02,1.82-2.39,3.76-4.07,5.02-1.95,1.47-2.91,2.6-8.33,1.32-2.13-.51-4.28-.97-6.45-1.24-2.78-.35-6.45-.45-8.47,1.88,0,.02-.02.02-.03.04-.02,0-.03.02-.03.03,1-1.72,2.81-3.42,5.82-4.05,3.66-.75,9.97,1.39,12.59,1.88,2.31.42,6.6-2.08,9.05-4.98Zm-33.48-13.98c1.95.78,3.04,2.75,2.45,4.51-.37,1.12-.29,2.02-.2,3.22h0v.03s.01.02.01.02c.04.96.26,1.47.49,2.13.24.61.52,1.59.16,2.59h0l-.46,1.37c-.61,1.84-2.83,2.75-4.94,2.05h0s1.42-.37,1.88-1.73c0-.02.02-.04.02-.05.87-.13,1.64-.65,1.91-1.48h0l.49-1.43c.48-1.46-.6-2.12-.66-4.48-.09-1.22-.17-2.4.3-3.81.38-1.14-.26-2.41-1.45-2.93Zm-5.17,1.94c.6-1.75,2.65-2.67,4.71-2.09-1.27-.32-2.56.31-2.94,1.45-.48,1.42-1.28,2.3-2.08,3.22-1.48,1.85-2.74,1.72-3.23,3.18h0l-.48,1.43c-.28.82.02,1.69.62,2.32,0,.02-.02.04-.02.06-.46,1.37.46,2.51.46,2.51-2.1-.71-3.31-2.77-2.7-4.6h0l.46-1.37c.32-1.02,1.12-1.63,1.69-1.98.59-.38,1.06-.66,1.68-1.39h0l.03-.04c.81-.9,1.43-1.57,1.8-2.7Zm36.99-4.38h.08s-1.08,7.31-2.86,10.17c-1.78,2.87-3.48,5.52-7.91,5.28,0,0,2.57-.74,1.75-2.76-.06-.15-.1-.29-.14-.45,1.18-.67,2.25-1.17,3.22-2.18,1.29-1.34,2.31-2.99,3.04-4.69.32-.75.59-1.52.81-2.31,0,0,.57-2.62,1.68-3.01.12-.02.23-.04.35-.05h0Zm-34.7-7.13c.94,2.05,8.37,4.54,10.4,3.49,0,.04-.2,2.71-.19,4.31,0,1.6.55,7.78,3.26,9.4h0s-.67.8.2,3.32c-.21-.07-3.6-1.32-4.82-4.06-1.26-2.82-.03-10.39-4.57-11.98-4.57-1.48-8.15,5.31-10.87,6.8-2.7,1.49-6.3.34-6.3.34,2.09-1.39,2.17-2.4,2.17-2.52h0c3.13.33,7.28-4.27,8.26-5.55.97-1.27,2.46-3.54,2.46-3.54Zm-21.64-11.79l.05.03h.02c.08.09.16.17.24.26.65.98-.48,3.41-.48,3.41-.29.71-.51,1.44-.7,2.17-.65,2.52-.89,5.64.15,8.14.04.09.7,1.23.67,1.26-.06.05-.12.1-.19.15-.07.05-.14.1-.21.14-1.8,1.05-.39,3.08-.28,3.23-3.67-2.46-3.44-5.6-3.12-8.97.31-3.36,3.85-9.83,3.85-9.83h0Zm48.02-26.74l1,.42c25.77,12.4,20.09,31.98,18.62,35.73-1.34,3.36-4,6.68-5.17,8.58-1.37-1.5-3.21-3.73-4.59-6.23.76-1.15,2.24-2.71,3.88-5,1.17-1.63,3.29-6.06,3.29-11.47,0-6.16-2.75-13.6-12.77-19.7-.03-.03-.07-.05-.11-.07-.12-.08-.25-.16-.38-.22-1.29-.78-2.57-1.46-3.77-2.04Zm-39.98,22.2c4.31-1.07,11.3,5.45,15.42,8.88,3.5,3.1,5.03,3.39,5.35,3.48.32.12,1.71.81,6.35.45,5.36-.25,14.87-1.24,17.67,2.22,0,.1-6.76-.67-11.32.07-4.53.96-10.96,1.57-13.82.58-2.87-.93-7.63-5.3-10.66-8.79-3.17-3.31-8.98-6.77-8.98-6.88Zm14.64-28.29c2.07,0,4.28.15,6.66.48.86.15,1.69.31,2.49.48l.12.03h0c-24.62-4.19-29.36,14.27-29.45,18.76-.06,3.28.16,5.49.05,6.8-3.58,1.5-7.41,2.04-7.41,2.04.21-2.08.2-6.66,1.09-10.27.84-3.4,6.51-18.23,26.45-18.32Z"/>
  <path class="cls-3" d="m226.41,65.76c12.92-5.27,32.32,1.64,32.49,1.7.17.05,19.83,6.23,26.95,18.23,7.16,12.06,6.21,23.04,1.88,31.06-4.33,8.02-8.5,12.55-8.39,15.23.1,2.67,1.25,4.87,1.25,4.87,0,0-4.96,9.92-12.27,12.72,0,0-4.04,10.44-8.4,13.89-4.34,3.46-10.83,7.02-16.68,11.71-2.31,1.85-4.96,2.99-7.79,3.57.19.14.37.28.56.42,11.77-.31,29.37-1.74,47.8-6.69,32.45-8.73,63.27-38.35,63.27-38.35-7.71,25.23-11.15,33.56-31.27,47.81-20.13,14.24-51.64,18.59-51.64,18.59-.35,1.37-2.44,2.8-2.44,2.8,0,0,3.23,1.19,11.15,7.15,7.91,5.96,5.77,5.66,8.29,7.37,2.37,1.59,3.78,1.27,3.94,1.22h.02c.76,1.53.86,3.8.86,3.8,1.05.99,6.22,5.92,1.42,11.02-4.81,5.1-10.36.36-10.36.36-1.96.42-3.87-.23-3.87-.23,0,0-10.27,6.47-20.47-.58-8.3-5.72-7.8-12.51-7.31-14.85-2.8,1.61-5.81,2.86-8.9,3.83-8.33,2.61-18.95,3.69-29.51.18-6.93-2.33-12.68-6.38-17.21-10.87-4.54-4.5-7.89-9.46-10.08-13.93-.33-.68-.64-1.36-.92-2.01-.73,1.73-4.2,8.29-14.97,7.82-12.39-.54-16.69-11.89-16.69-11.89,0,0-1.91-.64-3.23-2.14,0,0-7.28.43-8.04-6.54-.75-6.97,6.35-7.78,7.79-7.94,0,0,1.44-1.76,2.97-2.52,0,0,.86,1.25,3.9,1.42,3.03.16,1.15-.9,11.06-.87,9.91.02,13.19,1.02,13.19,1.02,0,0-.8-2.4-.25-3.71,0,0-22.51-22.48-29.97-45.98-7.46-23.5-5.18-32.22,3.88-57,0,0,6.72,42.22,27.34,68.75,11.77,15.14,25,26.94,34.21,34.29.21,0,.42,0,.63,0-1.96-2.19-3.46-4.76-4.2-7.7-1.84-7.26-4.86-14.02-6.24-19.39-1.38-5.39,1.69-16.15,1.69-16.15-4.13-6.62-2.12-17.53-2.12-17.53,0,0,2.24-1.06,3.94-3.13,1.69-2.08,1.11-8.2,2.49-17.21,1.38-9.01,7.25-18.33,20.23-23.63Zm33.5,131.75c-.3-.38-.8,0-.8,0-2.94,2.4-3.61,6.93-3.63,8.18-.02,1.25-3.64,9.26-4.35,11.48-.03.09-.65,2-.8,3.15-.22,1.77-.15,7.19,8.63,10.31,8.04,2.85,14.76-2.49,15.84-3.42,2.26.16,3.9-1.01,4.69-1.8.33-.32.53-.57.57-.63-.86,2.84-2.67,3.54-3.78,3.7-.35.05-.65.05-.8.03.03.08.03.13.05.2.13.47.1.76.1.76,0,0,.26.13.71.16.64.03,1.66-.12,2.98-1.12.22-.17.39-.35.56-.54-.51,1.08-.11,2.38.95,2.96,1.11.6,2.49.19,3.09-.92.61-1.1.19-2.49-.92-3.09-.81-.44-1.77-.33-2.46.19.67-1.1.74-2.23.7-2.94,0-.12-.08-.67-.09-.67h0c-.44-.12-.86-.28-1.25-.47-.44-.22-.86-.49-1.27-.8-.55-.41-2.17-1.94-2.57-2.33-.53-.54-1.07-1.06-1.61-1.6-.65-.64-2.08-1.95-2.73-2.46-.13-.1-1.59-1.26-1.84-1.46.37.38,2.95,3.16,3.54,4.72.38.93.6,2.1.54,3.11-.02.29-.06.54-.11.77,0,0,0,.02.02.02,0,0-.02,0-.03,0-.09.42-.22.78-.39,1-.32.39-.82.61-1.2.72,0,0,.02,0,.03.02.58.46,1.18.87,1.67,1.44-4.97,4.74-11.62,4.75-15.46,2.86-3.74-1.83-4.85-4.1-4.38-7.22-1.01-.22-1.99-.85-2.36-2.4.03.03.08.04.11.08.86.7,2.27.95,3.15.12.79-.74,1.4-1.97,1.95-3.29.5-1.21.93-2.46,1.5-3.64.22-.48.38-1.01.47-1.53.25-1.48-.06-3.05-.79-4.36-.79-1.41-1.2-3.35-.53-5.35.68-2,1.82-2.76,2.15-3.07.34-.3.32-.61.14-.85Zm-.52,10.32c.76,1.11,1.68,2.93,1.5,5.14,0,0-.17,1.14-.41,1.82-.37,1.05-.69,1.89-.96,2.58,4.42,1.99,8.6,4.47,11.36,6.35.39-.13.84-.35,1.15-.73.2-.26.34-.69.43-1.19.2-1,.16-2.37-.38-3.84-.45-1.28-1.44-2.66-2.4-3.73-.12-.1-.25-.18-.37-.28-.99-.71-2-1.38-3.03-2.04-1.43-.92-2.88-1.8-4.36-2.65-.7-.41-1.4-.8-2.11-1.19-.15-.09-.29-.16-.42-.23Zm-37.22-30.66c-17.14-5.75-35.73,2.75-39.81,7.91-.17.21-.33.42-.46.66-.02.03-.03.08-.05.1,0,0-.1.16-.22.48-1.63,4.86,8.22,25.51,26.81,31.75,18.61,6.24,38.72-3.74,40.53-9.15.13-.39.16-.71.16-.71.18-1.28-.1-3.1-.81-5.24-2.77-8.21-11.97-21.03-26.15-25.79Zm10.85,17.14c6.53,3.83,11.39,7.95,13.87,10.9-3.63-2.68-8.35-5.65-13.89-8.48.04-.81.05-1.62.03-2.42Zm-53.09-23.7l-.1.02c-.28.08-.48.31-.4.76.08.44.54,1.75-.14,3.74-.67,2.01-2.16,3.3-3.64,3.95-1.48.65-3.29,2.11-3.8,4.5-.5,2.39-1.8,5.53-1.44,7.61.13.8.92,1.88,2.72,1.82-1.24,1.02-2.4.94-3.35.51-1.5,2.76-3.74,3.89-7.84,3.1-4.18-.8-9.49-4.82-10.59-11.61,0-.12,1.41-.13,1.98-.13h.25c-.24-.32-.51-.8-.53-1.3,0-.29.11-.65.29-1.04.04-.06.22-.4.26-.46.5-.94,1.47-1.83,2.39-2.37,0,0,.02-.02.03-.02,1.6-.96,4.11-1.54,5.7-1.63.04,0-.56-.03-.86-.02-1.97,0-3.93.2-5.89.48-1.73.24-3.39.54-4.98.53-.51,0-1-.04-1.48-.13-.44-.09-.88-.22-1.31-.4,0,0-1.65,1.32-1.72,3.59-.17-.93-.93-1.69-1.91-1.84-1.25-.19-2.43.67-2.62,1.93-.19,1.25.68,2.43,1.94,2.62,1.25.19,2.42-.67,2.61-1.93,0-.03,0-.06,0-.1.03.27.09.55.16.84.22.8.51,1.37.82,1.8.73,1.04,1.53,1.19,1.53,1.19,0,0,.11-.15.12-.16.05-.06.48-.51.57-.51-.54-.35-2.75-2.06-1.4-5.75,0,0-.08,3.35,2.7,5.14.3,1.38,2.48,9.68,10.62,12.26,8.88,2.83,12.29-1.41,13.1-3.01.35-.73,1.26-2.99,1.26-2.99.77-2.2,2.72-10.78,3.46-11.78.73-1,2.93-5.01,2.04-8.71,0,0-.18-.61-.66-.48l.1-.02Zm157.18-21.35c-.03.07-1.1.95-2.82,2.34-.73.61-1.55,1.26-2.46,1.99-10.01,7.91-30.91,22.13-64.93,28.26-8.25,1.48-16.65,2.29-24.84,2.65,1.35,1.39,2.59,2.81,3.71,4.25,0,0,3.58-.27,4.07-.31,6.17-.52,12.35-1.26,18.45-2.37,15.1-2.72,26.51-6.58,31.92-8.62,1.27-.5,2.48-1.01,3.67-1.53h0l-.16.14s-22.17,13.19-55.83,15.61c1.07,1.6,2.02,3.18,2.83,4.74,10.47-.59,21.07-2.05,31.09-4.82,6.41-1.78,12.71-4.03,18.73-6.87,6.05-2.85,11.99-6.28,17.21-10.49,3.4-2.75,6.59-5.71,9.52-8.97,4.03-4.47,7.7-9.8,9.69-15.52h0l.15-.45v-.03Zm-175.16,28.8c-1.41.28-3.03.78-4.17,1.53-1.32.86-2.17,1.92-2.62,2.83-.22.47-.38.9-.37,1.22.02.5.25.94.48,1.28,0,0,7.91.42,12.89,1.79.19-.71.45-1.58.79-2.64.22-.67.51-1.24.83-1.75,1.19-1.88,2.96-2.72,4.25-3.15-2.14-.35-4.65-.63-6.8-.82-1.07-.1-2.14-.17-3.23-.22-.67-.03-1.36-.05-2.04-.07Zm23.01,6.48c3.84-.85,10.41-1.25,18.14-.33-.51.63-.99,1.29-1.46,1.97-6.31-1.13-12.05-1.59-16.68-1.63Zm-37.61-98.96l-.17.49c-1.12,3.29-1.54,6.89-1.72,10.35-.31,5.85.24,11.74,1.48,17.46,1.31,6.09,3.42,11.94,6,17.6,2.64,5.79,5.9,11.28,9.54,16.5,4.47,6.42,9.58,12.41,15.11,17.94,2.37,2.38,4.82,4.68,7.34,6.91.31.27,2.83,2.78,3.08,2.66,1.57-.75,3.29-1.44,5.11-2.08-25.13-21.92-34.93-45.54-35.23-46.27h0l.07.12c.31.57.62,1.14.96,1.72.62,1.02,1.4,2.38,2.41,4.03,4.84,7.75,11.27,16.08,19.89,24.75.03.03,10.73,10.58,15.3,14.6,1.77-.48,3.62-.88,5.54-1.19-6.35-5.26-12.62-11.02-18.36-17.21-28.95-31.37-34.48-60.53-36.34-68.37h0Zm60.09,42.44s0,.03-.02.07c-.18.73-1.61,6.66-1.94,9.54-.04.38-.07.73-.09,1.07-.14,2.36.28,3.7.79,5.27.57,1.78,3.26,9.41,3.92,11.48.09.26.18.59.29.96.71,2.64,1.95,7.76,4.45,10.45,2.84,3.05,5.58,4.43,8.96,5.57,0,0,.02,0,.03,0,.02,0,.03,0,.03,0,1.69.57,3.29.99,4.98,1.18,1.69.19,3.47.15,5.52-.22,4.14-.73,8.88-4.98,10.66-6.24,1.78-1.26,8.53-5.72,10.06-6.8,1.53-1.08,2.81-1.98,4.38-4.63,1.57-2.66,4.23-8.85,4.23-8.85,0,0-2.55-.5-3.4-.61,0,0,0,.03-.03.07-.38.67-3.42,6.04-4.53,7.16,0,0-.04,0-.09.02-.4.07-1.98.38-2.77.97-.91.67-4.19,5.55-8.49,7.39.41-2.42-1.16-3.67-1.56-3.63-.4.04-.71.99-.8,1.24-.09.24-.92,1.88-1.19,2.65-.29.77-.2.83-.2.83-.69-.03-1.38-.06-2.07-.11.66-1.25,1.25-2.48,1.8-3.71.36-.93-.5-1.2-.66-1.25h-.03s0-.02,0-.02c-.61-.1-1.23-.19-1.84-.31h-.06c-.77-.14-1.24.35-1.33.64-.08.19-.15.39-.23.58-.29.67-.59,1.36-.88,2.03,0,.04-.02.09-.04.12-.35.86-.05,1.57-.05,1.57-.23-.02-.8,0-1.77-.19-.45-.1-1.05-.36-1.05-.36.34-.28.54-.8.54-.8.61-1.5,1.56-3.81,1.56-3.81,0,0,.37-1-.28-1.19-.88-.22-1.76-.46-2.63-.72-.67-.15-.95.4-1.02.58-.14.35-.37.89-.46,1.13-.34.96-.67,1.91-.99,2.85,0,.02,0,.03,0,.04-.21.61-.04,1.18-.04,1.18,0,0-.85-.17-1.29-.29-.45-.11-1.12-.59-1.12-.59.11-.1.24-.42.34-.63.4-1.42.79-3.19,1.12-4.68.03-.21.03-.82-.6-1.08-.74-.28-1.49-.56-2.21-.86-.65-.2-.93.34-1.04.65-.29,1.34-.63,2.95-.86,4.12-.1.81.28,1.38.28,1.38-.34-.08-1.04-.38-1.59-.61-.37-.16-1.18-.69-1.18-.69.42-.03.65-.92.65-.92.46-.96.77-1.79,1.13-2.7,0-.04.03-.08.04-.12,0-.03.02-.04.03-.09.35-.96-.31-1.47-.42-1.55-.97-.48-2.06-1.05-2.07-1.05-.55-.29-.92.1-1.04.48-.38,1.08-.98,2.07-1.18,3.26-.1.67-.04,1.14-.04,1.14-1.31-.62-1.8-1.62-1.8-1.62.31-.37.73-1.7.74-2.94,0-1.25.09-2.4-.49-2.82-.58-.41-1.55.63-2.05,1.37-.49.73-.61,1.17-.61,1.17h0v.1c-2.33-4.06-2.01-9.96-2.33-11.04-.32-1.08-1.69-2.52-1.69-2.52-.03-.21-.03-.49-.03-.84.03-2.26.66-6.93.74-7.59,0-.05,0-.08,0-.08-.73-.43-3.08-1.56-3.08-1.56Zm31.19-58.66c-19.94.09-25.61,14.92-26.45,18.32-.89,3.61-.88,8.2-1.09,10.27,0,0,3.83-.54,7.41-2.04,1.94-.8,3.8-1.82,5.23-3.2-.33.38-5.71,6.5-11.46,7.15,0,0-1.26,5.54-2.8,8.34-1.52,2.81-4.5,4.73-4.5,4.73,0,0-.22,2.2-.22,4.43,0,.89.03,1.79.12,2.54.05.38.12.73.2,1.02.68,2.35.76,3.84,5.85,6.08,1.74.76,3.46,1.57,5.11,2.51,2.47,1.4,5.14,3.05,6.16,5.86,0,.03,0,.05.03.08.28.71.3,1.59.11,2.32,0-.1-.04-.22-.1-.35-.22-.44-.61-.76-.86-1.18,0,0,0-.02-.03-.03-.55-.63-1.15-1.21-1.85-1.69h0v.03l-.02-.03s-.54,1.88-1.37,3.26c-.48.8-.99,1.68-1.52,2.89,0,.02,0,.03-.02.05-1.05,2.71.17,5.59.46,5.6.34.03,1.05-.3,2.41-4.12.03-.09.1-.27.15-.47.03-.18-.03-.51-.1-.78,0,0,0-.02.02-.04.16-.62.96-.57,1.46-.51.17.02.35.04.51.09.08.02.15.03.21.05.52.18.8.54.8.73,0,0-.28.17-.48.49-.2.32-.54,1.14-.64,1.37-.35.86-.6,1.55-.89,2.4-.02.03-.02.05-.02.08-.24.72.37,1.03.52,1.09h.03s.09.05.1.05c.67.12,1.38.27,2.13.42,0,0,1,.18,1.33-.71.32-.94.6-1.72.95-2.66.02-.05.04-.11.07-.16h0s.03-.07.03-.07c0,0,.22-.65.31-1.04.09-.36.47-.99.81-.99.36,0,.86.17.8.91s-.2,1.22-.22,1.31c0,.03-.02.08-.02.1-.33,1.16-.99,3.6-.99,3.6-.32.93.7,1.23.7,1.23.62.17,1.56.32,2.21.52.04,0,.08.02.13.03,0,0,.78.25,1.05.15.29-.1.47-.54.52-.67.04-.14,1.08-3.76,1.19-4.15.08-.29.04-.88-.11-1.22.05,0,.99.17,1.52.35.44.16,1.03.39,1.32.61-.45.22-.74.97-.77,1.07,0,.02-.02.03-.02.03-.07.24-.16.48-.22.71-.33.99-.76,2.27-1.1,3.27-.05.27-.1.93.67,1.23h0l.12.04c.65.24,1.47.54,2.08.78,0,0,.2.08.45.08.3,0,.68-.11.85-.63.16-.48.51-1.53.82-2.49.3-.95.58-1.82.59-1.92,0-.18.22-.52.35-.63.35-.03.61.03.86.15.29.14.61.49.74.62-.19.33-.49,1.17-.57,1.63-.06.39-.52,2.06-.73,2.84-.03.06-.04.15-.07.22-.02.03,0,.05-.02.09,0,.03-.02.04,0,.06-.12.8.66,1.21.66,1.21.69.33,1.36.65,1.96.95,0,0,.09.03.09.03,0,0,.83.27,1.11-.55,0-.03.03-.05.03-.06.28-.86.49-1.58.73-2.46.06-.24.13-.48.19-.73.02-.03.03-.1.03-.19.02-.06.14-.49.17-.76.03-.14.03-.27.02-.36,0,0,.46.18.99.42,0,0,1.05.48,1.26.59.18.1.48.22.59.41.26.36.33.51.33.51h0l-.75.12c-.14,0-.76.22-.76.41-1.21,3.87-.84,4.56-.55,4.74.24.16,2.94-1.38,3.74-4.18,0-.03.45-2.36.55-3.29.16-1.5.79-3.2.86-3.41h-.02l.02-.02c-2.74-.13-4.27.95-4.27.95.17-.42.42-.77.69-1.09.02-.02.03-.02.03-.03,2.02-2.33,5.7-2.24,8.47-1.88,2.17.27,4.32.73,6.45,1.24,5.43,1.28,6.38.15,8.34-1.32,1.69-1.26,3.06-3.21,4.08-5.02.02-.03.04-.06.06-.1.45-.69.76-1.19.76-1.19,0,0-1.23-3.33-.75-6.49.48-3.16,2.81-8.35,2.81-8.35-4.32-4.1-4.82-12.62-4.82-12.62.27,1.73.97,3.46,1.88,5.08,1.38,2.5,3.23,4.73,4.59,6.23,1.17-1.89,3.83-5.21,5.17-8.58,1.48-3.74,7.16-23.33-18.62-35.73h0l-1-.42c-.55-.27-1.09-.51-1.6-.74-.52-.23-1.01-.44-1.48-.62-.35-.15-.69-.28-1.01-.4-.25-.1-.48-.18-.7-.27-.77-.29-1.41-.49-1.88-.64-.1-.03-.18-.06-.28-.1-.95-.3-4.59-1.4-9.13-2.34h0l-.12-.03c-.8-.16-1.63-.33-2.49-.48-2.38-.34-4.59-.48-6.66-.48Zm-1.56,55.49c.38-1.14,1.67-1.77,2.94-1.45.08.02.15.03.22.06.08.03.16.06.24.09,1.19.52,1.83,1.79,1.45,2.93-.47,1.41-.39,2.59-.3,3.81.06,2.36,1.14,3.02.66,4.48h0l-.49,1.43c-.27.83-1.04,1.35-1.91,1.48-.41.05-.84.05-1.27-.09-1.34-.45-2.09-1.82-1.68-3.03.07-.21-.05-.43-.27-.51-.22-.07-.44.04-.51.24-.41,1.23-1.83,1.86-3.18,1.41-.43-.15-.78-.41-1.07-.71-.61-.63-.9-1.5-.62-2.32h0l.48-1.43c.48-1.46,1.75-1.33,3.23-3.18.8-.92,1.6-1.8,2.08-3.22Zm10.93-7.38s.03.04.05.07c.13.19.73,1.03,1.66,1.92h0c.16.16.34.32.52.48,0,0,.03.02.03.03.68.56,1.47,1.08,2.39,1.38,2.79.94,6.86.28,11.23-.52.38-.06.75-.11,1.12-.16,3.92-.45,7.36.42,7.36.42h0v.03s-.07,0-.07,0c-.11.02-.22.03-.35.05-1.11.39-1.68,3.01-1.68,3.01-.22.79-.49,1.56-.81,2.31-.73,1.69-1.75,3.35-3.04,4.69-.97,1.01-2.03,1.51-3.22,2.18h0s-.68.2-1.04.24c-2.68.33-8.32-.54-11.02-2.39-.03,0-.04-.02-.06-.03h0c-2.72-1.62-3.26-7.8-3.27-9.4,0-1.59.18-4.26.19-4.31Zm-32.02-15.29c.2.08,3.34,1.45,6.1,4.09.28.26.55.53.81.8,3.01,3.27,5.85,6.26,8.65,7.19.91.3,1.87.37,2.74.33,0,0,.03,0,.04,0,.24,0,.47-.03.7-.05h0c1.44-.18,2.58-.56,2.58-.56,0,0-1.49,2.27-2.46,3.54-.98,1.28-5.13,5.88-8.26,5.53-.03,0-.05-.02-.08-.02-3.28-.16-8.3-2.87-10.24-4.75-.26-.26-.66-.82-.66-.82-.06.05-.12.1-.19.14.07-.04.13-.1.19-.15.03-.03-.62-1.18-.67-1.26-1.04-2.51-.8-5.63-.15-8.14.19-.73.42-1.46.7-2.17,0,0,1.12-2.43.48-3.41-.08-.09-.17-.17-.24-.25h-.02s0-.03-.03-.04Z"/>
  <path class="cls-4" d="m247.08,210.01c-6.89,4.34-22.26,8.36-37.06,3.39-14.53-4.88-24.18-17.3-27.28-24.86-.36-.79-.46-2.9,1.67-3.89,0,0-1.34.19-2.55,1.18,0,0-.11.16-.22.48-1.63,4.85,8.22,25.5,26.81,31.74,18.6,6.24,38.72-3.73,40.54-9.14.12-.39.15-.71.15-.71-.42-1.32-1.23-2.15-1.23-2.15,1.03,1.95-.03,3.38-.83,3.95"/>
  <path class="cls-5" d="m233,196.75c-.01.23-.02.47-.04.7-.61-.31-1.23-.62-1.86-.93-.23,1.41-.58,2.8-1.05,4.16-.93-.54-1.88-1.06-2.84-1.56.42-1.31.75-2.63,1-3.96-1.02-.47-2.07-.92-3.14-1.37-.28,1.26-.62,2.53-1.02,3.78-.98-.45-1.97-.89-2.97-1.3.39-1.22.74-2.44,1.06-3.66-1.05-.4-2.11-.79-3.19-1.17-.37,1.18-.75,2.37-1.14,3.57-1.02-.36-2.03-.71-3.06-1.03.41-1.19.82-2.38,1.24-3.54-1.09-.35-2.17-.67-3.25-.98-.48,1.16-.93,2.34-1.36,3.55-1.04-.28-2.09-.53-3.15-.76.44-1.23.93-2.44,1.46-3.61-1.12-.28-2.24-.55-3.34-.79-.6,1.21-1.12,2.45-1.57,3.74-1.06-.18-2.14-.34-3.21-.47.44-1.35,1-2.66,1.66-3.91-.69-.13-1.38-.26-2.05-.37.15-.22.3-.44.45-.66-6.31-1.13-12.05-1.59-16.68-1.63,3.84-.85,10.41-1.25,18.14-.33.06-.07.12-.15.18-.22.59.07,1.18.15,1.78.23.53-.77,1.1-1.52,1.69-2.24,1,.13,1.98.28,2.93.44-.54.75-1.06,1.51-1.56,2.3,1.06.19,2.13.41,3.22.66.44-.81.9-1.6,1.38-2.38.91.2,1.81.41,2.69.63-.41.8-.8,1.62-1.19,2.46,1.01.27,2.03.56,3.05.88.32-.86.65-1.7.97-2.53.86.27,1.71.55,2.55.86-.24.86-.5,1.72-.76,2.6,1.01.36,2,.74,2.97,1.13.19-.89.37-1.78.53-2.66.85.35,1.69.72,2.53,1.12-.09.9-.2,1.8-.33,2.7,1.01.45,2,.92,2.96,1.4.08-.91.12-1.82.14-2.73.86.45,1.73.92,2.61,1.42.04.91.04,1.83,0,2.74.53.29,1.05.58,1.56.87,0,.14,0,.29.01.43,6.53,3.83,11.39,7.95,13.87,10.9-3.63-2.68-8.35-5.65-13.89-8.48Zm-10.82-19.57c-17.13-5.75-35.73,2.75-39.81,7.91-.17.21-.32.43-.45.66-.01.02-.03.07-.05.09,1.21-.99,2.55-1.18,2.55-1.18-2.12.98-2.03,3.1-1.67,3.89,3.09,7.56,12.75,19.98,27.28,24.86,14.8,4.97,30.18.95,37.06-3.39.8-.57,1.86-2,.83-3.95,0,0,.81.82,1.23,2.15.18-1.29-.1-3.11-.82-5.24-2.76-8.21-11.96-21.03-26.15-25.8h0Z"/>
</svg>