<?xml version="1.0" encoding="UTF-8"?>
<svg id="Layer" xmlns="http://www.w3.org/2000/svg" viewBox="0 0 420 419.16">
  <defs>
    <style>
      .cls-1 {
        fill: #5a1414;
      }

      .cls-1, .cls-2 {
        stroke-width: 0px;
      }

      .cls-2 {
        fill: #ffb612;
      }
    </style>
  </defs>
  <path class="cls-2" d="m286.79,0l13.43,41.16-9.99,30.59L266.91,0h-104.53l-18.75,57.51L124.96,0H0l39.25,63.74,53.77,165.18h101.19l20.34-62.44,20.28,62.44h110.7L420,0h-133.21ZM53.23,57.27L27.36,15.28h86.5l21.73,66.94-37.12,114.02L53.23,57.27Zm129.83,156.72h-74.28L169.44,27.62l37.08,114.16-23.47,72.2Zm-1.57-198.71h74.32l26.43,81.19-37.2,114.29L181.49,15.28Zm152.81,198.61h-74.26l56.19-172.63-8.46-25.98h91.14l-64.61,198.61Z"/>
  <path class="cls-1" d="m282.18,96.48l-37.2,114.29L181.49,15.28h74.32l26.38,81.21Zm25.58-81.21l8.42,25.98-56.19,172.63h74.26L398.95,15.28h-91.18Zm-193.91,0H27.36l25.87,41.99,45.32,138.97,37.05-114.03L113.85,15.28Zm-5.08,198.61h74.37l23.47-72.11-37.18-114.16-60.67,186.27Z"/>
</svg>